<svg xmlns="http://www.w3.org/2000/svg" viewBox="0 0 351.96 247.97"><defs><style>svg{transform:scaleX(-1) translateX(-100%);}.cls-1{fill:#1f8394;}.cls-1,.cls-2,.cls-3{fill-rule:evenodd;}.cls-2{fill:#1c4955;}</style></defs><title>nuvem_escura_01</title><g id="Layer_2" data-name="Layer 2"><g id="Layer_1-2" data-name="Layer 1"><path class="cls-1" d="M158,0c1.65.55,3.27,1.24,5,1.63,9.22,2.13,14.81,8.06,17.77,16.8l2.83,8.38c1,.06,2.47.17,3.92.21,7.72.21,13.3,4.08,16.87,10.63,1.11,2,.78,4.84,1.19,7.9l5.41,2.8,2.92,5.81v7.1c3.88.6,7.65.93,11.3,1.79,6.82,1.6,12.71,5,16.58,10.94,3.41,5.23,6,10.95,6.28,17.35.15,3-.06,6,.05,9a11.45,11.45,0,0,1-2.14,7.75,11.33,11.33,0,0,1,4.37,10.82c-.26,2.3.16,4.68-.11,7a33,33,0,0,1-1.53,5.61,23.32,23.32,0,0,0-1.38,7L234,148.42c3.34,2.94,4.13,6.88,4.42,11.18l5.16.93,10.33-5.16a61.53,61.53,0,0,1,2.57-7.84c.71-1.52,2.34-2.6,4-3.51.72-1.81,1.31-3.69,2.18-5.43,2.29-4.57,6.71-6.44,11.17-7.5,6.11-1.44,12.51-1.82,18.6,0a21.53,21.53,0,0,1,14.1,12.78A22.47,22.47,0,0,1,308,155.41c6,2.76,9.93,7.35,11.05,13.6a34.37,34.37,0,0,1,4.93,2.25c2.62,1.77,4.8,3.87,5.25,7.34a43.54,43.54,0,0,0,1.73,6.19,19.64,19.64,0,0,0,3.28.13c7.39-1,11.8,3.16,15.41,8.72.89,1.36,1.54,2.88,2.29,4.32v11a9.92,9.92,0,0,0-.92,1.57c-1.86,5.16-5.3,8.53-10.8,9.54-2.73.5-5.48.9-7.91,1.29-3.34,5.28-6.55,10.22-13.59,10.25-.72,0-1.43.72-2.15,1.08-1.16.59-2.29,1.22-3.49,1.73-5.53,2.35-11.23,1.69-17.3.86-3,4.13-7.48,5.91-12.6,6.44a27.49,27.49,0,0,1-14-1.92c-3.22-1.38-5-3.94-6.64-6.54-6.16,1.28-12,1.6-17.55-1.39a12.31,12.31,0,0,0-1.28,1.07c-6.14,7-20.46,7.1-25.41-.84-.47-.76-1.84-1-3-1.5-2,4-4.37,7.14-8.08,8.93-1.76.85-3.61,1.53-5.44,2.24a27.2,27.2,0,0,1-18.5.29c-4-1.29-7.82-3.37-12.24-5.32-6.36,2.92-13.32,5.51-20.8,3.21a40.36,40.36,0,0,1-16.72,6.51c-2.21.29-4.37,1-6.55,1.5H116a22.57,22.57,0,0,0-3-.9c-4.93-.75-9.94-1.43-13.72-5.06-3.28-3.14-7-6-7.9-10.44-4.12-1.37-8.25-2-11.44-4s-5.3-5.53-7.68-8.15a75.23,75.23,0,0,1-8.92,2.15c-4.76.58-9.82,1.16-14.16-1.12a9.51,9.51,0,0,0-8.93-.44c-4.53,1.92-8.74.7-12.8-1.5-1.31-.71-2.54-1.56-3.75-2.31-1.25,0-2.42.1-3.56,0-8-.8-16.53-5.44-17.1-16.56-.11-2.09-.78-3.89-3-4.64v-9l5.16-5.81c.24-2.53.31-4.27.6-6A28.36,28.36,0,0,1,7,169.43c2.1-5.87,5.11-11,11.25-13.55a49.63,49.63,0,0,0,4.68-2.55c-.86-6.87,0-13,5.33-17.45,5.06-4.24,11.27-5.11,17.87-5.23,1.58-5.25,5.63-8,10.23-10.33l-.51-6.68c-1.86-3.5-3.78-6.1-4.7-9C48.65,96.8,46.48,88.86,48,80.46c1.38-7.45,3.23-14.67,7.91-20.89a20.27,20.27,0,0,0,3.19-6,31.85,31.85,0,0,1,13.92-17.4c3.33-2.07,7.19-3.28,10.58-5.27,3.82-2.24,8.13-2.77,12.23-3.66,4.73-1,9.72-2,14.64-.22A7.57,7.57,0,0,0,113,27c.71-1.09,1.66-2,1.89-3A25.66,25.66,0,0,1,126.09,8c4.06-2.76,8.16-5.55,13.31-6.17A66.78,66.78,0,0,0,147,0ZM130.91,175.07l-1-1-1-1c-.17-1,.77-2.46-1-3l-1-1,.52-3.89c-1.57,1.2-2.17,2.42-.39,3.76l1,1c.15,1-.82,2.48,1,3l1,1,1,1,.11.22Zm-28-40c.06-.86.4-1.86-1-2.06l-.16-2.79h-.57l-.14,2.81H98.92c-.1-2,.25-4.11-.41-5.86-1.43-3.77,1-6.72,1.51-10.09.19,3.52-.58,7,.62,10.54-.47-7.07,2.8-13,5.65-19.31l3.17-1.32c-5.68,5.76-6.41,13.17-6.17,20.15.26,7.64,4.7,13.83,11.56,18.68l2.62.37c1.08,4.15,4.65,6,7.18,8.89h13.81a35.87,35.87,0,0,0-3.84,1.63,7.15,7.15,0,0,1-7,.33c-1.73-.74-3.8-.69-5.71-1l-1-1-5.11-7.15-3.14-1c1.76,4.55,3.95,7.47,8.38,8l1,1a18,18,0,0,0,15.34,3.39c2.83-.67,5.76-.87,8.65-1.28l-.14-.15c-.72.57-1.35,1.41-2.17,1.66-3,.89-6,1.66-9,2.31a8,8,0,0,1-3.48,0c-5.74-1.39-11.4-3-15.57-7.65a7.78,7.78,0,0,0-2.21-1.22,17.09,17.09,0,0,0,8.43,7.39c3.52,1.45,7.22,2.47,11.71,4l-4.55,1c.3,5.89,1.87,7.49,10,10.48l6.79-2.58c-2.12,3.68-6.47,4.58-10.07,3.42L131,179.06c-1.13,3,2,5,2.35,7.47l3.81,2.67h8.73c-.23,1-.4,1.77-.56,2.51,3.25,4.46,7.64,3.46,12,2.24.24.71.42,1.15.53,1.61.81,3.34,5.47,6.61,8.32,5.19,4.44-2.21,9.55-3.6,12.23-8.56.59-1.09,2.34-1.55,3.56-2.3l1.19,4H185V196l6.66-.36.63,2,4,1.36c3.36-.53,4.93-2.57,5.64-5.53.13-.52.65-.95,1-1.42l-.14-.15v8.4c1,1.22,1.42,2.64,2.18,3.82a36.7,36.7,0,0,0,4.09,5.41,1.66,1.66,0,0,0,2.69-.24c-2.37-3.27-4.63-6.29-6.76-9.39-.31-.45-.06-1.29-.06-2l-.16.13c.55.32,1.44.53,1.58,1,.83,2.59,2.89,3.38,5.2,4a5.45,5.45,0,0,1,1.67.92c.15.1.11.47.21,1l-4.36-.57c3.74,4.1,7.9,5.29,12.46,6.88,2.83-5.79.45-11.87,1.46-16.88,1.2-1.83,2-3.2,3-4.4.42-.51,1.3-.65,2-1l-.14-.15c-.54,1.13-1,2.31-1.65,3.39-2.39,4.09-1.61,11.16,1.8,13.86a51.55,51.55,0,0,0,6.21,3.6l-7.65.47,3.44,7.28c5.25,2.77,10,5.65,15,.21a20.1,20.1,0,0,0-2.31-2.48,14.09,14.09,0,0,1-5.37-9.61c-.55-4-1.18-8,1.71-11.55l-.15-.15v10.74l2.68,5c1.9.64,3.35,3.83,6.38,1.63l-3.08-5.67c2.16,1.2,3.33,3.13,4.93,4.56,1.43,1.28,2.2,4.05,5.36,3.18-7.55-6.74-9.41-11.49-7.2-19.93,0,3,0,4.76,0,6.56,0,1.48.49,2.58,2.08,2.88,1.29,4.19,4.32,7.17,7.56,7.54-2-2.4-4.11-4.91-6.27-7.33-.22-.25-.94-.06-1.43-.08-.16-2.93.8-6-.77-8.79a3.4,3.4,0,0,1-.08-2c.43-2.9.92-5.8,1.48-9.29l2.31-2.09c0,1.17.24,1.95,0,2.43-2.1,3.63-2,7.59-1.85,11.54.13,5,1.05,6.49,6.28,9.76L256,202.15c-1-2.06-2.55-4-2.87-6.21a28.2,28.2,0,0,1,3.21-17.62c.56-1.05,1.48-2.64,4-1.82-4.15,4-3.54,8.84-3.37,13.56a37,37,0,0,0,2.9,4.54c1.89,2.22,3.67,5.16,6.14,6.12,3.76,1.47,7.84,3.65,12.26,1.37.87-.45,2.18-.07,3.58-.07v7c4,4.22,8.38,5.94,13.91,4.33a13.37,13.37,0,0,0,12.51,4.46l2.45-1.77c4.12-.34,8.22.82,12-2.08.42,5.91-3.32,8.46-7.45,10.65,1.08,1.84,2.75,1.47,4.14,1.3,3.38-.42,6.72-1.1,9.43-3.75a4.6,4.6,0,0,1,2.86-5.1c6,2.58,14.23-1.45,17.07-8.31,2.58-6.23.66-11.95-3.52-16.95a16.53,16.53,0,0,0-10.93-5.72l-8.46,3.8c1.14,1.91,1.16,3.09-.86,3.84-1.78-3.62-4.33-6.21-8.47-6.69l-4.31,2.51-.39-.45,2-3-2.89-6.2-.15.15c.68.28,1.66.37,2,.88,1,1.61,1.84,3.38,2.7,5,3.8-.19,7.1.44,9.92,2.73l2.73-4.17-3.57-9.65c-2.84-1.44-4.92-3.38-8.22-2.33l-.69-6.33-5.54-6.8-4.69-1.11c-.55-2.33-1.19-4.39-.56-6.67,1.23-4.48-2-7.68-3.41-11.42-4.88-3.91-9.76-7.74-16.59-7.31-2.65.17-5.32,0-7.68,0-1.78.74-3.24,1.5-4.8,2-4.5,1.34-7.64,3.89-8.58,8.75-.21,1.07-.89,2.86-1.47,2.9-3.41.26-3.51,3.62-5.68,5.29v7.07c-4.53-.52-7.62,2.19-11.44,3.87-.48,3.4-4.28,5.79-2.9,10.35l2.65-4.09-.15-.14v7.22c2.35-2.57,3.26-5.63,7-6.16-1.6,2.16-2.78,4-4.25,5.64-2,2.16-2.5,4.1-.25,6.42.5.51.32,1.69.45,2.56l-.63.22-2.67-4.48-7.64,2.53.15.14,1.85-3.12,5.82-1.12c-2.21-.67-4.59-1.86-5.7,1.26l-2.09-.14.14.15a4.81,4.81,0,0,1,4-3.19c1.19-.22,2.54-1.08,1.13-3.17l-6,3.9c0-3.17,3.23-3.06,4.43-4.85-.38-3.52,1.89-7.3-1.3-11L234,167.91c.15,8.69-2.59,16-8.79,20.3l-12.58,3c-2.89-3.71-6.5-4.37-10.43-4.29a19.74,19.74,0,0,1-5.91-.38,44.7,44.7,0,0,1-9.49-3.77c-2.15-1.23-4.64-2.73-4.78-5.85l-.15.14c2.1,1.52,4.17,3.1,6.32,4.56s4.43,1.91,6.9.38c1.93-1.19,4-2.08,6.27-3.19,2.1,3.71,5.14,5,9.42,3.84L213,180c.42.4.86.63.84.82-.24,3.24,1.79,4.82,4.38,5.82,2.95,1.14,5.49.15,7.66-2,1.76-1.73,3.56-3.38,4.19-6a18.85,18.85,0,0,1,1.9-3.84v-9c-.7-.73-1.34-1.4-2-2.09s-1.26-1.39-2.4-2.63c3.55,1,3.55,1,6.5,4,.65-2.44,2-4.77,1.58-6.64-.84-3.39-.88-7.49-4.76-9.55h-11c-2.46,2.13-5.53,2.61-8.61,2.94a15.82,15.82,0,0,1-9.5-1.92c-3-1.61-3.5-4.94-5.49-7-14.11,3.74-24.65-5.83-21.8-19.55.61,13.62,6.76,22.06,23.67,16.64,2.32,2.78,2.81,7,7.27,8.26a16.32,16.32,0,0,0,11.57-.94l-1-4.74,3.94,3.28c10.78.32,10.78.32,12.42-1.7-8.8,1.12-8.8,1.12-14.34-3.16l-9.79,1.14L202,137.9H184.29l-2.24-3-.15.15c1.66.46,3.35.83,5,1.41,2.54.9,2.92.84,5.2-1.57l-.14.15c3.95,1.78,7.62.74,11.22-1.08,1.08-.54,2.1-1.6,3.46-.49l-3.9,2.36c3.72,3.73,7.84,4.94,12,4.06l4.35-3.83-.14-.14v3.34c2.89,3.68,6.59,4.23,10.64,3.45,2.19-.42,4.32-1.11,6.48-1.67l-.14-.14-.65,2.53c3.63-2.33,6.9-3.92,8.36-7.56,2.21-5.51,3.77-11.07,3.52-17.17-.17-4.06-.63-7.44-5.53-8.56l1.64-2.87A18.48,18.48,0,0,0,245.83,95a53.59,53.59,0,0,0-4.77-15.72c-4-8-10.93-12.12-19-14.12-4.16-1-9-1.09-13,2.42,1.68-6.25,4-12.28-1.49-17.48l-4.53-.33c-.36-1.77-1.08-3.5-1-5.19a12.25,12.25,0,0,0-5.54-11.45c-4.94-3.3-10.21-6.27-16.32-2.31-.16.1-.56-.19-.84-.29l.71-5.89c-1.22-2.61-2.46-4.43-2.93-6.43-.87-3.72-3.11-6.31-5.92-8.58-2-1.64-4.12-3.22-6.18-4.82-2.78,0-5.28-.85-7.84-1.15-3.24-.38-6.73-1.07-9.74-.25A34,34,0,0,1,136.85,5L122.66,13.9l-5.78,10.64c0,2.55,0,5.55,0,8.54,0,.3-.62.58-1,.94L114,30.48a37.31,37.31,0,0,0-5.67-1.31,27.31,27.31,0,0,0-7.9.17,143.38,143.38,0,0,0-16.35,4.74c-10,3.63-17.79,9.8-21.73,20.08a43.72,43.72,0,0,1-2.39,5.31c-1.78,3.26-4.33,6.26-5.39,9.73-1.13,3.67-2.82,7.28-2.66,11.4.18,4.67-.32,9.35,0,14,.28,3.68,1.74,6.85,3.38,10.72l3-3.79a23.18,23.18,0,0,1,1.46-31.12c.22-3.61.23-3.6,2.81-7.83a3.45,3.45,0,0,0,.35-.9c.69-2.52,1-5.2,2.13-7.52,1.22-2.6,1.78-5.82,4.94-7.13l-.15-.15c.83,3.19-2.69,4.7-2.89,7.63l.78,2.58c-.76,2.54-2,4.38-1.6,5.78.78,2.85,2.43,5.45,3.73,8.16l.14-.14-3.17.76-4-7.37c-2,5.35-.44,9.37,1.49,13.53l-4.29-4.65c-1.82,2.87-3.29,5.76-3.17,9.47s.66,7.24-.54,11l2.94,3.77C61,93.22,63.14,90,67.94,89.84c-.06-5.53.19-10.71,4.13-14.75l-.15-.14,1.61,1.53c-2.36,6.18-3.38,12.46-.8,19.86l3.34,1.75L75.93,98c0,3.38,1.53,6.18,3.19,9.08l-4.21-3-1-1V99.18l-3-2.1c-.12-1.09.77-2.49-1-3.07v-5.7c-.65,1.91-2.16,4,.13,5.58.11,1.09-.82,2.5,1,3.07,1,2,0,5,3,6l1,1a15.83,15.83,0,0,0,1.29,2.85c.72,1,2,1.7,1.56,3.25l.14-.14c-6.28-4.27-9.46-10.38-10.44-17.77-3.38,1.2-3.35,1.22-4.93,3.51A20.16,20.16,0,0,0,59,107.09c0,3.66,0,7.33,0,11,1.1,6,6.21,7.46,11.08,9.64.62-1,1.61-2,1.88-3.2.43-1.9,1.59-1.76,3.19-2.12-3.6,7.52-2.59,12.06,3.55,17.46,4.28.34,8.6,1.1,12.93-.25l1-2.59c1.75,2.9,2.75,6,4.91,7.71,2,1.53,3.57,4.76,7.33,3.93-3.52-2.51-5.12-4.08-6-5.76l1.84.7.41-.68L98.92,141c-.38-1.87-.76-3.73-1.13-5.6-.32-1.66-.62-3.33-1.14-6.13l2.4,3.61c0,1.94-.78,4.19,2,5l2,6.08-.24.11.1-.24c.85.36,1.69.75,2.55,1.09s1.7.62,2.55.93l1.3.88.3-.75H107.9a52.92,52.92,0,0,0-7-8q0-2.58,0-5.17l1.15,0,1,2.06.35,1.67.62-.37Zm-52,16v-2.81c-.57,1-1.73,2.14.14,2.69l.19,3.2C52.15,152.63,52.65,151.6,50.92,151.07ZM77,143.92l1.3.88.3-.75H76.9l-1.36-1.76-.6.79Zm25.88,23.14-.28-1.73-.64.33,1.05,1.28,1,2.11-1.9.1.88,1.88-1.72-.24-.64-4.46-7.89-1.84-1.75-4.24c-7.57-.67-11.38-4.86-11.36-12.17l-7.93-4.86c-1-3-2-6.1-3.21-9.08-1.41-3.37-5.45-4-7.58-6.64-.18-.23-.56-.3-.93-.49a10,10,0,0,0-5.75,5.52c-1.17,3.33-3,6.63-2.35,10.43.4,2.41.63,4.85,1,7.26a21.13,21.13,0,0,0,10.59,15.61c.76.44,1.55.82,2.32,1.23l.13-.15c-1.93.08-3.86.31-5.28-1.55-.27-.36-1.17-.23-1.79-.33l-2.69-3.61-.19,2.64L54,163a2.37,2.37,0,0,0-2-2.94l-.28-1.73-.64.33,1.05,1.28q0,1,0,2.07l-2.12-.94v-2.81c-.56,1-1.73,2.14.14,2.69a5.35,5.35,0,0,0,0,2c2.18,5.2,5.18,9.8,9.91,13.11a26.22,26.22,0,0,1,3.11,3c-5.34-1.4-8.75-5.09-11.28-9.71-1.46-2.66-2.68-5.45-4-8.18l-.75.15V165c-3.46-5.21-3.52-11-2.58-16.84.58-3.57.77-9.58-.2-13.08H39.56c-3.14,3-7,4.62-7.92,9.72-.87,4.64-.15,8.7.76,13.2l5.5,5-4.32,2.37-4.67,4.7c-.78-2.92,3.18-3.79,2.84-7l-4.82,3v-2.78l-.68-.13-1.18,3.92-1.92.13v4.57l1.92-.84c.25,2.62-1.17,5.55,2,8.39,0-2.39.06-4.14,0-5.87s.41-2.9,2-3.51c0,2.5.14,5-.11,7.49A12.44,12.44,0,0,0,32,187c1.11,1.35,3.62,2.91,7.23,5.12,3.88,2.38,7.33,2.19,10.82-.51.16-.13.48,0,1-.09l-1.1,4.4,3.6,7.22c7.2,3.76,12.38,3.72,16.42-.11l-5.26-11.11v-8c-1.31,0-2.29,0-3.26,0a16.56,16.56,0,0,1-11.69-4.07c-2.54-2.15-3.6-5.2-4.68-8.17-.84-2.31.91-4,1.85-5.85.13-.26,0-.65,0-1,1,1.72,2,3.45,3.11,5.16,2.14,3.42,4.27,6.84,8.14,8.64A9.38,9.38,0,0,1,59.91,180l.14-.14L56,180a42.66,42.66,0,0,0-4.4-4.92c-1.64-1.37-1.61-4.3-5.14-4.75l6,9.54h3.64c.51,2.89,3.57,1.54,4.75,3.15l4.41-1.94-2.3-2.19c1.87.26,2.31-.66,2.06-1.72-3.63-3.18-6.91-6-10.15-8.91a8.25,8.25,0,0,1-2.94-6.42l2.18,1A2.43,2.43,0,0,0,56,166c0,.49-.16,1.23.09,1.42,3.14,2.46,5.29,6.25,9.66,7.3l.93-1.16c-2.85-2.22-5.47-4.34-8.19-6.34a11.84,11.84,0,0,0-2.63-1.1q0-1.08,0-2.15l3.14,1c1,1.24,1.89,3.28,3.13,3.55,2.72.59,4.06,2.66,6,4.12.32.25.87.2,1.6.35l.3-3L70,170c1.44-1.9,2.83-3.84,4.36-5.67A8.3,8.3,0,0,1,76.39,163l.54.53-4.26,7.94,4-1.62,4,1.71c-1.59.81-4.35-.29-4.51,3l4,.9-6.33,1.21,3.75,1.76L75.47,180a29,29,0,0,0,5.47,14l.15-.15c-2.78.24-3.49-2-4.5-3.81-.82-1.48-1.65-2.94-2.52-4.51C74,180,74,180,72.11,178.47,70.87,187.75,75,195,82,199.72c5.87,3.91,13.08,3.36,19.67-.62,2.56,3.33,5.86,4.7,10.12,3.56.93-1.15,2.73-1.92,2-4.15a15.47,15.47,0,0,1-7.75-10.58l-.15.14,2.15.84a9.39,9.39,0,0,0,1,2.59c3.33,4.24,7.95,6.59,13.27,8.44,5.27.1,5.27.1,7.59-1.72-1.18-.1-2.11-.21-3-.26-6.92-.41-13-2.44-17.18-8.49-.26-.37-1.17-.3-1.78-.43a8.18,8.18,0,0,0-.32-2.83A24.63,24.63,0,0,1,105,173.82l-2.07-2.93h2.92l-1.89-2,1.73-.09.18-.79ZM106,140.91l.11.24-.24-.1c.17-1.35.05-2.49-2.53-2.45Zm20,32c-.28,2.09,1,2.95,3.06,3.87a4.8,4.8,0,0,0-3.2-3.74l-1.14-5.77C124.16,169.43,122.89,171.84,126.06,172.9Zm-72-43.83c-3.86,3.27-4.81,6.45-3.52,10.84l2.55-8.28.84-2.7c1.25-.54,2.47-1.11,2.51-3C54.59,126.35,53.82,127.31,54.07,129.07Zm16,63.83.28,1.73.64-.33L69.93,193c-.31-2.73-.6-5.46-.92-8.19s.67-5.37-1.08-7.79c.46,4-.3,7.93.13,11.84C68.22,190.28,69.37,191.56,70.07,192.89ZM104.73,152a64,64,0,0,1-5.79-3.67c-2-1.54-3.71-3.42-5.25-4.88l-9.62,3.21c-.17,3.23-.49,6.47,2.2,9.14s6,2.6,10.07,1L92.72,161l2.63,2.82h5.44l.48-5.51c1.1,4.58,3.18,7.12,6.69,8.38,0,3.44-.1,6.77,0,10.09a9.62,9.62,0,0,0,1,4.21c2,3.58,4.31,6.95,8.59,8.33a39.64,39.64,0,0,1,5.47,2.76l5.36-2.71V179.11l-5-4.64-2.3-9.51h-9.56C105.4,159,105.35,158.88,104.73,152Zm11.47,48.64c-1.61,2.73-2.38,4.8-3.79,6.22s-3.5,2.24-5.65,3.53c1.59,1.77,2.66,3.85,4.32,4.61,3,1.35,6.33,1.91,9.27,2.73l6.42-2.25c-3-3.66-5.67-7.13-3.76-12.54Zm22.74,3.53c-4-.77-7.59-4-11.4-.94l-.39,3.06c1.42,3.19,4.12,4.92,8.12,5.14L131.81,215a9.23,9.23,0,0,0,15.29,1.64C142.82,213.59,138.56,210.41,138.93,204.18Zm-28.15-51.46c-1.86,2.94.47,4.8.4,6.78,2.86,1.47,5.43,2.83,8,4.13,1.56.78,2.71.34,3.54-1.25C117.49,160.74,114.21,156.92,110.78,152.71ZM201,201h-8.11c-1.84-2.31-3.67-3.83-7-2.37,2.75,1.5,5,3.12,7.55,4A6.76,6.76,0,0,0,201,201Zm-72.6,11.85c-3.26-2.6-2.46-6.54-3.42-9.82-2,3.7-.37,6.73,1.59,9.82Zm72-31.45-5,2.83c3.2,1.16,5.73.72,8.75.56Zm13.45,7.24c.22-1.88-1.37-2.59-2.68-3.74l-3.85.32Zm-32.44,4.62c-.11,3.08-.11,3.08,3.55,4.61Zm-131.64-51-.45,0v3.21l.66,0Q49.87,143.88,49.76,142.28ZM75,176.22c-1.37-.73-1.79-1.14-2.09-1.07a1.18,1.18,0,0,0-.7.95,1.28,1.28,0,0,0,1,.73C73.55,176.86,74,176.56,75,176.22Zm-6.4-3.53a8.57,8.57,0,0,0-.42,2.12c0,.37.45.7.69,1,.35-.25.9-.44,1-.76S69.47,174.38,68.56,172.69Zm4.93,1.09.45-.5-1.26-1.19-.48.52Zm51.19-9.58h-.4v1.55h.4Zm88.52,46.07v.4h1.55v-.4ZM106.47,149.1v.72c.12-.11.32-.21.33-.32S106.61,149.26,106.47,149.1Zm-36-14.28.36-.32c-.11-.12-.21-.33-.32-.33s-.24.19-.35.29Z"/><path class="cls-2" d="M70,47.05c-3.16,1.31-3.72,4.54-4.94,7.13-1.09,2.33-1.44,5-2.13,7.52a3.45,3.45,0,0,1-.35.9C60,66.83,60,66.83,59.81,70.43a23.18,23.18,0,0,0-1.46,31.12l-3,3.79c-1.64-3.87-3.11-7-3.38-10.72-.36-4.7.15-9.38,0-14-.16-4.12,1.53-7.72,2.66-11.4,1.07-3.46,3.61-6.46,5.39-9.73a43.72,43.72,0,0,0,2.39-5.31c3.94-10.28,11.76-16.45,21.73-20.08a143.38,143.38,0,0,1,16.35-4.74,27.31,27.31,0,0,1,7.9-.17A37.31,37.31,0,0,1,114,30.48L115.8,34c.42-.36,1-.65,1-.94.07-3,0-6,0-8.54l5.78-10.64L136.85,5a34,34,0,0,0,10.64-1.54c3-.82,6.5-.13,9.74.25,2.56.3,5.06,1.14,7.84,1.15,2.06,1.6,4.15,3.18,6.18,4.82,2.81,2.27,5,4.87,5.92,8.58.47,2,1.71,3.82,2.93,6.43l-.71,5.89c.28.1.69.39.84.29,6.11-4,11.37-1,16.32,2.31a12.25,12.25,0,0,1,5.54,11.45c-.09,1.69.63,3.42,1,5.19l4.53.33c5.53,5.2,3.17,11.23,1.49,17.48,4-3.52,8.82-3.46,13-2.42,8.07,2,15,6.12,19,14.12A53.59,53.59,0,0,1,245.83,95a18.48,18.48,0,0,1-2.62,12.25l-1.64,2.87c4.9,1.13,5.36,4.51,5.53,8.56.26,6.1-1.31,11.66-3.52,17.17-1.46,3.64-4.72,5.23-8.36,7.56l.65-2.53,1-1,.51-.72-.37.86-1,1c-2.16.57-4.29,1.25-6.48,1.67-4,.78-7.74.22-10.64-3.45v-3.34l.51-.72-.37.86-4.35,3.83c-4.13.88-8.25-.33-12-4.06l3.9-2.36c-1.36-1.1-2.38-.05-3.46.49-3.6,1.81-7.27,2.86-11.22,1.08L189,129.94l-.82.31,1.21,4.65h2.66c-2.28,2.41-2.66,2.47-5.2,1.57-1.62-.58-3.31-.94-5-1.41-.06-2.68-2.05-3.84-4-5.06.25-4.21-.61-8.47.67-12.7-.7.52-1.49,1.11-1.5,1.72-.05,3.48.07,7,.18,10.44,0,.14.52.27.79.4.11.91,0,2.53.37,2.63,1.52.44,1.48,3.11,3.61,2.41l2.24,3H202l6.28,4.28L218,141c5.53,4.28,5.53,4.28,14.34,3.16-1.64,2-1.64,2-12.42,1.7L216,142.63l1,4.74a16.32,16.32,0,0,1-11.57.94c-4.46-1.24-4.95-5.49-7.27-8.26-16.91,5.42-23.06-3-23.67-16.64-2.85,13.72,7.69,23.29,21.8,19.55,2,2.11,2.52,5.43,5.49,7a15.82,15.82,0,0,0,9.5,1.92c3.07-.32,6.15-.81,8.61-2.94h11c3.88,2.06,3.92,6.16,4.76,9.55.46,1.87-.94,4.2-1.58,6.64-2.95-3-2.95-3-6.5-4,1.13,1.25,1.76,1.95,2.4,2.63s1.28,1.35,2,2.09v9a18.85,18.85,0,0,0-1.9,3.84c-.63,2.6-2.43,4.25-4.19,6-2.16,2.13-4.71,3.11-7.66,2-2.59-1-4.62-2.58-4.38-5.82,0-.2-.42-.42-.84-.82l-2.16,2.7c-4.28,1.16-7.32-.12-9.42-3.84-2.22,1.12-4.34,2-6.27,3.19-2.47,1.53-4.71,1.1-6.9-.38s-4.21-3-6.32-4.56l-1.52-4.55c-.62,2.88.1,3.89,1.67,4.41.14,3.12,2.62,4.62,4.78,5.85a44.7,44.7,0,0,0,9.49,3.77,19.74,19.74,0,0,0,5.91.38c3.94-.08,7.55.58,10.43,4.29l12.58-3c6.19-4.32,8.94-11.62,8.79-20.3l5.31-6.22c3.18,3.74.92,7.53,1.3,11-1.2,1.79-4.45,1.68-4.43,4.85l6-3.9c1.41,2.1.06,3-1.13,3.17a4.81,4.81,0,0,0-4,3.19c-1.14,0-2.33-.14-1.6,2l1.46-2.18L239,180l-.12-.14L237,183a2.5,2.5,0,0,0-2,3l-.51.72.37-.86a2.43,2.43,0,0,0,2-3l7.64-2.53,2.67,4.48.63-.22c-.13-.87,0-2-.45-2.56-2.25-2.32-1.72-4.26.25-6.42,1.47-1.61,2.65-3.49,4.25-5.64-3.74.53-4.64,3.59-7,6.16v-7.22l1-2,9.24-5.57c-4.42-1-6.51,1.9-9.09,3.42V167l-1,2-2.65,4.09c-1.37-4.56,2.42-7,2.9-10.35,3.82-1.68,6.9-4.39,11.44-3.87v-7.07c2.17-1.67,2.28-5,5.68-5.29.58,0,1.26-1.83,1.47-2.9.94-4.85,4.08-7.4,8.58-8.75,1.55-.46,3-1.22,4.8-2,2.36,0,5,.14,7.68,0,6.83-.44,11.71,3.4,16.59,7.31,1.39,3.73,4.64,6.94,3.41,11.42-.62,2.28,0,4.34.56,6.67l4.69,1.11,5.54,6.8.69,6.33c3.3-1.06,5.38.88,8.22,2.33l3.57,9.65-2.73,4.17c-2.82-2.29-6.12-2.92-9.92-2.73-.86-1.65-1.66-3.41-2.7-5-.33-.51-1.31-.6-2-.88.36-2.7-1.57-2-3-2-.13-.27-.26-.77-.39-.77-3.16,0-6.45-1.45-9.44.74l-1,1-1.77.2.29.62,1.34-1,1-1,10.1,0a2.56,2.56,0,0,0,3,2l2.89,6.2-2,3,.39.45,4.31-2.51c4.14.48,6.69,3.07,8.47,6.69,2-.75,2-1.92.86-3.84l8.46-3.8a16.53,16.53,0,0,1,10.93,5.72c4.18,5,6.1,10.72,3.52,16.95-2.83,6.86-11.06,10.89-17.07,8.31a4.6,4.6,0,0,0-2.86,5.1c-2.71,2.65-6.05,3.33-9.43,3.75-1.39.17-3.06.54-4.14-1.3,4.14-2.19,7.88-4.75,7.45-10.65-3.81,2.9-7.9,1.74-12,2.08l-2.45,1.77a13.37,13.37,0,0,1-12.51-4.46c-5.53,1.61-9.89-.12-13.91-4.33v-7c-1.4,0-2.71-.38-3.58.07-4.42,2.29-8.5.1-12.26-1.37-2.47-1-4.25-3.9-6.14-6.12a37.41,37.41,0,0,1-2.91-4.54c-.16-4.72-.78-9.53,3.38-13.56-2.54-.82-3.46.77-4,1.82a28.2,28.2,0,0,0-3.21,17.62c.32,2.16,1.88,4.14,2.87,6.21l1.21,2.49c-5.23-3.27-6.15-4.72-6.28-9.76-.1-4-.25-7.91,1.85-11.54.28-.48,0-1.26,0-2.43L250.53,183c-.56,3.49-1.06,6.39-1.48,9.29a3.4,3.4,0,0,0,.08,2c1.57,2.84.61,5.86.77,8.79l.14-.13c-1.6-.31-2.09-1.41-2.08-2.88,0-1.8,0-3.61,0-6.56-2.21,8.43-.35,13.19,7.2,19.93-3.16.87-3.94-1.9-5.36-3.18-1.6-1.44-2.77-3.36-4.93-4.56l3.08,5.67c-3,2.2-4.48-1-6.38-1.63l-2.68-5V193.91h1.24l3.68-6.11a6.86,6.86,0,0,0-4.76,6.26c-2.89,3.51-2.26,7.57-1.71,11.55a14.09,14.09,0,0,0,5.37,9.61A20.1,20.1,0,0,1,245,217.7c-4.94,5.45-9.73,2.57-15-.21l-3.44-7.28,7.65-.47a51.55,51.55,0,0,1-6.21-3.6c-3.41-2.7-4.19-9.77-1.8-13.86.63-1.08,1.1-2.26,1.65-3.39,1.14,0,2.33.14,1.6-2L228,189c-.67.31-1.55.44-2,1-1,1.19-1.76,2.57-3,4.4-1,5,1.37,11.09-1.46,16.88-4.57-1.59-8.73-2.78-12.46-6.88l4.36.57c-.1-.54-.07-.91-.21-1a5.45,5.45,0,0,0-1.67-.92c-2.31-.59-4.37-1.38-5.2-4-.14-.45-1-.66-1.58-1,.34-1.31,2.18-2.59-.24-4.29-.41,1.64-1.62,2.95.4,4.16,0,.66-.25,1.5.06,2,2.13,3.1,4.38,6.12,6.76,9.39a1.66,1.66,0,0,1-2.69.24,36.7,36.7,0,0,1-4.09-5.41c-.76-1.18-1.15-2.6-2.18-3.82v-8.4l1.83-.16-.2-.67L203,192c-.34.47-.86.89-1,1.42-.72,3-2.29,5-5.64,5.53l-4-1.36-.63-2L185,196v-2.13l-.14.13,2.1-.13,1.43.93.27-.63-1.83-.15v-1.37l-6.54-8.51c-.16,3.16-.16,3.16,1.58,5.85l.13-.14c-1.22.75-3,1.21-3.56,2.3-2.68,5-7.79,6.34-12.23,8.56-2.85,1.42-7.51-1.85-8.32-5.19-.11-.46-.29-.9-.53-1.61-4.4,1.23-8.79,2.23-12-2.24l.56-2.51h-8.73l-3.81-2.67c-.35-2.46-3.48-4.49-2.35-7.47l4.78-2.33c3.6,1.16,8,.26,10.07-3.42l-6.79,2.58c-8.13-3-9.71-4.59-10-10.48l4.55-1c-4.49-1.5-8.19-2.52-11.71-4a17.09,17.09,0,0,1-8.43-7.39,7.78,7.78,0,0,1,2.21,1.22c4.17,4.66,9.83,6.26,15.57,7.65a8,8,0,0,0,3.48,0c3-.65,6-1.42,9-2.31.82-.25,1.45-1.09,2.17-1.66l4-.35c.45,1.32-.45,3.78,2.19,4.35l1,1c0,.16,0,.39.1.47,4.42,3.88,9.74,4.57,15.32,4.26.15,0,.28-.51.41-.78h4.73c-1.59-.66-3.27-1.73-4.6.15-4-.16-8-.36-11.54-2.73-1.25-.83-3-.84-4.57-1.23l-1-1-1.19-6.37a12.34,12.34,0,0,1,2.15,1.68c2.55,3.7,6.65,5.2,10.38,7.1a6,6,0,0,0,4.69-.11c4.37-2.08,8.56-4.55,13-7l-.26-2.26c-7.3,6.63-14.72,6-22.36,1.48-.69-1.95-3.07-3.17-2.41-5.69,2.21.31,2.19-1.29,2.66-2.86-2.05.31-2.66,1.38-2.51,3-3.23,2-6.46,4.06-9.67,6.13-.21.14-.24.57-.36.86-2.89.41-5.82.61-8.65,1.28A18,18,0,0,1,122,155.94l-.13.13c1.92.3,4,.25,5.71,1a7.15,7.15,0,0,0,7-.33,35.87,35.87,0,0,1,3.84-1.63H124.64c-2.53-2.9-6.09-4.74-7.18-8.89l-2.62-.37c-6.86-4.85-11.3-11-11.56-18.68-.24-7,.49-14.39,6.17-20.15l-3.17,1.32c-2.85,6.32-6.12,12.24-5.65,19.31-1.2-3.5-.43-7-.62-10.54-.54,3.37-2.94,6.31-1.51,10.09.66,1.75.3,3.9.41,5.86l.14-.14-2.4-3.61c.52,2.8.82,4.47,1.14,6.13.36,1.87.75,3.73,1.13,5.6l.14-.12L96.94,140a16.84,16.84,0,0,0-2.66-8.33c.91,2.74,0,6.13,2.81,8.19-.3,1.65.54,2.6,2,3.19l-.13-.15c.83,1.67,2.44,3.25,6,5.76-3.76.83-5.35-2.4-7.33-3.93-2.15-1.67-3.16-4.81-4.91-7.71l-1,2.59c-4.32,1.35-8.64.59-12.93.25-6.14-5.4-7.15-9.94-3.55-17.46-1.6.36-2.76.22-3.19,2.12-.27,1.18-1.26,2.19-1.88,3.2-4.88-2.18-10-3.63-11.08-9.64,0-3.66,0-7.33,0-11a20.16,20.16,0,0,1,3.69-11.45c1.58-2.29,1.55-2.31,4.93-3.51,1,7.39,4.16,13.51,10.44,17.77l.72.51L77.9,110c.41-1.54-.85-2.23-1.56-3.25A15.83,15.83,0,0,1,75,104l-.13.13,4.21,3c-1.67-2.9-3.2-5.7-3.19-9.08l.93-1.43-.63-.27-.15,1.83-3.34-1.75c-2.57-7.4-1.56-13.67.8-19.86l-1.61-1.53c3.74-2.36,4.63-6.7,7-10l2-2c1.57.25,2.2-.45,2-2l4-.2L85.5,59.11l-2.41,2c-1.58-.26-2.29.36-2,2-1.58-.25-2.25.42-2,2-2.29-.48-2.48,1.77-3.31,2.86C74.1,70,72,72.07,72.07,75.09c-3.94,4-4.19,9.22-4.13,14.75C63.14,90,61,93.22,59.3,97.47L56.36,93.7c1.2-3.81.65-7.47.54-11s1.35-6.6,3.17-9.47l4.29,4.65c-1.93-4.15-3.51-8.18-1.49-13.53l4,7.37L70,70.91l.72.51-.86-.37c-1.29-2.71-2.94-5.31-3.73-8.16-.39-1.4.84-3.24,1.6-5.78L67,54.53c.21-2.92,3.72-4.44,2.89-7.63q2.39.41,2-2c.62-.11,1.42,0,1.84-.36,2.59-2.14,5.27-4,8.81-4.33H76.71c-1.35,1-2.83,1.94-4.17,3.09-.38.32-.32,1.16-.47,1.76Q69.73,44.7,70,47.05Zm114,113-5.54,2.58c3.39.61,4.5-.88,5.39-2.72,1.16-.6,2.43-1.11,2.5-2.89A2.48,2.48,0,0,0,184.06,160.08Zm-6-126c-2.31-.58-2,2.4-3.63,2.69-6.36-1.75-10.75,1.72-9.84,7.78,2.52-7.33,7-8.51,13.63-4.45l-1.61-2.57,1.32-3.6h4.73C181,33.25,179.34,32.18,178,34.06ZM286,207.88c1.3,3.45,3.79,4,6.28,1.55L285.89,208l-.87-5.19,2.07-3.27-2.83-2.26,2.62-.76-5-4v-5.82l-1.89,3.2c1.66,4.3,1.66,4.3,1.22,6.54l2.72,3.22a10.74,10.74,0,0,1,0,3.21C283,205.33,283.8,206.88,286,207.88Zm-223-108.8c-1.94,1.18-2,3.08-2.08,5.06a22.84,22.84,0,0,1-.78,6.8c-1.17,3.54.66,6.78,2.85,9.49a6.62,6.62,0,0,0,7.31,2.3l-6.3-3.14c-1.12-2-1.8-3.28-2.51-4.53a3.4,3.4,0,0,1,.27-4.24l5.5,2.33c-5.32-4.74-5.86-6.19-4.39-12.72a6.34,6.34,0,0,0,0-1.49l1.71-1.4L63.85,97ZM288,139.9l.72.51-.86-.37c-1.66-2.46-4.36-2.58-6.56-1.89-4.09,1.29-8.77,1.93-10.85,6.73-.49,1.14-1.69,2-2.51,2.89.33,3.48-1,7,1.74,9.8l-3.89,2c-2.22,2.92-2.07,5.83-1.38,9.82l2-7.46,8.17-3.91-2.81-5.24,2.08-6.35a4.69,4.69,0,0,0-2.25,2.33,12.49,12.49,0,0,0-.66,2.83c-.16.92-.24,1.86-.36,2.8C269.41,145.24,274.06,140,283,140,284.69,140,286.36,139.92,288,139.9Zm53.88,54.15-.72-.51.86.37a5.51,5.51,0,0,0,0,2c2,4.91.91,9.3-2.29,14l-9.08,1.38L327.77,208l1.13-3.49-2.16-2-3.52,9.29,3.7-.81,8.24,5.06c2.49-.52,5.83.24,7.71-3.11l1-1a7.17,7.17,0,0,0,1-2.35c.1-4.23,0-8.46,0-12.62ZM135,9.07a7,7,0,0,0-5.75,2.18c-1.32,1.25-2.56,2.58-3.87,3.84-4.16,4-5.22,9.05-4,14.39a27.42,27.42,0,0,1,.44,7.28c-5.32,1.32-9.07,5.52-14.34,6.54-.61.12-1,1.15-1.57,1.76l.13-.14-2.54,4.49-4.44,4.65c-.6.15-1.47.1-1.77.48a14,14,0,0,0-2.66,13c-.41-4.86,1.58-8.87,4.27-12.65.16-.22,0-.65,0-1,1.44-.64,2.9-1.24,4.32-1.92,3.12-1.51,6.47-.79,9.71-1.11.35,0,.66-.53,1.28-1.07l-3.29-1.44c0-5.24,4.23-6.81,7.54-8.74,2.74-1,5.43,2.35,8.44,0l-4-4.35,3.43-4-3-.51-1.45-4.23a10.22,10.22,0,0,0,1-2.85c0-3.5,2-6,4.28-8.25s5.13-4.33,7.72-6.47l11.88-1.27-1.09-1.34c-2.2.26-4.11.58-6,.69S136.15,7.43,135,9.07Zm25.23,80.52c.84-4.45,1.83-8.63,5.39-11.86,3.73-3.37,8-4.4,13.08-3.5L180.36,76l.29,4,3.13-5.39c1.42-1.07,3.44-1.09,4.47-3.73l-6.5,3-2.94-2c-2-.3-4,.76-5.8-.49l1.5-4.67,8-4.45-1.44-1.94,3.8-3.5,5.06,1C188,54.93,185.58,56.4,183.5,56c-1.26,1.23-2.41,2.29-3.48,3.43s-1.84,2.71-3.1,3.52c-3.69,2.34-6.19,5.3-6.17,9.92-6.15,1-8.65,5.54-10.5,9.94Zm78.37,48.55c4.94-4.08,7-9.76,5.45-14.55C244.89,129.1,240.5,132.76,238.62,138.13Zm-63,26.12h-.36v1.47h.36Zm-35.95-10.59v-.36h-1.47v.36Zm38.75,10.46v.66c.11-.1.3-.19.3-.29S178.6,164.28,178.46,164.12Z"/><path class="cls-2" d="M102.91,170.9l2.07,2.93a24.63,24.63,0,0,0,2.62,12.39,8.18,8.18,0,0,1,.32,2.83l.14-.13-2.15-.84-.16-1.83-.68.2,1,1.49a15.47,15.47,0,0,0,7.75,10.58c.75,2.23-1,3-2,4.15-4.27,1.13-7.57-.23-10.12-3.56-6.59,4-13.79,4.54-19.67.62-7-4.69-11.16-12-9.92-21.25C74,180,74,180,74.05,185.56c.88,1.56,1.71,3,2.52,4.51,1,1.84,1.73,4,4.5,3.81.27.68.35,1.61.86,2,2.28,1.8,4.68,3.45,6.52,4.78h6.44v-1.77l1.83-.16-.2-.67L95,199l-4.1.45-3.83-2.09,2.38-.86L80.93,194a29,29,0,0,1-5.47-14l2.09-1.52-3.75-1.76,6.33-1.21-4-.9c.16-3.28,2.92-2.19,4.51-3l-4-1.71-4,1.62,4.26-7.94-.54-.53a8.3,8.3,0,0,0-2.07,1.34C72.79,166.2,71.4,168.15,70,170l-1.43-.93-.27.63,1.83.15-.3,3c-.74-.15-1.28-.1-1.6-.35-1.92-1.46-3.26-3.53-6-4.12-1.24-.27-2.1-2.31-3.13-3.55l-.13.14c.61.1,1.51,0,1.79.33,1.42,1.86,3.35,1.63,5.28,1.55,1,1.85,2.32,1,3.62.15H65.89c-.77-.41-1.57-.79-2.32-1.23A21.13,21.13,0,0,1,53,150.23c-.39-2.41-.62-4.85-1-7.26-.63-3.8,1.18-7.11,2.35-10.43A10,10,0,0,1,60.06,127c.37.19.75.26.93.49,2.13,2.68,6.17,3.27,7.58,6.64,1.25,3,2.17,6.1,3.21,9.08l7.93,4.86c0,7.31,3.79,11.49,11.36,12.17l1.75,4.24,7.89,1.84.64,4.46,1.72.24Z"/><path class="cls-2" d="M28.92,170.06l4.67-4.7L37.9,163l-5.5-5c-.91-4.5-1.63-8.57-.76-13.2,1-5.1,4.78-6.72,7.92-9.72h4.71c1,3.5.78,9.51.2,13.08C43.53,154,43.59,159.82,47,165l-.13-.15c0,.33.15.73,0,1-.94,1.86-2.69,3.54-1.85,5.85,1.08,3,2.14,6,4.68,8.17A16.56,16.56,0,0,0,61.46,184c1,0,2,0,3.26,0v8L70,203c-4,3.82-9.22,3.87-16.42.11L50,195.91l1.1-4.4c-.57,0-.89,0-1,.09-3.5,2.7-6.94,2.89-10.82.51-3.61-2.21-6.12-3.77-7.23-5.12a12.44,12.44,0,0,1-3-9.59c.26-2.47.09-5,.11-7.49Z"/><path class="cls-2" d="M104.73,152c.63,6.88.67,7,6.84,13h9.56l2.3,9.51,5,4.64v10.25l-5.36,2.71a39.64,39.64,0,0,0-5.47-2.76c-4.29-1.39-6.57-4.75-8.59-8.33a9.62,9.62,0,0,1-1-4.21c-.14-3.32,0-6.64,0-10.09-3.51-1.26-5.59-3.8-6.69-8.38l-.48,5.51H95.35L92.72,161l3.61-4.23c-4,1.62-7.27,1.79-10.07-1s-2.37-5.91-2.2-9.14l9.62-3.21c1.54,1.46,3.27,3.33,5.25,4.88A64,64,0,0,0,104.73,152Z"/><path class="cls-2" d="M116.19,200.65l6.81,2.3c-1.91,5.41.72,8.88,3.76,12.54l-6.42,2.25c-2.94-.82-6.29-1.37-9.27-2.73-1.67-.76-2.73-2.84-4.32-4.61,2.15-1.29,4.22-2.09,5.65-3.53S114.58,203.38,116.19,200.65Z"/><path class="cls-2" d="M138.93,204.18c-.37,6.24,3.88,9.41,8.16,12.49A9.23,9.23,0,0,1,131.81,215l3.45-3.58c-4-.22-6.69-2-8.12-5.14l.39-3.06C131.34,200.22,134.89,203.41,138.93,204.18Z"/><path class="cls-2" d="M47,165V161.3l.75-.15c1.33,2.73,2.55,5.52,4,8.18,2.53,4.62,5.94,8.31,11.28,9.71l-.15-.13,2.3,2.19L60.83,183c-1.18-1.6-4.24-.26-4.75-3.15L56,180l4.1-.14.72.51-.86-.37a9.38,9.38,0,0,0-1.73-1.37c-3.87-1.8-6-5.22-8.14-8.64-1.06-1.7-2.08-3.44-3.11-5.16Z"/><path class="cls-2" d="M107.92,189c.61.13,1.52.06,1.78.43,4.16,6.05,10.26,8.08,17.18,8.49.93.05,1.86.16,3,.26-2.33,1.82-2.33,1.82-7.59,1.72-5.32-1.85-9.93-4.2-13.27-8.44a9.39,9.39,0,0,1-1-2.59Z"/><path class="cls-2" d="M110.78,152.71c3.43,4.21,6.71,8,12,9.66-.83,1.59-2,2-3.54,1.25-2.6-1.3-5.17-2.66-8-4.13C111.26,157.52,108.92,155.65,110.78,152.71Z"/><path class="cls-2" d="M63.08,179A26.22,26.22,0,0,0,60,176c-4.74-3.31-7.73-7.91-9.91-13.11a5.35,5.35,0,0,1,0-2l-.14.12L52,162l-.13-.14a8.25,8.25,0,0,0,2.94,6.42c3.24,2.89,6.52,5.73,10.15,8.91.25,1.06-.19,2-2.06,1.72Z"/><path class="cls-2" d="M26.93,166l4.82-3c.35,3.25-3.61,4.12-2.84,7l.13-.15c-1.64.62-2.12,1.86-2,3.51s0,3.48,0,5.87c-3.12-2.84-1.7-5.77-2-8.39l-.12.15,2.12-5.16Z"/><path class="cls-2" d="M201,201a6.76,6.76,0,0,1-7.56,1.63c-2.53-.88-4.8-2.5-7.55-4,3.33-1.46,5.15.07,7,2.38Z"/><path class="cls-2" d="M55.9,166.08a11.84,11.84,0,0,1,2.63,1.1c2.71,2,5.34,4.12,8.19,6.34l-.93,1.16c-4.37-1.06-6.52-4.84-9.66-7.3-.25-.19-.07-.94-.09-1.42Z"/><path class="cls-2" d="M56.08,179.9H52.44l-6-9.54c3.53.45,3.5,3.38,5.14,4.75A42.66,42.66,0,0,1,56,180Z"/><path class="cls-2" d="M121,154.91c-4.44-.5-6.63-3.42-8.38-8l3.14,1,5.11,7.15Z"/><path class="cls-2" d="M70.07,192.89c-.7-1.33-1.85-2.61-2-4-.43-3.91.33-7.87-.13-11.84,1.75,2.42.77,5.2,1.08,7.79s.62,5.46.92,8.19Z"/><path class="cls-2" d="M128.39,212.86h-1.82c-2-3.09-3.6-6.12-1.59-9.82C125.93,206.32,125.13,210.26,128.39,212.86Z"/><path class="cls-2" d="M200.38,181.41l3.75,3.39c-3,.16-5.56.6-8.75-.56Z"/><path class="cls-2" d="M249.9,203c.49,0,1.21-.18,1.43.08,2.16,2.43,4.23,4.93,6.27,7.33-3.24-.37-6.27-3.36-7.56-7.54Z"/><path class="cls-2" d="M53.93,128.94l-.84,2.7-2.55,8.28c-1.29-4.39-.34-7.57,3.52-10.84Z"/><path class="cls-2" d="M103.06,144,101,138l-.13.12a52.92,52.92,0,0,1,7,8l.13-.14c-.85-.31-1.71-.6-2.55-.93s-1.7-.72-2.55-1.09Z"/><path class="cls-2" d="M213.84,188.65l-6.53-3.42,3.85-.32C212.46,186.07,214.06,186.77,213.84,188.65Z"/><path class="cls-2" d="M74,102.91c-3-1-2-4-3-6l-.14.12,3,2.1V103Z"/><path class="cls-2" d="M25.06,170.91l-1.92.84v-4.57l1.92-.13-.14-.13q0,2.07,0,4.14Z"/><path class="cls-2" d="M98.92,133.05h2.13l-.13-.14q0,2.58,0,5.17L101,138c-2.76-.86-2-3.1-2-5Z"/><path class="cls-2" d="M126.06,172.9c-3.17-1.06-1.89-3.46-1.28-5.65l1.14,5.77Z"/><path class="cls-2" d="M181.4,193.27l3.55,4.61C181.29,196.35,181.29,196.35,181.4,193.27Z"/><path class="cls-2" d="M239,180c1.1-3.12,3.49-1.93,5.7-1.26l-5.82,1.12Z"/><path class="cls-2" d="M185,193.91h-1.81l-1.19-4-.13.14c1.66.84,3.29,1.7,3,4Z"/><path class="cls-2" d="M125.92,173a4.8,4.8,0,0,1,3.2,3.74c-2-.92-3.35-1.77-3.06-3.87Z"/><path class="cls-2" d="M70.09,93.89c-2.29-1.62-.79-3.67-.13-5.58V94Z"/><path class="cls-2" d="M54.07,129.07c-.25-1.75.52-2.72,2.38-3.08,0,1.84-1.26,2.41-2.51,3Z"/><path class="cls-2" d="M103.93,168.92l1.89,2h-2.92l.15.13-.88-1.88,1.9-.1Z"/><path class="cls-2" d="M25.06,167.05l1.18-3.92.68.13V166l.13-.14-2.13,1Z"/><path class="cls-2" d="M127.06,168.89c-1.78-1.33-1.18-2.56.39-3.76l-.52,3.89Z"/><path class="cls-2" d="M59.08,164.9l-3.14-1,.13.14.19-2.64L58.95,165Z"/><path class="cls-2" d="M49.76,142.28q.1,1.6.21,3.19l-.66,0V142.3Z"/><path class="cls-2" d="M75,176.22c-1,.34-1.41.64-1.83.6a1.28,1.28,0,0,1-1-.73,1.18,1.18,0,0,1,.7-.95C73.17,175.08,73.59,175.48,75,176.22Z"/><path class="cls-2" d="M106,140.91l-2.66-2.31c2.58,0,2.7,1.1,2.53,2.45Z"/><path class="cls-2" d="M54.08,162.88l-2.18-1L52,162q0-1,0-2.07l-.14.12A2.37,2.37,0,0,1,54,163Z"/><path class="cls-2" d="M55.93,163.92q0,1.08,0,2.15L56,166a2.43,2.43,0,0,1-1.95-3.07L54,163l2.11,1.06Z"/><path class="cls-2" d="M98.92,141l2.26,1.89-.41.68-1.84-.7.13.15q0-1.07,0-2.14Z"/><path class="cls-2" d="M68.56,172.69c.92,1.69,1.34,2.11,1.26,2.41s-.64.51-1,.76c-.24-.35-.64-.67-.69-1A8.57,8.57,0,0,1,68.56,172.69Z"/><path class="cls-2" d="M104.07,169.05l-1-2.11-.14.12,2.93,1-.18.79-1.73.09Z"/><path class="cls-1" d="M77,143.92l-2.09-.84.6-.79,1.36,1.76Z"/><path class="cls-2" d="M101.05,133.05l.14-2.81h.57l.16,2.79.14-.12-1.15,0Z"/><path class="cls-2" d="M71.05,97c-1.78-.56-.86-2-1-3.07L70,94c1.73.58.84,2,1,3.07Z"/><path class="cls-2" d="M127.93,170.05c1.77.5.83,1.92,1,3l.13-.13c-1.82-.49-.85-1.92-1-3Z"/><path class="cls-2" d="M73.49,173.78l-1.3-1.17.48-.52,1.26,1.19Z"/><path class="cls-2" d="M50.92,151.07c1.74.53,1.23,1.56.33,3.08l-.19-3.2Z"/><path class="cls-2" d="M51.05,150.94c-1.87-.55-.71-1.72-.14-2.69v2.81Z"/><path class="cls-2" d="M50.05,160.94c-1.87-.55-.7-1.72-.14-2.69v2.81Z"/><path class="cls-2" d="M107.9,146.06h1.72l-.3.75-1.3-.88Z"/><path class="cls-2" d="M52.05,159.94,51,158.66l.64-.33.28,1.73Z"/><path class="cls-2" d="M124.68,164.21v1.55h-.4v-1.55Z"/><path class="cls-2" d="M103,166.94,102,165.66l.64-.33.28,1.73Z"/><path class="cls-1" d="M76.9,144.06h1.72l-.3.75-1.3-.88Z"/><path class="cls-2" d="M69.93,193,71,194.29l-.64.33-.28-1.73Z"/><path class="cls-2" d="M102.89,135.08l1.1,1.18-.62.37L103,135Z"/><path class="cls-2" d="M101.93,133c1.36.2,1,1.2,1,2.06L103,135l-1-2.06Z"/><path class="cls-1" d="M213.2,210.27h1.55v.4H213.2Z"/><path class="cls-1" d="M105.91,141l.24.1-.11-.24Z"/><path class="cls-2" d="M130,173.91l-1-1-.13.13,1,1Z"/><path class="cls-2" d="M120.91,155l1,1,.13-.13-1-1Z"/><path class="cls-2" d="M130.91,175.07l.24.09-.11-.22Z"/><path class="cls-1" d="M102.93,143.91l-.1.24.24-.11Z"/><path class="cls-2" d="M106.47,149.1c.14.16.34.28.33.4s-.21.21-.33.32Z"/><path class="cls-2" d="M128.06,169.92l-1-1-.13.13,1,1Z"/><path class="cls-2" d="M129.91,174l1,1,.13-.13-1-1Z"/><path class="cls-2" d="M73.91,103l1,1L75,104l-1-1Z"/><path class="cls-1" d="M70.47,134.82l-.32-.36c.12-.11.24-.3.35-.29s.21.21.32.33Z"/><path class="cls-1" d="M99.07,54.06l4.44-4.65,2.54-4.49q0,2.06,0,4.12l-.24.11.1-.24h3.33l.48-4.9-3.82,1c.52-.61,1-1.64,1.57-1.76,5.27-1,9-5.22,14.34-6.54a27.42,27.42,0,0,0-.44-7.28c-1.2-5.34-.13-10.38,4-14.39,1.31-1.26,2.55-2.59,3.87-3.84A7,7,0,0,1,135,9.07l-.13-.15c-2.59,2.14-5.34,4.11-7.72,6.47s-4.23,4.75-4.28,8.25a10.22,10.22,0,0,1-1,2.85l1.45,4.23,3,.51-3.43,4,4,4.35c-3,2.37-5.7-.95-8.44,0-3.31,1.94-7.52,3.5-7.54,8.74l3.29,1.44c-.62.53-.93,1-1.28,1.07-3.24.32-6.6-.4-9.71,1.11-1.42.69-2.88,1.29-4.32,1.92Z"/><path class="cls-1" d="M341.9,194.06l3,2.87c0,4.15.05,8.39,0,12.62a7.17,7.17,0,0,1-1,2.35l.13.15-.46-2.51L341,213.05l-1.73.28.33.64,1.28-1.05,2.1.14-.15-.13c-1.88,3.35-5.23,2.59-7.71,3.11L326.91,211l-3.7.81,3.52-9.29,2.16,2L327.77,208l2.93,3.29,9.08-1.38c3.2-4.71,4.33-9.1,2.29-14a5.51,5.51,0,0,1,0-2Z"/><path class="cls-1" d="M160.25,89.59V82.82c1.85-4.4,4.35-8.9,10.5-9.94,0-4.63,2.48-7.58,6.17-9.92,1.27-.8,2-2.37,3.1-3.52s2.22-2.2,3.48-3.43c2.07.4,4.52-1.07,6.42,1.79l-5.06-1-3.8,3.5,1.44,1.94-8,4.45L173,71.37c1.77,1.25,3.84.19,5.8.49l2.94,2,6.5-3c-1,2.64-3.05,2.66-4.47,3.73L180.65,80l-.29-4-1.64-1.75c-5.12-.9-9.35.13-13.08,3.5C162.08,81,161.09,85.14,160.25,89.59Z"/><path class="cls-1" d="M146,158.05c.11-.29.14-.72.36-.86,3.21-2.07,6.44-4.09,9.67-6.13l-.15-.15c-.66,2.52,1.72,3.75,2.41,5.69,7.63,4.52,15.05,5.14,22.36-1.48l.26,2.26c-4.45,2.42-8.64,4.89-13,7a6,6,0,0,1-4.69.11c-3.73-1.91-7.83-3.4-10.38-7.1a12.34,12.34,0,0,0-2.15-1.68l1.19,6.37.14-.14c-2.64-.56-1.74-3-2.19-4.35l-4,.35Zm23,3.47c-5.36-1.45-11.16-.76-13.76-6.62l-2.07.34C156.84,161,161.82,163.3,169,161.52Z"/><path class="cls-1" d="M288,139.9c-1.66,0-3.33.05-5,.06-9,0-13.61,5.28-12.39,14.49.12-.93.2-1.87.36-2.8a12.49,12.49,0,0,1,.66-2.83,4.69,4.69,0,0,1,2.25-2.33l-2.08,6.35,2.81,5.24L266.45,162l-2,7.46c-.7-4-.84-6.9,1.38-9.82l3.89-2c-2.77-2.8-1.41-6.32-1.74-9.8.82-.91,2-1.75,2.51-2.89,2.07-4.81,6.75-5.45,10.85-6.73,2.21-.69,4.91-.57,6.56,1.89Zm-16.57,16.2v.72c.12-.11.32-.21.33-.32S271.59,156.26,271.45,156.1Z"/><path class="cls-1" d="M62.92,98.94a6.34,6.34,0,0,1,0,1.49c-1.47,6.53-.93,8,4.39,12.72l-5.5-2.33a3.4,3.4,0,0,0-.27,4.24c.71,1.25,1.39,2.51,2.51,4.53l6.3,3.14a6.62,6.62,0,0,1-7.31-2.3c-2.19-2.71-4-6-2.85-9.49a22.84,22.84,0,0,0,.78-6.8c.06-2,.14-3.88,2.08-5.06Z"/><path class="cls-1" d="M286,207.88c-2.24-1-3-2.55-2.15-5a10.74,10.74,0,0,0,0-3.21l-2.72-3.22c.44-2.25.44-2.25-1.22-6.54l1.89-3.2v5.82l5,4-2.62.76,2.83,2.26L285,202.83l.87,5.19Z"/><path class="cls-1" d="M177.88,33.91l-1.32,3.6,1.61,2.57c-6.63-4.06-11.11-2.88-13.63,4.45-.91-6.06,3.48-9.53,9.84-7.78,1.68-.29,1.32-3.27,3.63-2.69Z"/><path class="cls-1" d="M238.62,138.13c1.89-5.37,6.28-9,5.45-14.55C245.57,128.37,243.55,134.05,238.62,138.13Z"/><path class="cls-1" d="M152.9,163.08c1.54.39,3.33.4,4.57,1.23C161,166.69,165,166.89,169,167l-.13-.15c-.14.27-.26.77-.41.78-5.58.31-10.9-.38-15.32-4.26-.1-.09-.07-.31-.1-.47Z"/><path class="cls-1" d="M184.91,194c.3-2.3-1.33-3.17-3-4-1.74-2.69-1.74-2.69-1.58-5.85l6.54,8.51v1.37l.14-.15Z"/><path class="cls-1" d="M98.92,53.91c0,.33.14.76,0,1-2.69,3.78-4.68,7.79-4.27,12.65a14,14,0,0,1,2.66-13c.3-.39,1.17-.33,1.77-.48Z"/><path class="cls-1" d="M246,167v-2.29c2.57-1.52,4.66-4.4,9.09-3.42l-9.24,5.57Z"/><path class="cls-1" d="M72.07,45.06c.14-.6.09-1.43.47-1.76,1.34-1.14,2.82-2.11,4.17-3.09h5.86c-3.54.33-6.22,2.2-8.81,4.33-.42.35-1.22.25-1.84.36Z"/><path class="cls-1" d="M72.07,75.09c0-3,2-5.05,3.66-7.17.83-1.08,1-3.33,3.31-2.86l-.15-.14c-2.34,3.33-3.23,7.67-7,10Z"/><path class="cls-1" d="M135,9.07c1.12-1.63,2.78-2,4.63-2.07s3.83-.43,6-.69l1.09,1.34L134.89,8.92Z"/><path class="cls-1" d="M178.08,129.87c-.28-.13-.79-.26-.79-.4-.11-3.48-.24-7-.18-10.44,0-.61.8-1.2,1.5-1.72-1.28,4.23-.41,8.49-.67,12.7Z"/><path class="cls-1" d="M285.89,208l6.43,1.42c-2.49,2.44-5,1.89-6.28-1.55Z"/><path class="cls-1" d="M239,194.06a6.86,6.86,0,0,1,4.76-6.26l-3.68,6.11h-1.24Z"/><path class="cls-1" d="M97.09,139.87c-2.83-2.06-1.9-5.46-2.81-8.19A16.84,16.84,0,0,1,96.94,140Z"/><path class="cls-1" d="M192.07,134.9h-2.66l-1.21-4.65.82-.31,2.92,5.11Z"/><path class="cls-1" d="M182.06,134.91c-2.13.69-2.09-2-3.61-2.41-.35-.1-.26-1.71-.37-2.63l-.15.13c1.92,1.22,3.91,2.38,4,5.06Z"/><path class="cls-1" d="M298,178c3-2.19,6.28-.69,9.44-.74.13,0,.26.5.39.77l.14-.15-10.1,0Z"/><path class="cls-1" d="M205,197.95c-2-1.21-.81-2.52-.4-4.16,2.42,1.7.58,3,.24,4.29Z"/><path class="cls-1" d="M183.91,159.94c-.89,1.84-2,3.33-5.39,2.72l5.54-2.58Z"/><path class="cls-1" d="M156.05,151.06c-.15-1.63.45-2.7,2.51-3-.47,1.57-.45,3.17-2.66,2.86Z"/><path class="cls-1" d="M178,34.06c1.33-1.88,3-.81,4.6-.15h-4.73Z"/><path class="cls-1" d="M83.09,61.09l2.41-2,1.42,1.63-4,.2Z"/><path class="cls-1" d="M307.87,178.06c1.43,0,3.37-.68,3,2l.15-.15a2.56,2.56,0,0,1-3-2Z"/><path class="cls-1" d="M182,176.93c-1.57-.52-2.3-1.54-1.67-4.41l1.52,4.55Z"/><path class="cls-1" d="M169,167c1.33-1.88,3-.81,4.6-.15h-4.73Z"/><path class="cls-1" d="M184.06,160.08a2.48,2.48,0,0,1,2.35-3c-.07,1.78-1.34,2.29-2.5,2.89Z"/><path class="cls-1" d="M71.92,44.91q.36,2.4-2,2l.15.15q-.31-2.35,2-2Z"/><path class="cls-1" d="M81.08,63.07c-.27-1.62.43-2.25,2-2l-.15-.15c.19,1.53-.43,2.24-2,2Z"/><path class="cls-1" d="M236.89,182.88a2.43,2.43,0,0,1-2,3l.14.14a2.5,2.5,0,0,1,2-3Z"/><path class="cls-1" d="M99.06,140.92q0,1.07,0,2.14c-1.42-.59-2.26-1.54-2-3.19l-.15.14Z"/><path class="cls-1" d="M80.94,62.92l-2,2,.15.14c-.22-1.58.46-2.25,2-2Z"/><path class="cls-1" d="M63.07,99.08,63.85,97l.78.52-1.71,1.4Z"/><path class="cls-1" d="M236.92,179.9l-1.46,2.18c-.73-2.17.46-2.07,1.6-2Z"/><path class="cls-1" d="M228,189l1.46-2.18c.73,2.17-.46,2.07-1.6,2Z"/><path class="cls-2" d="M175.66,164.25v1.47h-.36v-1.47Z"/><path class="cls-1" d="M76.08,98.09l.15-1.83.63.27L75.93,98Z"/><path class="cls-1" d="M203,192l1.49-1,.2.67-1.83.16Z"/><path class="cls-2" d="M139.71,153.66h-1.47v-.36h1.47Z"/><path class="cls-1" d="M245.88,166.88l-1,2,.15.14,1-2Z"/><path class="cls-1" d="M186.88,194.06l1.83.15-.27.63-1.43-.93Z"/><path class="cls-1" d="M296.86,178.9l-1.34,1-.29-.62L297,179Z"/><path class="cls-3" d="M69.9,71.05l.86.37L70,70.91Z"/><path class="cls-2" d="M178.46,164.12c.14.16.31.27.3.37s-.2.19-.3.29Z"/><path class="cls-3" d="M342,193.91l-.86-.37.72.51Z"/><path class="cls-1" d="M236.89,139.93l-1,1,.14.14,1-1Z"/><path class="cls-1" d="M297.9,177.89l-1,1,.14.14,1-1Z"/><path class="cls-1" d="M151.89,162l1,1,.14-.14-1-1Z"/><path class="cls-1" d="M237,140.07l.37-.86-.51.72Z"/><path class="cls-3" d="M219,136.07l.37-.86-.51.72Z"/><path class="cls-3" d="M234.91,185.89l-.37.86.51-.72Z"/><path class="cls-3" d="M287.88,140l.86.37-.72-.51Z"/><path class="cls-3" d="M343.9,211.89l-1,1,.15.13,1-1Z"/><path class="cls-1" d="M77.9,110l.86.37-.72-.51Z"/><path class="cls-1" d="M94.89,198.89v1.77H88.46c-1.84-1.33-4.24-3-6.52-4.78-.5-.4-.58-1.33-.86-2l-.15.15,8.56,2.52-2.38.86,3.83,2.09L95,199Z"/><path class="cls-1" d="M65.89,167.07h3.75c-1.3.82-2.66,1.7-3.62-.15Z"/><path class="cls-1" d="M106.06,187.93l-1-1.49.68-.2.16,1.83Z"/><path class="cls-1" d="M95,199l1.49-1,.2.67-1.83.16Z"/><path class="cls-1" d="M70.09,169.89l-1.83-.15.27-.63L70,170Z"/><path class="cls-1" d="M59.91,180l.86.37L60,179.9Z"/><path class="cls-1" d="M24.93,166.92l2.13-1-2.12,5.16Q24.93,169,24.93,166.92Z"/><path class="cls-1" d="M105.92,45.06l3.82-1-.48,4.9h-3.33l.13.13q0-2.06,0-4.12Z"/><path class="cls-1" d="M105.93,48.92l-.1.24.24-.11Z"/><path class="cls-2" d="M344,212l-1,1-2.1-.14.12.14,2.54-3.53Z"/><path class="cls-2" d="M340.92,212.91,339.64,214l-.33-.64,1.73-.28Z"/><path class="cls-2" d="M169,161.52c-7.23,1.78-12.2-.47-15.83-6.28l2.07-.34C157.89,160.75,163.68,160.07,169,161.52Z"/><path class="cls-1" d="M271.45,156.1c.14.16.34.28.33.4s-.21.21-.33.32Z"/></g></g></svg>