<svg class="logo-moldura" xmlns="http://www.w3.org/2000/svg" viewBox="0 0 360.28 360.89">
    <defs>
        <style>
            .color-1 { fill: #22899a; }

            .color-2 { fill: #0e4755; }
        </style>
    </defs>
    <ellipse class="color-1" fill="#fff" cx="179.43" cy="181.64" rx="177.84" ry="178.77"></ellipse>
    <path class="color-2" d="M178.26,360.85c-13.44.42-26.4-2.67-39.46-5A130,130,0,0,1,108,346.28c-13.34-6.06-26-13.18-37.38-22.69C64,318,56.73,313,50.91,306.49c-6.58-7.46-13.53-14.56-19.29-22.57-7.94-11-14.64-22.92-18.83-36-3-9.41-6.17-18.79-8.64-28.34-1.46-5.67-1.8-11.64-2.51-17.52C1,196.53-.14,190.93,0,185.39c.35-10,.29-20.06,2.23-30,1.41-7.22,2-14.64,3.82-21.75a171.38,171.38,0,0,1,9.84-27.48A214.86,214.86,0,0,1,33.79,73.57,114.55,114.55,0,0,1,57.55,47.41c5.32-4.22,10.54-8.6,16.1-12.49C86,26.27,98.75,18.24,113,13c6-2.2,11.75-5,17.83-6.7,7.06-2,14.17-4.3,21.57-4.7,5-.28,10-.63,15-.88,5.6-.29,11.22-.89,16.8-.72,20,.76,39.61,4.06,58.37,11.35a176.36,176.36,0,0,1,33.34,17.36,233.6,233.6,0,0,1,43.55,37.53,88.8,88.8,0,0,1,10,14c3.82,6.3,7.23,12.86,10.64,19.4a207.29,207.29,0,0,1,15,37.81c1.8,6.19,2.65,12.69,3.54,19.11.83,6,1.34,12,1.62,18.06a122,122,0,0,1-.46,12.38c-.29,5.16-.43,10.34-1.06,15.46a141.52,141.52,0,0,1-3.1,18.72,252.75,252.75,0,0,1-16.94,45.62A104.78,104.78,0,0,1,324.19,289c-7.64,9-15.43,17.93-23.7,26.35-8.56,8.7-19.19,14.8-29.65,20.89A182,182,0,0,1,233.25,353c-12.57,3.9-25.34,6.82-38.64,6.84C189.16,359.92,183.71,360.52,178.26,360.85ZM3.59,179.36c.27,4.24.35,11.05,1.22,17.76,1.1,8.47,2.69,16.88,4.32,25.27,3.35,17.15,10.32,32.91,18.85,48a66.81,66.81,0,0,0,5.57,8.51c5.56,7.08,11.26,14,17,21a125.2,125.2,0,0,0,19.88,18.91,164,164,0,0,0,33.18,20.3c8.22,3.7,16.4,7.43,25.1,9.89,16.1,4.55,32.43,7.82,49.22,7.68,8.1-.06,16.18-1.27,24.28-1.55,12.41-.43,24.13-3.79,35.75-7.74s22.47-9.78,33.14-15.8A104,104,0,0,0,287,321.13c9.15-7.68,18.29-15.4,26-24.63,9.64-11.48,18.45-23.5,24.9-37A224.61,224.61,0,0,0,346.37,238a162.65,162.65,0,0,0,8.6-35.6,141.85,141.85,0,0,0,.91-27.75c-.49-6.18-.48-12.41-1.24-18.55a137.76,137.76,0,0,0-5.75-25.42c-5.52-17.1-14.34-32.68-22.48-48.57-4.71-9.19-12.17-16.33-19.31-23.57a210.22,210.22,0,0,0-17.79-16c-13.85-11.16-28.79-20.48-45.46-27.08-11.76-4.63-23.82-8.22-36.22-9.7-12.13-1.45-24.44-1.48-36.67-2a109.64,109.64,0,0,0-25.07,2.28C128.32,9.52,112,16.55,96.41,24.89a182.62,182.62,0,0,0-53,42.45,124.35,124.35,0,0,0-13.9,19.42A201,201,0,0,0,15,117.59,182.86,182.86,0,0,0,3.59,179.36Z"></path>
    <path class="color-2" d="M353.8,179.29c-.42,7.07-.5,14.19-1.37,21.2a188.68,188.68,0,0,1-3.81,20c-4.49,19.08-10.88,37.46-22,53.82a214.28,214.28,0,0,1-25,31A140.82,140.82,0,0,1,273.14,327c-6,3.54-11.7,7.52-17.85,10.7-12.54,6.49-26.11,10.06-39.78,13.29-15.54,3.67-31.36,4.38-47.11,3.25A175.86,175.86,0,0,1,117.17,343c-19.57-7.59-36.65-18.84-52.53-32.35C53.73,301.4,44.8,290.56,36.49,279a153,153,0,0,1-23.75-52.08,204.94,204.94,0,0,1-5.53-28.18,179.54,179.54,0,0,1-.87-30.51c.59-9.5,2.71-18.94,4.55-28.33,4-20.42,13.18-38.79,23.81-56.4,4.16-6.89,8.85-13.61,14.91-19.19,4.56-4.2,8.5-9.09,13.25-13,12.39-10.3,25-20.41,39.87-27,11.18-5,22.65-9.37,34.23-13.32a78.81,78.81,0,0,1,18.62-3.55,222.49,222.49,0,0,1,28.32-1A192.19,192.19,0,0,1,234.32,15c13.21,4.21,25.2,10.71,37,17.74,14,8.33,25.84,19.18,36.85,31,4.42,4.75,8.73,9.62,12.76,14.69A65.29,65.29,0,0,1,327,88c6.72,12.48,13.41,25,17,38.82,1.61,6.12,4.25,12,5.69,18.14C352.44,156.27,354.41,167.63,353.8,179.29ZM179.28,16c3,1.34,3.07-2.51,5.23-3,1.79.71,1.69,4.25,5.14,3.47l-5.2-7.17L179.32,16l-.18.26ZM32,251.3l.32.21-.36-.18c0-3.24-3.7-1.84-4.94-3.88.85-1.87,3.48-3.63.87-6.09-.68,1.32-1.37,2.62-2,3.94l-2.09,4.39ZM142,340l-.35-.19.36.17,3.06,8.7,7.78-6.17-.51-.91-5.86,1.94C144.3,340.8,144.3,340.8,142,340Zm16,10.62.26.19-.3-.15-3.67-7c-2.2,1.73-3.94,3.08-5.64,4.47a6.52,6.52,0,0,0-.88,1.33ZM10.63,205.19l-.25-.18.29.14A32.55,32.55,0,0,0,12.57,216l5.22-7.69ZM53.27,77.36,43,76.58l2.8,11c2.1-2.59.5-4.92.61-7.24,2.28-1.05,5.64.32,6.8-3l.16-.25ZM253,336.51a29.56,29.56,0,0,0,10.39-5.84l-8-3.17a26.51,26.51,0,0,0-2.35,9l-.2.23Zm-156.2-5.32.26.18-.3-.14-.92-9.62-9.09,3.27C90.15,327.67,93.11,329.95,96.76,331.19Zm31.07,13.32.32.19-.35-.15-3-9.92-8.8,5.81Zm51.2-1.85c2.14-.19,6.26-.46,10.36-.92,7.91-.89,15.92-1.31,23.68-3,24.94-5.22,47.74-15,67.38-31.71,14.3-12.14,27-25.53,36.78-41.67,7.53-12.45,13.74-25.45,17.65-39.48a135.81,135.81,0,0,0,4.4-22.09c1.11-10.4,2.85-20.66,1.75-31.26-1.08-10.43-2.08-20.79-4.75-31a175,175,0,0,0-17.33-43c-5.15-9-11.52-17.17-18.17-25.1a107.77,107.77,0,0,0-15.6-15.68A239.48,239.48,0,0,0,239.9,30a65.64,65.64,0,0,0-13.3-4.79c-8.74-2-17.47-4.1-26.49-4.87-10.08-.84-20.08-3.1-30.36-1.7-6.42.88-13,1-19.28,2.36-17.78,4-34.92,9.78-51,18.63-11,6-21.13,13-29.62,22.28-4,4.36-8.25,8.5-11.92,13.12-6.24,7.86-12.7,15.63-18,24.12A129,129,0,0,0,22.41,143c-1.7,8.81-2.39,17.8-3.66,26.69-1.37,9.59-.76,19.17.11,28.73.69,7.62,1.59,15.19,4,22.56,3.21,9.67,6.75,19.19,10.7,28.58,4.57,10.87,11,20.54,18.13,29.8,7.77,10.13,17.1,18.82,27,26.82,9.65,7.82,19.82,15,31.29,20,5.54,2.42,11.22,4.54,16.86,6.71C143,339,159.72,342.23,179,342.66ZM55.13,74.13l-1.93-11L43.5,74.26C47.63,75.16,51,76.15,55.13,74.13Zm-12,14.27c.81-3.88-.74-7.08-2-11.18L32.78,89.77ZM151,9.85c-5.46,1-10,1.27-14.63,3.79l8.86,5.49Zm17.44-1.14-15.05.72,8.74,7.41ZM23.51,108l-5.82,14.19,10.1-4ZM58.13,302.78c.93-3.89,1.72-7,.8-10.39h-10ZM24.83,105.3c3.61-.94,6.82-.9,9.81-2.85l-2.87-8.7-.9-.08ZM64.22,52.64,55.88,61.2l9.27.79C65.7,56.37,65.68,56.18,64.22,52.64Zm37.61-25.69c-4.09,1.25-7.21,3.4-10.77,6.25l8.76,3.16c1.21-3.13,2.21-5.94,2-9.41ZM9.91,155.37c-.31,2.09-.61,4.09-.91,6.1s-.54,3.73-.89,6.18l9-5.92ZM21.6,224.3l-7.7-4a26.12,26.12,0,0,0,2.91,12.37c1.1-1.66,2.21-3.22,3.2-4.85a36.94,36.94,0,0,0,1.59-3.52ZM9.93,200.53l6.22-7.29L8.42,187c.29,4.78.51,8.71.78,12.63C9.21,199.9,9.53,200,9.93,200.53Zm89.9,132.69c4.53,1.89,7.54,4.33,12,4.92l-2.34-9.21Zm222.32-55.8c2.45-3.69,4.72-6.3,6.11-9.74-3.4-1.06-6.31-.59-9.74.28ZM197.88,344l-5.66,8.46,12.71-1.62Zm-176-95.1,5-9.44L17.37,236Zm313.63,5.63-9.35.85L329.9,266ZM347.82,147.2c0-4.4-1.29-7.94-3-11.82l-5.44,8.52ZM28.66,263.2l4-9.56c-3.41-.48-5.85-2.37-9.37-1.9ZM133.14,14.73c-4.31.57-7.61,2.6-12.07,4.1l8.49,5ZM71.71,304,61,305.14l9.6,8.2ZM311,280.14c-.52,3.55.4,6.23,1.68,9.31l7.43-9.31Zm-20.66,21.72,1,9.51c3.51-1.9,5.83-4.54,8.51-7.69Zm-81.68,48.7,12.44-2.81-7.74-6.07Zm-65.78-1.78c-1-3.38-1.54-6.28-3.93-8.6l-7.57,5.64Zm191.18-243.1-3.9,9.27,9.13,2.53ZM336.54,252l4-11.14a14.51,14.51,0,0,0-8.6,2.22Zm-221-223.25,2.83-9L106.51,24.4Zm234.7,167.78c-2.84,1.07-5.5,2-7.23,3.91l6.08,6.33C349.84,203.31,351.12,200.2,350.24,196.49Zm-333-71.24c-2.45,3.54-2.82,7.23-3.86,11.18L22,133Zm19.58,151,3-8.75c-1.7-.37-3.07-.73-4.46-1s-3.1-.4-5.27-.67Zm3,2.62-.41.94,6.8,9.29,2.35-9Zm295-150.65c5.59,2.63,5.59,2.63,8.48,2.54l-3.42-10.66ZM8.27,183.83c2.37-2.61,5.4-3.46,6.77-6.46l-6.77-5.76Zm343-18.38-7.84,6.6,7.84,4.55Zm-2-13.37-7,5.65,8.39,4.22ZM73.62,315.76l9.46,6.78v-9ZM198.34,9.36l-12.1-.6,5.49,7.15Zm56.94,25L264,30.28,254,25Zm70.35,55-5.92-9.67c-.45,3.8-3.16,6.05-2.41,9.67ZM342,237.48c1.14-4.39,2.82-7.59,2.94-11.57L337,229ZM182.82,344.94l-5,7.12H189.4Zm45-7.12-3.26,9,11.16-3.43ZM351,192.13c.32-4.09.63-7.32,0-11.15l-7.31,5.28ZM278.65,321.36l9.93-7L280,311.6ZM327.59,93c-1.83,3-3.12,5.46-3.26,8.61l8.48,1.39Zm-19.72-26.8-8.16-8.66-1.14,8.66ZM206.7,18.17l6.53-6.31L201.7,9.76ZM13.29,140.92l-1,.06-1.84,10.68,8-4.19ZM88,34.64l-9.65,6.89c3.19.68,5.6,2.45,9,1.52ZM267.41,320l-1.33,9.34,9.79-6.37Zm-28.79,21.62.68.61c2.87-1.5,6.4-1.58,9.29-4.18l-7.52-4.33Zm-76.14,9.53c3.9,1.45,7.29,1.38,11.17,1.07l-4.8-7ZM288.86,47.77V56.9l7.63-1.57ZM61.54,293.65c.08,3.29-1.93,6.37-.49,9.72l9.8-1.07c-1.95-3.54-5.08-1.06-7.37-2.12C62.81,298,65.27,295,61.54,293.65ZM277.31,38.78v8.46l8.27-1.47.17-1ZM177.12,15.12c2.13-2.18,4.19-3.89,5.55-6.66a56.51,56.51,0,0,0-10.75.15ZM113.75,29.93,105,25.83a26.5,26.5,0,0,0-2.34,9.65c2.81-1,2.23-3.63,3.41-5.11C108.52,29.71,110.76,33,113.75,29.93Zm2.46,304.77c-2.25-1-.79-4.55-4.37-5l2.42,9.74,8.8-5.66c-3.08-2.57-4.81,1-6.86.92Zm185.27-42.38,1.25,9.06,7.2-8.46c-3.09-.79-5.53-.53-8.46-.6ZM310,68.91,308.35,77h9.21ZM36,101.63l1.82-2.92L36.31,94c5.2-1.47,5.2-1.47,6.24-3.41-3.26.15-6.45,0-9.41,1.63Zm310.2,120.18,2.1-10.41-8.14,3.82ZM51.8,287.3c-.19-2,1.55-4.21-1.64-5.81l-2,8.58a78.39,78.39,0,0,0,9.93,0C56.67,286.89,53.8,288.66,51.8,287.3ZM57.9,66.53c4.6-.21,4.6-.21,6.61-2.77L55,63.25l1.6,9.46c3.3-1.94.4-4.32,1.27-6.18ZM220,20.31l5.36-5.84c-2.4-.61-5.12-1.83-8.75-1.57Zm19.06-1v-1c-3.15.16-5.59-2.39-9.16-2.14l2.8,8Zm12.36,4.94a27.64,27.64,0,0,0-8.7-4.07L244,28.61ZM17.14,163.92l-8.3,5.37L15.91,176c1.88-3.58-3-3.48-2.42-6.21C15.14,168.4,17.71,167.31,17.14,163.92ZM318,79.55c-3.68-.41-6.57-2-10.13.62l6.24,2.13c-.38,1.88-1.58,3.95.58,5.9ZM152.38,11c-1.29,3-4,5-4.81,8.37,3.43.23,3-3.73,5.54-4.1,1.78,1.17,3.16,3.69,6.23,2ZM300.79,301.43l-1.18-9.52c-3.33,1.52.13,4.65-2.08,6.34-1.62,1-4.56-2.14-5.66,1.69C294.71,300.48,297.31,302,300.79,301.43Zm-34-260.79,7.93-3.5L266.79,32ZM130.13,344.54l7.66-5.47c-2.86-2.24-4.33,1.63-6.75,1-1.36-1.36-.81-4.39-4.36-4.64Zm112.52-12,7.5,4.17c2.63-5.34,2.79-6.28,1.54-9L249,333c-3.42-1.62-3.42-1.62-6.38-.45ZM135.48,15.2a21.23,21.23,0,0,0-3.72,8.49c3.68.11,2.79-3.74,4.88-4.76,2.13,0,3.36,3.68,6.43,1.2ZM28.59,109.59c1.54-2,5.58-.47,5.16-4.43L25,107.32,28.85,116C31.23,113.57,29,111.71,28.59,109.59Zm127.3,233.66,4.55,7.29,7-6.21c-3.11-1.65-3.9,2.17-6.19,1.89C159.72,344.88,159.1,342,155.89,343.25ZM348.34,209.17l-7.17-6.53-.36.14,3.17,5.59c-.69,1.95-4.13,1.46-3.55,4.79ZM75.19,43.69l-8,6.36c3.62.07,5.87,1.86,8.94,1.06ZM191,351.34l4.88-7.81-.76-.55-3.6,4.11c-2.31-.9-3.23-4.29-6.65-2.62ZM338.55,141.8l4.89-8c-2.75-1.2-5-2.41-7.52-2.88-.81,3.77,3,2.25,3.93,4.32C339.32,137.17,336.19,138.81,338.55,141.8Zm-29.78,140c-2.88,1.87-.39,4.15-1.33,6.07-1.75.85-4.82-1.31-5.73,2.22l8.88.75-.94-4.79c-.28-1.43-.56-2.68-.88-4.25ZM72.87,314c3.35-1,6.47-.82,9-3.13H76.19c-1.67-1.87.22-4.49-2.38-5.88C72.62,307.9,73,310.65,72.87,314ZM204.49,18.41l-4.66-7.74c-2.41,2.28-4.74,3.88-6.07,6.65,3.14,1,3.33-2.85,5.45-2.83C201.15,15.4,200.62,18.69,204.49,18.41ZM101.49,328c-2.11-1.39-.29-4.68-3.8-5.56l1.32,8.7c3.27-.92,6.16-1.84,8.78-3.82-2.57-2-4.22.85-6.3.65Zm185.1-19.14c-1.87.23-3.93-1.83-5.76.77l8.08,3c.19-3.54.83-6.55-.49-9.64-2.75,1.58.34,4.16-1.81,5.88ZM88.38,320.21c-2.16-1.31.64-5.14-2.74-6v9.21L94.58,320C92,317.88,90.39,320.59,88.38,320.21Zm198-272.82-9.06,1.75c2.13,2.78,4.46.06,6.36,1,.92,4.31.92,4.31,2.7,5.59Zm50,178.36.64,1.19,8.3-3.11c-2.27-2.55-3.49-5.21-6.28-7-.94,2.87,1.93,3.72,2.21,5.63Zm5-69.89c2.07-2.06,4.51-3.65,5.72-6.6a11.9,11.9,0,0,0-7.71-2.57,4.33,4.33,0,0,0,1.89,1.78c.8.5,1.58,1,2.3,1.48-.65,2.2-3.55,3.11-2.17,5.91ZM21.9,135.2l-8,3.27,5.26,7.3c2-3.11-1.42-3.95-1.33-5.85C18.59,138,21.93,138.68,21.9,135.2ZM340.66,238.4l-5-8.32c-1.69,3.11,1.82,4.34,1.18,6.75-1.54.85-4.25.29-4.61,3.54ZM206.78,345.67c-4.22-2.47-4.22-2.47-6.29-2l6.73,5.9c1.45-2.93,3.06-5.27,3.1-8.39Zm-173-83.88c-.23-1.91,2.75-4,.11-6.31l-3.55,8.43,8.87,1.36c-.7-3.15-4-1.49-5.45-3.48ZM216,339.91l-.59,1a22,22,0,0,0,7.49,5.17c.85-3,2.61-5.28,2.69-9.24l-4.1,6ZM350.36,193.76l-7.07-5.7-.55.52,3.49,4.33c-1,2.26-4.61,2.18-4,5.54ZM18.13,211.17l-4.81,7.06,7.45,3.8c.52-3.73-3.23-3.08-4-5.24C17.39,215,19.57,213.67,18.13,211.17Zm20.48,65.4c6.08,1.19,6.08,1.19,9.27.32l-5.79-2.06c-.45-2,2.1-4-.6-5.86ZM68.73,54.75c2.06-1.64,4.39,1.6,6.47-1.3L66.92,51.6c-.21,3.45-.25,6.3,1.11,9.29C70,58.78,68.36,56.69,68.73,54.75ZM328.81,107c.21,1.87-2.11,3.43-.1,5.79,1.4-2.6,2.92-4.78,3-8.06l-7.53-1.39C324.8,106.26,327.56,105.38,328.81,107Zm-17.56,171.5,9-1-3-7.91c-2.38,1.78.48,3.74-.58,5.41C315.45,277,312,275,311.25,278.53ZM121.45,24.24l5.55,1.6.42-1-7.28-4.45-2.7,8.22.86.43ZM308.18,67.65l-8.37,1.1-.11.76,5.33,1c1,1.84-2,4.17,1.5,5.55Zm13.74,26.09c-.58,3.69-.58,3.69.66,5.32l3.15-7.24c-3.15.22-5.68-1.35-8.52.19Zm-295.3,27-8,3.37L23,131.45c1.64-2.82-1.83-4.17-1.14-6.31,3.54-1.58,3.54-1.58,4.73-4.44Zm-3.38,106.9-.89-.45L18,234.48l8.38,2.75c-.69-3.37-4.07-2.4-5-4.49ZM169.14,13.49c2.41,0,2.94,4.17,6.2,2.27l-5.23-6.12-5.33,6.7.75.71Zm6.53,338.17c1.25-1.53,2.14-2.51,2.91-3.59s1.29-2.08,1.94-3.15c-3-1.1-3,2.18-4.45,2.65-2.19-.69-2.52-3.58-5.5-3.47ZM16.3,191.21l.58-.41A18.91,18.91,0,0,0,15.23,188a27.87,27.87,0,0,0-2.73-2.51c2.87-2.5,2.87-2.5,3-5.26l-6.31,5.16Zm261,130.19.42-8.9-1-.15-1.3,5.26c-2.13,1-4.23-1.85-6.13.92ZM19.47,150.66l-.72-1-7.14,3.77c3,3.85,3.46,4.29,6.61,5.82L15,154.71ZM327.72,265l-3.25-8.19c-2.23,2.41,1,4.21-.1,6-1.23,1.46-3.93-1-4.41,2.23Zm7.12-12.5-4-7.86c-2.55,2.5,1.2,3.75.62,5.67-4,1.6-4,1.6-4.7,3.1ZM264.15,32.39l-8,3.45c2.18,2.8,3.86-.86,6.06.2l1.16,4.44.73-.11ZM10.64,202.72c2.48,1.31,4.26,2.77,7,2.29l-3.88-3c.41-2.24,4.1-2.95,2.49-6.23ZM90.11,34.88c-.14,1.23-.2,2.1-.35,3s-.51,2-.63,3a10.54,10.54,0,0,0,.16,2.1l.5-.07,1.66-4.76c2.55-.66,4.47,2.3,6.91-.37ZM334,126c1.38-2.4,3.27-4.14,3.93-7l-7.35-2-.36.89,4.37,2.43C334.78,122.28,332,123.57,334,126Zm13.1,52.67-3.54,4.26.69.67c1.91-1.81,4.71-2.47,6.23-5.05-2.32-1.86-4.47-3.28-7.28-3.5ZM236.45,341.57a13.21,13.21,0,0,0,1.95-8.22l-2.11,4.78c-2.55.55-4-3.31-6.61-1.23ZM342.79,168.5l.73.9,6.49-5.68-7.81-4.11-.53.78,4.51,4ZM86,45.49l-8.5-2c-.13,2.94-.38,5.28.86,7.65l1-4.8C83.61,46.6,83.61,46.6,86,45.49ZM252,26.21c-4.33,2-4.33,2-6.9,4.91l5.24-1.55c1.78,1.2.13,4,2.95,4.8ZM273.9,46.76c1.25-2.41,1.18-4.75.77-7.38-2.68.82-5.26,1.28-6.78,4l4.84-1.23Zm24,10.16c-3,.7-5.28,1.22-7.56,1.78-.13,0-.17.45-.39,1.08h5.48c.16,2,.3,3.64.43,5.28h.86ZM229.6,24.5l.91-.43-2.82-7.88-6.43,5.68c2.83.83,3.45-2.12,5.65-2.19Zm9.5-.44c1.3,1.59.74,3.8,3.06,4.71l-1.59-8.62-6.3,5,.49.75Zm26,297.19-.62-.17-2,5c-1.92.41-3.44-2-6-.23L264.2,329c.41-2.23.77-4,1-5.7a10.68,10.68,0,0,0-.09-2ZM217,21.38l.86-.72-3-6.4-5.78,4.88.37.48,3.92-2.69Z"></path>
    <ellipse class="color-2" cx="179.84" cy="180.93" rx="164.08" ry="164.43"></ellipse>
</svg>