<svg xmlns="http://www.w3.org/2000/svg" viewBox="0 0 23.57 45.08" preserveAspectRatio="xMaxYMin slice"><defs><style>.cls-1{fill:#1f4655;}</style></defs><title>moldura-canto-dir_titulo</title><g id="Layer_2" data-name="Layer 2"><g id="Layer_1-2" data-name="Layer 1"><g id="Layer_2-2" data-name="Layer 2"><g id="Layer_1-2-2" data-name="Layer 1-2"><path class="cls-1" d="M0,4.17A5.88,5.88,0,0,1,.93,2c1.49-2.56,5.39-2.44,7-.75a32.87,32.87,0,0,1,2.57,3c.29-1.23.84-1.54,1.75-1.54s1.26.53,1.4,2a2.24,2.24,0,0,1,2,.27c.72.53.68,1.29.86,1.71.76.29,1.46.35,1.81.74a2.17,2.17,0,0,1,.58,2.44c1.42.19,2,.59,2,1.35,0,1-.85,1.58-2.64,1.63a10.26,10.26,0,0,1,4.14,2.95,3.64,3.64,0,0,1,1,3q0,.12,0,.23A3.25,3.25,0,0,1,20,22.12l-1.3,0a8.66,8.66,0,0,0,2.07.58A3,3,0,0,1,23,24.36a4.86,4.86,0,0,1-1.18,6c-.7.57-1.42,1.1-2.3,1.78,1,.5,1.77,1.1,1.38,2.16a1.5,1.5,0,0,1-2.13.86c.49,1.75-.08,2.61-2,3.22-.48,1.63-.68,1.89-2,2.12a5.54,5.54,0,0,1-1.45-.14L13,40h0l.33.35v.75a1.26,1.26,0,0,1-1.13,1.24,1.36,1.36,0,0,1-1.49-.77,6.18,6.18,0,0,1-.3-1.15,45.69,45.69,0,0,1-3.22,3.62c-2,1.82-5.88,1-6.77-1.46A7,7,0,0,1,0,41.4V38.1c.26-.78,1.72-.7,2.26-.7a13.65,13.65,0,0,0,7.43-2.6,13.45,13.45,0,0,0,6.09-10.66,9,9,0,0,1,.31-1.44,11.83,11.83,0,0,0,1.49.89c.46.18,1.07-.18,1.56.39a9.16,9.16,0,0,0-1.41.78,4.15,4.15,0,0,0-1.14,1.16c-.44.76-.2,1.2.8,1.6.4-.76-.13-1.81.68-2.51.43.52-.29,1.35.65,1.67.06-.5.12-1,.19-1.55.32.09.71.21.83.09.75-.7,1.59-.44,2.43-.35l.09.26.12-.15-.24-.08c-.12-.25-.18-.59-.38-.74a3.87,3.87,0,0,0-2.4-.83c-.6,0-1.55,0-1.71-.27-.42-.81-1.24-.58-1.86-1.08a15.71,15.71,0,0,0-.22-2.92,14.67,14.67,0,0,0-3-6.29,16.37,16.37,0,0,0-6-4.29A16,16,0,0,0,0,7.54ZM11.82,37.42l-.32.31-1,.53L5.63,40.48l0,0a.54.54,0,0,0,.34.69l.14.07a.77.77,0,0,0,1-.48c.29-.55.71-1,1.52-.55-.95.54-1.87,1.08-1.23,2.54a19.78,19.78,0,0,0,3.25-4.42l.82-.68.3-.33L12,37,12.2,37h-.06l-.14.11Zm5.83-25.24a.14.14,0,0,0,0-.06l-.1-.06-.3-.29c0-.35.11-.69.11-1.11-1.4-.17-1.64-1.12-1.64-2.28L16,8.07c.29.14.77.15.44.7-.21.36-.16.77.26.87a1.5,1.5,0,0,0,1.1-.14,1,1,0,0,0,.2-.93,2.62,2.62,0,0,0-1.07-1,.63.63,0,0,0-.91.51l-.32.29a1.38,1.38,0,0,0-.11,1.88c.39.6.77,1.34,1.64,1.45l.31.28ZM15.46,38c-.15.44-.36.69-.89.44s-.87-.14-1,.5.47.78.87.78a1.79,1.79,0,0,0,1.13-.59c.25-.3.48-.81-.15-1.1l-.32-.3-.32-.23.37.19Zm-14,.7-.09.11.31.14L1.58,40.3c.36-.72.36-.72.09-1.32Zm9.75.48,1.34-.26L13,37.67h.51l-.09-.22-.4.27C12,37.65,11.71,38.42,11.23,39.17Zm9.62-9.07c-.43-.16-.71-.36-.83-.29-.62.37-1.35.66-1.5,1.5l-.21.11.16.09v-.23A4.44,4.44,0,0,0,20.85,30.1Zm-7.8,6.17H14.5l.57-2h.24l-.21.06ZM15,10.74l-.15-.2-.17-1.81-2.07-.34,2.26,2.11Zm.79,25.72c.39,1,.5,1.15,1.33.87s.89-.48.5-1.59c-.92-.34-.92.58-1.27,1l-.61-.25a1.52,1.52,0,0,1,1.79-1.63l.08-1.71a5.15,5.15,0,0,0-2.14,2.53c-.12.34-.19.7.32.82Zm.61-3.63a2.22,2.22,0,0,0,1.54-1.76,2.35,2.35,0,0,1,1.56-1.77l-.28-1.63h-.76c0,.05-.16.13-.16.19.31,1.4-.69,2.35-1.23,3.51-.22.47-.47,1-.71,1.47l-.28.4.19.09.12-.46ZM8,2.07c.1,2.42.19,2.57,1.69,2.94,0,.56-.38.75-.82.47A21.92,21.92,0,0,1,7.07,4.09H6.65l-1,.05L5.41,5c1,.29,2,.49,2.88.86A30.19,30.19,0,0,1,11.11,7.3,5.37,5.37,0,0,0,9.57,5ZM3.44,4.7c-.23-1.19-1.59-2.2-.1-3.61-1.46.55-1.46.55-2,2.69L2.72,5.29a8.61,8.61,0,0,0,1.45,0c.19,0,.33-.39.49-.6l.17-.07H4.76l-.07.1Zm7.71.47-.2.07.24.4a13.25,13.25,0,0,0,1.27,1.48,14.22,14.22,0,0,0,1.66,1.12,4.09,4.09,0,0,0,1.1-.74,1.63,1.63,0,0,0,.35-1.21,1.56,1.56,0,0,0-.94-.84c-.23-.08-.63.28-1.12.53l1.26,1.27c-1.31.33-1.39.28-2-1.31l-1.71-.22ZM1.61,40.68l.11.07C1.39,42.11,2.19,43,2.91,44c.29-.11.66-.33.74-.26.87.89,1.68.32,2.6,0,0-.56.6-1.16-.14-1.63-.2-.13-.62.12-.94.12l.35,1.29c-.54.2-.91-.17-1.19-.71C4,42,4.59,41.7,5,41.19c-1.32-.27-1.36,1-2,1.56-.83-.71,0-1.22.24-1.93H1.64Zm15.51-25c-.78-1.29-1.47-2.66-2.37-3.87A15.21,15.21,0,0,0,6.5,6c.08.31.07.62.22.77a2.53,2.53,0,0,0,.8.41,16.11,16.11,0,0,1,9,9.34C17.21,16.38,17.43,16.13,17.12,15.63Zm-9.63,23a17.44,17.44,0,0,0,9.59-9c.13-.27.29-.52.49-.88l-.89-.42A16.2,16.2,0,0,1,6.57,38.29C6.73,39,7.07,38.87,7.49,38.67Zm8.74-26.35c.53,1,1,1.66,1.34,2.44a7.1,7.1,0,0,1,.77,1.83c.09.68.47.78,1,.78.84-1.43.84-1.43,2.08-1.48-.91-.78-1.68-1.46-2.46-2s-1.64-1-2.71-1.6ZM6,3.71a6.89,6.89,0,0,0,.9-.76,1,1,0,0,0,.17-.69A1.94,1.94,0,0,0,5.57.77a2.93,2.93,0,0,0-2,1.54,1.16,1.16,0,0,0,1,1.45c.55-.61-.3-2,1.42-2.11C5.57,2.41,5,3,6,3.71ZM21.81,28.12a4,4,0,0,0-1-.48.86.86,0,0,0-.74.29.94.94,0,0,0,.15.82,1.48,1.48,0,0,0,2.35-.62,2.08,2.08,0,0,0-1.26-2.42c-.74-.19-1.14.07-1.62,1.27C21.5,26.55,21.83,26.72,21.81,28.12Zm-2.19-9.54c.85,1.33,1.37,1.52,2.31.8s1.08-1.17.46-2-1.31-1.1-2.31.06c.77.66.77.66,1.63,0,.06,1.4-.14,1.54-2.08,1.17ZM4.75,7.22,6.14,6l-3.45-.3L2.57,6ZM19.17,20.06l.2,1.07-2.17.11a6.69,6.69,0,0,0,4.8-.63Zm.94,13.75c-.54-.49-.87-1-1.44-.41a.62.62,0,0,0,.08,1c.66.48,1,0,1.37-.59Zm-3-14.27a11.54,11.54,0,0,1,.1-1.18,11.69,11.69,0,0,1,.38-1.18C16,18,16,18.3,17.09,19.54ZM12.28,4.72l.14-.1a.64.64,0,0,0,.06-.9c-.53-.59-.87,0-1.33.26C11.42,4.61,11.63,5.16,12.28,4.72ZM1.42,4.39A2.23,2.23,0,0,0,.89,6.78c.88-.65.53-1.42.53-2.42ZM2.94,39.94l2,.18C3.88,39.26,3.52,39.27,2.94,39.94ZM18.57,18.17c-1,.46-1,.46-.52,1.95ZM5.48,38.95c-.21-1-.45-1.09-1.8-.35Zm5.66,1.9c.21.13.43.41.67.48a1.74,1.74,0,0,0,.79-.17V40.9a6.78,6.78,0,0,0-.71-.18l-.63-.11-.12.25Zm8.11-30.2L19,12.13l1-.86Zm-7.6-3.2-.13.18L12,8l.2-.26Zm6.19,15h.11v-.15h-.11Z"/></g></g></g></g></svg>