<svg xmlns="http://www.w3.org/2000/svg" viewBox="0 0 24.39 7.69" preserveAspectRatio="xMaxYMin slice"><defs><style>.cls-1{fill:#1f4655;}</style></defs><title>moldura_rodape</title><g id="Layer_2" data-name="Layer 2"><g id="Layer_1-2" data-name="Layer 1"><g id="Layer_2-2" data-name="Layer 2"><g id="Layer_1-2-2" data-name="Layer 1-2"><path class="cls-1" d="M0,.06,24.39,0V3.14c0,2.29-.25,3.07-1,3.67a2.56,2.56,0,0,1-2.75.74,15.61,15.61,0,0,1-2.58-1.28L15.87,5a7.11,7.11,0,0,0-.92-.63c-.1,0-.46.19-.46.19.29.94-.65.43-.94.83l.24,1c1.62.18,1.7.08,1.11-1.54l1,.08a5.57,5.57,0,0,1,0,1.35,1.69,1.69,0,0,1-.65.94,2,2,0,0,1-2.55-.68c-1.76,1.16-2.77,1.18-3.57.09-.39-.57-.28-1,.51-1.71v.8c.08,1,.36,1.15,1.25.8.42-.16.82-.35,1.3-.56,0-.44.08-.88.08-1.33a.83.83,0,0,0,.27-.1c1.57-1.56,3.1-.81,4.62.07.53.32,1,.71,1.53,1,.91.49,1.37.29,1.85-.71a2,2,0,0,1,.8-.78c.09,0,.51.28.62.51.25.5,0,.85-.47,1.13l-1.17.79c1.27.29,1.46.21,2.06-.79.18-.29.18-.29.84-.21C23.11,4.43,24,3,22.34,2.28l-.28-.6-1.56.47.06.26,1.83-.21a1.56,1.56,0,0,1-.77.78c.85.4.85.4,1.1,1.1a4.29,4.29,0,0,1-2.93-1.51,5.44,5.44,0,0,1-1.11.23H5.58a8.63,8.63,0,0,0-1.92.5c-.8.2-.85.92-1.09,1.51-.09.21-.19.42-.37.8a1.36,1.36,0,0,1,.14-1.78,13.13,13.13,0,0,0,.89-1.37l1,.06.1-.24L3,1.45c-1.84,1.39-2.2,3-1.09,5,1-.07,2.12.8,3.3,0a14.29,14.29,0,0,1-1.73-1,1.16,1.16,0,0,1-.34-.91.8.8,0,0,1,.66-.46,1.14,1.14,0,0,1,.71.6c.57,1.27.84,1.39,2,.68.69-.42,1.32-.93,2-1.36a2.72,2.72,0,0,1,1-.41,2.37,2.37,0,0,1,2.89,1.18l-1,.23h0c-.86-1-1.28-1.23-2.28-.65A18.49,18.49,0,0,0,6.53,6.23,5.12,5.12,0,0,1,2.9,7.46C.54,7.46.11,5.85,0,3.18ZM5.76,1.78c.13.14.24.34.32.26H18.85l.06-.36A3.09,3.09,0,0,0,18,1.46c-2.43,0-4.86.08-7.29.08-1.21,0-2.42-.16-3.63-.22a1.4,1.4,0,0,0-1.38.45L0,3.77ZM15.7,3.3c-1-.53-1-.53-2,.47ZM5.07,1.82C4.92.9,4.86.87,3.34,1.11Z"/></g></g></g></g></svg>