<svg xmlns="http://www.w3.org/2000/svg" viewBox="0 0 45.09 16.03" preserveAspectRatio="xMaxYMin slice"><defs><style>.cls-1{fill:none;}.cls-2{fill:#1c4955;}</style></defs><title>moldura-h_bg</title><g id="Layer_2" data-name="Layer 2"><g id="Layer_1-2" data-name="Layer 1"><path class="cls-1" d="M23.92,1a1.28,1.28,0,0,0-1.24,0c-.64.33-1.3.59-2,.89Q14,5.15,7.18,8.39c-.91.43-1.8.91-2.73,1.38.93.73,1,.74,1.84.32,1.66-.79,3.33-1.57,5-2.37C14.9,6,18.53,4.27,22.12,2.48a2.23,2.23,0,0,1,2.17,0c1.89.94,3.78,1.9,5.69,2.81,3.52,1.67,7.06,3.32,10.6,5,.68.31,1,.19,1.64-.5-.16-.1-.32-.21-.48-.29C39.39,8.31,37,7.16,34.69,6.05,31.11,4.37,27.51,2.71,23.92,1Z"/><path class="cls-1" d="M24,3.12a1.48,1.48,0,0,0-1.4-.06c-1.88.9-3.8,1.74-5.68,2.64C13.58,7.26,10.29,8.85,7,10.44a6.23,6.23,0,0,0-.57.38c.91.45,1.63,1.17,2.6.34a1.27,1.27,0,0,1,.3-.14l8.41-4c1.63-.78,3.26-1.58,4.88-2.38a1.85,1.85,0,0,1,1.95.05,11.66,11.66,0,0,0,1.24.65c4,1.93,8.09,3.84,12.12,5.81a1.78,1.78,0,0,0,2.19-.32l-.59-.31c-2.9-1.39-5.79-2.79-8.69-4.18C28.55,5.25,26.25,4.19,24,3.12Z"/><path class="cls-1" d="M22.36,5.48c-4.2,2-8.42,4-12.63,6.05-.24.11-.46.26-.77.45.54.34.91.8,1.47.55,1.83-.83,3.63-1.69,5.44-2.55C18.25,8.85,20.62,7.69,23,6.58a1.7,1.7,0,0,1,1.09,0,9.24,9.24,0,0,1,1.42.65c3.44,1.65,6.89,3.29,10.31,5a1.54,1.54,0,0,0,2-.3c-.2-.12-.33-.21-.47-.28-4.23-2-8.48-4-12.69-6.11A2.36,2.36,0,0,0,22.36,5.48Z"/><path class="cls-1" d="M22.83,7.39C19.48,9,16.12,10.56,12.77,12.14c-.53.25-1,.56-1.71.93l1.54.79a8.21,8.21,0,0,1,.78-.49c3-1.46,6.11-2.88,9.14-4.38a2.09,2.09,0,0,1,2.08,0c2.9,1.45,5.83,2.82,8.73,4.28a1.84,1.84,0,0,0,2.33-.34,5.63,5.63,0,0,0-.59-.38c-3.64-1.74-7.29-3.46-10.93-5.21A1.38,1.38,0,0,0,22.83,7.39Z"/><path class="cls-1" d="M22.85,9.6c-2.63,1.25-5.27,2.48-7.89,3.74-.48.23-.93.53-1.47.84a1.43,1.43,0,0,0,1.73.31c2.56-1.27,5.16-2.46,7.72-3.72a1.21,1.21,0,0,1,1.16,0c2.41,1.19,4.83,2.36,7.23,3.57a1.51,1.51,0,0,0,1.94-.25,7.18,7.18,0,0,0-.77-.49c-2.8-1.33-5.61-2.65-8.41-4A1.32,1.32,0,0,0,22.85,9.6Z"/><path class="cls-1" d="M22.64,11.65c-1.81.85-3.63,1.69-5.43,2.55-.54.26-1.05.56-1.65.88.74.71,1.05.8,1.8.46,1.62-.75,3.26-1.45,4.82-2.3a2.5,2.5,0,0,1,2.68,0c1.45.79,2.94,1.48,4.43,2.18.85.4,1.18.3,1.87-.41a2.21,2.21,0,0,0-.27-.18c-2.26-1.07-4.52-2.12-6.76-3.21A1.57,1.57,0,0,0,22.64,11.65Z"/><path class="cls-2" d="M45.09,10.87a2.61,2.61,0,0,1-.61.39c-2.08,1.05-4.18,2.07-6.28,3.08L34.62,16h1.32l9.15-4.37Z"/><path class="cls-2" d="M45.09,13.07a2.54,2.54,0,0,1-.65.38L39,16h1.47c1.54-.72,3.07-1.44,4.62-2.13Z"/><path class="cls-2" d="M45.09,15.16a2.64,2.64,0,0,1-.58.34L43.39,16h1.7Z"/><path class="cls-2" d="M.54,15.21,0,15.47V16H.52a2.22,2.22,0,0,1,1.34,0H3.54l-1.59-.78A1.48,1.48,0,0,0,.54,15.21Z"/><path class="cls-2" d="M2,13.12a2.05,2.05,0,0,0-2,0v.71l.22-.1a1.58,1.58,0,0,1,1.54.15L6.31,16H7.94L2.76,13.5Z"/><path class="cls-2" d="M2.22,11.11a2.18,2.18,0,0,0-2.22,0v.76a2.14,2.14,0,0,1,2.05-.07Q6.4,13.94,10.76,16h1.45L5.81,13C4.6,12.37,3.41,11.75,2.22,11.11Z"/><path class="cls-2" d="M45.09,2.28a1.92,1.92,0,0,1-.45.28c-1.75.85-3.52,1.68-5.28,2.52-.69.33-1.09-.25-1.63-.52,2.36-1.4,4.9-2.38,7.34-3.59l0,.06V0A8,8,0,0,1,44,.74c-2.22,1.08-4.47,2.09-6.68,3.2-.68.34-1.12.11-1.74-.33.33-.2.56-.36.81-.48L42.29.29c.17-.08.32-.2.49-.29H41.29L37.48,1.91c-.82.41-1.64.84-2.48,1.22a.87.87,0,0,1-.61,0c-.38-.15-.73-.36-1.27-.63.7-.36,1.28-.63,1.84-.93,1-.51,1.91-1,2.86-1.55H36.5l-3,1.55L32.3,2.1l-1.36-.64L33.69,0H32c-.56.31-1.11.64-1.69.92A2.76,2.76,0,0,1,28.58.33c0-.06.1-.22.16-.33H26.26c2.12,1,4.25,1.94,6.36,2.93q5.26,2.47,10.5,5l1.41.69c-.76.77-1.17.88-2,.5L30.84,3.58c-2.19-1-4.36-2.09-6.54-3.14A7.24,7.24,0,0,1,23.61,0H23c-.93.51-1.84,1.07-2.79,1.53-2.61,1.28-5.24,2.53-7.86,3.79S6.75,8,4,9.26a1.07,1.07,0,0,1-.75,0A9.26,9.26,0,0,1,2,8.62c.73-.39,1.31-.74,1.92-1L15.82,1.88c.94-.45,1.89-.87,2.83-1.32.34-.16.66-.37,1-.56h-2c0,.09.16.23.13.27a1.73,1.73,0,0,1-1.47.47C15.77.52,15.23.25,14.69,0H13.21l2.48,1.22c-.59.54-1.11.81-1.83.43C12.77,1.08,11.66.55,10.56,0H8.91l3.71,1.76c.29.14.56.31.91.5a2,2,0,0,1-2.46.31C9.7,1.82,8.24,1.23,6.83.56A8.93,8.93,0,0,1,5.94,0H4.29l6.16,2.94c.24.11.47.25.76.4a1.71,1.71,0,0,1-2.13.32C6.86,2.51,4.59,1.45,2.35.36A5,5,0,0,1,1.81,0H.49L0,.29v.87L.68.85a1.24,1.24,0,0,1,.92,0C3.93,1.88,6.23,3,8.54,4.06a2.19,2.19,0,0,1,.38.31c-.79.73-1.07.78-2,.35C5.24,3.87,3.52,3,1.8,2.15a1,1,0,0,0-1-.06L0,2.47V8.39l.22.1c-.08.09-.15.14-.22.21V9.5l.57-.27a1.24,1.24,0,0,1,1.18,0l13.43,6.51.6.29h15c4.74-2.28,9.48-4.56,14.28-6.75ZM31.16,15c-.7.71-1,.81-1.87.41-1.49-.7-3-1.39-4.43-2.18a2.5,2.5,0,0,0-2.68,0c-1.56.86-3.2,1.56-4.82,2.3-.75.34-1.05.26-1.8-.46.59-.32,1.11-.62,1.65-.88,1.81-.86,3.62-1.7,5.43-2.55a1.57,1.57,0,0,1,1.49,0c2.24,1.09,4.51,2.14,6.76,3.21A2.21,2.21,0,0,1,31.16,15Zm2.12-.94a1.51,1.51,0,0,1-1.94.25c-2.4-1.21-4.82-2.38-7.23-3.57a1.21,1.21,0,0,0-1.16,0c-2.57,1.25-5.16,2.45-7.72,3.72a1.43,1.43,0,0,1-1.73-.31c.54-.31,1-.61,1.47-.84,2.63-1.25,5.27-2.48,7.89-3.74a1.32,1.32,0,0,1,1.25,0c2.8,1.34,5.61,2.66,8.41,4A7.18,7.18,0,0,1,33.27,14.09Zm2.39-1.16a1.84,1.84,0,0,1-2.33.34c-2.89-1.46-5.83-2.83-8.73-4.28a2.09,2.09,0,0,0-2.08,0c-3,1.5-6.09,2.92-9.14,4.38a8.21,8.21,0,0,0-.78.49l-1.54-.79c.68-.37,1.18-.68,1.71-.93C16.12,10.56,19.48,9,22.83,7.39a1.38,1.38,0,0,1,1.32-.06c3.64,1.75,7.29,3.47,10.93,5.21A5.63,5.63,0,0,1,35.67,12.93Zm2.18-1.06a1.54,1.54,0,0,1-2,.3c-3.43-1.68-6.87-3.32-10.31-5a9.24,9.24,0,0,0-1.42-.65,1.7,1.7,0,0,0-1.09,0C20.62,7.69,18.25,8.85,15.87,10c-1.81.86-3.62,1.73-5.44,2.55-.55.25-.93-.21-1.47-.55.32-.19.54-.33.77-.45,4.21-2,8.43-4,12.63-6.05a2.36,2.36,0,0,1,2.31,0c4.21,2.07,8.46,4.08,12.69,6.11C37.51,11.65,37.64,11.75,37.84,11.86Zm2.27-1a1.78,1.78,0,0,1-2.19.32c-4-2-8.08-3.87-12.12-5.81a11.66,11.66,0,0,1-1.24-.65,1.85,1.85,0,0,0-1.95-.05C21,5.43,19.37,6.23,17.73,7L9.32,11a1.27,1.27,0,0,0-.3.14c-1,.83-1.69.11-2.6-.34A6.23,6.23,0,0,1,7,10.44c3.29-1.59,6.58-3.18,9.87-4.75,1.89-.9,3.8-1.73,5.68-2.64a1.48,1.48,0,0,1,1.4.06c2.29,1.08,4.58,2.13,6.87,3.22,2.9,1.38,5.79,2.78,8.69,4.18Zm2.12-1.09c-.6.69-1,.82-1.64.5C37,8.59,33.51,6.94,30,5.27c-1.91-.91-3.8-1.86-5.69-2.81a2.23,2.23,0,0,0-2.17,0C18.53,4.27,14.9,6,11.28,7.73c-1.66.8-3.33,1.58-5,2.37-.87.42-.9.41-1.84-.32.94-.48,1.82-1,2.73-1.38Q14,5.15,20.73,1.93c.65-.31,1.31-.57,2-.89a1.28,1.28,0,0,1,1.24,0c3.58,1.69,7.18,3.34,10.76,5C37,7.16,39.39,8.31,41.74,9.44,41.91,9.52,42.06,9.63,42.22,9.73Z"/></g></g></svg>