<svg xmlns="http://www.w3.org/2000/svg" viewBox="0 0 16.03 45.09" preserveAspectRatio="xMaxYMin slice"><defs><style>.cls-1{fill:none;}.cls-2{fill:#1c4955;}</style></defs><title>Asset 5</title><g id="Layer_2" data-name="Layer 2"><g id="Layer_1-2" data-name="Layer 1"><path class="cls-1" d="M15,23.92a1.28,1.28,0,0,0,0-1.24c-.33-.64-.59-1.3-.89-2Q10.88,14,7.65,7.18c-.43-.91-.91-1.8-1.38-2.73-.73.93-.74,1-.32,1.84.79,1.66,1.57,3.33,2.37,5,1.74,3.62,3.46,7.24,5.25,10.83a2.23,2.23,0,0,1,0,2.17c-.94,1.89-1.9,3.78-2.81,5.69-1.67,3.52-3.32,7.06-5,10.6-.31.68-.19,1,.5,1.64.1-.16.21-.32.29-.48C7.72,39.39,8.87,37,10,34.69,11.67,31.11,13.32,27.51,15,23.92Z"/><path class="cls-1" d="M12.92,24a1.48,1.48,0,0,0,.06-1.4c-.9-1.88-1.74-3.8-2.64-5.68C8.77,13.58,7.18,10.29,5.59,7a6.23,6.23,0,0,0-.38-.57C4.76,7.34,4,8.06,4.87,9a1.27,1.27,0,0,1,.14.3q2,4.21,4,8.41C9.8,19.37,10.6,21,11.4,22.62a1.85,1.85,0,0,1-.05,1.95,11.66,11.66,0,0,0-.65,1.24c-1.93,4-3.84,8.09-5.81,12.12a1.78,1.78,0,0,0,.32,2.19c.14-.25.23-.42.31-.59,1.39-2.9,2.79-5.79,4.18-8.69C10.78,28.55,11.84,26.25,12.92,24Z"/><path class="cls-1" d="M10.55,22.36c-2-4.2-4-8.42-6.05-12.63-.11-.24-.26-.46-.45-.77-.34.54-.8.91-.55,1.47.83,1.83,1.69,3.63,2.55,5.44C7.19,18.25,8.34,20.62,9.45,23a1.7,1.7,0,0,1,0,1.09,9.24,9.24,0,0,1-.65,1.42c-1.65,3.44-3.29,6.89-5,10.31a1.54,1.54,0,0,0,.3,2c.12-.2.21-.33.28-.47,2-4.23,4-8.48,6.11-12.69A2.36,2.36,0,0,0,10.55,22.36Z"/><path class="cls-1" d="M8.64,22.83C7,19.48,5.48,16.12,3.89,12.77c-.25-.53-.56-1-.93-1.71l-.79,1.54a8.21,8.21,0,0,1,.49.78c1.46,3,2.88,6.11,4.38,9.14a2.09,2.09,0,0,1,0,2.08c-1.45,2.9-2.82,5.83-4.28,8.73a1.84,1.84,0,0,0,.34,2.33,5.63,5.63,0,0,0,.38-.59c1.74-3.64,3.46-7.29,5.21-10.93A1.38,1.38,0,0,0,8.64,22.83Z"/><path class="cls-1" d="M6.43,22.85C5.18,20.22,3.95,17.58,2.69,15c-.23-.48-.53-.93-.84-1.47a1.43,1.43,0,0,0-.31,1.73C2.81,17.77,4,20.37,5.26,22.93a1.21,1.21,0,0,1,0,1.16c-1.19,2.41-2.36,4.83-3.57,7.23a1.51,1.51,0,0,0,.25,1.94,7.18,7.18,0,0,0,.49-.77c1.33-2.8,2.65-5.61,4-8.41A1.32,1.32,0,0,0,6.43,22.85Z"/><path class="cls-1" d="M4.38,22.64C3.53,20.83,2.69,19,1.83,17.21c-.26-.54-.56-1.05-.88-1.65-.71.74-.8,1.05-.46,1.8.75,1.62,1.45,3.26,2.3,4.82a2.5,2.5,0,0,1,0,2.68C2,26.3,1.29,27.79.59,29.29c-.4.85-.3,1.18.41,1.87a2.21,2.21,0,0,0,.18-.27c1.07-2.26,2.12-4.52,3.21-6.76A1.57,1.57,0,0,0,4.38,22.64Z"/><path class="cls-2" d="M5.16,45.09a2.61,2.61,0,0,1-.39-.61C3.72,42.4,2.7,40.3,1.69,38.2,1.12,37,.56,35.81,0,34.62v1.32l4.37,9.15Z"/><path class="cls-2" d="M3,45.09a2.54,2.54,0,0,1-.38-.65L0,39v1.47C.72,42,1.44,43.54,2.13,45.09Z"/><path class="cls-2" d="M.87,45.09a2.64,2.64,0,0,1-.34-.58L0,43.39v1.7Z"/><path class="cls-2" d="M.82.54.56,0H0V.52A2.22,2.22,0,0,1,0,1.86V3.54L.78,1.95A1.48,1.48,0,0,0,.82.54Z"/><path class="cls-2" d="M2.91,2a2.05,2.05,0,0,0,0-2H2.22l.1.22a1.58,1.58,0,0,1-.15,1.54C1.44,3.27.72,4.79,0,6.31V7.94L2.53,2.76C2.65,2.52,2.78,2.27,2.91,2Z"/><path class="cls-2" d="M4.92,2.22A2.18,2.18,0,0,0,4.91,0H4.15a2.14,2.14,0,0,1,.07,2.05Q2.09,6.4,0,10.76v1.45Q1.54,9,3.07,5.81C3.66,4.6,4.29,3.41,4.92,2.22Z"/><path class="cls-2" d="M13.75,45.09a1.92,1.92,0,0,1-.28-.45c-.85-1.75-1.68-3.52-2.52-5.28-.33-.69.25-1.09.52-1.63,1.4,2.36,2.38,4.9,3.59,7.34l-.06,0h1A8,8,0,0,1,15.29,44c-1.08-2.22-2.09-4.47-3.2-6.68-.34-.68-.11-1.12.33-1.74.2.33.36.56.48.81l2.83,5.86c.08.17.2.32.29.49V41.29l-1.91-3.81c-.41-.82-.84-1.64-1.22-2.48a.87.87,0,0,1,0-.61c.15-.38.36-.73.63-1.27.36.7.63,1.28.93,1.84.51,1,1,1.91,1.55,2.86V36.5l-1.55-3c-.18-.36-.35-.73-.55-1.15l.64-1.36L16,33.69V32c-.31-.56-.64-1.11-.92-1.69a2.76,2.76,0,0,1,.59-1.77c.06,0,.22.1.33.16V26.26c-1,2.12-1.94,4.25-2.93,6.36q-2.47,5.26-5,10.5c-.22.46-.45.92-.69,1.41-.77-.76-.88-1.17-.5-2q2.75-5.86,5.52-11.71c1-2.19,2.09-4.36,3.14-6.54a7.24,7.24,0,0,1,.43-.69V23C15.52,22,15,21.11,14.5,20.16c-1.28-2.61-2.53-5.24-3.79-7.86S8.07,6.75,6.77,4a1.07,1.07,0,0,1,0-.75A9.26,9.26,0,0,1,7.41,2c.39.73.74,1.31,1,1.92q2.87,5.93,5.71,11.87c.45.94.87,1.89,1.32,2.83.16.34.37.66.56,1v-2c-.09,0-.23.16-.27.13a1.73,1.73,0,0,1-.47-1.47c.22-.55.49-1.09.74-1.63V13.21l-1.22,2.48c-.54-.59-.81-1.11-.43-1.83.58-1.09,1.11-2.2,1.66-3.29V8.91c-.59,1.23-1.17,2.47-1.76,3.71-.14.29-.31.56-.5.91a2,2,0,0,1-.31-2.46c.75-1.37,1.34-2.83,2-4.24A8.93,8.93,0,0,1,16,5.94V4.29l-2.94,6.16c-.11.24-.25.47-.4.76a1.71,1.71,0,0,1-.32-2.13c1.15-2.22,2.21-4.48,3.3-6.73A5,5,0,0,1,16,1.81V.49L15.74,0h-.87l.31.68a1.24,1.24,0,0,1,0,.92C14.16,3.93,13.06,6.23,12,8.54a2.19,2.19,0,0,1-.31.38c-.73-.79-.78-1.07-.35-2C12.16,5.24,13,3.52,13.88,1.8a1,1,0,0,0,.06-1L13.56,0H7.64l-.1.22C7.45.14,7.39.07,7.32,0H6.53L6.8.57a1.24,1.24,0,0,1,0,1.18Q3.54,8.45.29,15.17l-.29.6v15c2.28,4.74,4.56,9.48,6.75,14.28ZM1,31.16c-.71-.7-.81-1-.41-1.87.7-1.49,1.39-3,2.18-4.43a2.5,2.5,0,0,0,0-2.68C1.94,20.62,1.25,19,.5,17.36c-.34-.75-.26-1.05.46-1.8.32.59.62,1.11.88,1.65.86,1.81,1.7,3.62,2.55,5.43a1.57,1.57,0,0,1,0,1.49c-1.09,2.24-2.14,4.51-3.21,6.76A2.21,2.21,0,0,1,1,31.16Zm.94,2.12a1.51,1.51,0,0,1-.25-1.94c1.21-2.4,2.38-4.82,3.57-7.23a1.21,1.21,0,0,0,0-1.16C4,20.37,2.81,17.77,1.54,15.21a1.43,1.43,0,0,1,.31-1.73c.31.54.61,1,.84,1.47,1.25,2.63,2.48,5.27,3.74,7.89a1.32,1.32,0,0,1,0,1.25c-1.34,2.8-2.66,5.61-4,8.41A7.18,7.18,0,0,1,1.94,33.27ZM3.1,35.67a1.84,1.84,0,0,1-.34-2.33C4.22,30.44,5.59,27.51,7,24.61a2.09,2.09,0,0,0,0-2.08c-1.5-3-2.92-6.09-4.38-9.14a8.21,8.21,0,0,0-.49-.78L3,11.06c.37.68.68,1.18.93,1.71C5.48,16.12,7,19.48,8.64,22.83a1.38,1.38,0,0,1,.06,1.32c-1.75,3.64-3.47,7.29-5.21,10.93A5.63,5.63,0,0,1,3.1,35.67Zm1.06,2.18a1.54,1.54,0,0,1-.3-2c1.68-3.43,3.32-6.87,5-10.31a9.24,9.24,0,0,0,.65-1.42,1.7,1.7,0,0,0,0-1.09c-1.11-2.39-2.26-4.76-3.39-7.14-.86-1.81-1.73-3.62-2.55-5.44-.25-.55.21-.93.55-1.47.19.32.33.54.45.77,2,4.21,4,8.43,6.05,12.63a2.36,2.36,0,0,1,0,2.31c-2.07,4.21-4.08,8.46-6.11,12.69C4.38,37.51,4.29,37.64,4.17,37.84Zm1,2.27a1.78,1.78,0,0,1-.32-2.19c2-4,3.87-8.08,5.81-12.12a11.66,11.66,0,0,1,.65-1.24,1.85,1.85,0,0,0,.05-1.95C10.6,21,9.8,19.37,9,17.73q-2-4.2-4-8.41A1.27,1.27,0,0,0,4.87,9c-.83-1-.11-1.69.34-2.6A6.23,6.23,0,0,1,5.59,7c1.59,3.29,3.18,6.58,4.75,9.87.9,1.89,1.73,3.8,2.64,5.68a1.48,1.48,0,0,1-.06,1.4c-1.08,2.29-2.13,4.58-3.22,6.87-1.38,2.9-2.78,5.79-4.18,8.69C5.44,39.69,5.35,39.85,5.21,40.11ZM6.3,42.22c-.69-.6-.82-1-.5-1.64,1.65-3.54,3.29-7.07,5-10.6.91-1.91,1.86-3.8,2.81-5.69a2.23,2.23,0,0,0,0-2.17C11.76,18.53,10,14.9,8.31,11.28c-.8-1.66-1.58-3.33-2.37-5-.42-.88-.41-.9.32-1.84.48.94,1,1.82,1.38,2.73Q10.89,14,14.1,20.73c.31.65.57,1.31.89,2a1.28,1.28,0,0,1,0,1.24c-1.69,3.58-3.34,7.18-5,10.76C8.87,37,7.72,39.39,6.59,41.74,6.51,41.91,6.4,42.06,6.3,42.22Z"/></g></g></svg>