<svg xmlns="http://www.w3.org/2000/svg" viewBox="0 0 361.96 176.84"><defs><style>.cls-1{fill:#1f8394;}.cls-1,.cls-2,.cls-3,.cls-4{fill-rule:evenodd;}.cls-2{fill:#1c4955;}.cls-3{fill:#fff;}</style></defs><title>nuvem_escura_02</title><g id="Layer_2" data-name="Layer 2"><g id="Layer_1-2" data-name="Layer 1"><path class="cls-1" d="M362,111c-1.64,4.21-3,8.56-5,12.59a30.9,30.9,0,0,1-5.8,8.35,93.76,93.76,0,0,1-12.13,10,39,39,0,0,1-9.09,4.13c-3.2,1.15-6.54,1.89-10,2.86-.87,2.14-1.32,5-2.94,6.85a83.52,83.52,0,0,1-11.46,11c-6,4.62-13.05,7.22-20.38,8.65-6.05,1.18-12.08,1.92-18.52,1.05a67.25,67.25,0,0,1-19.55-5.73c-5.05-2.36-9-7-13.88-11-3.81,1.12-8.08,0-12.36-1.18-3.12-.88-3.77-.73-6.27,1a11.08,11.08,0,0,1-2.78,1.75c-25.92,9.08-50.2,8.42-72.76-7.67a18.38,18.38,0,0,1-2.77,1.49c-5.83,1.93-11.6,4.19-17.57,5.56A117.82,117.82,0,0,1,101.16,163a84,84,0,0,1-27.56-2.11,81.38,81.38,0,0,1-18.23-6.71c-4-2.15-7.1-5.12-10.24-8.14a23.51,23.51,0,0,1-3-4.35c-5.23.81-10.17,2.63-14.79,2-5-.67-10.69.66-15.16-3-4-3.29-8.7-5.88-11.07-10.85-.19-.39-.76-.6-1.15-.9V115a31,31,0,0,0,1.94-3.17c2.6-5.6,6.5-9.78,12.41-11.94,1.82-.67,3.56-1.56,5.27-2.31,0-5.22-.06-10.19,0-15.16,0-2.52.11-4.92,1.44-7.38,1.85-3.41,2.9-7.17,5.36-10.37a28.72,28.72,0,0,1,12.36-9.77,44.81,44.81,0,0,1,18.24-2.95A60.88,60.88,0,0,1,68.34,53c2.21.49,4.24,1.9,6.13,3,1.69.85,4.26,3.45,6.48,5.67a41.24,41.24,0,0,1,6.87,8.79c1.67,3,2.39,6.52,3.61,10l16,2.62c3.42-6.56,7.84-11.69,13.67-14.49s11.57-7.34,19.35-5.46c2.15-3.16,4.58-6.09,6.29-9.41,2.13-4.14,6-6.17,9.54-8.4,2.64-1.66,6-2.19,9.67-3.44,4.51-5,9.37-10.79,14.71-16.12a84.87,84.87,0,0,1,18-13.33A136.06,136.06,0,0,1,216,3.88a27.26,27.26,0,0,1,3.76-1L232,0h17l12.19,2.89a22.48,22.48,0,0,1,3.75,1,93.52,93.52,0,0,1,15.8,8.63c8,5.46,12.61,13,16.32,21.33,1.84,4.12,2.83,8.63,4.06,13a26,26,0,0,1,.94,5.78c.15,3.28,0,6.57,0,10.1,2.53-.07,4.46.85,6.3-1.32.89-1,3-1.31,4.56-1.48a35.24,35.24,0,0,1,20,3.54,54.52,54.52,0,0,1,17.79,13.76c3.27,4,6.4,8.15,8.08,13.17,1,2.89,2.08,5.72,3.13,8.58Zm-79-90.9-1-1.06-5.94-4-3.06-1c-.53-.6-.94-1.44-1.6-1.77a64.63,64.63,0,0,0-9.39-3.86C253.4,5.8,244.89,4.2,236,5.14c-2.11.23-4.22.58-6.31,1q-4.07.79-8.1,1.78c-1.1.27-2.12,1-3.22,1.15-7,.89-12.88,4.67-18.63,8.13-6.51,3.92-12.42,8.92-18.22,13.89-4.08,3.5-8.59,6.89-9.87,12.75-.33,1.5-1.45,2.84-2.35,4.52l-3.09-2-7.91,3.3c-6.64,4.26-10.66,9.63-12.45,16.07-8.69,1.85-16.88,3.64-24,8.19-4.37,2.78-9.46,5.35-8.93,11.54L110.09,88c-1.26,0-2.79.44-3.88-.07-5.7-2.66-11.71-1.55-17.62-1.91-4.32-.26-7.64.72-10.8,4.16-1.93,2.1-3.74,4-4.56,7.35-2.39-3-1-5.08.36-6.67,2.62-3.08,5.46-6,9.69-7a23.61,23.61,0,0,0,4-1.82c-1.17-2.39-2.39-4.21-3-6.22C81.45,66,73.94,60.55,65.12,57.48c-6.43-2.23-13.61-2.76-20.26.65a12.52,12.52,0,0,1-2.76.95,20.53,20.53,0,0,0-11.54,7.38C25,73.69,23.08,82.37,23.2,91.37c0,3.72,1.08,7.42,1.74,11.56h-9.5c-2.82,2.81-5.48,5.44-8.11,8.09-2.85,2.87-3.44,6.4-3.26,10.29a14.39,14.39,0,0,0,2.77,8.36c4.63,5.79,7.72,7.15,15.82,9.33a11.67,11.67,0,0,0,7.64,0c3-1.14,6.22-1.82,9.33-2.7v-3.1L33.58,135l-1.89-2.68-2.13,3.43c-6.16,1.44-11.15-.3-15.87-3.65-6.3-4.48-8-9-6.09-17l1.46-.16v8.21c.92-4,.92-4,2.7-5.81,1.47,1,2,2.46.5,3.63-1.87,1.45-1.19,2.74-.52,4.21,3.81,0,3.81,0,4.35,3.92l-2.11-1-.31-.4.41.3,1.9,3,3.12,1c2.29,2.19,2.29,2.19,6.94,1.47-2-2.07-4.68-1-7-1.36l-3.12-1L16,129,24,130l1.82-3.43c2.52,1.36,4.78,2.52,7,3.81.45.26.63,1,.91,1.46l5.48-2.42-4.88-1.85.09-.54,6.86-.31c-4-7.26-3.2-9.08,1.3-13.47,1-2.09-.78-4.7,2.12-6.67l.71,6.66H46l2.91-8.85A27.47,27.47,0,0,1,32.93,93a26.07,26.07,0,0,1-.61-12.9l1.75-.23.21,2.37.63-.2L34,80l0-4,.4-.31-.3.41c-1.15.76-1.66,3.11-4.2,1.15.75-2.8,1.41-5.89,2.47-8.85.26-.72,1.8-1,2.75-1.45L34,71l-.16.19c-.1.69,0,.2,0-.29l3.87-4.65-2.87.81L34,64.76,44,62,44,62c0,.49.11,1.37-.06,1.43-4.16,1.44-5.33,5.41-7.18,8.69A4.72,4.72,0,0,0,37.16,78c2,2.24,1.1,4.38-.65,5.85a15.07,15.07,0,0,1,1.56,3.1c.77,3.47,2.14,6.18,5.38,8.33C46.09,97,48.63,98.12,51.6,98c2.11-.12,3.2.91,4.88,2.25-2.88,1.52-6,2.42-5.21,6L55,109,55,109v6.57l-3.72,2.16v3.16l4.9,5.22c-.39,3.29-2.76,2.9-4.92,3.25L50,134,50,134l-1.89-5.53-4.64-1.12a16.4,16.4,0,0,0,3.34,14.6c5,6.2,12,9.6,19.52,12,5,1.61,9.84,3.69,15.31,3.08,1.2-.13,2.5.68,3.76,1a10.36,10.36,0,0,0,3.31.79c6-.49,12.31,1.6,18.06-1.8a3.2,3.2,0,0,1,1.47-.13c4.07,0,8,0,12-1.9,4.47-2.18,9.39-3.45,14.11-5.11l1.14-.42L133,146c-3.1.56-6.14,1.19-9.2,1.64-2.31.34-4.75,1.41-6.82-.73L117,147a56.81,56.81,0,0,0,17.29-4.91c1,1.48,1.72,3.18,3,4.35,6.52,6.17,14.4,10.13,22.69,13.28,2.57,1,5.37,2.13,8,2,10.35-.5,20.79,1.7,31.09-1.72,5.31-1.76,10.65-3.12,15-6.78,2-1.64,3.68-2,5.71-.23a8.92,8.92,0,0,0,6.49,1.88c3.48-.12,7,0,10.54,0,1.71,6.7,7.52,9.08,12.4,11.66,5.06,2.68,11,4.12,16.7,5,5.2.83,10.63.23,16,.21.44,0,.86-.45,1.32-.61,1.36-.45,2.73-.86,4.1-1.29,1.54-.49,3.11-.93,4.62-1.51,1-.4,2-1.44,3-1.38,2.08.13,3.43-1,4.87-2.05a29.5,29.5,0,0,1,4-2.91c7.56-3.91,12-10.17,14.33-18.21.62-2.12,1.66-4.55,4.85-4.73l-.73,5c1.8-.9,3.13-2.18,4.3-2.05,5.8.65,9.51-3.55,13.61-6.11,7.91-4.95,12.51-13,15.48-21.62a28.3,28.3,0,0,0,.25-18.72,38.39,38.39,0,0,0-3-6.12c-2.13-3.77-3.79-8-6.72-11.06-4.1-4.2-8.77-8-14.37-10.32-2.56-1-5.14-2.07-7.77-2.94-5.95-2-11.66-1.88-16.78,2.32-.73.6-1.5,1.17-2.28,1.78l-2.21-2.81-4,5.41a60.17,60.17,0,0,1-.74-12.64c.14-4-1.43-7.87-1.49-11.64-.07-4.3-4.54-7-3.25-11l-5.57-10.72.38,7.14L288,33l-2,.86c0-4.32-.53-8-4.71-10.29-1.25-.68-1.61-3-2.37-4.59l3.08,0L283,20l2,2.92.92,1.92.63-.42L284.91,23ZM50,113.94c2.47-.14,2.33-2.2,3.09-4a18.16,18.16,0,0,0-2.22-1.71c-.32-.18-.89.1-1.85.25L50.09,114l-1.72.26v3.86ZM34.91,90.1V85.76l-.92.11L35,90c1.21,5.45,5.08,8.22,10,9.92l.29,1.7H50L44.92,100c-2-1.8-4-3.55-5.93-5.43C37.55,93.19,36.27,91.61,34.91,90.1Zm17.94,36.5L44.07,116l-2.8,1.63v4.77C44.75,124.51,47.71,127.61,52.85,126.6Zm-26.51,5.07h2.59L26.34,129Z"/><path class="cls-2" d="M35,66.93c-1,.47-2.5.73-2.75,1.45-1.06,3-1.73,6-2.47,8.85,2.55,2,3.06-.39,4.2-1.15l-.1-.1,0,4,.11-.1-1.75.23A26.07,26.07,0,0,0,32.93,93l.12-.08-1.45-.25-1.88-8.33-.75.08V95l.11-.1c-1.92-2.29-.58-5-1-7.48-.22-1.47.42-3.18-1.74-5.22-.48,4.42-1.43,8-.54,11.46s2.69,7,4.08,10.43l-5,2.87.13.1-.26-1.8H19.11l-.17,1.8.13-.11c-3.51-1-3.89,2.07-5.12,4l.12.08-.57-2.41-3.24,1.84L11,112l.1-.11-3.26.21L9,115l.11-.13-1.46.16c-1.94,8-.2,12.51,6.09,17,4.71,3.35,9.71,5.09,15.87,3.65l2.13-3.43L33.58,135l6.06-1.8v3.1c-3.12.88-6.31,1.56-9.33,2.7a11.67,11.67,0,0,1-7.64,0c-8.11-2.17-11.19-3.53-15.82-9.33a14.39,14.39,0,0,1-2.77-8.36c-.18-3.89.41-7.42,3.26-10.29,2.64-2.65,5.29-5.28,8.11-8.09h9.5c-.65-4.14-1.69-7.84-1.74-11.56-.12-9,1.82-17.67,7.34-24.91a20.53,20.53,0,0,1,11.54-7.38,12.52,12.52,0,0,0,2.76-.95c6.66-3.41,13.83-2.88,20.26-.65C73.94,60.55,81.45,66,84.3,75.82c.58,2,1.8,3.82,3,6.22a23.61,23.61,0,0,1-4,1.82c-4.23,1-7.07,4-9.69,7-1.36,1.59-2.75,3.72-.36,6.67.82-3.3,2.63-5.25,4.56-7.35,3.16-3.44,6.47-4.42,10.8-4.16,5.9.36,11.92-.76,17.62,1.91,1.09.51,2.63.07,3.88.07l2.81-2.65c-.52-6.19,4.56-8.76,8.93-11.54,7.14-4.55,15.33-6.34,24-8.19,1.79-6.44,5.81-11.81,12.45-16.07l7.91-3.3,3.09,2c.9-1.68,2-3,2.35-4.52,1.28-5.86,5.79-9.25,9.87-12.75,5.79-5,11.71-10,18.22-13.89,5.75-3.47,11.62-7.24,18.63-8.13,1.1-.14,2.12-.88,3.22-1.15q4-1,8.1-1.78c2.09-.41,4.19-.76,6.31-1,8.88-.95,17.39.66,25.88,3.28a64.63,64.63,0,0,1,9.39,3.86c.66.32,1.08,1.16,1.6,1.77l.12-.11c-1.66.38-3.86-1.07-5.12,1.37,2.32.76,5,.89,6.37,2.28,1.59,1.58,3,1.47,4.77,1.46l-.13-.11c.77,1.58,1.12,3.91,2.37,4.59,4.18,2.27,4.73,6,4.71,10.29l2-.86q0,3,0,6.06h-1.49l-1.67,4.66c-2.64-1.26-3-4.5-5.9-4.66a2.34,2.34,0,0,0-3-2c-1.35-3.31-2.73-3.77-5.1-1.38L276,37c-.37,2.73,1.51,2.07,3,2,0,.32-.19.75,0,1a78.88,78.88,0,0,1,7,12.27c.21.47,1.31.53,2,.78a25.66,25.66,0,0,0-.11,4c.64,5.19-1.73,9.19-4.89,12.92a11.48,11.48,0,0,0-1,1.64,3.74,3.74,0,0,0,2.82-.89c1.42-1.18,2.78-2.43,4.16-3.66a5.75,5.75,0,0,0,0,7c-2.06.91-.86,2.63-1,4-3.21,1.26-8.15,6.33-8.69,9.67l9.12-6.53h5.47c4.91,2,5.57,7.25,8.14,11l.93-.37-1.58-9.2-2.76-1.27h5.93c0,1.8,3.18,7,4.33,7.17l.37-3.77,3.92-2.78c1.82.22,4,0,5.67.77,5.26,2.44,8.22,6.53,8.07,12.64,0,1.88.7,3.78,1.08,5.67-2.75-.48-2.41,2.16-3.42,3.42-1.53,1.92-1.48,2-.91,4.32,2.11-2.33,4.3-4.44,4.26-7.81.38-.63,1-1.24,1.08-1.89.32-4.78.25-9.52-2.78-14.09-7.76-5.26-7.76-5.26-14.34-5l-3.33,2.66c-3.29-3.77-5.48-4.54-10-3.62A19.65,19.65,0,0,1,287.93,78c1.86-1,2.14-2.31,1-4,1.37-3.15,2.78-6.28,4.08-9.45a5.54,5.54,0,0,0,.07-2c0-3.31,0-6.63,0-9.94,0-2.77-.46-5.31-2.78-7.42A6.9,6.9,0,0,1,287.94,39q2.68-3,0-6l-.37-7.14,5.57,10.72c-1.28,3.95,3.18,6.65,3.25,11,.06,3.77,1.63,7.63,1.49,11.64a60.17,60.17,0,0,0,.74,12.64l4-5.41,2.21,2.81c.79-.61,1.55-1.18,2.28-1.78,5.12-4.2,10.83-4.28,16.78-2.32,2.63.87,5.21,1.89,7.77,2.94,5.6,2.29,10.28,6.12,14.37,10.32,2.94,3,4.59,7.29,6.72,11.06a38.39,38.39,0,0,1,3,6.12,28.3,28.3,0,0,1-.25,18.72c-3,8.62-7.57,16.68-15.48,21.62-4.09,2.56-7.81,6.76-13.61,6.11-1.17-.13-2.5,1.15-4.3,2.05l.73-5c-3.19.17-4.22,2.6-4.85,4.73-2.36,8-6.77,14.3-14.33,18.21a29.5,29.5,0,0,0-4,2.91c-1.45,1.09-2.79,2.18-4.87,2.05-1-.06-2,1-3,1.38-1.51.57-3.08,1-4.62,1.51-1.37.43-2.74.84-4.1,1.29-.46.15-.88.61-1.32.61-5.33,0-10.76.62-16-.21-5.72-.91-11.64-2.36-16.7-5-4.87-2.58-10.69-5-12.4-11.66-3.58,0-7.07-.09-10.54,0A8.92,8.92,0,0,1,219.7,153c-2-1.76-3.75-1.42-5.71.23-4.35,3.66-9.7,5-15,6.78-10.3,3.42-20.74,1.21-31.09,1.72-2.64.13-5.44-1-8-2-8.29-3.15-16.17-7.11-22.69-13.28-1.24-1.17-2-2.88-3-4.35A56.81,56.81,0,0,1,117,147q-.06-.92-.11-1.83l-3.2-.56c2.2-2.29,5-1.48,7.52-1.48,3.65,0,7.29.06,10.49-2,.64-.41.88-1.43,1.31-2.17l5.25-1.34c1.3,1.37,2.68,3,4.19,4.4,1.82,1.74,3.74,3.37,5.62,5.05l-.1-.1c.55,1.31.77,3.36,1.73,3.81,3.63,1.69,7.27,3.75,11.54,3.27a6.44,6.44,0,0,0,1.84-.86l.07-1c-4.67-.37-9.71.1-12.95-5.49l10.66,2.08V146c3.7.37,7.67-1.2,10.2,2.37-2.52,2.57-6.23-.69-9.25,2.09,2.43.27,4.62.57,4.49,3.54H170l-.12-.12.32,2h19L200.11,148c5,.8,9.67-.78,14-3.83.23-.16.65-.06,1-.08l-.11-.1c-1.87,4-6.57,4.61-8.81,7.68l-5.12.55V154c-3,.18-6.18-1.11-8.87,1.66h8.8V154c4.67.89,8.13-1.59,11.26-4.39,3.69-3.29,7.06-6.93,10.52-10.36h6.51l3.59,2.71c-.3,5.48,1.56,9.54,6.63,12.2a20.3,20.3,0,0,1,6.08,5.45A5.61,5.61,0,0,0,250,162l-.1-.11c.86,2.76,3.14,2.13,5.15,2.14l-.11-.12.26,1.8c8.6,1.81,17,4.32,25.55-1.67,1.14.07,3,.07,4.75.32,4.41.6,8.2-1.06,11.82-3.23.48-.29.45-1.44.65-2.2l4.16-2.6-.5-2.43c-3.32,2.34-3.32,2.34-3.6,5.09l-7.3,2.86c-3.81,0-8.81.2-13.8-.06a14.3,14.3,0,0,1-12-6.94c-.32-.51-1.31-.59-2-.86,1.22-1.63.42-2.84-1.53-5l-.54,1.7L253.94,149c-.26-.69-.31-1.63-.81-2-4.76-3.92-7.17-8.58-5.22-14.88.18-.59-.52-1.45-1-2.61l-3.12,6.09c-.5-5-.51-5-3.89-3.57,0-.33.17-.87,0-1a12.23,12.23,0,0,1-5.72-8.27c0-.19-.56-.29-1.16-.57-.1,1.72-.18,3.31-.26,4.72,1.8,2.78,3.19,5.79,7.17,5l.69,2.21a31.17,31.17,0,0,0-4.41,0c-5,.73-10,2.32-14.21-2.16-.26-.27-1.16.06-1.88.12l1.38,3c-3.81-.85-6-3.22-7.92-5.39s-3.22-5.25-5-8.24c-1.86,3.67.26,6.09,1.71,8.2,1.67,2.43,4.23,4.25,6.39,6.35.14.13.15.4.24.69h-3.54L208,132c0,1.5-.4,3,.07,3.34a73.33,73.33,0,0,0,6.42,4.1c-6.23,8.22-18,10.23-27.4,3-.62,2-.62,2,.83,4.13-4.37,2.16-7.63-2-12.29-2.63l1.36,2.79h-4.83l-2.79-3.57a17.89,17.89,0,0,1-4.25.7c-7.22-.54-14.06-2.17-19-8-.91-1.07-1.57-2.14-3.17-1.78l-1-2c.93-1.43,1.63-2.71.35-4.48a8.66,8.66,0,0,1-1.16-4.09c-.22-2.14-.14-4.31-.19-6.47l2.1-1.65c-2.3-.59-2.15.58-2,1.71l-2,.2c-.34,5.33-.85,10.45,3,14.74l1,2-.7,1.6c4.15,3.81,8,7.94,13.79,9-11,.65-15.25-7.41-20.23-15.17l.89,6.32a13.6,13.6,0,0,0-2.87,1.31c-.5.38-.59,1.3-.87,2-1,.08-2.1-.14-2.86.29-5.28,3-11,2.6-16.75,2.57-1.81,0-3.63.09-5.44.13,0-.49.14-1.31-.07-1.42-2.46-1.26-5-2.41-7.47-3.59,1.33,3.81,4,5.14,7.6,4.95l2.44,1.71a10.66,10.66,0,0,1-9.15,3.27A63,63,0,0,0,94,147c-.42-.7-.67-1.71-1.29-2-1.87-1-3.88-1.75-5.94-2.64-1.55,2.46-4.4,1.2-6.76,1.68l-.21-2.1h-6c-2.73-1.32-3-5.5-6.69-5.85,2.65,6.41,5.64,8.15,13,7.88l.19,2.08c4.37.05,8.7-.7,12.59,1.59.2.12.8-.43,1.22-.67v4.18l4.24-.56-1.7-2.93L105,149c-2,.08-4.29-1-6.7,1.66H105V149c.8,0,1.87.35,2.35,0,2.94-2.33,6.41-1.63,9.71-2,2.07,2.13,4.51,1.07,6.82.73,3.06-.45,6.09-1.08,9.2-1.64l2.47,3.41-1.14.42c-4.72,1.66-9.64,2.93-14.11,5.11-3.94,1.92-7.88,1.86-12,1.9a3.2,3.2,0,0,0-1.47.13c-5.74,3.39-12,1.3-18.06,1.8a10.36,10.36,0,0,1-3.31-.79c-1.26-.35-2.56-1.16-3.76-1-5.47.61-10.31-1.47-15.31-3.08-7.52-2.42-14.55-5.81-19.52-12a16.4,16.4,0,0,1-3.34-14.6l4.64,1.12L50,134l-1.57,2.27-1.37-3.83a4.06,4.06,0,0,0-.73,4.62,15,15,0,0,0,9.55,9.05c1.7.61,3.76.15,5.53.63A47.89,47.89,0,0,1,67,149c.27.11.65-.05,1-.09l.17,2.09L77,152c3.69,2.39,7.67.84,11.53.79.14,0,.28-.52.42-.79,1.43,0,3.1.73,4.11-1.2-3.17-.89-3.17-.89-4.05,1.26H77l-.17-1.95L68,149c0-.33.18-.81,0-1a77.83,77.83,0,0,0-6.49-5.85c-.47-.35-1.92.6-3.43,1.13-3.15-2-5.72-5.59-8.1-9.33l1.26-4.69c2.16-.35,4.53,0,4.92-3.25l-4.9-5.22v-3.16L55,115.52V109h2.25l3.75-12c-5,2.95-4.84,7.82-5.94,12.09l-3.76-2.78c-.78-3.61,2.33-4.52,5.21-6C54.8,98.86,53.71,97.83,51.6,98c-3,.16-5.51-1-8.15-2.71-3.25-2.15-4.62-4.86-5.38-8.33a15.07,15.07,0,0,0-1.56-3.1c1.75-1.47,2.66-3.61.65-5.85a4.72,4.72,0,0,1-.43-5.89c1.85-3.28,3-7.24,7.18-8.69.16-.06,0-.93.06-1.43,2.33-.17,4.93,1.11,7.82-1.67H44V62L34,64.76l.91,2.3ZM303.93,101c0-1.1.75-2.47-1-3,.72-1.56,2-1.83,3.62-2,3.59-.26,3.71,3.37,5.62,5.22,1.64-2.26.26-3.74-.67-5.1a34.9,34.9,0,0,0-3.43-3.78c-2.39,2.9-5.86,1.76-9.14,1.63l-.77-1.94-1.11,1.11L299,94q.11,3.9,4,4c0,1.1-.75,2.47,1,3-1.47,2.31-1.69,4.6.23,6.85C304.72,105.54,306.18,103.23,303.93,101ZM59,139c1.1,2.67,1.15,2.69,4.7.24L59,139l-4.71-6.5C52.85,136.4,53.79,137.67,59,139ZM307.93,112l-.77-1.94-1.11,1.11L308,112c-.8,3.29,1.44,5,3.41,7.38C312,115.55,310.74,113.19,307.93,112ZM235,9c-2.39.32-4.8.56-7.15,1.05-.4.08-.56,1.27-.84,1.95-4.43.29-8.87.46-13.28.94a17.28,17.28,0,0,0-5.1,1.67c-2.81,1.28-5.5,2.85-8.32,4.11-1.52.68-2.64,1.39-2.3,3.27l-7,3.16L192,27l-5.92,3.27L187,32c-3.48,1.56-6.66,3.34-6,8-3.95-.4-1.92,4.58-4.71,5.23l.6,1.83L177,47c-2.5-.22-3.44,1.93-5.94,3.31,4.12,1.31,7.33,2.56,8.83,6.05l-2.37,8.13a16.31,16.31,0,0,0-9.47,7.62c-5.55.87-10.54.54-14.61-3.38l-.84-3.39-.9,0L151,68.69l-6.1.71,3.08,2.13-1.37,2.58c4.28,0,7.9-.07,11.51,0,1.24,0,3.06.09,3.58.85,2,2.86,3-.48,4.54-.67-.27,2.11-.9,4,.6,5.86l5.4-10.49,8.53-4.25c.32-3.59-.18-7.58,3.26-10.37l-.1-.1c.24,1.4-.82,3.28,1.44,4.05l4.48-12.61c.6,2.87-.17,5.57.2,8.12.49,3.35-.87,5.48-3.07,7.48l-.33-1.7-.67.36L187,62a3.42,3.42,0,0,0,0,5c-2.18,1.66-1,3.64-.06,5.57V67c.63-1,1-2.33,1.91-3.08,3.14-2.69,3.43-6.18,3.24-9.91a16.13,16.13,0,0,1,2.52-9.27,47.53,47.53,0,0,1,9.95-12.35,43.66,43.66,0,0,1,10.37-6.93V24h3.65c-1.31-1-2.66-1.88-3.6.06l-9.39,2.51c2.45-2.14,4.33-3.7,6.1-5.39A8.73,8.73,0,0,0,212.95,19c4.28,1.65,7.36-3.08,11.5-1.85l1-2.38a11.78,11.78,0,0,0,1.46,1.17c.16.1.55-.19,1.12-.41l-1-3.54,8-1.21V9h9.59C241.32,8.23,238,6.66,235,9Zm73,135-7.06,3.33c.09,2.06-.6,4,1.3,6.49a10.27,10.27,0,0,1,5.39-8.07c.33-.19.21-1.19.3-1.81l2-2a26.13,26.13,0,0,0,9-5.31,6.9,6.9,0,0,0,.93-1.15c.89-1.35,1.76-2.72,2.57-4l5,1.55c1.09-.76,2-2.58,4.37-1.25,1.3.74,2.08-.9,1.15-2.92l.1.1,2.93-3.3.79,2.66c1.94-1.39,3.65-2.55,5.27-3.81a5.86,5.86,0,0,0,1-1.58l-.1.1c3.74-.36,4.42-3.26,5.12-6.15l-.1.12c2.59-5.17,3-12.62.42-16.44-1.05,4-.14,7.78-.81,12-1.85-7.54,1.5-14.61-1-21.52h-1.67a7.68,7.68,0,0,0-2-7c-4.24-10.21-10.81-14.52-20.18-11l3.77,2.62,5.9-1.89c2.15,2.6,3.63,5.11,5.79,6.75,1.55,1.18,1.9,4.2,4.8,3.49-2,2.49.42,4.62.21,7H345q-.06,2.53-.11,5.06l.1-.1L342.53,94c.83,4.5,2.52,8.51.1,12.8,1.35,1.31,3.23,2.69,1.92,4.49s-1.43,3.53-1.87,5.45-1.76,3.76-2.85,5.53c-.13.2-1.23-.19-1.89-.31,1.48-1.32,2-2.94,1.7-5.57-2.12,2-2.68,3.56-1.63,5.62-3-.49-3.44,2.56-5.07,3.9-3.42,2.8-6.65,5.5-11.58,2.79l-5.23,8.1-5,.56L310,142Q307.52,141.54,308,144Zm2-72c-1.72,0-3.44-.11-5.16-.12-1.45,0-3.05-.26-3.43,1.44l10.41,3.73c.33-2.52-3.59-2.62-1.88-5.11l9-1.46c-3-2-5.84-2-8.53-.23C310,70.51,310.11,71.42,310,72ZM166,54h4.65V53H166c-1.64-2.27-3.6-1.11-5-.05-3.53,2.6-7.1,5.31-7.86,10.11,0,.23.29.53.59,1l2-1.17.57,3.64c1.21-3.13,2.48-6,5.32-7.84.39-.25.33-1.18.48-1.79l-.12.12,4.94-1.1ZM137,77a17.79,17.79,0,0,0,3.68-1c.62-.31.89-1.32,1.32-2h3.65c-1.31-1-2.66-1.88-3.6.06l-1.18-1.46c-6.73-1.41-12.24.33-17.67,4.06-6.63,4.56-6.65,10.82-6.14,17.64L119.57,98l3.91-.29L119.25,92l-1,1C117.1,87.69,119.51,83.19,123,80s7.91-6.51,13.6-5.69L137,77l-2.84,1C136.05,79.24,137.29,79.23,137,77ZM311.61,120c-1.34,5.17-.77,9.78-3.71,13.34.54,5.12-5.77,6.09-6.95,10.82C309.67,139.62,314.93,128.25,311.61,120ZM58.38,127.26c.89,5.54,5.26,6.23,9.53,7.09C65.19,131.39,61.68,129.48,58.38,127.26ZM342.3,93.12c.86-3.46-1.71-4.65-3.57-5.75a4.75,4.75,0,0,0-5.78.73C336.74,88.58,339.12,91.54,342.3,93.12Zm-53.43,59.83c4.12-.62,7.47-2.83,10.39-6.71.54-.72.5-1.86.91-3.56ZM256.52,11.87l-.37.81,5.63,6.87V14.2Zm-26,3.14c2.09,2.06,2.09,2.06,5.37.34ZM248,9.61l.23,1.21c1.25-.22,2.91,1.34,3.89-1.47A13.77,13.77,0,0,0,249.54,9,5,5,0,0,0,248,9.61Zm-216.87,69c-2,2.5-2,2.5-.54,5.34Zm114-6.93c-1.58-1.79-1.58-1.79-3.37,0Zm24.76-20c-1.15-1.94-2.17-2.33-3.11,0Zm172.22,63.51c-.37-.47-.58-1-.88-1.06s-.77.29-1.17.46a5.88,5.88,0,0,0,.91,1.25C341.05,115.92,341.6,115.48,342.09,115.19Zm-87-104c-.37-.47-.58-1-.88-1.06s-.77.29-1.17.46a5.85,5.85,0,0,0,.91,1.25C254.06,11.93,254.61,11.49,255.1,11.2Zm39.76,81.64a5.45,5.45,0,0,0-.7-.77,4.79,4.79,0,0,0-.75.63Zm18.77,37.43-.57.1.23,1.33.57-.1Z"/><path class="cls-2" d="M32.93,93a27.47,27.47,0,0,0,16,11.39L46,113.26H45.4l-.71-6.66c-2.9,2-1.16,4.58-2.12,6.67-4.49,4.39-5.26,6.21-1.3,13.47l-6.86.31-.09.54,4.88,1.85-5.48,2.42c-.28-.47-.46-1.19-.91-1.46-2.19-1.28-4.45-2.45-7-3.81L24,130,16,129l.11.12c-.54-3.95-.54-3.95-4.35-3.92-.66-1.47-1.35-2.76.52-4.21,1.5-1.17,1-2.59-.5-3.63-1.78,1.76-1.78,1.76-2.7,5.81v-8.21L9,115c2.62.26,2.09-1.61,2.1-3.11L11,112l3.1-1-.12-.08,1.11,2.47,4-6.48-.13.11h6.12l-.13-.1c.63.36,1.33,1.12,1.89,1,2-.33,4-.94,6-1.45l.59-5.33,4.85,2.11c.07-1.53-.18-2.85-.79-3-3.67-1.2-4-4.24-4.46-7.31Z"/><path class="cls-2" d="M52.85,126.6c-5.15,1-8.1-2.09-11.58-4.17v-4.77l2.8-1.63Z"/><path class="cls-2" d="M45,99.92c-4.93-1.7-8.79-4.47-10-9.92l-.11.1c1.35,1.51,2.64,3.08,4.08,4.5,1.91,1.88,3.95,3.63,5.93,5.43Z"/><path class="cls-2" d="M50.09,114,49,108.48c1-.15,1.53-.43,1.85-.25a18.16,18.16,0,0,1,2.22,1.71c-.76,1.79-.62,3.85-3.09,4Z"/><path class="cls-2" d="M19,132c2.37.35,5-.71,7,1.36-4.65.72-4.65.72-6.94-1.47Z"/><path class="cls-1" d="M275.94,15.07l5.94,4,.11-.11-3.08,0L279,19A29.58,29.58,0,0,1,277,16.82a10.73,10.73,0,0,1-.95-1.88Z"/><path class="cls-2" d="M34,71l1-4.06-.12.12,2.87-.81-3.87,4.65Z"/><path class="cls-2" d="M26.34,131.67V129l2.59,2.68Z"/><path class="cls-2" d="M44.92,100,50,101.62H45.33L45,99.92Z"/><path class="cls-2" d="M50,113.94l-1.62,4.23v-3.86l1.72-.26Z"/><path class="cls-2" d="M35,90l-1-4.13.92-.11V90.1Z"/><path class="cls-2" d="M16,131l-1.9-3-.1.1,2.11,1L16,129l-.1,2.11Z"/><path class="cls-1" d="M285,22.9,283,20l-.1.1,2,2.92Z"/><path class="cls-3" d="M272.88,14.05l3.06,1,.08-.12-3-1Z"/><path class="cls-2" d="M15.88,131.07,19,132l.11-.12L16,131Z"/><path class="cls-2" d="M34,80l1,2.07-.63.2-.21-2.37Z"/><path class="cls-1" d="M284.91,23l1.67,1.39-.63.42L285,22.9Z"/><path class="cls-1" d="M33.92,70.88c-.07.49-.14,1,0,.29L34,71Z"/><path class="cls-4" d="M14.08,128l-.41-.3.31.4Z"/><path class="cls-1" d="M34,76.07l.3-.41-.4.31Z"/><path class="cls-1" d="M281.88,19l1,1.06.1-.1-1-1.06Z"/><path class="cls-1" d="M133,139c.28-.68.37-1.61.87-2a13.6,13.6,0,0,1,2.87-1.31l-.89-6.32c5,7.76,9.19,15.82,20.23,15.17-5.82-1.07-9.64-5.2-13.79-9l.7-1.6-.06,0c1.6-.37,2.27.71,3.17,1.78,5,5.86,11.81,7.49,19,8a17.89,17.89,0,0,0,4.25-.7l2.79,3.57H177l-1.36-2.79c4.66.64,7.92,4.79,12.29,2.63-1.45-2.17-1.45-2.17-.83-4.13,9.4,7.23,21.17,5.21,27.4-3a73.33,73.33,0,0,1-6.42-4.1c-.47-.36-.07-1.85-.07-3.34l5.44,4.85H217c-.1-.29-.11-.56-.24-.69-2.16-2.1-4.73-3.91-6.39-6.35-1.45-2.12-3.57-4.53-1.71-8.2,1.75,3,3,6,5,8.24s4.11,4.54,7.92,5.39l-1.38-3c.72-.06,1.62-.39,1.88-.12,4.2,4.48,9.24,2.89,14.21,2.16a31.17,31.17,0,0,1,4.41,0L240,132l-.06.06c3.38-1.42,3.39-1.41,3.89,3.57l3.12-6.09c.45,1.15,1.15,2,1,2.61-2,6.29.46,11,5.22,14.88.49.41.55,1.34.81,2l.06-.06c-5.92-.5-8.31-4.21-8.48-10l-2.83.9,2.31,3.5c-4.09.62-3.62-3.23-5.23-4.81l-4.75,1c.16,3.08.31,6.08.45,8.71l4.59,4.06c.18-3.3-1.2-6,.85-8.46.52.46.89.63.95.88a7.87,7.87,0,0,1,.21,2,10.4,10.4,0,0,0,6.1,10.23c.79.41,1.28,1.38,1.91,2.09l-.29,0,.19-.16a6.52,6.52,0,0,1,2.46.14c2.26,1.12,4.78,1.33,7.12,2.48s5.6.25,8.18.25c-1.7-2.6-5.33-3.82-4.72-7.84l-.07.06c.68.28,1.68.36,2,.86a14.3,14.3,0,0,0,12,6.94c5,.26,10,.06,13.8.06L298,159l-.06-.05c-.21.75-.17,1.91-.65,2.2-3.61,2.17-7.4,3.83-11.82,3.23-1.79-.25-3.61-.25-4.75-.32-8.56,6-17,3.48-25.55,1.67l-.26-1.8c4.39.44,8.92.25,12.05,2.38l8.77-2.15-.13-1.07c-3.39,0-6.79,0-10.18,0s-6.74-.23-10.15-.36L255,164c-2,0-4.29.62-5.15-2.14l2.37-.21-.2-.63L250,162a5.61,5.61,0,0,1-4.42-2.47,20.3,20.3,0,0,0-6.08-5.45c-5.08-2.65-6.94-6.72-6.63-12.2l-3.59-2.71h-6.51c-3.46,3.43-6.83,7.07-10.52,10.36-3.14,2.8-6.59,5.28-11.26,4.39l.06.06v-1.79l5.12-.55c2.24-3.07,6.94-3.72,8.81-7.68l1-2.11,1.9-.88-.42-.64L216,142l-1,2.1c-.33,0-.75-.08-1,.08-4.29,3-9,4.62-14,3.83l-10.83,7.91h-19l-.32-2c4,0,8,0,12-.08a12.78,12.78,0,0,0,3.45-.27c2.28-.68,4.49-1.59,6.06-2.17l4.17-2.73-.5-.9-7.72,1.14c-2.59.38-5.17.85-7.77,1.13-3.58.39-7.17.64-10.54.94l1,3h-3.8c.13-3-2.05-3.28-4.49-3.54,3-2.79,6.73.48,9.25-2.09-2.53-3.57-6.5-2-10.2-2.37v2.69l-10.66-2.08c3.24,5.59,8.28,5.12,12.95,5.49l-.07,1a6.44,6.44,0,0,1-1.84.86c-4.26.48-7.91-1.57-11.54-3.27-1-.45-1.17-2.49-1.73-3.81l.4-.31-.3.41c-1.88-1.68-3.8-3.31-5.62-5.05-1.51-1.45-2.9-3-4.19-4.4L133,139Zm92.29-2.36c0-.11,0-.22,0-.32h-2.67c0,.11,0,.22,0,.32Zm14,0v-.34h-1.69v.34Zm-19.82.65-.18.27.29,0Z"/><path class="cls-1" d="M176.9,47.08l-.6-1.83c2.79-.65.76-5.63,4.71-5.23l-.06-.05.42,3.06a29.81,29.81,0,0,1,2.6-3.2,6.12,6.12,0,0,1,2-.81l-.07-.06.64,2a44.37,44.37,0,0,0,3.61-4A11.49,11.49,0,0,1,198,31.93c-.35.73-.69,1.47-1,2.2s-.63,1.25-1,1.87l-4.63,3.1.64.83c1.22-1.43,3.73-1.43,3.88-4l5.6-4.11-.41-.46-3.19.73c-.47-1.86,1-2.34,2.19-2.67a10.69,10.69,0,0,1,3.37.13c.79-5.57,4.06-9.13,9.53-10.47l-.05-.06a8.73,8.73,0,0,1-1.24,2.18c-1.76,1.69-3.65,3.25-6.1,5.39L215,24l-.05-.06v1.46a43.66,43.66,0,0,0-10.37,6.93,47.53,47.53,0,0,0-9.95,12.35A16.13,16.13,0,0,0,192.1,54c.19,3.73-.11,7.22-3.24,9.91-.87.75-1.29,2-1.91,3.08L187,67a3.42,3.42,0,0,1,0-5l-.06.05c2.2-2,3.56-4.14,3.07-7.48-.37-2.54.4-5.25-.2-8.12L185.34,59c-2.26-.77-1.2-2.65-1.44-4.05l.4-.31-.3.41c-3.44,2.79-2.95,6.78-3.26,10.37l-8.53,4.25-5.4,10.49c-1.5-1.86-.87-3.75-.6-5.86-1.51.19-2.58,3.54-4.54.67-.52-.76-2.35-.81-3.58-.85-3.62-.1-7.24,0-11.51,0l1.37-2.58-3.08-2.13,6.1-.71.74-3.36.9,0,.84,3.39c4.06,3.92,9.05,4.25,14.61,3.38a16.31,16.31,0,0,1,9.47-7.62l2.37-8.13c-1.51-3.49-4.71-4.74-8.83-6.05,2.5-1.37,3.44-3.52,5.94-3.31l-.3,2.31,3.94,2.67,2.29-7Zm8.05,3.83.86-2.14-.61-.18L185.05,51l-.4.31Zm2.33-6.8.59.57,2.86-2.7-.45-.52Zm-1.78-1.68-.32.76.57,0Zm1.19,4.08-.27-.18,0,.29Zm4.57-2,.27.18,0-.29Z"/><path class="cls-1" d="M343,123a5.86,5.86,0,0,1-1,1.58c-1.62,1.27-3.33,2.43-5.27,3.81L336,125.7,333,129l-.4.31.3-.41c.93,2,.15,3.66-1.15,2.92-2.33-1.33-3.28.49-4.37,1.25l-5-1.55c-.81,1.26-1.68,2.62-2.57,4a6.9,6.9,0,0,1-.93,1.15,26.13,26.13,0,0,1-9,5.31l.06.06,1.07-4.65,5-.56,5.23-8.1c4.94,2.72,8.17,0,11.58-2.79,1.63-1.34,2-4.39,5.07-3.9l-.07-.05c.65.12,1.76.52,1.89.31,1.09-1.77,2.39-3.56,2.85-5.53s.6-3.71,1.87-5.45-.56-3.18-1.92-4.49c2.42-4.29.73-8.3-.1-12.8l2.45,1.9.31.4-.41-.3q.06-2.53.11-5.06l-.06.06h1.67c2.46,6.91-.89,14,1,21.52.67-4.17-.24-7.94.81-12,2.55,3.81,2.17,11.26-.42,16.44l-2.42-2.18L344,120l-.4.31.3-.41a18.66,18.66,0,0,1,1.93-1.86,15,15,0,0,1,2.2-1.14c-.7,2.89-1.39,5.79-5.12,6.15l-.31-.4Z"/><path class="cls-1" d="M287.93,78a19.65,19.65,0,0,0,10.66,1.09c4.48-.92,6.68-.15,10,3.62L311.89,80c6.58-.29,6.58-.29,14.34,5,3,4.57,3.1,9.31,2.78,14.09,0,.65-.71,1.26-1.08,1.89l.06.06c-.38-1.89-1.12-3.79-1.08-5.67.15-6.11-2.82-10.19-8.07-12.64-1.69-.79-3.85-.55-5.67-.77l-3.92,2.78-.37,3.77c-1.15-.15-4.28-5.38-4.33-7.17h-5.93l2.76,1.27,1.58,9.2-.93.37c-2.57-3.75-3.23-9-8.14-11h-5.47l-9.12,6.53c.54-3.33,5.48-8.4,8.69-9.67Z"/><path class="cls-1" d="M33.05,92.94c.43,3.07.79,6.11,4.46,7.31.61.2.87,1.52.79,3l-4.85-2.11-.59,5.33c-2,.51-4,1.12-6,1.45-.56.09-1.25-.66-1.89-1l5-2.87c-1.39-3.45-3.16-6.83-4.08-10.43s.06-7,.54-11.46c2.16,2,1.51,3.75,1.74,5.22.37,2.49-1,5.19,1,7.48A5.9,5.9,0,0,0,31.22,100C33,96.89,29.29,96.75,29,95V84.44l.75-.08,1.88,8.33Z"/><path class="cls-1" d="M289,74a5.75,5.75,0,0,1,0-7l-.05.07c.63-.89,1.77-1.75,1.81-2.66a97.39,97.39,0,0,0,0-13.42c-.22-2.28-1.73-4.44-2.73-6.83l-1.9,2.1L287.93,53l.06,0c-.69-.25-1.79-.31-2-.78a78.88,78.88,0,0,0-7-12.27c-.14-.21,0-.63,0-1l-.05.06c2.89.15,3.26,3.4,5.9,4.66L286.51,39H288l-.06-.05a6.9,6.9,0,0,0,2.35,6.21c2.32,2.11,2.73,4.64,2.78,7.42.06,3.31,0,6.62,0,9.94a5.54,5.54,0,0,1-.07,2c-1.31,3.17-2.71,6.31-4.08,9.45Z"/><path class="cls-1" d="M68,149c-.33,0-.71.2-1,.09a47.89,47.89,0,0,0-5.6-2.34c-1.78-.47-3.83,0-5.53-.63A15,15,0,0,1,46.36,137a4.06,4.06,0,0,1,.73-4.62l1.37,3.83L50,134,50,134c2.38,3.74,4.94,7.31,8.1,9.33,1.51-.53,3-1.48,3.43-1.13A77.83,77.83,0,0,1,68,148.06c.16.15,0,.63,0,1ZM50,138.89l1,1.06.91,1.87.62-.43L51,140.06l-1-1.06-.28-.37Z"/><path class="cls-1" d="M142,74c-.43.7-.7,1.71-1.32,2A17.79,17.79,0,0,1,137,77L137,77l-.42-2.73c-5.68-.82-10,2.39-13.6,5.69S117.1,87.69,118.29,93l1-1,4.23,5.74-3.91.29L117,94.27c-.5-6.83-.49-13.09,6.14-17.64,5.42-3.73,10.93-5.47,17.67-4.06L142,74Z"/><path class="cls-1" d="M117,146.95c-3.29.34-6.77-.37-9.71,2-.49.39-1.55,0-2.35,0l.06.06-8.46-1.39,1.7,2.93-4.24.56v-4.18L94,147a63,63,0,0,1,7.35-.09,10.66,10.66,0,0,0,9.15-3.27L108,141.95,108,142c1.81,0,3.63-.14,5.44-.13,5.72,0,11.47.43,16.75-2.57.76-.43,1.9-.21,2.86-.29L133,139c-.43.74-.67,1.76-1.31,2.17-3.2,2.07-6.83,2-10.49,2-2.54,0-5.32-.81-7.52,1.48l3.2.56q.06.92.11,1.83Z"/><path class="cls-1" d="M198,22c-.34-1.88.79-2.59,2.3-3.27,2.82-1.27,5.51-2.83,8.32-4.11a17.28,17.28,0,0,1,5.1-1.67c4.41-.48,8.85-.65,13.28-.94l-.06-.06,1,3.54c-.57.22-1,.51-1.12.41a11.31,11.31,0,0,1-1.45-1.18l-1,2.38c-4.14-1.23-7.22,3.5-11.5,1.85L213,19l6.39-4.41c-3.6.36-7.18.94-10.17,2.59C206,19,202,19.1,199.4,22c-.23.24-1,0-1.45,0Z"/><path class="cls-1" d="M162,56.95c-.15.61-.09,1.54-.48,1.79-2.84,1.88-4.11,4.71-5.32,7.84l-.57-3.64-2,1.17c-.3-.5-.63-.8-.59-1,.75-4.8,4.32-7.51,7.86-10.11,1.43-1.05,3.39-2.21,5,.05L166,53l-.72.54L166,54,166,54l.92,2-4.94,1.1-.06-2.13.29,0L162,55l-1.93,2-1.06,1-1,1-1,1-.37.28.27-.39,1-1,1-1,1.06-1Z"/><path class="cls-1" d="M192,27l-1-1.84L198,22l-.06-.06.13,2.1-1.48.22.25.59,1.12-.93L205,22l-.06-.06c-2.05,1.64-4.21,3.17-6.14,4.93-4.34,4-8.58,8-12.86,12.07L186,39q0-2,0-4.07l-.07.07c4.42-1.5,6.25-5.73,9.17-9l-3.17.93Z"/><path class="cls-1" d="M343,84c-2.89.71-3.25-2.32-4.8-3.49-2.15-1.64-3.64-4.16-5.79-6.75l-5.9,1.89L322.75,73c9.37-3.49,15.94.82,20.18,11Z"/><path class="cls-1" d="M311.61,120c3.32,8.22-1.94,19.58-10.66,24.16,1.17-4.74,7.48-5.71,6.95-10.82C310.84,129.82,310.27,125.2,311.61,120Z"/><path class="cls-1" d="M298.93,94c3.29.13,6.76,1.27,9.14-1.63a34.9,34.9,0,0,1,3.43,3.78c.92,1.36,2.31,2.85.67,5.1-1.92-1.85-2-5.48-5.62-5.22-1.61.12-2.9.39-3.62,2L303,98q-3.9-.1-4-4Z"/><path class="cls-1" d="M80,144c2.37-.49,5.21.78,6.76-1.68,2.06.89,4.07,1.63,5.94,2.64.62.33.87,1.34,1.29,2l.06-.07c-.42.24-1,.79-1.22.67-3.89-2.29-8.22-1.53-12.59-1.59L80,143.95Z"/><path class="cls-1" d="M289,67c-1.38,1.22-2.74,2.48-4.16,3.66a3.74,3.74,0,0,1-2.82.89,11.48,11.48,0,0,1,1-1.64c3.16-3.73,5.53-7.73,4.89-12.92a25.66,25.66,0,0,1,.11-4l-.06,0c.38.78,1.07,1.55,1.08,2.33.07,3.89,0,7.79-.08,11.69Z"/><path class="cls-1" d="M141,117c0,2.16,0,4.33.19,6.47a8.66,8.66,0,0,0,1.16,4.09c1.29,1.78.59,3.06-.35,4.48l.06,0c-3.83-4.29-3.32-9.41-3-14.74l2-.2Z"/><path class="cls-1" d="M80,143.95c-7.36.27-10.35-1.47-13-7.88,3.72.35,4,4.53,6.69,5.85h6L80,144Z"/><path class="cls-1" d="M58.38,127.26c3.29,2.22,6.81,4.13,9.53,7.09C63.64,133.49,59.27,132.8,58.38,127.26Z"/><path class="cls-1" d="M55,109c1.1-4.27.89-9.14,5.94-12.09l-3.75,12H55Z"/><path class="cls-1" d="M309.93,72c-1.71,2.49,2.21,2.59,1.88,5.11L301.4,73.34c.38-1.7,2-1.45,3.43-1.44,1.72,0,3.44.08,5.16.13Z"/><path class="cls-1" d="M342.3,93.12c-3.18-1.57-5.56-4.54-9.35-5a4.75,4.75,0,0,1,5.78-.73C340.59,88.46,343.16,89.66,342.3,93.12Z"/><path class="cls-1" d="M288.86,152.95l11.29-10.27c-.41,1.69-.37,2.84-.91,3.56C296.33,150.12,293,152.32,288.86,152.95Z"/><path class="cls-1" d="M240,132c-4,.77-5.37-2.24-7.17-5,.08-1.41.17-3,.26-4.72.6.29,1.13.39,1.16.57a12.23,12.23,0,0,0,5.72,8.27c.14.09,0,.63,0,1Z"/><path class="cls-1" d="M307.93,144c-.09.62,0,1.62-.3,1.81a10.27,10.27,0,0,0-5.39,8.07c-1.9-2.53-1.22-4.43-1.3-6.49L308,144Z"/><path class="cls-1" d="M273,13.94l3,1a10.73,10.73,0,0,0,.95,1.88A29.58,29.58,0,0,0,279,19c-1.73,0-3.18.11-4.77-1.46-1.4-1.39-4-1.52-6.37-2.28C269.15,12.87,271.34,14.32,273,13.94Z"/><path class="cls-1" d="M253.94,149l6.91,1.74.54-1.7c1.95,2.11,2.75,3.33,1.53,5l.07-.06c-2.74-1-5.5-1.87-8.18-3-.47-.2-.56-1.32-.82-2Z"/><path class="cls-1" d="M256.52,11.87l5.26,2.33v5.35l-5.63-6.87Z"/><path class="cls-1" d="M310,72c.12-.6,0-1.51.4-1.75,2.69-1.79,5.53-1.82,8.53.23l-9,1.46Z"/><path class="cls-1" d="M181,40c-.66-4.66,2.53-6.44,6-8l-.07-.05-1,3.06L186,35l-5.06,5Z"/><path class="cls-1" d="M77,152,68.19,151,68,149,68,149l8.83,1.06L77,152Z"/><path class="cls-1" d="M200.94,154v1.73h-8.8c2.69-2.77,5.88-1.48,8.87-1.66Z"/><path class="cls-1" d="M108,141.95c-3.58.2-6.27-1.14-7.6-4.95,2.5,1.18,5,2.33,7.47,3.59.21.11.06.93.07,1.42Z"/><path class="cls-1" d="M327.93,101c0,3.37-2.15,5.48-4.26,7.81-.57-2.36-.62-2.4.91-4.32,1-1.26.67-3.9,3.42-3.42Z"/><path class="cls-1" d="M234.94,9v1.79l-8,1.21L227,12c.27-.68.44-1.87.84-1.95,2.35-.49,4.76-.73,7.15-1.05Z"/><path class="cls-1" d="M307.93,112c2.81,1.17,4,3.53,3.47,7.32-2-2.37-4.21-4.1-3.41-7.38Z"/><path class="cls-1" d="M19.06,106.94l-4,6.48-1.11-2.47C15.17,109,15.56,106,19.06,106.94Z"/><path class="cls-1" d="M44,62V60.29h7.76C48.9,63.07,46.3,61.79,44,62Z"/><path class="cls-1" d="M345,91h-1.78c.21-2.38-2.24-4.51-.21-7l-.07,0a7.68,7.68,0,0,1,2,7Z"/><path class="cls-1" d="M59,139c-5.23-1.29-6.17-2.56-4.77-6.43L59,139Z"/><path class="cls-1" d="M303.93,101c2.25,2.22.79,4.52.29,6.8-1.92-2.26-1.7-4.54-.23-6.85Z"/><path class="cls-1" d="M105,149v1.73H98.32c2.41-2.63,4.67-1.59,6.7-1.66Z"/><path class="cls-1" d="M187,32l-.93-1.73L192,27l-.06-.05c-.43,2.9-2.59,4.08-5,5Z"/><path class="cls-1" d="M25.06,107H18.94l.17-1.8H24.8Z"/><path class="cls-1" d="M89,151.95c-.14.28-.28.79-.42.79-3.86,0-7.84,1.6-11.53-.79L77,152H89Z"/><path class="cls-1" d="M298,159c.29-2.75.29-2.75,3.6-5.09l.5,2.43-4.16,2.6Z"/><path class="cls-1" d="M235,9c3.05-2.36,6.33-.8,9.54-.06h-9.59Z"/><path class="cls-1" d="M276,37l-5.16-1.32c2.37-2.4,3.75-1.93,5.1,1.38Z"/><path class="cls-1" d="M59,139l4.76.17c-3.55,2.45-3.6,2.44-4.7-.24Z"/><path class="cls-1" d="M338,122c-1.05-2.06-.49-3.66,1.63-5.62.26,2.63-.21,4.25-1.7,5.57Z"/><path class="cls-1" d="M89,152c.88-2.15.88-2.15,4.05-1.26-1,1.93-2.68,1.21-4.11,1.2Z"/><path class="cls-1" d="M11.05,111.93c0,1.51.53,3.37-2.1,3.11l-1.16-2.91Z"/><path class="cls-1" d="M230.53,15l5.37.34C232.63,17.07,232.63,17.07,230.53,15Z"/><path class="cls-1" d="M14.06,111,11,112l-.71-1.59,3.24-1.84Z"/><path class="cls-1" d="M248,9.61A5,5,0,0,1,249.54,9a13.77,13.77,0,0,1,2.53.38c-1,2.81-2.63,1.26-3.89,1.47Z"/><path class="cls-1" d="M31.09,78.58l-.54,5.34C29.13,81.09,29.13,81.09,31.09,78.58Z"/><path class="cls-1" d="M287.94,33q2.68,3,0,6L288,39q0-3,0-6.06Z"/><path class="cls-1" d="M145.11,71.66h-3.37C143.54,69.87,143.54,69.87,145.11,71.66Z"/><path class="cls-1" d="M169.87,51.68h-3.11C167.7,49.35,168.72,49.74,169.87,51.68Z"/><path class="cls-1" d="M186.94,67v5.62c-.89-1.93-2.12-3.92.06-5.57Z"/><path class="cls-1" d="M288.92,74c1.15,1.7.87,3-1,4L288,78c.14-1.38-1.06-3.1,1-4Z"/><path class="cls-1" d="M137,77c.34,2.27-.9,2.28-2.78,1.09L137,77Z"/><path class="cls-1" d="M279,39c-1.49.07-3.37.73-3-2l-.06.06a2.34,2.34,0,0,1,3,2Z"/><path class="cls-1" d="M166,53h4.65V54H166L166,54V53Z"/><path class="cls-1" d="M342.09,115.19c-.49.29-1,.73-1.14.65a5.88,5.88,0,0,1-.91-1.25c.39-.17.82-.53,1.17-.46S341.72,114.71,342.09,115.19Z"/><path class="cls-1" d="M215,24c.94-1.94,2.29-1.1,3.6-.06h-3.65Z"/><path class="cls-1" d="M142,74c.94-1.94,2.29-1.1,3.6-.06H142Z"/><path class="cls-1" d="M255.1,11.2c-.49.29-1,.73-1.14.65a5.85,5.85,0,0,1-.91-1.25c.39-.17.82-.53,1.17-.46S254.74,10.73,255.1,11.2Z"/><path class="cls-1" d="M308,112l-1.94-.77,1.11-1.11.77,1.94Z"/><path class="cls-1" d="M299,94l-1.94-.77,1.11-1.11.77,1.94Z"/><path class="cls-1" d="M141,117c-.11-1.13-.27-2.3,2-1.71L141,117Z"/><path class="cls-1" d="M309.93,142l-2,2,.06.06q-.47-2.47,2-2Z"/><path class="cls-1" d="M302.93,98c1.74.54,1,1.91,1,3L304,101c-1.74-.54-1-1.91-1-3Z"/><path class="cls-1" d="M187,62,186,60.68l.67-.36.33,1.7Z"/><path class="cls-4" d="M142,132l1,2,.06,0-1-2Z"/><path class="cls-1" d="M294.86,92.84l-1.45-.14a4.79,4.79,0,0,1,.75-.63A5.45,5.45,0,0,1,294.86,92.84Z"/><path class="cls-1" d="M313.63,130.27l.22,1.33-.57.1-.23-1.33Z"/><path class="cls-2" d="M254,148.95c.27.69.35,1.81.82,2,2.67,1.12,5.44,2,8.18,3-.6,4,3,5.25,4.72,7.84-2.57,0-5.86.88-8.18-.25s-4.86-1.36-7.12-2.48a6.52,6.52,0,0,0-2.46-.14l.1.11c-.63-.71-1.12-1.68-1.91-2.09a10.4,10.4,0,0,1-6.1-10.23,7.87,7.87,0,0,0-.21-2c-.06-.24-.43-.42-.95-.88-2.06,2.44-.67,5.17-.85,8.46l-4.59-4.06c-.14-2.63-.29-5.63-.45-8.71l4.75-1c1.6,1.57,1.13,5.43,5.23,4.81l-2.31-3.5,2.83-.9C245.69,144.74,248.08,148.45,254,148.95Z"/><path class="cls-2" d="M170,154.05l-1-3c3.37-.29,7-.55,10.54-.94,2.6-.28,5.18-.75,7.77-1.13l7.72-1.14.5.9-4.17,2.73c-1.56.57-3.78,1.49-6.06,2.17a12.78,12.78,0,0,1-3.45.27c-4,0-8,.05-12,.08Z"/><path class="cls-2" d="M255,164l.25-1.33c3.42.13,6.79.3,10.15.36s6.79,0,10.18,0l.13,1.07-8.77,2.15c-3.13-2.13-7.66-1.94-12.05-2.38Z"/><path class="cls-1" d="M225.3,136.65h-2.67c0-.11,0-.22,0-.32h2.67C225.3,136.43,225.3,136.54,225.3,136.65Z"/><path class="cls-1" d="M216,142l1.37-1.62.42.64-1.9.88Z"/><path class="cls-1" d="M250,162l2.07-1,.2.63-2.37.21Z"/><path class="cls-1" d="M239.32,136.62h-1.69v-.34h1.69Z"/><path class="cls-1" d="M215,144.09l1-2.1-.12-.11-1,2.11Z"/><path class="cls-1" d="M250,158.93l-.19.16.29,0Z"/><path class="cls-3" d="M148,147.07l.3-.41-.4.31Z"/><polygon class="cls-1" points="219.5 137.27 219.6 137.57 219.32 137.54 219.5 137.27"/><path class="cls-2" d="M198.08,24.06l-.13-2.1c.5,0,1.23.23,1.45,0,2.65-2.86,6.62-3,9.82-4.74,3-1.65,6.58-2.23,10.17-2.59L213,19c-5.46,1.34-8.74,4.9-9.53,10.47a10.69,10.69,0,0,0-3.37-.13c-1.14.32-2.66.81-2.19,2.67l.12-.12A11.49,11.49,0,0,0,190.19,37a44.37,44.37,0,0,1-3.61,4l-.64-2c4.28-4,8.52-8.11,12.86-12.07,1.94-1.77,4.09-3.29,6.14-4.93l1.94-.77-1.11-1.11L205,22l-7,1.92Z"/><path class="cls-2" d="M176.9,47.08l6-2.14-2.29,7-3.94-2.67L177,47Z"/><path class="cls-2" d="M180.95,40,186,35q0,2,0,4.07a6.12,6.12,0,0,0-2,.81,29.81,29.81,0,0,0-2.6,3.2Z"/><path class="cls-2" d="M197.91,32l3.19-.73.41.46-5.6,4.11L196,36c.32-.62.65-1.24,1-1.87s.7-1.47,1-2.2Z"/><path class="cls-2" d="M195.91,35.89c-.15,2.61-2.66,2.61-3.88,4l-.64-.83L196,36Z"/><path class="cls-2" d="M187.28,44.11l3-2.65.45.52-2.86,2.7Z"/><path class="cls-2" d="M185.05,51l.14-2.42.61.18-.86,2.14Z"/><path class="cls-2" d="M185.5,42.43l.25.8-.57,0Z"/><path class="cls-4" d="M184,55.08l.3-.41-.4.31Z"/><path class="cls-4" d="M184.95,50.91l-.3.41.4-.31Z"/><polygon class="cls-2" points="186.69 46.52 186.39 46.63 186.42 46.34 186.69 46.52"/><polygon class="cls-2" points="191.26 44.47 191.56 44.36 191.53 44.65 191.26 44.47"/><path class="cls-1" d="M348.06,116.91a15,15,0,0,0-2.2,1.14,18.66,18.66,0,0,0-1.93,1.86l.1.1,1.51-5.16L348,117Z"/><path class="cls-4" d="M344.87,96l.41.3-.31-.4Z"/><path class="cls-4" d="M343.93,119.9l-.3.41.4-.31Z"/><path class="cls-4" d="M343,123l-.41-.3.31.4Z"/><path class="cls-4" d="M332.93,128.9l-.3.41.4-.31Z"/><path class="cls-2" d="M29,95c.33,1.77,4,1.91,2.26,5a5.9,5.9,0,0,1-2.15-5.14Z"/><path class="cls-2" d="M288.93,67c0-3.9.15-7.79.08-11.69,0-.78-.7-1.56-1.08-2.33l-1.86-6.79,1.9-2.1c1,2.38,2.52,4.54,2.73,6.83a97.39,97.39,0,0,1,0,13.42C290.7,65.28,289.56,66.15,288.93,67Z"/><path class="cls-1" d="M51,140.06l1.64,1.34-.62.43L51.08,140Z"/><path class="cls-1" d="M50,138.89l-.38-.27.28.37Z"/><path class="cls-1" d="M51.08,140l-1-1.06-.1.1,1,1.06Z"/><path class="cls-2" d="M162,56.95l-2.1,0,.11.11L162,55l-.1-.11.06,2.13Z"/><path class="cls-1" d="M162,55l.19-.16-.29,0Z"/><path class="cls-2" d="M156.89,60l-.27.39.37-.28Z"/><path class="cls-2" d="M157.91,59l-1,1,.1.11,1-1Z"/><path class="cls-2" d="M158,59.08l1-1-.1-.1-1,1Z"/><path class="cls-2" d="M160,56.91l-1.06,1,.1.1,1.06-1Z"/><path class="cls-1" d="M166,53V54l-.72-.54Z"/><path class="cls-2" d="M186.94,32c2.41-.92,4.57-2.1,5-5l3.17-.93c-2.92,3.26-4.76,7.5-9.17,9Z"/><path class="cls-4" d="M198,23.95l-1.12.93-.25-.59,1.48-.22Z"/><path class="cls-1" d="M205,22l.77-1.94,1.11,1.11-1.94.77Z"/></g></g></svg>