<svg xmlns="http://www.w3.org/2000/svg" viewBox="0 0 23.57 45.15" preserveAspectRatio="xMaxYMin slice"><defs><style>.cls-1{fill:#fff;fill-rule:evenodd;}</style></defs><title>moldura-canto-esq_titulo</title><g id="Layer_2" data-name="Layer 2"><g id="Layer_1-2" data-name="Layer 1"><path class="cls-1" d="M23.57,7.56A16,16,0,0,0,17,8.5,16.37,16.37,0,0,0,11,12.79,14.67,14.67,0,0,0,8,19.08,15.71,15.71,0,0,0,7.78,22c-.62.5-1.44.27-1.86,1.08-.16.31-1.11.28-1.71.27a3.87,3.87,0,0,0-2.4.83c-.2.15-.26.49-.38.74L1.19,25l.12.15.09-.26c.84-.09,1.68-.35,2.43.35.12.12.51,0,.83-.09.07.57.13,1.05.19,1.55.94-.32.22-1.15.65-1.67.81.7.28,1.75.68,2.51,1-.4,1.24-.84.8-1.6a4.15,4.15,0,0,0-1.14-1.16A9.16,9.16,0,0,0,4.43,24c.49-.57,1.1-.21,1.56-.39a11.83,11.83,0,0,0,1.49-.89,9,9,0,0,1,.31,1.44,13.45,13.45,0,0,0,6.09,10.66,13.65,13.65,0,0,0,7.43,2.6c.54,0,2-.08,2.26.7v3.3a7,7,0,0,1-.44,1.23c-.89,2.48-4.81,3.28-6.77,1.46a45.69,45.69,0,0,1-3.22-3.62,6.18,6.18,0,0,1-.3,1.15,1.36,1.36,0,0,1-1.49.77,1.26,1.26,0,0,1-1.13-1.24c0-.25,0-.5,0-.75l.33-.35h.1l-.07,0-.33.34a5.54,5.54,0,0,1-1.45.14c-1.32-.23-1.52-.49-2-2.12-1.92-.61-2.49-1.47-2-3.22a1.5,1.5,0,0,1-2.13-.86c-.39-1.06.37-1.66,1.38-2.16-.88-.68-1.6-1.21-2.3-1.78A4.86,4.86,0,0,1,.57,24.38a3,3,0,0,1,2.25-1.61,8.66,8.66,0,0,0,2.07-.58l-1.3-.05A3.25,3.25,0,0,1,.2,18.8a3.64,3.64,0,0,1,1-3,10.26,10.26,0,0,1,4.14-2.95c-1.79-.05-2.65-.63-2.64-1.63,0-.76.58-1.16,2-1.35a2.17,2.17,0,0,1,.58-2.44c.35-.39,1.05-.45,1.81-.74.18-.42.14-1.18.86-1.71a2.24,2.24,0,0,1,2-.27c.14-1.47.49-2,1.4-2s1.46.31,1.75,1.54c.81-1,1.62-2.08,2.57-3C17.25-.44,21.15-.56,22.64,2a5.88,5.88,0,0,1,.93,2.19Zm-12,29.55L11.43,37l-.06,0,.19.06.28.32.3.33.82.68a19.78,19.78,0,0,0,3.25,4.42c.64-1.46-.28-2-1.23-2.54.81-.44,1.23,0,1.52.55a.77.77,0,0,0,1.12.41.54.54,0,0,0,.32-.73l-4.87-2.22-1-.53-.32-.31ZM6,12l.31-.28c.87-.11,1.25-.85,1.64-1.45a1.38,1.38,0,0,0-.11-1.88L7.52,8.1a.63.63,0,0,0-.91-.51,2.62,2.62,0,0,0-1.07,1,1,1,0,0,0,.2.93,1.5,1.5,0,0,0,1.1.14c.42-.1.47-.51.26-.87-.33-.55.15-.56.44-.7l.31.31c0,1.16-.24,2.11-1.64,2.28,0,.42.08.76.11,1.11l-.3.29-.1.06a.14.14,0,0,0,0,.06ZM8.42,37.7l.37-.19-.32.23-.32.3c-.63.29-.4.8-.15,1.1a1.79,1.79,0,0,0,1.13.59c.4,0,1-.14.87-.78s-.47-.75-1-.5-.74,0-.89-.44ZM21.9,39c-.27.6-.27.6.09,1.32l-.12-1.36.31-.14-.09-.11ZM10.57,37.74l-.4-.27-.09.22.51,0L11,38.93l1.34.26C11.86,38.44,11.56,37.67,10.57,37.74ZM5.1,31.3l0,.23.16-.09-.21-.11c-.15-.84-.88-1.13-1.5-1.5-.12-.07-.4.13-.83.29A4.44,4.44,0,0,0,5.1,31.3Zm3.37,3.05-.21-.06H8.5l.57,2h1.45Zm.27-23.83L11,8.41l-2.07.34-.17,1.81-.15.2Zm-.92,26c.51-.12.44-.48.32-.82A5.15,5.15,0,0,0,6,33.17l.08,1.71a1.52,1.52,0,0,1,1.79,1.63l-.61.25c-.35-.42-.35-1.34-1.27-1-.39,1.11-.33,1.31.5,1.59S7.43,37.43,7.82,36.48Zm-.6-3.63.12.46.19-.09-.28-.4c-.24-.49-.49-1-.71-1.47C6,30.23,5,29.28,5.31,27.88c0-.06-.11-.14-.16-.19H4.39l-.28,1.63a2.35,2.35,0,0,1,1.56,1.77A2.22,2.22,0,0,0,7.21,32.85ZM14,5.06a5.37,5.37,0,0,0-1.54,2.26c1-.53,1.89-1.07,2.82-1.44s1.87-.57,2.88-.86l-.24-.86-1-.05H16.5a21.92,21.92,0,0,1-1.76,1.39c-.44.28-.78.09-.82-.47,1.5-.37,1.59-.52,1.69-2.94Zm4.88-.32a.48.48,0,0,0-.07-.1s0,0-.07,0l.17.07c.16.21.3.57.49.6a8.61,8.61,0,0,0,1.45,0l1.38-1.51c-.54-2.14-.54-2.14-2-2.69,1.49,1.41.13,2.42-.1,3.61Zm-6.37,1-1.71.22c-.61,1.59-.69,1.64-2,1.31L10.06,6c-.49-.25-.89-.61-1.12-.53A1.56,1.56,0,0,0,8,6.31a1.63,1.63,0,0,0,.35,1.21,4.09,4.09,0,0,0,1.1.74,14.22,14.22,0,0,0,1.66-1.12,13.25,13.25,0,0,0,1.27-1.48l.24-.4-.2-.07Zm9.42,35.1H20.35c.22.71,1.07,1.22.24,1.93-.64-.56-.68-1.83-2-1.56.39.51,1,.86.65,1.6-.28.54-.65.91-1.19.71l.35-1.29c-.32,0-.74-.25-.94-.12-.74.47-.09,1.07-.14,1.63.92.32,1.73.89,2.6,0,.08-.07.45.15.74.26.72-.95,1.52-1.87,1.19-3.23l.11-.07ZM7,16.54A16.11,16.11,0,0,1,16.05,7.2a2.53,2.53,0,0,0,.8-.41c.15-.15.14-.46.22-.77a15.21,15.21,0,0,0-8.25,5.76c-.9,1.21-1.59,2.58-2.37,3.87C6.14,16.15,6.36,16.4,7,16.54ZM17,38.31A16.2,16.2,0,0,1,6.89,28.39L6,28.81c.2.36.36.61.49.88a17.44,17.44,0,0,0,9.59,9C16.5,38.89,16.84,39,17,38.31Zm-9.68-26c-1.07.62-1.93,1.06-2.71,1.6s-1.55,1.22-2.46,2c1.24.05,1.24.05,2.08,1.48.53,0,.91-.1,1-.78A7.1,7.1,0,0,1,6,14.78C6.38,14,6.81,13.31,7.34,12.34ZM17.59,1.67c1.72.1.87,1.5,1.42,2.11a1.16,1.16,0,0,0,1-1.45A2.93,2.93,0,0,0,18,.79a1.94,1.94,0,0,0-1.53,1.49,1,1,0,0,0,.17.69,6.89,6.89,0,0,0,.9.76C18.54,3.07,18,2.43,17.59,1.67ZM3.88,27C3.4,25.8,3,25.54,2.26,25.73A2.08,2.08,0,0,0,1,28.15a1.48,1.48,0,0,0,2.35.62.94.94,0,0,0,.15-.82.86.86,0,0,0-.74-.29,4,4,0,0,0-1,.48C1.74,26.74,2.07,26.57,3.88,27Zm.06-8.37C2,19,1.8,18.86,1.86,17.46c.86.66.86.66,1.63,0-1-1.16-1.69-.89-2.31-.06s-.48,1.28.46,2S3.1,19.93,3.95,18.6ZM21,6l-.12-.3L17.43,6l1.39,1.24ZM1.57,20.63a6.69,6.69,0,0,0,4.8.63L4.2,21.15l.2-1.07Zm1.88,13.2c.42.56.71,1.07,1.37.59a.62.62,0,0,0,.08-1C4.33,32.84,4,33.34,3.46,33.83ZM6,17.2a11.69,11.69,0,0,1,.38,1.18,11.54,11.54,0,0,1,.1,1.18C7.59,18.32,7.54,18,6,17.2ZM12.42,4c-.46-.3-.8-.85-1.33-.26a.64.64,0,0,0,.2,1C11.94,5.18,12.15,4.63,12.42,4Zm9.73.38c0,1-.35,1.77.53,2.42A2.23,2.23,0,0,0,22.15,4.41ZM18.63,40.14l2-.18C20.05,39.29,19.69,39.28,18.63,40.14Zm-13.11-20C6,18.65,6,18.65,5,18.19ZM19.89,38.62c-1.35-.74-1.59-.67-1.8.35Zm-7.46,2.26-.12-.25-.63.11a6.78,6.78,0,0,0-.71.18s0,.25,0,.26a1.74,1.74,0,0,0,.79.17C12,41.28,12.22,41,12.43,40.87ZM3.53,11.29l1,.86-.21-1.48Zm7.87-3.5.2.26.45-.4-.13-.18ZM5.73,22.29l-.11,0v.15a.33.33,0,0,0,.11,0S5.73,22.32,5.73,22.29Z"/></g></g></svg>