<svg xmlns="http://www.w3.org/2000/svg" viewBox="0 0 24.34 7.68" preserveAspectRatio="xMaxYMin slice"><defs><style>.cls-1{fill:#fff;fill-rule:evenodd;}</style></defs><title>moldura-h-acima_titulo</title><g id="Layer_2" data-name="Layer 2"><g id="Layer_1-2" data-name="Layer 1"><path class="cls-1" d="M0,4.5C.11,1.83.54.22,2.9.22A5.12,5.12,0,0,1,6.53,1.45,18.49,18.49,0,0,0,9.08,3.33c1,.58,1.42.39,2.28-.65l0,0,1,.23A2.37,2.37,0,0,1,9.47,4.09a2.72,2.72,0,0,1-1-.41c-.68-.43-1.31-.94-2-1.36-1.16-.71-1.43-.59-2,.68a1.14,1.14,0,0,1-.71.6.8.8,0,0,1-.66-.46,1.16,1.16,0,0,1,.34-.91,14.29,14.29,0,0,1,1.73-1c-1.18-.8-2.26.07-3.3,0-1.11,2-.75,3.61,1.09,5L4.33,5.4l-.1-.24-1,.06a13.13,13.13,0,0,0-.89-1.37A1.36,1.36,0,0,1,2.2,2.07c.18.38.28.59.37.8.24.59.29,1.31,1.09,1.51a8.63,8.63,0,0,0,1.92.5c4.37,0,8.73,0,13.1,0a5.44,5.44,0,0,1,1.11.23,4.29,4.29,0,0,1,2.93-1.51c-.25.7-.25.7-1.1,1.1a1.56,1.56,0,0,1,.77.78l-1.83-.21-.06.26L22.06,6l.28-.6c1.62-.77.77-2.15.88-3.31-.66.08-.66.08-.84-.21-.6-1-.79-1.08-2.06-.79l1.17.79c.42.28.72.63.47,1.13-.11.23-.53.56-.62.51a2,2,0,0,1-.8-.78c-.48-1-.94-1.2-1.85-.71-.53.29-1,.68-1.53,1-1.52.88-3.05,1.63-4.62.07A.83.83,0,0,0,12.27,3c0-.45-.05-.89-.08-1.33-.48-.21-.88-.4-1.3-.56C10,.76,9.72.94,9.64,1.91c0,.23,0,.46,0,.8C8.85,2,8.74,1.57,9.13,1c.8-1.09,1.81-1.07,3.57.09A2,2,0,0,1,15.25.41a1.69,1.69,0,0,1,.65.94,5.57,5.57,0,0,1,0,1.35l-1,.08c.59-1.62.51-1.72-1.11-1.54l-.24,1c.29.4,1.23-.11.94.83,0,0,.36.24.46.19a7.11,7.11,0,0,0,.92-.63l2.19-1.22A15.61,15.61,0,0,1,20.64.13a2.56,2.56,0,0,1,2.75.74c.75.6,1,1.38,1,3.67V7.68L0,7.62Zm0-.59,5.73,2a1.4,1.4,0,0,0,1.38.45c1.21-.06,2.42-.22,3.63-.22,2.43,0,4.86.07,7.29.08A3.09,3.09,0,0,0,18.91,6l-.06-.36q-6.38,0-12.77,0C6,5.56,5.89,5.76,5.76,5.9Zm13.7,0c1,1,1,1,2,.47ZM3.34,6.57c1.52.24,1.58.21,1.73-.71Z"/></g></g></svg>