<svg xmlns="http://www.w3.org/2000/svg" viewBox="0 0 153.74 154.11"><defs><style>.cls-1{fill:#fff;}.cls-2{fill:#1c4955;fill-rule:evenodd;}</style></defs><title>yndia_timao</title><g id="Layer_2" data-name="Layer 2"><g id="Layer_1-2" data-name="Layer 1"><ellipse class="cls-1" cx="76.55" cy="77" rx="47.03" ry="46.43"/><path class="cls-2" d="M122.41,76.86c-.54-13.13-5.44-24.27-15.12-33.05-8.52-7.73-18.8-11.33-30.38-11.34h-.09c-11.58,0-21.86,3.6-30.38,11.34-9.68,8.78-14.58,19.92-15.12,33.05h0c0,.06,0,.13,0,.19s0,.13,0,.19h0c.54,13.13,5.44,24.27,15.12,33.05C55,118,65.24,121.62,76.82,121.64h.09c11.58,0,21.86-3.6,30.38-11.34,9.68-8.78,14.58-19.92,15.12-33.05h0c0-.06,0-.13,0-.19s0-.13,0-.19Zm-14.67,30.82c-8.48,8.45-19,12.28-30.88,12.49-11.9-.21-22.4-4-30.88-12.49A43.81,43.81,0,0,1,32.83,77.06,43.81,43.81,0,0,1,46,46.43C54.47,38,65,34.15,76.87,33.94c11.9.21,22.4,4,30.88,12.49a43.81,43.81,0,0,1,13.16,30.62A43.81,43.81,0,0,1,107.75,107.68Z"/><path class="cls-2" d="M115.45,77.35a1.68,1.68,0,0,1,0-.58,33.89,33.89,0,0,0-.28-3.73,52.22,52.22,0,0,0-1.43-6.68,37.28,37.28,0,0,0-2.62-6.16C110,58,108.58,55.89,107.2,53.8a25.06,25.06,0,0,0-2.05-2.33,33.52,33.52,0,0,0-10.26-8,36.13,36.13,0,0,0-11.24-3.73A48.58,48.58,0,0,0,77,39.3h-.21a48.58,48.58,0,0,0-6.68.49,36.13,36.13,0,0,0-11.24,3.73,33.52,33.52,0,0,0-10.26,8,25.06,25.06,0,0,0-2.05,2.33c-1.37,2.09-2.75,4.19-3.91,6.39A37.28,37.28,0,0,0,40,66.35,52.22,52.22,0,0,0,38.57,73a33.9,33.9,0,0,0-.28,3.73,1.68,1.68,0,0,1,0,.58,33.9,33.9,0,0,0,.28,3.73A52.22,52.22,0,0,0,40,87.76a37.27,37.27,0,0,0,2.62,6.16c1.16,2.21,2.54,4.31,3.91,6.39a25.06,25.06,0,0,0,2.05,2.33,33.52,33.52,0,0,0,10.26,8,36.13,36.13,0,0,0,11.24,3.73,48.58,48.58,0,0,0,6.68.49H77a48.58,48.58,0,0,0,6.68-.49,36.13,36.13,0,0,0,11.24-3.73,33.52,33.52,0,0,0,10.26-8,25.06,25.06,0,0,0,2.05-2.33c1.37-2.09,2.75-4.19,3.91-6.39a37.27,37.27,0,0,0,2.62-6.16,52.22,52.22,0,0,0,1.43-6.68A33.89,33.89,0,0,0,115.45,77.35Zm-1.54.74c-.11,1.29-.18,2.58-.36,3.86a37,37,0,0,1-5.23,13.94,35.9,35.9,0,0,1-7.63,8.88,37.29,37.29,0,0,1-9.44,5.77,36.67,36.67,0,0,1-7.75,2.3,49.26,49.26,0,0,1-5.65.51c-.55,0-.84.05-1,.22-.14-.16-.43-.18-1-.22a49.26,49.26,0,0,1-5.65-.51,36.67,36.67,0,0,1-7.75-2.3A37.29,37.29,0,0,1,53,104.77a35.9,35.9,0,0,1-7.63-8.88,37,37,0,0,1-5.23-13.94c-.18-1.28-.25-2.57-.36-3.86,0-.26,0-.52,0-.78a.64.64,0,0,1,0-.51c0-.26,0-.52,0-.78.11-1.29.18-2.58.36-3.86a37,37,0,0,1,5.23-13.94A35.9,35.9,0,0,1,53,49.34a37.29,37.29,0,0,1,9.44-5.77,36.67,36.67,0,0,1,7.75-2.3,49.26,49.26,0,0,1,5.65-.51c.55,0,.84-.05,1-.22.14.16.43.18,1,.22a49.26,49.26,0,0,1,5.65.51,36.67,36.67,0,0,1,7.75,2.3,37.29,37.29,0,0,1,9.44,5.77,35.9,35.9,0,0,1,7.63,8.88,37,37,0,0,1,5.23,13.94c.18,1.28.25,2.57.36,3.86,0,.26,0,.52,0,.78a.64.64,0,0,1,0,.51C113.92,77.57,113.94,77.83,113.92,78.09Z"/><path class="cls-2" d="M110.17,99.08a1.78,1.78,0,0,0-1.6,1.71,1.85,1.85,0,0,0,1.79,1.68,1.59,1.59,0,0,0,1.49-1.61A1.85,1.85,0,0,0,110.17,99.08Z"/><path class="cls-2" d="M101.17,108.38a1.55,1.55,0,0,0-1.7,1.68,1.65,1.65,0,0,0,1.6,1.54,1.68,1.68,0,0,0,1.65-1.63A1.71,1.71,0,0,0,101.17,108.38Z"/><path class="cls-2" d="M116.12,87.94a1.39,1.39,0,0,0-1.57,1.46,1.52,1.52,0,1,0,3,0C117.59,88.38,117.17,87.95,116.12,87.94Z"/><path class="cls-2" d="M89.55,114.1a1.53,1.53,0,0,0-1.46,1.38,1.65,1.65,0,0,0,1.59,1.68,1.52,1.52,0,0,0,1.51-1.59A1.58,1.58,0,0,0,89.55,114.1Z"/><path class="cls-2" d="M77,115.91s0,0,0-.07l-.12,0-.12,0s0,0,0,.07c-1.17.32-1.21.41-1.23,1.38,0,1.36,0,1.41,1.29,1.84v0l.07,0,.07,0v0c1.31-.43,1.32-.48,1.29-1.84C78.21,116.33,78.17,116.23,77,115.91Z"/><path class="cls-2" d="M43.57,99.08a1.85,1.85,0,0,0-1.68,1.78,1.59,1.59,0,0,0,1.49,1.61,1.85,1.85,0,0,0,1.79-1.68A1.78,1.78,0,0,0,43.57,99.08Z"/><path class="cls-2" d="M52.57,108.38A1.71,1.71,0,0,0,51,110a1.68,1.68,0,0,0,1.65,1.63,1.65,1.65,0,0,0,1.6-1.54A1.55,1.55,0,0,0,52.57,108.38Z"/><path class="cls-2" d="M37.62,87.94c-1.05,0-1.47.44-1.46,1.49a1.52,1.52,0,1,0,3,0A1.39,1.39,0,0,0,37.62,87.94Z"/><path class="cls-2" d="M64.18,114.1a1.58,1.58,0,0,0-1.63,1.47,1.52,1.52,0,0,0,1.51,1.59,1.65,1.65,0,0,0,1.59-1.68A1.53,1.53,0,0,0,64.18,114.1Z"/><path class="cls-2" d="M37,77.58a2,2,0,0,0,0-1,2.07,2.07,0,0,0-2.19-.75,1,1,0,0,0-.69.73l-.12,0a4.18,4.18,0,0,0,0,.56,4.18,4.18,0,0,0,0,.56l.12,0a1,1,0,0,0,.69.73A2.07,2.07,0,0,0,37,77.58Z"/><path class="cls-2" d="M43.57,55a1.78,1.78,0,0,0,1.6-1.71,1.85,1.85,0,0,0-1.79-1.68,1.59,1.59,0,0,0-1.49,1.61A1.85,1.85,0,0,0,43.57,55Z"/><path class="cls-2" d="M52.57,45.73a1.55,1.55,0,0,0,1.7-1.68,1.65,1.65,0,0,0-1.6-1.54A1.68,1.68,0,0,0,51,44.14,1.71,1.71,0,0,0,52.57,45.73Z"/><path class="cls-2" d="M37.62,66.17a1.39,1.39,0,0,0,1.57-1.46,1.52,1.52,0,1,0-3,0C36.14,65.73,36.57,66.16,37.62,66.17Z"/><path class="cls-2" d="M64.18,40a1.53,1.53,0,0,0,1.46-1.38A1.65,1.65,0,0,0,64.05,37a1.52,1.52,0,0,0-1.51,1.59A1.58,1.58,0,0,0,64.18,40Z"/><path class="cls-2" d="M76.74,38.2s0,0,0,.07l.13,0,.12,0s0,0,0-.07c1.17-.32,1.21-.41,1.23-1.38,0-1.36,0-1.41-1.29-1.84v0l-.07,0-.07,0v0c-1.31.43-1.32.48-1.29,1.84C75.53,37.79,75.57,37.88,76.74,38.2Z"/><path class="cls-2" d="M147.23,76.52c-3.33-.06-6.66-.14-10-.15-2.06,0-4.11.12-6.17.13-1.27,0-2.54-.09-3.81-.13-.34,0-.69.07-1,.07s-.62-.07-1.07-.13c.23-.18.28-.26.33-.26,2.46-.1,4.91-.18,7.36-.29,2.62-.12,5.24-.31,7.86-.41,2.34-.09,4.68-.1,7-.14.67,0,1.34,0,2.1,0a1.18,1.18,0,0,0-1.34-1c-1.21,0-2.42,0-3.63.06s-2.32.19-3.48.22c-3.87.11-7.74.18-11.6.29-1.42,0-2.83.16-4.25.23a7.48,7.48,0,0,1-1-.08c0-.55.29-.67.66-.69,1.31-.09,2.63-.16,3.94-.27s2.82-.3,4.23-.44c.77-.07,1.55-.08,2.33-.14,2.31-.19,4.61-.41,6.92-.58,1.07-.08,2.15-.1,3.29-.15a1,1,0,0,0-1.19-.74c-1.63.12-3.25.26-4.88.39l-4.64.36c-1.8.15-3.6.32-5.4.46-1.37.11-2.75.2-4.13.26a5.57,5.57,0,0,1-1.09-.16c.12-.67.56-.65.93-.71.8-.12,1.61-.25,2.42-.34,1.66-.18,3.33-.35,5-.52,2.56-.26,5.13-.52,7.69-.8.67-.07,1.34-.21,2.16-.35a1.38,1.38,0,0,0-1.43-.54c-1.16.08-2.31.25-3.46.37l-7.71.79c-1.46.15-2.91.31-4.37.44-.42,0-.84,0-1.31,0,.08-.94.88-.85,1.35-.92,1.69-.27,3.43-.3,5.11-.62,1-.2,2.06-.36,3.1-.49,1.74-.22,3.48-.5,5.21-.77.46-.07.92-.17,1.38-.26a4.12,4.12,0,0,0-.35-2.88c-1.32.22-2.63.43-3.93.67l-6.72,1.24c-1.52.28-3,.57-4.54.89-.87.18-1,.16-1.56-.5l1-.26c2.24-.56,4.47-1.17,6.72-1.68,2.63-.59,5.29-1.1,7.93-1.62.75-.15,1.42-.37,1.71-1.18l-17.06,3.56c-.15,0-.32-.07-.73-.18.37-.25.55-.47.78-.53,2.58-.66,5.17-1.28,7.75-1.94,1-.26,2-.62,3.09-.88,2.41-.59,4.83-1.15,7.25-1.71a3,3,0,0,0,2.07-1.5c-3.68,1-7.07,2-10.52,2.77s-6.84,1.85-10.33,2.44c-.21-.59,0-.72.42-.83q3.9-1.13,7.79-2.29c1.85-.55,3.68-1.15,5.53-1.71s3.46-1,5.19-1.51c1.28-.36,2.57-.67,3.84-1.05a3.77,3.77,0,0,0,2-1.69c-4.46,1.89-9.08,2.83-13.57,4.16l-9.76,2.88a13.42,13.42,0,0,1-1.63.38,1,1,0,0,1-.7-.27c1.72-1.06,3.7-1.39,5.53-2.11s3.88-1.33,5.82-2l5.75-1.93c1.94-.65,3.89-1.29,5.84-1.92s3.82-1.22,5.68-1.81a1.88,1.88,0,0,0-2.27-.32c-1.74.64-3.47,1.29-5.23,1.88-2.93,1-5.87,1.92-8.8,2.9-3.34,1.12-6.66,2.27-10,3.39-.61.21-1.23.41-1.85.57a3.43,3.43,0,0,1-.83,0c-.19-.62.23-.76.58-.9,1.6-.62,3.21-1.21,4.83-1.81,3.14-1.16,6.27-2.31,9.41-3.49,1.29-.48,2.56-1,3.84-1.53a7.71,7.71,0,0,1,2.57-.78,7.84,7.84,0,0,0,2.31-.94,1.71,1.71,0,0,0-1.83-.23c-2.58,1.07-5.2,2-7.82,3s-5.31,2-8,3c-1.85.68-3.71,1.34-5.56,2-.39.14-.73.28-1.05-.17.09-.51.52-.6.91-.75,3.19-1.27,6.4-2.52,9.57-3.84,1.62-.67,3.18-1.52,4.79-2.2s3.27-1.25,5-1.9a2.35,2.35,0,0,0-2.21-.11c-1.9.82-3.81,1.61-5.71,2.42-2.81,1.2-5.61,2.41-8.41,3.6-1.19.5-2.39,1-3.6,1.43a1.48,1.48,0,0,1-1,0c1.54-1.44,3.57-1.95,5.33-2.92s3.79-1.82,5.71-2.69,3.74-1.66,5.71-2.53a1.74,1.74,0,0,0-2-.09q-5,2.38-10.06,4.73c-1.45.67-2.92,1.3-4.38,1.93a4.41,4.41,0,0,1-.79.19c-.23-.64.19-.81.51-1,2.3-1.16,4.62-2.28,6.91-3.45,2.11-1.08,4.2-2.2,6.29-3.31a5.61,5.61,0,0,0,.72-.54,4.26,4.26,0,0,0-1.15-2.6c-2.49,1.39-4.94,2.72-7.35,4.12-5,2.89-6.37,3.58-7.75,3.53a10.16,10.16,0,0,1,1.2-1.08c1.61-1,3.25-2,4.87-2.95s3-1.87,4.52-2.78c.92-.55,1.88-1.05,2.81-1.6.58-.33,1.25-.62,1.18-1.58-1.6.93-3.12,1.79-4.62,2.68-3,1.78-6,3.59-9,5.36-.39.23-.8.74-1.49.24a2.87,2.87,0,0,1,.53-.65q4.9-3.24,9.83-6.44c1.77-1.15,3.53-2.29,5.34-3.38A3.32,3.32,0,0,0,135,40.12c-3.06,1.95-6,3.87-9,5.73s-5.82,3.94-9,5.62c-.25-.69.1-.93.46-1.18l8.06-5.61,9.14-6.31c.53-.37,1.11-.67,1.62-1.06a15.56,15.56,0,0,0,1.18-1.09l-.2-.25c-.69.44-1.39.85-2.07,1.31q-5.15,3.46-10.3,6.93c-2.61,1.77-5.19,3.57-7.79,5.35-.14.1-.28.2-.43.29s-.64.48-.87.05c-.08-.16.17-.62.4-.79C119,47,121.73,45,124.49,42.91c1.52-1.13,3-2.29,4.53-3.42,2.07-1.54,4.14-3.09,6.24-4.58,1.15-.82,2.4-1.51,3.58-2.29.32-.21.88-.24.84-.92a4.2,4.2,0,0,0-2.23.82c-3.74,2.7-7.44,5.44-11.16,8.16q-5.16,3.77-10.35,7.51a1.66,1.66,0,0,1-1,.28c1.75-2.17,4.06-3.64,6.17-5.35s4.26-3.48,6.42-5.19,4.35-3.35,6.67-5.13a1.89,1.89,0,0,0-1.83.46c-2.85,2.22-5.74,4.4-8.58,6.63s-5.62,4.44-8.42,6.66a2,2,0,0,1-1.58.68c.12-.33.14-.62.29-.75,1.86-1.6,3.74-3.18,5.61-4.77l7.28-6.21c.76-.64,1.53-1.26,2.29-1.9a.78.78,0,0,0,.28-.67,7,7,0,0,0-1.27.68c-3.43,2.82-6.83,5.67-10.25,8.51q-2,1.69-4.11,3.34a10.65,10.65,0,0,1-1.11.65,3.39,3.39,0,0,1,.31-.89,14.69,14.69,0,0,1,1.1-1.1q4.88-4.51,9.77-9c.59-.54,1.22-1,2-1.65a1.23,1.23,0,0,0-1.37.27l-4.46,3.93L114,43.06c-.42.37-.81.78-1.23,1.15s-.57.46-.89.72c-.42-.61-.08-.93.21-1.21,1.74-1.72,3.5-3.43,5.24-5.14l5.35-5.26a.7.7,0,0,0,0-1.12c-.44-.47-.87-1-1.35-1.49-.67.66-1.22,1.19-1.75,1.73L112.2,40c-.75.77-1.5,1.53-2.28,2.27a.74.74,0,0,1-.65.16c-.34-.22-.17-.51,0-.76,1.16-1.33,2.31-2.68,3.48-4q2.14-2.42,4.31-4.82c.81-.89,1.66-1.74,2.45-2.66A2.33,2.33,0,0,0,120,29c-4.07,4-7.65,8.44-11.74,12.42-.52-.63-.09-1,.19-1.32.93-1.14,1.87-2.26,2.8-3.39,2-2.4,3.91-4.8,5.89-7.19.85-1,1.76-2,2.63-3a2.28,2.28,0,0,0,.77-1.84,4.37,4.37,0,0,0-.54.45c-2.15,2.59-4.27,5.2-6.44,7.78-1.94,2.31-3.92,4.6-5.89,6.89a6.2,6.2,0,0,1-.73.63l-.25-.15a3.49,3.49,0,0,1,.34-1c1.52-2,3.07-4,4.61-6.07,1.2-1.58,2.39-3.16,3.59-4.73Q118.1,24.69,121,21a3.29,3.29,0,0,0,.62-1.95c-.88,1.13-1.58,2-2.27,2.93q-2.71,3.54-5.4,7.09a1,1,0,0,1-1.5.22,7.7,7.7,0,0,1,0,1,2.46,2.46,0,0,1-.27,1.06c-1.83,2.4-3.69,4.78-5.55,7.15a5,5,0,0,1-.71.75c-.1.09-.4.13-.45.06a.8.8,0,0,1-.16-.54,1.05,1.05,0,0,1,.25-.45c1.88-2.63,3.79-5.23,5.65-7.88,1.53-2.19,3-4.44,4.51-6.62,1.32-1.86,2.71-3.67,4.1-5.49.75-1,1.56-1.94,2.33-2.92a10.59,10.59,0,0,0,.64-1.14,5.68,5.68,0,0,0-2.46,1.94Q118,19.62,115.59,23q-4.38,6.17-8.82,12.3c-.58.8-1.19,1.58-1.78,2.37-.27.36-.28.36-1.07.43a5.48,5.48,0,0,1,.37-.93c.89-1.38,1.81-2.74,2.71-4.11l3.9-5.95,6.23-9.51c.11-.17.19-.36.41-.77-.73.28-1.18.45-1.5,1-.9,1.52-1.82,3-2.79,4.51q-3.57,5.45-7.19,10.87c-.84,1.26-1.72,2.48-2.6,3.71-.24.34-.47.8-1.13.28,1.71-3.1,3.72-6,5.54-9.07l5.51-9.19a1.65,1.65,0,0,0-1.36.85c-1.21,2-2.41,4.08-3.64,6.1-1.35,2.2-2.75,4.38-4.12,6.57-.75,1.21-1.49,2.42-2.25,3.63a4.89,4.89,0,0,1-.46.55c-.63-.2-.54-.54-.32-.92,1-1.77,2-3.53,3-5.3,1.39-2.53,2.75-5.07,4.14-7.6.31-.56.73-1.07,1.08-1.61a7.45,7.45,0,0,0,.36-.71.9.9,0,0,0-1.12.54c-.46.77-.86,1.59-1.3,2.37q-3.38,5.89-6.79,11.77c-.17.29-.39.54-.73,1-.11-.42-.27-.67-.2-.82.61-1.33,1.24-2.66,1.91-4,1.59-3.11,3.21-6.2,4.8-9.31.23-.46.42-.93.69-1.52l-2.6-1.25c-2.4,5.07-4.59,10.15-7.23,15-.69-.24-.56-.58-.4-1,.68-1.62,1.34-3.26,2-4.88q1.43-3.39,2.88-6.77c.39-.91.78-1.82,1.2-2.71a.77.77,0,0,0-.24-1.11c-.55,1.25-1.09,2.45-1.62,3.66-1.1,2.52-2.19,5-3.29,7.56-.53,1.22-1.09,2.43-1.63,3.64-.05.12,0,.3-.13.36a3.7,3.7,0,0,1-.63.28c-.06-.22-.24-.49-.17-.66,1-2.54,2-5.06,2.92-7.59,1-2.73,2.06-5.46,3.1-8.19a8.9,8.9,0,0,1,.61-1.42,2.16,2.16,0,0,0,.12-2.15c-.11.12-.26.22-.31.35q-2,5.05-3.89,10.11L95,30.9c-.17.44-.31.89-.47,1.33a.73.73,0,0,1-1,.56,2.29,2.29,0,0,1,0-.7c1.26-3.8,2.5-7.6,3.82-11.37,1.23-3.53,2.54-7,3.84-10.54a1.87,1.87,0,0,0-.09-1.82c-3.06,8-5.58,16.16-8.62,24.27-.84-.57-.62-1.14-.44-1.69.75-2.37,1.53-4.74,2.26-7.12C96,18.56,97.57,13.29,99.2,8c.44-1.42,1-2.79,1.63-4.45a3.46,3.46,0,0,0-1.5,1.87c-1.42,4.73-2.84,9.45-4.31,14.17-.8,2.58-1.7,5.13-2.54,7.71-.45,1.39-.86,2.79-1.31,4.18-.08.23-.31.42-.56.75a2.91,2.91,0,0,1,0-2c.57-2.15,1.07-4.32,1.65-6.47.53-2,1.15-3.94,1.69-5.93.9-3.3,1.77-6.61,2.67-10-.64,0-.85.39-1,.85-.73,2.83-1.4,5.67-2.18,8.49C92.42,21.07,91.27,25,90.15,28.9c-.11.37-.16.76-.28,1.12-.2.59-.44,1.17-.65,1.74-.63-.12-.64-.45-.56-.81.43-1.88.87-3.76,1.3-5.64.85-3.77,1.68-7.54,2.55-11.3.27-1.16.61-2.3.94-3.52-.44-.13-.69.21-.88.5a2.63,2.63,0,0,0-.29.85c-.7,3-1.41,5.92-2.08,8.89-.72,3.17-1.4,6.36-2.11,9.54-.15.66-.16.65-1,.76a9.37,9.37,0,0,1,0-1.77c.34-1.73.79-3.43,1.15-5.16.73-3.48,1.42-7,2.12-10.46a3.33,3.33,0,0,0,0-.59,1.47,1.47,0,0,0-1,1.25c-.6,3.33-1.18,6.67-1.82,10-.39,2-.88,4-1.34,6,0,.15-.19.27-.3.43-.68-.34-.46-.92-.39-1.37q.73-5,1.52-10.06c.27-1.69.62-3.37.95-5.09-.88-.71-1.89-.4-2.95-.45-.19,1.42-.37,2.81-.55,4.2s-.36,2.8-.54,4.2-.31,2.82-.56,4.22,0,2.79-1,4.21a4.58,4.58,0,0,1-.24-2.84c.1-1.55.27-3.09.43-4.63.14-1.36.33-2.72.46-4.08,0-.5,0-1,0-1.53.08-1.24.22-2.48.28-3.72a4,4,0,0,0-.21-1l-.3,0c-.08.86-.17,1.72-.25,2.57-.16,1.58-.34,3.16-.49,4.74-.11,1.2-.19,2.4-.29,3.61-.16,1.85-.33,3.69-.5,5.54,0,.44-.05.88-.61,1-.58-.32-.47-.89-.45-1.38.1-2.15.23-4.29.33-6.44.08-1.72.11-3.44.2-5.16,0-.68.16-1.35.23-2,.17-1.7.38-3.4.48-5.11a1.69,1.69,0,0,0-.68-1.18q-.72,10.5-1.45,21c0,.06-.12.1-.24.19-.63-.14-.66-.67-.65-1.18q.1-3.16.22-6.33c0-1.07.17-2.15.19-3.22,0-.64-.18-1.28-.17-1.91.06-3.32.15-6.64.24-10a7.82,7.82,0,0,1,.17-1.41A2.48,2.48,0,0,0,78.42,4c-.22,8.72-.43,17.17-.64,25.61l-.32,0a10.3,10.3,0,0,1-.22-1.46c0-1.25,0-2.49,0-3.74,0-2,.08-4,.09-6,0-4.71,0-9.42,0-14.13,0-.6.13-1.19.17-1.79A3.36,3.36,0,0,0,77.06,0h-.37a3.36,3.36,0,0,0-.44,2.47c0,.6.17,1.19.17,1.79,0,4.71,0,9.42,0,14.13,0,2,.05,4,.09,6,0,1.25,0,2.49,0,3.74a10.3,10.3,0,0,1-.22,1.46l-.32,0c-.21-8.45-.43-16.89-.64-25.61a2.48,2.48,0,0,0-.76,2.17,7.81,7.81,0,0,1,.17,1.41c.09,3.32.18,6.63.24,10,0,.64-.18,1.28-.17,1.91,0,1.07.14,2.15.19,3.22q.13,3.16.22,6.33c0,.52,0,1-.65,1.18-.12-.09-.24-.14-.24-.19q-.74-10.5-1.45-21a1.69,1.69,0,0,0-.68,1.18c.1,1.71.31,3.41.48,5.11.07.68.19,1.35.23,2,.09,1.72.12,3.44.2,5.16.1,2.15.24,4.29.33,6.44,0,.49.13,1.06-.45,1.38-.55-.13-.57-.57-.61-1-.16-1.85-.34-3.69-.5-5.54-.1-1.2-.18-2.41-.29-3.61-.15-1.58-.33-3.16-.49-4.74-.09-.86-.17-1.72-.25-2.57l-.3,0a4,4,0,0,0-.21,1c.07,1.24.2,2.48.28,3.72,0,.51,0,1,0,1.53.13,1.36.32,2.72.46,4.08.16,1.54.34,3.08.43,4.63a4.58,4.58,0,0,1-.24,2.84c-.94-1.42-.72-2.88-1-4.21s-.38-2.81-.56-4.22-.36-2.8-.54-4.2l-.55-4.2c-1.06,0-2.07-.26-2.95.45.32,1.73.67,3.4.95,5.09q.8,5,1.52,10.06c.07.45.28,1-.39,1.37-.12-.16-.27-.28-.3-.43-.46-2-.95-4-1.34-6-.64-3.33-1.22-6.67-1.82-10a1.47,1.47,0,0,0-1-1.25,3.33,3.33,0,0,0,0,.59c.7,3.49,1.4,7,2.12,10.46.36,1.72.8,3.43,1.15,5.16a9.36,9.36,0,0,1,0,1.77c-.82-.1-.83-.1-1-.76-.71-3.18-1.39-6.36-2.11-9.54-.67-3-1.38-5.93-2.08-8.89a2.63,2.63,0,0,0-.29-.85c-.19-.29-.44-.63-.88-.5.33,1.22.68,2.36.94,3.52.86,3.76,1.7,7.54,2.55,11.3.43,1.88.87,3.76,1.3,5.64.08.36.08.69-.56.81-.21-.57-.45-1.15-.65-1.74-.12-.36-.17-.75-.28-1.12-1.12-3.92-2.27-7.83-3.35-11.75-.77-2.82-1.45-5.66-2.18-8.49-.12-.46-.32-.85-1-.85.91,3.4,1.77,6.71,2.67,10,.54,2,1.16,3.94,1.69,5.93.58,2.15,1.08,4.32,1.65,6.47a2.91,2.91,0,0,1,0,2c-.26-.33-.49-.51-.56-.75-.46-1.39-.86-2.79-1.31-4.18-.84-2.57-1.73-5.12-2.54-7.71-1.46-4.71-2.88-9.44-4.31-14.17a3.46,3.46,0,0,0-1.5-1.87c.61,1.66,1.19,3,1.63,4.45,1.63,5.25,3.2,10.53,4.82,15.78.73,2.38,1.51,4.75,2.26,7.12.17.55.39,1.12-.44,1.69-3-8.11-5.56-16.26-8.62-24.27a1.87,1.87,0,0,0-.09,1.82c1.3,3.51,2.61,7,3.84,10.54,1.32,3.78,2.56,7.58,3.82,11.38a2.29,2.29,0,0,1,0,.7.72.72,0,0,1-1-.56c-.16-.44-.3-.89-.47-1.33L56,23.82Q54,18.76,52.1,13.7c-.05-.13-.2-.23-.31-.35a2.16,2.16,0,0,0,.12,2.15,8.92,8.92,0,0,1,.61,1.42c1,2.73,2.06,5.46,3.1,8.19,1,2.53,2,5.05,2.92,7.59.06.17-.11.44-.17.66a3.7,3.7,0,0,1-.63-.28c-.08-.06-.08-.24-.13-.36-.54-1.21-1.1-2.42-1.63-3.64-1.1-2.52-2.19-5-3.29-7.56-.53-1.21-1.07-2.41-1.62-3.66A.77.77,0,0,0,50.83,19c.42.9.81,1.8,1.2,2.71q1.45,3.38,2.88,6.77c.68,1.62,1.34,3.26,2,4.88.16.39.29.73-.4,1-2.64-4.84-4.83-9.92-7.23-15l-2.6,1.25c.26.58.45,1.06.69,1.52,1.6,3.1,3.21,6.2,4.8,9.31.67,1.3,1.3,2.63,1.91,4,.07.15-.09.39-.2.82-.34-.47-.56-.72-.73-1q-3.4-5.88-6.79-11.77c-.45-.78-.84-1.6-1.3-2.37A.9.9,0,0,0,44,20.47a7.46,7.46,0,0,0,.36.71c.35.54.77,1,1.08,1.61,1.39,2.52,2.75,5.07,4.14,7.6,1,1.77,2,3.53,3,5.3.21.38.31.73-.32.92a4.89,4.89,0,0,1-.46-.55c-.76-1.21-1.5-2.42-2.25-3.63-1.37-2.19-2.77-4.37-4.12-6.57-1.24-2-2.44-4.06-3.64-6.1a1.65,1.65,0,0,0-1.36-.85l5.51,9.19c1.82,3,3.83,6,5.54,9.07-.65.51-.89.05-1.13-.28-.88-1.23-1.77-2.45-2.6-3.71Q44,27.76,40.48,22.31c-1-1.48-1.89-3-2.79-4.51-.31-.53-.76-.7-1.5-1,.22.42.3.61.41.77l6.23,9.51,3.9,5.95c.9,1.37,1.82,2.73,2.71,4.11a5.48,5.48,0,0,1,.37.93C49,38,49,38,48.75,37.67c-.6-.79-1.21-1.57-1.78-2.37Q42.54,29.15,38.15,23q-2.4-3.37-4.71-6.8A5.68,5.68,0,0,0,31,14.25a10.59,10.59,0,0,0,.64,1.14c.76,1,1.57,1.93,2.33,2.92,1.38,1.82,2.78,3.62,4.1,5.49,1.54,2.18,3,4.44,4.51,6.62,1.85,2.65,3.76,5.25,5.65,7.88a1.05,1.05,0,0,1,.25.45.8.8,0,0,1-.16.54c-.05.06-.35,0-.45-.06a5,5,0,0,1-.71-.75c-1.86-2.38-3.72-4.75-5.55-7.15a2.46,2.46,0,0,1-.27-1.06,7.7,7.7,0,0,1,0-1A1,1,0,0,1,39.8,29q-2.68-3.56-5.4-7.09C33.71,21,33,20.15,32.13,19A3.29,3.29,0,0,0,32.75,21q2.89,3.72,5.75,7.46c1.2,1.57,2.39,3.15,3.59,4.73,1.54,2,3.09,4,4.61,6.07a3.49,3.49,0,0,1,.34,1l-.25.15a6.19,6.19,0,0,1-.73-.63c-2-2.29-3.95-4.57-5.89-6.89-2.16-2.58-4.29-5.19-6.44-7.78a4.37,4.37,0,0,0-.54-.45A2.28,2.28,0,0,0,34,26.47c.86,1,1.77,2,2.63,3,2,2.39,3.92,4.8,5.89,7.19.93,1.13,1.87,2.26,2.8,3.39.29.35.71.69.19,1.32C41.38,37.42,37.79,33,33.72,29a2.33,2.33,0,0,0,.46,1.26c.78.91,1.64,1.76,2.45,2.66q2.17,2.4,4.31,4.82c1.17,1.33,2.32,2.67,3.48,4,.22.25.39.54,0,.76a.74.74,0,0,1-.65-.16c-.78-.73-1.53-1.5-2.28-2.27l-7.4-7.62c-.53-.55-1.08-1.07-1.75-1.73-.49.54-.91,1-1.35,1.49a.7.7,0,0,0,0,1.12l5.35,5.26c1.75,1.71,3.51,3.42,5.24,5.14.29.28.63.61.21,1.21-.32-.26-.62-.47-.89-.72s-.81-.78-1.23-1.15l-6.08-5.42-4.46-3.93a1.23,1.23,0,0,0-1.37-.27c.76.63,1.39,1.11,2,1.65q4.9,4.5,9.77,9a14.71,14.71,0,0,1,1.1,1.1,3.39,3.39,0,0,1,.31.89,10.65,10.65,0,0,1-1.11-.65q-2.07-1.66-4.11-3.34c-3.42-2.83-6.82-5.68-10.25-8.51a7.05,7.05,0,0,0-1.27-.68.78.78,0,0,0,.28.67c.76.64,1.54,1.26,2.29,1.9l7.28,6.21c1.87,1.59,3.75,3.17,5.61,4.77.15.13.17.41.29.75a2,2,0,0,1-1.58-.68c-2.81-2.22-5.6-4.46-8.42-6.66s-5.73-4.41-8.58-6.63a1.89,1.89,0,0,0-1.83-.46c2.32,1.78,4.51,3.43,6.67,5.13s4.28,3.46,6.42,5.19,4.42,3.19,6.17,5.35a1.66,1.66,0,0,1-1-.28q-5.19-3.74-10.35-7.51C23.72,37.95,20,35.2,16.28,32.51a4.2,4.2,0,0,0-2.23-.82c0,.69.52.71.84.92,1.18.79,2.42,1.48,3.58,2.29,2.11,1.49,4.17,3,6.24,4.58,1.52,1.13,3,2.29,4.53,3.42C32,45,34.78,47,37.52,49.11c.22.17.48.64.4.79-.23.43-.58.13-.87-.05s-.29-.19-.43-.29C34,47.77,31.43,46,28.83,44.21q-5.14-3.48-10.3-6.93c-.68-.45-1.38-.87-2.07-1.31l-.2.25a15.57,15.57,0,0,0,1.18,1.09c.51.39,1.09.7,1.62,1.06l9.14,6.31,8.06,5.61c.36.25.7.5.46,1.18-3.18-1.68-6-3.77-9-5.62s-6-3.78-9-5.73A3.32,3.32,0,0,0,20.16,42c1.8,1.09,3.57,2.23,5.34,3.38q4.93,3.2,9.83,6.44a2.87,2.87,0,0,1,.53.65c-.69.5-1.09,0-1.49-.24-3-1.77-6-3.58-9-5.36-1.5-.89-3-1.76-4.62-2.68-.07,1,.61,1.24,1.18,1.58.93.54,1.88,1,2.81,1.6,1.52.91,3,1.86,4.52,2.78s3.26,1.94,4.87,2.95a10.16,10.16,0,0,1,1.2,1.08c-1.38,0-2.8-.64-7.75-3.53-2.41-1.4-4.86-2.73-7.35-4.12a4.26,4.26,0,0,0-1.15,2.6,5.61,5.61,0,0,0,.72.54c2.09,1.11,4.18,2.23,6.29,3.31,2.29,1.17,4.61,2.29,6.91,3.45.32.16.75.33.51,1a4.41,4.41,0,0,1-.79-.19c-1.47-.63-2.94-1.25-4.38-1.93q-5-2.35-10.06-4.73a1.74,1.74,0,0,0-2,.09c2,.87,3.85,1.68,5.71,2.53s3.87,1.68,5.71,2.69,3.79,1.48,5.33,2.92a1.48,1.48,0,0,1-1,0c-1.21-.45-2.41-.93-3.6-1.43-2.81-1.19-5.61-2.4-8.41-3.6-1.9-.81-3.81-1.6-5.71-2.42a2.35,2.35,0,0,0-2.21.11c1.72.65,3.38,1.22,5,1.9s3.17,1.53,4.79,2.2c3.18,1.32,6.38,2.57,9.57,3.84.39.16.83.25.91.75-.33.46-.67.32-1.05.17-1.85-.69-3.71-1.34-5.56-2q-4-1.47-8-3c-2.61-1-5.24-2-7.82-3a1.71,1.71,0,0,0-1.83.23,7.84,7.84,0,0,0,2.31.94,7.71,7.71,0,0,1,2.57.78c1.28.51,2.55,1,3.84,1.53,3.13,1.18,6.27,2.33,9.41,3.49,1.61.6,3.22,1.19,4.83,1.81.34.13.77.27.58.9a3.43,3.43,0,0,1-.83,0c-.62-.16-1.24-.36-1.85-.57-3.33-1.13-6.66-2.27-10-3.39-2.93-1-5.87-1.92-8.8-2.9-1.75-.59-3.49-1.24-5.23-1.88a1.88,1.88,0,0,0-2.27.32c1.86.59,3.77,1.19,5.68,1.81s3.9,1.28,5.84,1.92L20,59.18c1.94.65,3.92,1.22,5.82,2s3.81,1,5.53,2.11a1,1,0,0,1-.7.27,13.42,13.42,0,0,1-1.63-.38l-9.76-2.88C14.81,58.93,10.2,58,5.74,56.11a3.77,3.77,0,0,0,2,1.69c1.27.39,2.56.69,3.84,1.05,1.73.49,3.46,1,5.19,1.51s3.68,1.15,5.53,1.71q3.89,1.17,7.79,2.29c.38.11.63.24.42.83-3.49-.59-6.88-1.66-10.33-2.44S13.35,61,9.67,60a3,3,0,0,0,2.07,1.5c2.42.57,4.84,1.12,7.25,1.71,1,.25,2.05.61,3.09.88,2.58.66,5.17,1.28,7.75,1.94.22.06.41.27.78.53-.41.11-.58.21-.73.18L12.82,63.16c.29.82,1,1,1.71,1.18,2.65.53,5.3,1,7.93,1.62,2.25.51,4.48,1.12,6.72,1.68l1,.26c-.52.67-.69.69-1.56.5-1.51-.32-3-.61-4.54-.89l-6.72-1.24c-1.3-.24-2.61-.45-3.93-.67a4.12,4.12,0,0,0-.35,2.88c.46.09.92.19,1.38.26,1.74.26,3.47.55,5.21.77,1,.13,2.07.29,3.1.49,1.68.32,3.42.35,5.11.62.46.07,1.27,0,1.35.92-.47,0-.89,0-1.31,0-1.46-.13-2.91-.29-4.37-.44l-7.71-.79c-1.15-.12-2.3-.29-3.46-.37a1.38,1.38,0,0,0-1.43.54c.81.13,1.48.27,2.16.35,2.56.28,5.12.53,7.69.8,1.66.17,3.33.33,5,.52.81.09,1.62.22,2.42.34.37.06.8,0,.93.71a5.57,5.57,0,0,1-1.09.16c-1.38-.06-2.75-.15-4.13-.26-1.8-.14-3.6-.31-5.4-.46l-4.64-.36c-1.62-.13-3.25-.27-4.88-.39a1,1,0,0,0-1.19.74c1.14,0,2.21.06,3.29.15,2.31.18,4.61.39,6.92.58.77.06,1.55.07,2.33.14,1.41.13,2.82.31,4.23.44s2.63.18,3.94.27c.37,0,.67.15.66.69a7.48,7.48,0,0,1-1,.08c-1.42-.06-2.83-.18-4.25-.23-3.87-.11-7.73-.18-11.6-.29-1.16,0-2.32-.17-3.48-.22s-2.42-.08-3.63-.06a1.18,1.18,0,0,0-1.34,1c.76,0,1.43,0,2.1,0,2.34,0,4.69.05,7,.14,2.62.1,5.24.29,7.86.41,2.45.11,4.91.19,7.36.29.06,0,.11.08.33.26-.45.06-.76.12-1.07.13s-.69-.07-1-.07c-1.27,0-2.54.14-3.81.13-2.06,0-4.11-.14-6.17-.13-3.33,0-6.66.09-10,.15-2.17,0-4.34-.38-6.51,0v.52H0v.52c2.17.4,4.34,0,6.51,0,3.33.06,6.66.14,10,.15,2.06,0,4.11-.12,6.17-.13,1.27,0,2.54.09,3.81.13.34,0,.69-.07,1-.07s.62.07,1.07.13c-.23.18-.28.26-.33.26-2.46.1-4.91.18-7.36.29-2.62.12-5.24.31-7.86.41-2.34.09-4.68.1-7,.14-.67,0-1.34,0-2.1,0a1.18,1.18,0,0,0,1.34,1c1.21,0,2.42,0,3.63-.06s2.32-.19,3.48-.22c3.87-.11,7.74-.18,11.6-.29,1.42,0,2.83-.16,4.25-.23a7.47,7.47,0,0,1,1,.08c0,.55-.29.67-.66.69-1.31.09-2.63.16-3.94.27s-2.82.3-4.23.44c-.77.07-1.55.08-2.33.14-2.31.19-4.61.41-6.92.58-1.07.08-2.15.1-3.29.15A1,1,0,0,0,9,82.23c1.63-.12,3.25-.26,4.88-.39l4.64-.36c1.8-.15,3.6-.32,5.4-.46,1.37-.11,2.75-.2,4.13-.26a5.57,5.57,0,0,1,1.09.16c-.12.67-.56.65-.93.71-.8.12-1.61.25-2.42.34-1.66.18-3.33.35-5,.52-2.56.26-5.13.52-7.69.8-.67.07-1.34.21-2.16.35a1.38,1.38,0,0,0,1.43.54c1.16-.08,2.31-.25,3.46-.37L23.54,83c1.45-.15,2.91-.31,4.37-.44.42,0,.84,0,1.31,0-.08.94-.88.85-1.35.92-1.69.27-3.43.3-5.11.62-1,.2-2.06.36-3.1.49-1.74.22-3.48.5-5.21.77-.46.07-.92.17-1.38.26a4.12,4.12,0,0,0,.35,2.88c1.32-.22,2.63-.43,3.93-.67l6.72-1.24c1.52-.28,3-.57,4.54-.89.87-.18,1-.16,1.56.5l-1,.26c-2.24.56-4.47,1.17-6.72,1.68-2.63.59-5.29,1.1-7.93,1.62-.75.15-1.42.37-1.71,1.18l17.06-3.56c.15,0,.32.07.73.18-.37.25-.55.47-.78.53-2.58.66-5.17,1.28-7.75,1.94-1,.26-2,.62-3.09.88-2.41.59-4.83,1.15-7.25,1.71a3,3,0,0,0-2.07,1.5c3.68-1,7.07-2,10.52-2.77S27,89.51,30.52,88.92c.21.59,0,.72-.42.83Q26.2,90.88,22.31,92c-1.85.55-3.68,1.15-5.53,1.71s-3.46,1-5.19,1.51c-1.28.36-2.57.67-3.84,1.05a3.77,3.77,0,0,0-2,1.69c4.46-1.89,9.08-2.83,13.57-4.16L29.06,91a13.44,13.44,0,0,1,1.63-.38,1,1,0,0,1,.7.27c-1.72,1.06-3.7,1.39-5.53,2.11S22,94.28,20,94.94L14.3,96.86c-1.94.65-3.89,1.29-5.84,1.92S4.64,100,2.78,100.6a1.88,1.88,0,0,0,2.27.32c1.74-.64,3.47-1.29,5.23-1.88,2.93-1,5.87-1.92,8.8-2.9,3.34-1.12,6.66-2.27,10-3.39.61-.21,1.23-.41,1.85-.57a3.44,3.44,0,0,1,.83,0c.19.62-.23.76-.58.9-1.6.62-3.21,1.21-4.83,1.81-3.14,1.16-6.27,2.31-9.41,3.49-1.29.48-2.56,1-3.84,1.53a7.71,7.71,0,0,1-2.57.78,7.84,7.84,0,0,0-2.31.94,1.71,1.71,0,0,0,1.83.23c2.58-1.07,5.2-2,7.82-3s5.31-2,8-3c1.85-.68,3.71-1.34,5.56-2,.39-.14.73-.28,1.05.17-.09.51-.52.6-.91.75C28.35,96,25.15,97.26,22,98.58c-1.62.67-3.18,1.52-4.79,2.2s-3.27,1.25-5,1.9a2.35,2.35,0,0,0,2.21.11c1.9-.82,3.81-1.61,5.71-2.42,2.81-1.2,5.61-2.41,8.41-3.6,1.19-.5,2.39-1,3.6-1.43a1.48,1.48,0,0,1,1,0c-1.54,1.44-3.57,1.95-5.33,2.92S24,100.12,22.05,101s-3.74,1.66-5.71,2.53a1.74,1.74,0,0,0,2,.09q5-2.38,10.06-4.73c1.45-.67,2.92-1.3,4.38-1.93a4.42,4.42,0,0,1,.79-.19c.23.64-.19.81-.51,1-2.3,1.16-4.62,2.28-6.91,3.45-2.11,1.08-4.2,2.2-6.29,3.31a5.61,5.61,0,0,0-.72.54,4.26,4.26,0,0,0,1.15,2.6c2.49-1.39,4.94-2.72,7.35-4.12,5-2.89,6.37-3.58,7.75-3.53a10.17,10.17,0,0,1-1.2,1.08c-1.61,1-3.25,2-4.87,2.95s-3,1.87-4.52,2.78c-.92.55-1.88,1.05-2.81,1.6-.58.33-1.25.62-1.18,1.58,1.6-.93,3.12-1.79,4.62-2.68,3-1.78,6-3.59,9-5.36.39-.23.8-.74,1.49-.24a2.87,2.87,0,0,1-.53.65q-4.9,3.24-9.83,6.44c-1.77,1.15-3.53,2.29-5.34,3.38A3.32,3.32,0,0,0,18.71,114c3.06-1.95,6-3.87,9-5.73s5.82-3.94,9-5.62c.25.69-.1.93-.46,1.18l-8.06,5.61-9.14,6.31c-.53.37-1.11.67-1.62,1.06a15.61,15.61,0,0,0-1.18,1.09l.2.25c.69-.44,1.39-.85,2.07-1.31q5.15-3.46,10.3-6.93c2.61-1.77,5.19-3.57,7.79-5.35.14-.1.28-.2.43-.29s.64-.48.87-.05c.08.16-.17.62-.4.79-2.75,2.08-5.52,4.13-8.28,6.19-1.52,1.13-3,2.29-4.53,3.42-2.07,1.54-4.14,3.09-6.24,4.58-1.15.82-2.4,1.51-3.58,2.29-.32.21-.88.24-.84.92a4.2,4.2,0,0,0,2.23-.82c3.74-2.7,7.44-5.44,11.17-8.16q5.16-3.77,10.35-7.51a1.66,1.66,0,0,1,1-.28c-1.75,2.17-4.06,3.64-6.17,5.35s-4.26,3.48-6.42,5.19-4.35,3.35-6.67,5.13a1.89,1.89,0,0,0,1.83-.46c2.85-2.22,5.74-4.4,8.58-6.63s5.62-4.44,8.42-6.66A2,2,0,0,1,40,106.9c-.12.33-.14.62-.29.75-1.86,1.6-3.74,3.18-5.61,4.77l-7.28,6.21c-.76.64-1.53,1.26-2.29,1.9a.78.78,0,0,0-.28.67,7.05,7.05,0,0,0,1.27-.68c3.43-2.82,6.83-5.67,10.25-8.51q2-1.69,4.11-3.34A10.66,10.66,0,0,1,41,108a3.39,3.39,0,0,1-.31.89,14.72,14.72,0,0,1-1.1,1.1q-4.88,4.51-9.77,9c-.59.54-1.22,1-2,1.65a1.23,1.23,0,0,0,1.37-.27l4.46-3.93,6.08-5.42c.42-.37.81-.78,1.23-1.15s.57-.46.89-.72c.42.61.08.93-.21,1.21-1.74,1.72-3.5,3.43-5.24,5.14l-5.35,5.26a.7.7,0,0,0,0,1.12c.44.47.87,1,1.35,1.49.67-.66,1.22-1.19,1.75-1.73l7.4-7.62c.75-.77,1.5-1.53,2.28-2.27a.74.74,0,0,1,.65-.16c.34.22.17.51,0,.76-1.16,1.33-2.31,2.68-3.48,4q-2.14,2.42-4.31,4.82c-.81.89-1.66,1.74-2.45,2.66a2.33,2.33,0,0,0-.46,1.26c4.07-4,7.65-8.44,11.74-12.42.52.63.09,1-.19,1.32-.93,1.14-1.87,2.26-2.8,3.39-2,2.4-3.91,4.8-5.89,7.19-.85,1-1.76,2-2.63,3a2.28,2.28,0,0,0-.77,1.84,4.37,4.37,0,0,0,.54-.45c2.15-2.59,4.27-5.2,6.44-7.78,1.94-2.31,3.92-4.6,5.89-6.89a6.19,6.19,0,0,1,.73-.63l.25.15a3.49,3.49,0,0,1-.34,1c-1.52,2-3.07,4-4.61,6.07-1.2,1.58-2.39,3.16-3.59,4.73q-2.87,3.74-5.75,7.46a3.29,3.29,0,0,0-.62,1.95c.88-1.13,1.58-2,2.27-2.93q2.71-3.54,5.4-7.09a1,1,0,0,1,1.5-.22,7.7,7.7,0,0,1,0-1,2.46,2.46,0,0,1,.27-1.06c1.83-2.4,3.69-4.78,5.55-7.15a5,5,0,0,1,.71-.75c.1-.09.4-.13.45-.06a.8.8,0,0,1,.16.54,1.05,1.05,0,0,1-.25.45c-1.88,2.63-3.79,5.23-5.65,7.88-1.53,2.19-3,4.44-4.51,6.62-1.32,1.86-2.71,3.67-4.1,5.49-.75,1-1.56,1.94-2.33,2.92a10.59,10.59,0,0,0-.64,1.14,5.68,5.68,0,0,0,2.46-1.94q2.32-3.42,4.71-6.8,4.38-6.17,8.82-12.3c.58-.8,1.19-1.58,1.78-2.37.27-.36.28-.36,1.07-.43a5.47,5.47,0,0,1-.37.93c-.89,1.38-1.81,2.74-2.71,4.11L42.83,127l-6.23,9.51c-.11.17-.19.36-.41.77.73-.28,1.18-.45,1.5-1,.9-1.52,1.82-3,2.79-4.51q3.57-5.45,7.19-10.87c.84-1.26,1.72-2.48,2.6-3.71.24-.34.47-.8,1.13-.28-1.71,3.1-3.72,6-5.54,9.07l-5.51,9.19a1.65,1.65,0,0,0,1.36-.85c1.2-2,2.41-4.08,3.64-6.1,1.35-2.2,2.75-4.38,4.12-6.57.75-1.21,1.49-2.42,2.25-3.63a4.89,4.89,0,0,1,.46-.55c.63.2.54.54.32.92-1,1.77-2,3.53-3,5.3-1.39,2.53-2.75,5.07-4.14,7.6-.31.56-.73,1.07-1.08,1.61a7.46,7.46,0,0,0-.36.71.9.9,0,0,0,1.12-.54c.46-.77.86-1.59,1.3-2.37q3.38-5.89,6.79-11.77c.17-.29.39-.54.73-1,.11.42.27.67.2.82-.61,1.33-1.24,2.66-1.91,4-1.59,3.11-3.2,6.2-4.8,9.31-.23.46-.42.93-.69,1.52l2.6,1.25c2.4-5.07,4.59-10.15,7.23-15,.69.24.56.58.4,1-.68,1.63-1.34,3.26-2,4.88q-1.43,3.39-2.88,6.77c-.39.91-.78,1.82-1.2,2.71a.77.77,0,0,0,.24,1.11c.55-1.25,1.09-2.45,1.62-3.66,1.1-2.52,2.19-5,3.29-7.56.53-1.22,1.09-2.43,1.63-3.64.05-.12,0-.3.13-.36a3.7,3.7,0,0,1,.63-.28c.06.22.24.49.17.66-1,2.54-2,5.06-2.92,7.59-1,2.73-2.06,5.46-3.1,8.19a8.92,8.92,0,0,1-.61,1.42,2.16,2.16,0,0,0-.12,2.15c.11-.12.26-.22.31-.35q2-5.05,3.89-10.11l2.72-7.09c.17-.44.31-.89.47-1.33a.72.72,0,0,1,1-.56,2.29,2.29,0,0,1,0,.7c-1.26,3.8-2.5,7.6-3.82,11.38-1.23,3.53-2.54,7-3.84,10.54a1.87,1.87,0,0,0,.09,1.82c3.06-8,5.58-16.16,8.62-24.27.84.57.62,1.14.44,1.69-.75,2.37-1.53,4.74-2.26,7.12-1.61,5.26-3.19,10.53-4.82,15.78-.44,1.42-1,2.79-1.63,4.45a3.46,3.46,0,0,0,1.5-1.87c1.42-4.73,2.84-9.45,4.31-14.17.8-2.58,1.7-5.13,2.54-7.71.45-1.39.86-2.79,1.31-4.18.08-.23.31-.42.56-.75a2.91,2.91,0,0,1,0,2c-.57,2.15-1.07,4.32-1.65,6.47-.53,2-1.15,3.94-1.69,5.93-.9,3.3-1.77,6.61-2.67,10,.64,0,.85-.39,1-.85.73-2.83,1.4-5.67,2.18-8.49,1.08-3.93,2.23-7.84,3.35-11.75.11-.37.16-.76.28-1.12.2-.59.44-1.17.65-1.74.63.12.64.45.56.81-.43,1.88-.87,3.76-1.3,5.64-.85,3.77-1.68,7.54-2.55,11.3-.27,1.16-.61,2.3-.94,3.52.44.13.69-.21.88-.5a2.63,2.63,0,0,0,.29-.85c.7-3,1.41-5.92,2.08-8.89.72-3.17,1.4-6.36,2.11-9.54.15-.66.16-.65,1-.76a9.36,9.36,0,0,1,0,1.77c-.34,1.73-.79,3.43-1.15,5.16-.73,3.48-1.42,7-2.12,10.46a3.33,3.33,0,0,0,0,.59,1.47,1.47,0,0,0,1-1.25c.6-3.33,1.18-6.67,1.82-10,.39-2,.88-4,1.34-6,0-.15.19-.27.3-.43.68.34.46.92.39,1.37q-.73,5-1.52,10.06c-.27,1.69-.62,3.37-.95,5.09.88.71,1.89.4,2.95.45l.55-4.2.54-4.2c.18-1.41.31-2.82.56-4.22s0-2.79,1-4.21a4.58,4.58,0,0,1,.24,2.84c-.1,1.55-.27,3.09-.43,4.63-.14,1.36-.33,2.72-.46,4.08,0,.5,0,1,0,1.53-.08,1.24-.22,2.48-.28,3.72a4,4,0,0,0,.21,1l.3,0c.08-.86.17-1.72.25-2.57.16-1.58.34-3.16.49-4.74.11-1.2.19-2.4.29-3.61.16-1.85.33-3.69.5-5.54,0-.44.05-.88.61-1,.58.32.47.89.45,1.38-.1,2.15-.23,4.29-.33,6.44-.08,1.72-.11,3.44-.2,5.16,0,.68-.16,1.35-.23,2-.17,1.7-.38,3.4-.48,5.11a1.69,1.69,0,0,0,.68,1.18q.72-10.5,1.45-21c0-.06.12-.1.24-.19.63.15.66.67.65,1.18q-.1,3.16-.22,6.33c0,1.07-.17,2.15-.19,3.22,0,.64.18,1.28.17,1.91-.06,3.32-.15,6.64-.24,10a7.81,7.81,0,0,1-.17,1.41,2.48,2.48,0,0,0,.76,2.17c.22-8.72.43-17.17.64-25.61l.32,0a10.3,10.3,0,0,1,.22,1.46c0,1.25,0,2.49,0,3.74,0,2-.08,4-.09,6,0,4.71,0,9.42,0,14.13,0,.6-.13,1.19-.17,1.79a3.36,3.36,0,0,0,.44,2.47h.37a3.36,3.36,0,0,0,.44-2.47c0-.6-.17-1.19-.17-1.79,0-4.71,0-9.42,0-14.13,0-2-.05-4-.09-6,0-1.25,0-2.49,0-3.74a10.31,10.31,0,0,1,.22-1.46l.32,0c.21,8.45.43,16.89.64,25.61a2.48,2.48,0,0,0,.76-2.17,7.82,7.82,0,0,1-.17-1.41c-.09-3.32-.18-6.63-.24-10,0-.64.18-1.28.17-1.91,0-1.07-.14-2.15-.19-3.22q-.13-3.16-.22-6.33c0-.52,0-1,.65-1.18.12.09.24.14.24.19q.74,10.5,1.45,21a1.69,1.69,0,0,0,.68-1.18c-.1-1.71-.31-3.41-.48-5.11-.07-.68-.19-1.35-.23-2-.09-1.72-.12-3.44-.2-5.16-.1-2.15-.24-4.29-.33-6.44,0-.49-.13-1.06.45-1.38.55.13.57.57.61,1,.16,1.85.34,3.69.5,5.54.1,1.2.18,2.41.29,3.61.15,1.58.33,3.16.49,4.74.09.86.17,1.72.25,2.57l.3,0a4,4,0,0,0,.21-1c-.07-1.24-.2-2.48-.28-3.72,0-.51,0-1,0-1.53-.13-1.36-.32-2.72-.46-4.08-.16-1.54-.34-3.08-.43-4.63a4.58,4.58,0,0,1,.24-2.84c.94,1.42.72,2.88,1,4.21s.38,2.81.56,4.22l.54,4.2.55,4.2c1.06,0,2.07.26,2.95-.45-.32-1.73-.67-3.4-.95-5.09q-.8-5-1.52-10.06c-.07-.45-.28-1,.39-1.37.12.16.27.28.3.43.46,2,.95,4,1.34,6,.64,3.33,1.22,6.67,1.82,10a1.47,1.47,0,0,0,1,1.25,3.33,3.33,0,0,0,0-.59c-.7-3.49-1.4-7-2.12-10.46-.36-1.72-.8-3.43-1.15-5.16a9.37,9.37,0,0,1,0-1.77c.82.1.83.1,1,.76.71,3.18,1.39,6.36,2.11,9.54.67,3,1.38,5.93,2.08,8.89a2.63,2.63,0,0,0,.29.85c.19.29.44.63.88.5-.33-1.22-.68-2.36-.94-3.52-.86-3.76-1.7-7.54-2.55-11.3-.43-1.88-.87-3.76-1.3-5.64-.08-.36-.08-.69.56-.81.21.57.45,1.15.65,1.74.12.36.17.75.28,1.12,1.12,3.92,2.27,7.83,3.35,11.75.77,2.82,1.45,5.66,2.18,8.49.12.46.32.85,1,.85-.91-3.4-1.77-6.71-2.67-10-.54-2-1.16-3.94-1.69-5.93-.58-2.15-1.08-4.32-1.65-6.47a2.91,2.91,0,0,1,0-2c.26.33.49.51.56.75.46,1.39.86,2.79,1.31,4.18.84,2.57,1.73,5.12,2.54,7.71,1.46,4.71,2.88,9.44,4.31,14.17a3.46,3.46,0,0,0,1.5,1.87c-.61-1.66-1.19-3-1.63-4.45-1.63-5.25-3.2-10.53-4.82-15.78-.73-2.38-1.51-4.75-2.26-7.12-.17-.55-.39-1.12.44-1.69,3,8.11,5.56,16.26,8.62,24.27a1.87,1.87,0,0,0,.09-1.82c-1.3-3.51-2.61-7-3.84-10.54-1.32-3.78-2.56-7.58-3.82-11.38a2.29,2.29,0,0,1,0-.7.72.72,0,0,1,1,.56c.16.44.3.89.47,1.33l2.72,7.09q1.94,5.06,3.89,10.11c.05.13.2.23.31.35a2.16,2.16,0,0,0-.12-2.15,8.9,8.9,0,0,1-.61-1.42c-1-2.73-2.06-5.46-3.1-8.19-1-2.53-2-5.05-2.92-7.59-.06-.17.11-.44.17-.66A3.7,3.7,0,0,1,96,121c.08.06.08.24.13.36.54,1.21,1.1,2.42,1.63,3.64,1.1,2.52,2.19,5,3.29,7.56.53,1.21,1.07,2.41,1.62,3.66a.77.77,0,0,0,.24-1.11c-.42-.9-.81-1.8-1.2-2.71q-1.45-3.38-2.88-6.77c-.68-1.62-1.34-3.26-2-4.88-.16-.39-.29-.73.4-1,2.64,4.84,4.83,9.92,7.23,15l2.6-1.25c-.26-.58-.45-1.06-.69-1.52-1.6-3.1-3.21-6.2-4.8-9.31-.67-1.3-1.3-2.63-1.91-4-.07-.15.09-.39.2-.82.34.47.56.72.73,1q3.4,5.88,6.79,11.77c.45.78.84,1.6,1.3,2.37a.9.9,0,0,0,1.12.54,7.45,7.45,0,0,0-.36-.71c-.35-.54-.77-1-1.08-1.61-1.39-2.52-2.75-5.07-4.14-7.6-1-1.77-2-3.53-3-5.3-.21-.38-.31-.73.32-.92a4.89,4.89,0,0,1,.46.55c.76,1.21,1.5,2.42,2.25,3.63,1.37,2.19,2.77,4.37,4.12,6.57,1.24,2,2.44,4.06,3.64,6.1a1.65,1.65,0,0,0,1.36.85L107.88,126c-1.82-3-3.83-6-5.54-9.07.65-.51.89-.05,1.13.28.88,1.23,1.77,2.45,2.6,3.71q3.62,5.42,7.19,10.87c1,1.48,1.89,3,2.79,4.51.31.53.76.7,1.5,1-.22-.42-.3-.6-.41-.77L110.91,127l-3.9-5.95c-.9-1.37-1.82-2.73-2.71-4.11a5.47,5.47,0,0,1-.37-.93c.79.07.79.07,1.07.43.6.79,1.21,1.57,1.78,2.37q4.42,6.14,8.82,12.3,2.4,3.37,4.71,6.8a5.68,5.68,0,0,0,2.46,1.94,10.6,10.6,0,0,0-.64-1.14c-.76-1-1.57-1.93-2.33-2.92-1.38-1.81-2.78-3.62-4.1-5.49-1.54-2.18-3-4.44-4.51-6.62-1.85-2.65-3.76-5.25-5.65-7.88a1.05,1.05,0,0,1-.25-.45.8.8,0,0,1,.16-.54c.05-.06.35,0,.45.06a5,5,0,0,1,.71.75c1.86,2.38,3.72,4.75,5.55,7.15a2.46,2.46,0,0,1,.27,1.06,7.7,7.7,0,0,1,0,1,1,1,0,0,1,1.5.22q2.68,3.56,5.4,7.09c.69.9,1.39,1.8,2.27,2.93a3.29,3.29,0,0,0-.62-1.95q-2.89-3.72-5.75-7.46c-1.2-1.57-2.39-3.15-3.59-4.73-1.54-2-3.09-4-4.61-6.07a3.49,3.49,0,0,1-.34-1l.25-.15a6.2,6.2,0,0,1,.73.63c2,2.29,3.95,4.57,5.89,6.89,2.16,2.58,4.29,5.19,6.44,7.78a4.37,4.37,0,0,0,.54.45,2.28,2.28,0,0,0-.77-1.84c-.86-1-1.77-2-2.63-3-2-2.39-3.92-4.79-5.89-7.19-.93-1.13-1.87-2.26-2.8-3.39-.29-.35-.71-.69-.19-1.32,4.09,4,7.68,8.41,11.74,12.42a2.33,2.33,0,0,0-.46-1.26c-.78-.91-1.64-1.76-2.45-2.66q-2.17-2.4-4.31-4.82c-1.17-1.33-2.32-2.67-3.48-4-.22-.25-.39-.54,0-.76a.74.74,0,0,1,.65.16c.78.73,1.53,1.5,2.28,2.27l7.4,7.62c.53.55,1.08,1.07,1.75,1.73.49-.54.91-1,1.35-1.49a.7.7,0,0,0,0-1.12l-5.35-5.26c-1.75-1.71-3.51-3.42-5.24-5.14-.29-.28-.63-.61-.21-1.21.32.26.62.47.89.72s.81.78,1.23,1.15l6.08,5.42,4.46,3.93a1.23,1.23,0,0,0,1.37.27c-.76-.63-1.39-1.11-2-1.65q-4.9-4.5-9.77-9a14.71,14.71,0,0,1-1.1-1.1,3.39,3.39,0,0,1-.31-.89,10.66,10.66,0,0,1,1.11.65q2.07,1.66,4.11,3.34c3.42,2.83,6.82,5.68,10.25,8.51a7,7,0,0,0,1.27.68.78.78,0,0,0-.28-.67c-.76-.64-1.54-1.26-2.29-1.9l-7.28-6.21c-1.87-1.59-3.75-3.17-5.61-4.77-.15-.13-.17-.41-.29-.75a2,2,0,0,1,1.58.68c2.81,2.22,5.6,4.46,8.42,6.66s5.73,4.41,8.58,6.63a1.89,1.89,0,0,0,1.83.46c-2.32-1.78-4.51-3.43-6.67-5.13s-4.28-3.46-6.42-5.19-4.42-3.19-6.17-5.35a1.66,1.66,0,0,1,1,.28q5.19,3.74,10.35,7.51c3.72,2.72,7.43,5.46,11.16,8.16a4.2,4.2,0,0,0,2.23.82c0-.69-.52-.71-.84-.92-1.18-.79-2.42-1.48-3.58-2.29-2.11-1.49-4.17-3-6.24-4.58-1.52-1.13-3-2.29-4.53-3.42-2.76-2.06-5.53-4.11-8.28-6.19-.22-.17-.48-.64-.4-.79.23-.43.58-.13.87.05s.29.19.43.29c2.59,1.78,5.18,3.58,7.79,5.35q5.14,3.48,10.3,6.93c.68.45,1.38.87,2.07,1.31l.2-.25a15.6,15.6,0,0,0-1.18-1.09c-.51-.39-1.09-.7-1.62-1.06l-9.14-6.31-8.06-5.61c-.36-.25-.7-.5-.46-1.18,3.18,1.68,6,3.77,9,5.62s6,3.78,9,5.73a3.32,3.32,0,0,0-1.45-1.85c-1.8-1.09-3.57-2.23-5.34-3.38q-4.93-3.2-9.83-6.44a2.87,2.87,0,0,1-.53-.65c.69-.5,1.09,0,1.49.24,3,1.77,6,3.58,9,5.36,1.5.89,3,1.76,4.62,2.68.07-1-.61-1.24-1.18-1.58-.93-.54-1.88-1-2.81-1.6-1.52-.91-3-1.86-4.52-2.78s-3.26-1.94-4.87-2.95a10.17,10.17,0,0,1-1.2-1.08c1.38,0,2.8.64,7.75,3.53,2.41,1.4,4.86,2.73,7.35,4.12a4.26,4.26,0,0,0,1.15-2.6,5.61,5.61,0,0,0-.72-.54c-2.09-1.11-4.18-2.23-6.29-3.31-2.29-1.17-4.61-2.29-6.91-3.45-.32-.16-.75-.33-.51-1a4.42,4.42,0,0,1,.79.19c1.47.63,2.94,1.25,4.38,1.93q5,2.35,10.06,4.73a1.74,1.74,0,0,0,2-.09c-2-.87-3.85-1.68-5.71-2.53s-3.87-1.68-5.71-2.69-3.79-1.48-5.33-2.92a1.48,1.48,0,0,1,1,0c1.21.45,2.41.93,3.6,1.43,2.81,1.19,5.61,2.4,8.41,3.6,1.9.81,3.81,1.6,5.71,2.42a2.35,2.35,0,0,0,2.21-.11c-1.72-.65-3.38-1.22-5-1.9s-3.17-1.53-4.79-2.2c-3.18-1.32-6.38-2.57-9.57-3.84-.39-.16-.83-.25-.91-.75.33-.46.67-.32,1.05-.17,1.85.69,3.71,1.34,5.56,2q4,1.47,8,3c2.61,1,5.24,2,7.82,3a1.71,1.71,0,0,0,1.83-.23,7.84,7.84,0,0,0-2.31-.94,7.71,7.71,0,0,1-2.57-.78c-1.28-.51-2.55-1-3.84-1.53-3.13-1.18-6.27-2.33-9.41-3.49-1.61-.6-3.22-1.19-4.83-1.81-.34-.13-.77-.27-.58-.9a3.44,3.44,0,0,1,.83,0c.63.16,1.24.36,1.85.57,3.33,1.13,6.66,2.27,10,3.39,2.93,1,5.87,1.92,8.8,2.9,1.75.59,3.49,1.24,5.23,1.88a1.88,1.88,0,0,0,2.27-.32c-1.86-.59-3.77-1.19-5.68-1.81s-3.9-1.28-5.84-1.92l-5.75-1.93c-1.94-.65-3.92-1.22-5.82-2s-3.81-1-5.53-2.11a1,1,0,0,1,.7-.27,13.44,13.44,0,0,1,1.63.38l9.76,2.88c4.5,1.34,9.11,2.27,13.57,4.16a3.77,3.77,0,0,0-2-1.69c-1.27-.39-2.56-.69-3.84-1.05-1.73-.49-3.46-1-5.19-1.51s-3.68-1.15-5.53-1.71q-3.89-1.17-7.79-2.29c-.38-.11-.63-.24-.42-.83,3.49.59,6.88,1.66,10.33,2.44s6.84,1.79,10.52,2.77a3,3,0,0,0-2.07-1.5c-2.42-.57-4.84-1.12-7.25-1.71-1-.25-2.05-.61-3.09-.88-2.58-.66-5.17-1.28-7.75-1.94-.22-.06-.41-.27-.78-.53.41-.11.58-.21.73-.18L140.92,91c-.29-.81-1-1-1.71-1.18-2.65-.53-5.3-1-7.93-1.62-2.25-.51-4.48-1.12-6.72-1.68l-1-.26c.52-.67.69-.69,1.56-.5,1.51.32,3,.61,4.54.89l6.72,1.24c1.3.24,2.61.45,3.93.67a4.12,4.12,0,0,0,.35-2.88c-.46-.09-.92-.19-1.38-.26-1.74-.26-3.47-.55-5.21-.77-1-.13-2.07-.29-3.1-.49-1.68-.32-3.42-.35-5.11-.62-.46-.07-1.27,0-1.35-.92.47,0,.89,0,1.31,0,1.46.13,2.91.29,4.37.44l7.71.79c1.15.12,2.3.29,3.46.37a1.38,1.38,0,0,0,1.43-.54c-.81-.13-1.48-.27-2.16-.35-2.56-.28-5.12-.53-7.69-.8-1.66-.17-3.33-.33-5-.52-.81-.09-1.62-.22-2.42-.34-.37-.06-.8,0-.93-.71a5.57,5.57,0,0,1,1.09-.16c1.38.06,2.75.15,4.13.26,1.8.14,3.6.31,5.4.46l4.64.36c1.62.13,3.25.27,4.88.39a1,1,0,0,0,1.19-.74c-1.14,0-2.21-.06-3.29-.15-2.31-.18-4.61-.39-6.92-.58-.77-.06-1.55-.07-2.33-.14-1.41-.13-2.82-.31-4.23-.44s-2.63-.18-3.94-.27c-.37,0-.67-.15-.66-.69a7.47,7.47,0,0,1,1-.08c1.42.06,2.83.18,4.25.23,3.87.11,7.73.18,11.6.29,1.16,0,2.32.17,3.48.22s2.42.08,3.63.06a1.18,1.18,0,0,0,1.34-1c-.76,0-1.43,0-2.1,0-2.34,0-4.69-.05-7-.14-2.62-.1-5.24-.29-7.86-.41-2.45-.11-4.91-.19-7.36-.29-.06,0-.11-.08-.33-.26.45-.06.76-.12,1.07-.13s.69.07,1,.07c1.27,0,2.54-.14,3.81-.13,2.06,0,4.11.14,6.17.13,3.33,0,6.66-.09,10-.15,2.17,0,4.34.38,6.51,0v-.52h0v-.52C151.57,76.14,149.4,76.56,147.23,76.52Zm-25,9.77a48.58,48.58,0,0,1-1.41,4.84A40.27,40.27,0,0,1,116,101.35a44.71,44.71,0,0,1-7.41,9.08,37.63,37.63,0,0,1-7.09,5.35,44.52,44.52,0,0,1-10.38,4.5,58.46,58.46,0,0,1-6.49,1.61,21.51,21.51,0,0,1-5.49.41,8.21,8.21,0,0,0-2.22.28,8.21,8.21,0,0,0-2.22-.28,21.51,21.51,0,0,1-5.49-.41,58.46,58.46,0,0,1-6.49-1.61,44.52,44.52,0,0,1-10.38-4.5,37.63,37.63,0,0,1-7.09-5.35,44.71,44.71,0,0,1-7.41-9.08,40.27,40.27,0,0,1-4.89-10.23,48.58,48.58,0,0,1-1.41-4.84A38.55,38.55,0,0,1,30.54,78a5.6,5.6,0,0,0-.09-.9,5.6,5.6,0,0,0,.09-.9,38.54,38.54,0,0,1,.93-8.34A48.58,48.58,0,0,1,32.88,63a40.27,40.27,0,0,1,4.89-10.23,44.71,44.71,0,0,1,7.41-9.08,37.63,37.63,0,0,1,7.09-5.35,44.51,44.51,0,0,1,10.38-4.5,58.46,58.46,0,0,1,6.49-1.61,21.51,21.51,0,0,1,5.49-.41,8.21,8.21,0,0,0,2.22-.28,8.21,8.21,0,0,0,2.22.28,21.51,21.51,0,0,1,5.49.41,58.46,58.46,0,0,1,6.49,1.61,44.51,44.51,0,0,1,10.38,4.5,37.63,37.63,0,0,1,7.09,5.35A44.71,44.71,0,0,1,116,52.76,40.27,40.27,0,0,1,120.85,63a48.58,48.58,0,0,1,1.41,4.84,38.54,38.54,0,0,1,.93,8.34,5.6,5.6,0,0,0,.09.9,5.6,5.6,0,0,0-.09.9A38.54,38.54,0,0,1,122.26,86.29Z"/><path class="cls-2" d="M112.19,75.88A35.88,35.88,0,0,0,96.43,48.39a34.06,34.06,0,0,0-14.08-5.45c-1.49-.23-3-.24-4.51-.32a4.68,4.68,0,0,0-1,.12,4.68,4.68,0,0,0-1-.12c-1.5.08-3,.1-4.51.32a34.06,34.06,0,0,0-14.08,5.45A35.88,35.88,0,0,0,41.55,75.88c0,.36,0,.74,0,1.17s0,.81,0,1.17a35.88,35.88,0,0,0,15.76,27.49,34.06,34.06,0,0,0,14.08,5.45c1.49.23,3,.24,4.51.32a4.68,4.68,0,0,0,1-.12,4.68,4.68,0,0,0,1,.12c1.5-.08,3-.1,4.51-.32a34.06,34.06,0,0,0,14.08-5.45,35.88,35.88,0,0,0,15.76-27.49c0-.36,0-.74,0-1.17S112.22,76.24,112.19,75.88ZM110.29,72a3.11,3.11,0,0,1-2.33,3.5c-1,.14-1.95.34-2.93.4-1.59.09-3.2,0-4.79.11-1.44.07-2.87.16-4.3.25l-.06,0h-.52l0,.05-.63,0-.11-.09h-.26c-.24.07-.47.11-.71.15l-1.31.08h-.52a6.86,6.86,0,0,1-1.36-.24h-.52c-.17.35-.35.33-.52,0h-.52c-.35.41-.69.28-1,0h-.52c-.26.29-.52.35-.78,0H81.81l6.51-1.77c1.31-.36,2.63-.69,3.94-1.06,1.8-.51,3.58-1.12,5.41-1.55,2.91-.69,5.89-1.13,8.61-2.5a1.7,1.7,0,0,1,.63-.11A3.27,3.27,0,0,1,110.29,72ZM106,61.08a3.07,3.07,0,0,1-.32,5.25,11,11,0,0,1-1.4.64L91,71.89c-2.93,1.09-5.86,2.21-8.79,3.3a14.31,14.31,0,0,1-1.46.38l0-.21c1.45-1,2.88-2,4.36-3,2.24-1.44,4.52-2.8,6.75-4.25,1.94-1.26,3.83-2.61,5.75-3.9a13.81,13.81,0,0,1,1.55-.92,8.22,8.22,0,0,0,2.49-1.81A2.86,2.86,0,0,1,106,61.08Zm-6.82-8.34a3.12,3.12,0,0,1,2.39,2.73,3.33,3.33,0,0,1-1.16,3.13c-.9.8-1.82,1.56-2.75,2.31C95,63,92.43,65.09,89.79,67.15c-3.45,2.69-6.91,5.36-10.37,8L79.25,75l1.42-1.75,5.66-7,4.39-5.4c.38-.47.77-.92,1.13-1.41,1.27-1.71,2.89-3.16,3.8-5.15A3,3,0,0,1,99.16,52.74ZM87.53,49.68A3.42,3.42,0,0,1,91.24,47a3.47,3.47,0,0,1,2.28,4.8c-.62,1.13-1.34,2.2-2,3.28q-3.47,5.35-7,10.69c-1.81,2.77-3.66,5.51-5.49,8.27-.14.2-.3.39-.45.58l-.29-.11c.59-1.64,1.14-3.29,1.77-4.91,1-2.64,2.11-5.25,3.14-7.89.93-2.39,1.85-4.79,2.73-7.2A50.76,50.76,0,0,0,87.53,49.68ZM77.55,68c.1-2.18.31-4.36.41-6.55.08-1.64,0-3.28.1-4.91,0-1.42.18-2.84.22-4.25a28.86,28.86,0,0,0,0-4.09,3.6,3.6,0,0,1,2-3.66c1.84-.47,3.52,0,4.19,1.73a4.28,4.28,0,0,1,.09,2.66c-.27,1.12-.62,2.23-.92,3.35-.69,2.61-1.37,5.22-2.07,7.82-.51,1.9-1,3.79-1.56,5.69-.69,2.52-1.37,5-2.06,7.57a7.57,7.57,0,0,1-.4.86,5.51,5.51,0,0,1-.13-.74C77.48,71.6,77.47,69.78,77.55,68ZM69.24,46.23c.67-1.72,2.35-2.2,4.19-1.73a3.6,3.6,0,0,1,2,3.66,28.86,28.86,0,0,0,0,4.09c0,1.42.18,2.84.22,4.25.06,1.64,0,3.28.1,4.91.1,2.18.31,4.36.41,6.55.08,1.82.07,3.64.09,5.46a5.51,5.51,0,0,1-.13.74,7.58,7.58,0,0,1-.4-.86c-.69-2.52-1.37-5-2.06-7.57-.52-1.9-1.05-3.79-1.56-5.69-.7-2.6-1.37-5.22-2.07-7.82-.3-1.12-.64-2.22-.92-3.35A4.28,4.28,0,0,1,69.24,46.23ZM62.49,47a3.42,3.42,0,0,1,3.71,2.63,50.78,50.78,0,0,0,1.6,4.86c.88,2.41,1.8,4.81,2.73,7.2,1,2.64,2.11,5.25,3.14,7.89.63,1.62,1.18,3.27,1.77,4.91l-.29.11c-.15-.19-.32-.37-.45-.58-1.83-2.75-3.68-5.5-5.49-8.27q-3.5-5.33-7-10.69c-.7-1.08-1.43-2.15-2-3.28A3.47,3.47,0,0,1,62.49,47ZM52.18,55.47a3.12,3.12,0,0,1,2.39-2.73,3,3,0,0,1,3.51,1.52c.91,2,2.52,3.44,3.8,5.15.36.48.75.94,1.13,1.41l4.39,5.4,5.66,7L74.49,75l-.17.19c-3.46-2.68-6.93-5.34-10.37-8-2.64-2.06-5.25-4.15-7.86-6.25-.93-.75-1.86-1.52-2.75-2.31A3.33,3.33,0,0,1,52.18,55.47Zm-4.42,5.61a2.86,2.86,0,0,1,4.35.44,8.22,8.22,0,0,0,2.49,1.81,13.82,13.82,0,0,1,1.55.92c1.92,1.29,3.81,2.64,5.75,3.9,2.23,1.45,4.52,2.81,6.75,4.25,1.48.95,2.91,2,4.36,3l0,.21a14.3,14.3,0,0,1-1.46-.38c-2.94-1.09-5.86-2.21-8.79-3.3L49.49,67a11,11,0,0,1-1.4-.64A3.07,3.07,0,0,1,47.76,61.08ZM43.45,72a3.27,3.27,0,0,1,3.38-2.75,1.7,1.7,0,0,1,.63.11c2.72,1.37,5.7,1.8,8.61,2.5,1.82.43,3.6,1,5.41,1.55,1.31.37,2.63.7,3.94,1.06l6.51,1.77H67.2c-.26.35-.52.29-.78,0H65.9c-.35.28-.69.41-1,0h-.52c-.17.33-.35.35-.52,0h-.52a6.86,6.86,0,0,1-1.36.24h-.52l-1.31-.08c-.24,0-.47-.09-.71-.15h-.26l-.11.09-.63,0,0-.05h-.52l-.06,0c-1.43-.09-2.87-.18-4.3-.25-1.59-.08-3.2,0-4.79-.11-1-.05-2-.26-2.93-.4A3.11,3.11,0,0,1,43.45,72Zm0,10a3.11,3.11,0,0,1,2.33-3.5c1-.14,1.95-.34,2.93-.4,1.59-.09,3.2,0,4.79-.11,1.44-.07,2.87-.16,4.3-.25l.06,0h.52l0-.05.63,0,.11.09h.26c.24-.07.47-.11.71-.15l1.31-.08h.52a6.86,6.86,0,0,1,1.36.24h.52c.17-.35.35-.33.52,0h.52c.35-.41.69-.28,1,0h.52c.26-.29.52-.35.78,0h4.73l-6.51,1.77c-1.31.36-2.63.69-3.94,1.06-1.8.51-3.58,1.12-5.41,1.55-2.91.69-5.89,1.13-8.61,2.5a1.7,1.7,0,0,1-.63.11A3.27,3.27,0,0,1,43.45,82.08ZM47.76,93a3.07,3.07,0,0,1,.32-5.25,11,11,0,0,1,1.4-.64l13.25-4.91c2.93-1.09,5.86-2.21,8.79-3.3A14.3,14.3,0,0,1,73,78.55l0,.21c-1.45,1-2.88,2-4.36,3-2.24,1.44-4.52,2.8-6.75,4.25-1.94,1.26-3.83,2.61-5.75,3.9a13.8,13.8,0,0,1-1.55.92,8.22,8.22,0,0,0-2.49,1.81A2.86,2.86,0,0,1,47.76,93Zm6.82,8.34a3.12,3.12,0,0,1-2.39-2.73,3.33,3.33,0,0,1,1.16-3.12c.9-.8,1.82-1.56,2.75-2.31C58.7,91.11,61.31,89,63.95,87c3.45-2.69,6.91-5.36,10.37-8l.17.19-1.42,1.75-5.66,7L63,93.29c-.38.47-.77.92-1.13,1.41-1.27,1.71-2.89,3.16-3.8,5.15A3,3,0,0,1,54.57,101.37Zm11.63,3.06a3.42,3.42,0,0,1-3.71,2.63,3.47,3.47,0,0,1-2.28-4.8c.62-1.13,1.34-2.2,2-3.28q3.47-5.35,7-10.69C71,85.53,72.87,82.78,74.7,80c.14-.2.3-.39.45-.58l.29.11c-.59,1.64-1.14,3.29-1.77,4.91-1,2.64-2.11,5.25-3.14,7.89-.93,2.39-1.85,4.79-2.73,7.2A50.78,50.78,0,0,0,66.21,104.43Zm10-18.28c-.1,2.18-.31,4.36-.41,6.55-.08,1.64,0,3.28-.1,4.91,0,1.42-.18,2.84-.22,4.25a28.86,28.86,0,0,0,0,4.09,3.6,3.6,0,0,1-2,3.66c-1.84.47-3.52,0-4.19-1.73a4.28,4.28,0,0,1-.09-2.66c.27-1.12.62-2.23.92-3.35.69-2.61,1.37-5.22,2.07-7.82.51-1.9,1-3.79,1.56-5.69.69-2.52,1.37-5,2.06-7.57a7.58,7.58,0,0,1,.4-.86,5.51,5.51,0,0,1,.13.74C76.26,82.51,76.27,84.33,76.19,86.15ZM77,82.32c0,3.28,0,6.56,0,9.84q0,2-.07,4c0,.29,0,.58,0,.88,0-.29,0-.58,0-.87q-.07-2-.07-4c0-3.28,0-6.56,0-9.84q0-2.42-.13-4.83a1.75,1.75,0,0,0-.09-.43,1.75,1.75,0,0,0,.09-.43q.12-2.41.13-4.83c0-3.28,0-6.56,0-9.84q0-2,.07-4c0-.29,0-.58,0-.87,0,.29,0,.58,0,.88q.07,2,.07,4c0,3.28,0,6.56,0,9.84q0,2.42.13,4.83a1.75,1.75,0,0,0,.09.43,1.75,1.75,0,0,0-.09.43Q77,79.9,77,82.32Zm7.54,25.56c-.67,1.72-2.35,2.2-4.19,1.73a3.6,3.6,0,0,1-2-3.66,28.86,28.86,0,0,0,0-4.09c0-1.42-.18-2.84-.22-4.25C78,96,78,94.33,78,92.7c-.1-2.18-.31-4.36-.41-6.55-.08-1.82-.07-3.64-.09-5.46a5.51,5.51,0,0,1,.13-.74,7.57,7.57,0,0,1,.4.86c.69,2.52,1.37,5,2.06,7.57.52,1.9,1.05,3.79,1.56,5.69.7,2.6,1.37,5.22,2.07,7.82.3,1.12.64,2.22.92,3.35A4.28,4.28,0,0,1,84.5,107.89Zm6.74-.82a3.42,3.42,0,0,1-3.71-2.63,50.76,50.76,0,0,0-1.6-4.86c-.88-2.41-1.8-4.81-2.73-7.2-1-2.64-2.11-5.25-3.14-7.89-.63-1.62-1.18-3.27-1.77-4.91l.29-.11c.15.19.32.38.45.58,1.83,2.75,3.68,5.5,5.49,8.27q3.5,5.33,7,10.69c.7,1.08,1.43,2.15,2,3.28A3.47,3.47,0,0,1,91.24,107.06Zm10.31-8.42a3.12,3.12,0,0,1-2.39,2.73,3,3,0,0,1-3.51-1.52c-.91-2-2.52-3.44-3.8-5.15-.36-.48-.75-.94-1.13-1.41l-4.39-5.4-5.66-7-1.42-1.75.17-.19c3.46,2.68,6.93,5.34,10.37,8C92.43,89,95,91.11,97.65,93.21c.93.75,1.86,1.52,2.75,2.31A3.33,3.33,0,0,1,101.56,98.64ZM106,93a2.86,2.86,0,0,1-4.35-.44,8.22,8.22,0,0,0-2.49-1.81,13.79,13.79,0,0,1-1.55-.92c-1.92-1.29-3.81-2.64-5.75-3.9-2.23-1.45-4.52-2.81-6.75-4.25-1.48-.95-2.91-2-4.36-3l0-.21a14.31,14.31,0,0,1,1.46.38c2.94,1.09,5.86,2.21,8.79,3.3l13.25,4.91a11,11,0,0,1,1.4.64A3.07,3.07,0,0,1,106,93Zm4.31-10.95a3.27,3.27,0,0,1-3.38,2.75,1.7,1.7,0,0,1-.63-.11c-2.72-1.37-5.7-1.8-8.61-2.5-1.82-.43-3.6-1-5.41-1.55-1.31-.37-2.63-.7-3.94-1.06l-6.51-1.77h4.73c.26-.35.52-.29.78,0h.52c.35-.28.69-.41,1,0h.52c.17-.33.35-.35.52,0h.52a6.86,6.86,0,0,1,1.36-.24h.52l1.31.08c.24,0,.47.09.71.15h.26l.11-.09.63,0,0,.05h.52l.06,0c1.43.09,2.87.18,4.3.25,1.59.08,3.2,0,4.79.11,1,.05,2,.26,2.93.4A3.11,3.11,0,0,1,110.29,82.08Z"/><path class="cls-2" d="M110.17,55a1.85,1.85,0,0,0,1.68-1.78,1.59,1.59,0,0,0-1.49-1.61,1.85,1.85,0,0,0-1.79,1.68A1.78,1.78,0,0,0,110.17,55Z"/><path class="cls-2" d="M101.17,45.73a1.71,1.71,0,0,0,1.55-1.59,1.68,1.68,0,0,0-1.65-1.63,1.65,1.65,0,0,0-1.6,1.54A1.55,1.55,0,0,0,101.17,45.73Z"/><path class="cls-2" d="M116.12,66.17c1.05,0,1.47-.44,1.46-1.49a1.52,1.52,0,1,0-3,0A1.39,1.39,0,0,0,116.12,66.17Z"/><path class="cls-2" d="M89.55,40a1.58,1.58,0,0,0,1.63-1.47A1.52,1.52,0,0,0,89.68,37a1.65,1.65,0,0,0-1.59,1.68A1.53,1.53,0,0,0,89.55,40Z"/><path class="cls-2" d="M119.67,77.06a4.18,4.18,0,0,0,0-.56l-.12,0a1,1,0,0,0-.69-.73,2.07,2.07,0,0,0-2.19.75,2,2,0,0,0,0,1,2.07,2.07,0,0,0,2.19.75,1,1,0,0,0,.69-.73l.12,0A4.18,4.18,0,0,0,119.67,77.06Z"/></g></g></svg>