<svg xmlns="http://www.w3.org/2000/svg" viewBox="0 0 176.37 77.75">
    <defs>
        <style>
            .yndia-logo-cls-1 {
            fill: #e6e6e6;
            }

            .yndia-logo-cls-2 {
            fill: #288292;
            }
        </style>
    </defs>
    <g class="yndia-logo-cls-1">
        <path d="M62.38,68.83H60.79a.29.29,0,0,0-.32.32v.63H58.78V68.14c0-.69.23-.94.94-.94H67c.7,0,.93.25.93.94v1.63H66.21v-.63a.29.29,0,0,0-.32-.32H64.29v8.75H62.38Z" />
        <path d="M74,67a5.24,5.24,0,0,1,5.37,5.29,5.36,5.36,0,1,1-10.73,0A5.24,5.24,0,0,1,74,67ZM74,76a3.48,3.48,0,0,0,3.37-3.66,3.38,3.38,0,1,0-6.75,0A3.48,3.48,0,0,0,74,76Zm-.83-11.44h1.59l1.34,2H74.72L74,65.33h0l-.74,1.18H71.84Z" />
        <path d="M80.67,76h.63a.29.29,0,0,0,.32-.32V67.2h1.73l3.93,5.75c.41.6.86,1.46.86,1.46h0s-.11-.86-.11-1.46V68.2c0-.69.29-1,1-1h1.87v1.63H90.3a.29.29,0,0,0-.32.32v8.43H88.27l-3.95-5.73a15.63,15.63,0,0,1-.86-1.46h0s.1.86.1,1.46v4.73c0,.7-.29,1-1,1H80.67Z" />
        <path d="M92.35,76h1V68.83h-1V67.2h3.89v1.63h-1V76h1v1.62H92.35Z" />
        <path d="M102.86,67c1.33,0,3.93.56,3.93,2.32v1.16h-1.74v-.58c0-.76-1.24-1.11-2.15-1.11a3.26,3.26,0,0,0-3.32,3.5A3.51,3.51,0,0,0,103,76a4.43,4.43,0,0,0,3.14-1.37l1,1.37a5.75,5.75,0,0,1-4.18,1.78,5.22,5.22,0,0,1-5.33-5.45A5.15,5.15,0,0,1,102.86,67Z" />
        <path d="M108.06,76h.23a.39.39,0,0,0,.45-.32l3.09-8.43h2l3.07,8.43a.39.39,0,0,0,.45.32h.24v1.62h-1.14a1.05,1.05,0,0,1-1.23-.85l-.64-1.81h-3.51l-.64,1.81a1,1,0,0,1-1.21.85h-1.16Zm6.08-2.61-.89-2.6c-.19-.57-.41-1.55-.41-1.55h0s-.22,1-.41,1.55l-.89,2.6Z" />
    </g>

    <g class="yndia-logo-cls-2">
        <path d="M76,52.46a.36.36,0,0,0,0,.17,1,1,0,0,0,.56.41,3.1,3.1,0,0,0,.68.16V14.12h.07l-.07-.57v-.13c.07-.77,1-1.21,2.57-1.21H81.7v.25h.8V12.3c-.13-.43-.92-.69-2.09-.69a1,1,0,0,1-.93-.78h-.53a1,1,0,0,1-.85.53c-1.22,0-2,.3-2.1.76v0a.78.78,0,0,1,0,.14.77.77,0,0,1,0,.14V52s0,.1,0,.16v0A1,1,0,0,1,76,52.46Zm-50.87,3a33.68,33.68,0,0,1-2.9-6.36l-.36-1a38.83,38.83,0,0,0-2-4.58A19.6,19.6,0,0,0,16.62,39a23.64,23.64,0,0,1,1.89,3,39.42,39.42,0,0,1,2,4.63l.37,1a32.83,32.83,0,0,0,2.86,6.27,11.58,11.58,0,0,0,1.71,2.1ZM93.84,12.74h8.33a1.43,1.43,0,0,0-1.15-.87H92.55V53.35h1.29ZM57,11,72.49,35.77V34.14L58.06,11Zm85-6.16V3.28h-1.3a1,1,0,0,1-.46.78L133.75,8V9.26h1Zm-15,48.7v-40c.14-.72,1.07-1.13,2.57-1.13h1.93v0h.81v-.11c-.05-.47-.88-.77-2.1-.77a1,1,0,0,1-.86-.55h-.69a1,1,0,0,1-.85.53c-1.18,0-2,.27-2.09.7V52.9C125.82,53.23,126.29,53.46,127,53.56Zm8.81-12.87h1.29V31.21l-1.29-2.07Zm26.46,12.18c.1.13.41.42,1.3.51L137.76,11.57v-.49h-1.32l25.73,41.65ZM5,38.51l-1.7,1.28,2.09-.44a6.31,6.31,0,0,1,2.94.28,7.57,7.57,0,0,0-3.25-1.17Zm130.81,5.68V54.81s0,.07,0,.09V55a1,1,0,0,1-1,.95h-3.37v.87h5.61V45.06h8.64l-.54-.87ZM112.1,12.27a6.06,6.06,0,0,1,.72,2.57V50.36c0,.06-.08,5.6-6.73,5.6H81.69v.87h26.17c6.18,0,6.25-5.07,6.25-5.12V16.18A5.35,5.35,0,0,0,112.1,12.27Zm17.26,43.14a6.5,6.5,0,0,1-.67-.05,1,1,0,0,1-.88.6h-12v.86h14.23v-.88A.94.94,0,0,1,129.36,55.41Zm-83.73-43H46s0,0,0,0v-.08c-.05-.38-.73-.75-2.16-.75a.93.93,0,0,1-.59-.22,1,1,0,0,1-.54.17c-1.26,0-2.1.31-2.16.79v0a1.18,1.18,0,0,1,0,.27V49a.82.82,0,0,1,0,.18v3.6a9.34,9.34,0,0,1-8.71,9c-.68,0-1.3.07-1.9.08a15.61,15.61,0,0,1-5.58-1c.19.11.39.22.59.32a14.72,14.72,0,0,0,6.75,1.49c.59,0,1.2,0,1.86-.07a8.86,8.86,0,0,0,8.27-8.48V50.47l0,0V14.28H42l-.09-.54v-.13c.07-.79,1-1.25,2.64-1.25h.65v0ZM79.46,55.06h-.19L79,55a1,1,0,0,1-.21.31,1,1,0,0,1-.67.28H74.5l0,.07c.08.14.17.28.27.43a.65.65,0,0,0,.53.37h5v-.52A1,1,0,0,1,79.46,55.06ZM37,34.74,21.58,10,20.52,10,37,36.52ZM49.47,17.51v38.3a1,1,0,0,1-.28.67,1,1,0,0,1-.67.28H45.27v.87h5.49v-38l-.67-1.08Z" />
        <path d="M152.53,57.34a11.71,11.71,0,0,0-4.73-.69,5,5,0,0,0-2.27,1.82c.83-.51,3-1.33,7,0,5.13,1.69,22.09,7.54,23.73-4.15-.1.18-.25.42-.42.66C172.74,64.23,157.36,58.94,152.53,57.34Z" />
        <path d="M26.64.78a3.24,3.24,0,0,1,.7,2A3.28,3.28,0,0,1,24.78,6,2.77,2.77,0,0,0,26.64.78Zm10.09,0a3.24,3.24,0,0,1,.7,2A3.28,3.28,0,0,1,34.87,6,2.77,2.77,0,0,0,36.73.78Z" />
    </g>

    <g class="yndia-logo-cls-1">
        <path d="M87.5,10.19H82.77l.67,0h-3v.45c2.46,0,3,1,3,1.54V53c-.09.53-.57,1.55-3,1.55V55h7ZM84.84,40c0,2.37,0,4.59-.06,6.48-.06,3.8-.11,6.33-.11,6.33s0-2.53-.08-6.33c0-1.9,0-4.11,0-6.48s0-4.91,0-7.44,0-5.06,0-7.44,0-4.59.07-6.48c.06-3.8.1-6.33.1-6.33s0,2.53.08,6.33c0,1.9,0,4.11,0,6.49s0,4.9,0,7.43S84.85,37.66,84.84,40Zm.82-.29c0,2.25,0,4.34-.05,6.14-.06,3.59-.1,6-.1,6s0-2.39-.08-6c0-1.8,0-3.9,0-6.14s0-4.64,0-7,0-4.79,0-7,0-4.34.05-6.14c.06-3.6.1-6,.1-6s0,2.4.08,6c0,1.8,0,3.9,0,6.14s0,4.64,0,7S85.67,37.49,85.66,39.74Zm.73-.51c0,2.09,0,4-.07,5.71-.07,3.34-.11,5.57-.11,5.57s0-2.23-.08-5.57c0-1.67,0-3.62,0-5.72s0-4.32,0-6.55,0-4.46,0-6.55,0-4,.07-5.71c.06-3.35.11-5.58.11-5.58s0,2.23.07,5.57c0,1.67,0,3.62,0,5.71s0,4.32,0,6.55S86.4,37.14,86.39,39.24Z" />
        <path d="M107.39,48.08V14.85a6,6,0,0,0-2.71-4.66h-4.36v.71s3-.42,3,3.1V51.19c0,3.52-3,3.1-3,3.1V55h3.35a5.58,5.58,0,0,0,1.76-1.18A7.81,7.81,0,0,0,107.39,48.08ZM106.1,10.19h-.43A6.8,6.8,0,0,1,108,14.85V48.08a8.39,8.39,0,0,1-2.15,6.2A5.85,5.85,0,0,1,105,55h1.1c5.78,0,5.78-4.65,5.78-4.65V14.84S111.88,10.19,106.1,10.19Zm3,29.84c0,2.37,0,4.59-.06,6.48-.06,3.8-.11,6.33-.11,6.33s0-2.53-.08-6.33c0-1.9,0-4.11,0-6.48s0-4.9,0-7.43,0-5.06,0-7.44,0-4.59.06-6.48c.06-3.79.11-6.33.11-6.33s0,2.53.08,6.33c0,1.9,0,4.11,0,6.49s0,4.9,0,7.43S109.06,37.66,109.05,40Zm.82-.29c0,2.25,0,4.34-.05,6.15-.06,3.59-.1,6-.1,6s0-2.4-.09-6c0-1.8,0-3.89,0-6.15s0-4.64,0-7,0-4.79,0-7,0-4.34.05-6.14c.06-3.59.1-6,.1-6s0,2.4.09,6c0,1.8,0,3.9,0,6.14s0,4.64,0,7S109.88,37.49,109.87,39.74Zm.73-.51c0,2.09,0,4-.07,5.71-.07,3.34-.11,5.57-.11,5.57s0-2.23-.07-5.58c0-1.67,0-3.62,0-5.71s0-4.32,0-6.55,0-4.46,0-6.55,0-4,.07-5.71c.06-3.34.11-5.57.11-5.57s0,2.23.07,5.58c0,1.67,0,3.62,0,5.71s0,4.32,0,6.55S110.61,37.14,110.6,39.24Z" />
        <polygon points="91.6 10.19 88.07 10.19 87.94 55 88.93 55 88.93 55.01 103 55.01 103 54.3 91.6 54.3 91.6 10.92 103 10.92 103 10.21 91.6 10.21 91.6 10.19" />
        <path d="M117.58,10.19h-3v.45c2.46,0,3,1,3,1.55V53c-.09.53-.57,1.55-3,1.55V55h6l.13-44.83h-3.06Z" />
        <path d="M124.78,10.18H121.2L121.07,55h6.75v-.45c-2.48,0-3-1-3-1.56V12.2c.08-.53.56-1.56,3-1.56v-.45h-3Zm-2.53,29.52c0,2.38,0,4.59-.06,6.49-.06,3.8-.11,6.33-.11,6.33s0-2.53-.08-6.33c0-1.9,0-4.12,0-6.49s0-4.91,0-7.43,0-5.06,0-7.44,0-4.59.06-6.48c.06-3.8.11-6.33.11-6.33s0,2.53.08,6.33c0,1.9,0,4.11,0,6.49s0,4.9,0,7.44S122.26,37.32,122.25,39.69Zm.82-.29c0,2.25,0,4.35-.05,6.14-.06,3.6-.1,6-.1,6s0-2.4-.08-6c0-1.8,0-3.9,0-6.14s0-4.65,0-7,0-4.8,0-7,0-4.35.05-6.14c.06-3.6.1-6,.1-6s0,2.4.08,6c0,1.8,0,3.9,0,6.15s0,4.64,0,7S123.07,37.16,123.07,39.41Zm.73-.51c0,2.09,0,4-.07,5.71-.07,3.34-.11,5.57-.11,5.57s0-2.23-.08-5.57c0-1.67,0-3.62,0-5.72s0-4.32,0-6.55,0-4.46,0-6.55,0-4,.07-5.71c.06-3.34.11-5.57.11-5.57l.07,5.57c0,1.67,0,3.63,0,5.71v6.55C123.82,34.58,123.81,36.81,123.8,38.9Z" />
        <polygon points="139.77 2.41 136.48 2.41 132.46 6.7 132.46 7.65 139.77 3.25 139.77 2.41" />
        <path d="M133.27,52.68h0a.25.25,0,0,0,0,0v.17c0,.48-.38,1.67-3.05,1.67V55h4.66v-.19h0V43.25h10.87L153,53.43l4.74,1.39L133.27,15.76Zm1.61-11V25.82l9.86,15.81Zm13.41,3.14-4.76-7.54-4.7-7.58q-2.34-3.8-4.62-7.62,2.44,3.73,4.83,7.49l4.77,7.54,4.69,7.58q2.34,3.8,4.62,7.63Q150.69,48.53,148.29,44.77Zm-8.61-17.16,5.39,8.56,5.33,8.6q2.65,4.31,5.26,8.65-2.76-4.25-5.47-8.52l-5.39-8.56-5.33-8.61q-2.65-4.31-5.26-8.65Q137,23.34,139.68,27.61Zm-.34,1,5.1,8.12,5,8.16q2.5,4.09,5,8.2-2.61-4-5.17-8.08l-5.1-8.11-5-8.15q-2.5-4.09-5-8.21Q136.78,24.51,139.34,28.57Z" />
        <path d="M161.52,53.42s0,0,0,.06L134.88,10.36v-.15h-4.66v.45c2.68,0,3,1.19,3.05,1.67v.2h0v2.16l25.11,40.13h5.93v-.45C162.63,54.37,161.87,53.89,161.52,53.42Z" />
        <path d="M75,12.27h0v-.2c0-.48.38-1.67,3-1.67V10H73.45v.19h0V39.08l-18-28.93H51L75,48.53Z" />
        <path d="M77.46,54.18a4.37,4.37,0,0,1-1.19-.25A1.89,1.89,0,0,1,75.19,53a1.27,1.27,0,0,1-.13-.7A1.14,1.14,0,0,1,75,52V49.63c0-.11-.15-.26-.2-.35L73.23,46.7l-2.88-4.6-3.71-5.93-4.12-6.59L58.41,23l-3.66-5.84L52,12.73l-1.48-2.36c-.09-.14-.09-.21-.25-.21H43.87v.45c2.72,0,3.08,1.18,3.11,1.65v.2h0v3.88h0V53.5h0v.2c0,.48-.38,1.67-3,1.67v.45h4.54V16.32h0V14.14c.2.32.39.65.58,1L50.9,18l3.81,6.16,7.42,12,7.45,12.06,3.49,5.65c.12.19.23.39.36.58s.1.17.14.17H78.1v-.46h-.63ZM67.25,42.08c-2.68-4.21-5.36-8.42-8-12.66Q55.61,23.56,52,17.65l-.64-1.07q2.92,4.5,5.8,9,4.13,6.48,8.14,13,2.48,4,4.93,8.12Zm1.1.42c-2.67-4.21-5.34-8.42-8-12.66s-5.08-8.23-7.57-12.37L51.36,15q2.8,4.35,5.57,8.71c2.76,4.35,5.47,8.72,8.17,13.1,2.14,3.46,4.23,6.94,6.33,10.42l.15.25Zm1,.1c-2.68-4.22-5.37-8.43-8-12.68s-5.22-8.4-7.78-12.63l-2.2-3.64q2.76,4.28,5.49,8.56Q61,28.74,65.12,35.33q3.57,5.75,7.05,11.53l.63,1Z" />
        <path d="M38,10.28h0V39.84L19.55,10.28H15.09L38,47V48L15.95,12.74h0l-1.41-2.25a.78.78,0,0,0-.12-.17l0,0H5.3a8.13,8.13,0,0,1-1.6-.08A4.36,4.36,0,0,1,1.38,8.9,3.19,3.19,0,0,1,.52,6.57,3.94,3.94,0,0,1,.93,5.09c.11-.23.43-.77,0-.88s-.68.61-.76,1A5.5,5.5,0,0,0,0,6.65a5.28,5.28,0,0,0,1.65,3.71,7.9,7.9,0,0,0,2.67,1.49,11.15,11.15,0,0,0,2.88.66,22,22,0,0,0,2.21.06c.3,0,.59,0,.89,0a2.47,2.47,0,0,1,.93.32,2.83,2.83,0,0,1,.73.57L37.05,54h0c.69,1.12-.34,2.45-.34,2.45h0a7.13,7.13,0,0,1-5.59,2.8H30.7c-3.25,0-6.06-2.29-7.74-4.91a39.8,39.8,0,0,1-3.31-7.4,38.09,38.09,0,0,0-2-4.52c-1.5-2.8-3.66-5.8-6.83-6.81a5.57,5.57,0,0,0-2.62-.18,8.78,8.78,0,0,0-1.39.38c-.29.1-.62.29-.94.43a12.35,12.35,0,0,1,4,1s.91.44,1.37.72a10,10,0,0,1,2.27,1.9,11.59,11.59,0,0,1,1.76,2.63c.47,1,.93,1.94,1.35,2.93.84,2,1.61,4,2.43,5.85.41.92.83,1.8,1.27,2.61a15.21,15.21,0,0,0,1.41,2.16,10.61,10.61,0,0,0,1.52,1.57,7.5,7.5,0,0,0,1.41.92c.21.11.4.19.57.26a4,4,0,0,0,.43.17l.37.12-.37-.1-.44-.14-.28-.1-.31-.13a7.52,7.52,0,0,1-1.48-.87,9.4,9.4,0,0,1-1.61-1.53,21,21,0,0,1-2.85-4.77c-.85-1.85-1.63-3.86-2.49-5.83-.42-1-.85-2-1.32-2.93a11.31,11.31,0,0,0-1.67-2.55,10.59,10.59,0,0,0-2.14-1.88,10.83,10.83,0,0,0-1.45-.79,12.51,12.51,0,0,0-4.48-1l-.28.15a14.56,14.56,0,0,0-1.37.91s6.73-1.46,11,8.69c.66,1.59,1.33,3.18,2,4.75,1.48,3.26,3.54,6.75,6.87,8.38a15.31,15.31,0,0,0,8.37,1.37,8.36,8.36,0,0,0,7.83-8V49l0,0V12.45h0a.11.11,0,0,1,0,0v-.18c0-.49.39-1.7,3.11-1.7v-.46H38ZM31.66,42.9,28.53,38,25,32.35l-3.52-5.67-3-5-2.94-4.86,3.09,4.77,3.13,4.9,3.56,5.65,3.52,5.67,3,5,2.93,4.86Zm1.12.42L29.43,38,25.62,32l-3.77-6.1-3.27-5.34-3.15-5.23,3.3,5.13,3.35,5.28,3.81,6.08,3.77,6.1,3.26,5.34,3.15,5.23Zm1.06.1L30.3,37.85l-4-6.41-4-6.44-3.46-5.63-3.34-5.52L19,19.27l3.54,5.58,4,6.41,4,6.44L34,43.33l3.34,5.52Z" />
        <path d="M169.12,56.84a18.16,18.16,0,0,1-7.41-.6c-10-2.64-13.84-3.18-16.19.09.83-.51,3-1.33,7,0,5.13,1.69,22.09,7.54,23.73-4.15A9.42,9.42,0,0,1,169.12,56.84Z" />
        <path d="M162,54a87.38,87.38,0,0,0-9.5-1.82v0a12.91,12.91,0,0,0-1.77-.07v0c-.29,0-.54,0-.8,0l-.39,0-.11,0a6.29,6.29,0,0,0-1.58.5,5.48,5.48,0,0,0-2.47,3.12c2.46-3.15,6.47-2.57,16.41.06,11.47,3,14.39-4,14.5-4.28a15,15,0,0,0,.05-1.76S173.47,56.58,162,54Z" />
        <circle cx="24.14" cy="2.78" r="2.78" />
        <circle cx="34.24" cy="2.78" r="2.78" />
    </g>
</svg>