<svg xmlns="http://www.w3.org/2000/svg" viewBox="0 0 79.23 145.16"><defs><style>.cls-1{fill:#f15849;fill-rule:evenodd;}.cls-2{fill:#e8e8e8;}.cls-3{fill:#184049;}</style></defs><title>Asset 5</title><g id="Layer_2" data-name="Layer 2"><g id="Layer_1-2" data-name="Layer 1"><g id="Layer_2-2" data-name="Layer 2"><path class="cls-1" d="M45.53,144.74l.77.36V110.52l-5.53-5.93V135.8l3.45,7.26Z"/><path class="cls-1" d="M38.87,135.77V104.58l-6.35,5.94.36,33c.76-1,1.92-1.27,2.64-2.25.39-.53.6-1.27,1.13-1.14L38,137.5C37.38,136.7,38,135.93,38.87,135.77Z"/><path class="cls-2" d="M57.92,5.27A29.64,29.64,0,0,1,72.49,30.49c0,11.1-6.82,16.36-12.88,23.74-1.48.81-6,3.78-7.66,4.36-.2.07-.73-.36-.93-.29s0,.63-.25.69q-1.37.43-2.8.75c-.5.11-1.51-.57-2-.48s-.7,1-1.31,1q-1.51.18-3.07.23c-.33,0-1-1.18-1.28-1.18-.56,0-.82,1.17-1.38,1.12-8.41-.69-16.87-6.27-21.14-9A29.23,29.23,0,0,1,29.21,2.42,39.9,39.9,0,0,0,.85,40.86c0,22.09,17.54,40,39.18,40a39.1,39.1,0,0,0,39.18-40C78.89,26.45,73.7,17.11,57.92,5.27Z"/><path class="cls-3" d="M41.84,81c.21-.05,2.1-.49,3.12-.71a2.24,2.24,0,0,1,.43,0s0,0,0,0l.09.59a2,2,0,0,1,.67-.54l0-.09h.4a3,3,0,0,1,1-.17c.43,0,.85,0,1.27-.05.78-.24,1.56-.49,2.36-.67l.11,0h0c.21,0,.42-.07.64-.11l0-.07.15,0a12.61,12.61,0,0,1,2.05-.71l0,0,1.76-.73c1.56-.63,2.82-1.6,4.34-2.06a1,1,0,0,1,.25-.28c.58-.35,1.18-.66,1.73-1h0q1.34-.93,2.6-2l0-.05.18-.2v0l.84-.71A40.32,40.32,0,0,0,79.22,41.12c0-1.37-.1-2.73-.23-4.09-.47.44-.84.92-.19,1.58a2.9,2.9,0,0,0-.21.48c0,.15-.09.36,0,.47a1.34,1.34,0,0,1,.08,1.3.8.8,0,0,0,0,.57,1.45,1.45,0,0,1,0,.91,9.94,9.94,0,0,0-.09,1.08h0l.13.06-.15,0v0c-.2,0-.39,0-.58,0a.33.33,0,0,0-.22.56,1.91,1.91,0,0,0,.48.33c.21.12.52,0,.69.38a1.56,1.56,0,0,1-.3.33c-.31.2-.64.36-1,.55s-.34.25-.23.48a.34.34,0,0,0,.42.2c.21,0,.43-.18.61.08s0,.37,0,.56a3.59,3.59,0,0,0-.05.59,1,1,0,0,1-.08.41,1.25,1.25,0,0,0-.27,1,.58.58,0,0,1-.09.32c-.1.19-.24.32-.48.23s-.3-.08-.55-.14a3.2,3.2,0,0,0,.11.47c.11.23.24.45.34.68.24.56.23.74-.24,1.09a1.16,1.16,0,0,0-.43,1c0,1.09-.08,1.11-1.15.76a1.18,1.18,0,0,0-.24,0c-.38.47-.41.59-.13.95a2.31,2.31,0,0,0,.44.39,1.27,1.27,0,0,1,.52,1.05l-.6.51.12.74-.43.47c-.08.47-.12.84-.21,1.18a1,1,0,0,1-.76.82c-.18,0-.32.27-.48.42l.29.67c-.09.07-.15.15-.22.17s-.34,0-.51.08c-.5.11-.67.36-.58.86,0,.14.11.26.13.4a4,4,0,0,1,0,.55h-.45c-.52,0-.95.18-1.1.75a.82.82,0,0,1-.27.42,1.11,1.11,0,0,0-.37,1.23A.83.83,0,0,1,70.3,66s-.12.06-.13.11c-.2.67-.83,1-1.22,1.49s-.58.55-1.21.22a2.85,2.85,0,0,0-.28-.08,3.08,3.08,0,0,1-.3.38,2.45,2.45,0,0,1-.51.42c-.44.25-.51.37-.36.79l.07.16c.26.68.25.72-.57,1l-.67-.36a2.32,2.32,0,0,0-.34.22,18.47,18.47,0,0,1-3,2.2,1.44,1.44,0,0,1-.47.17c-.05,0-.12-.08-.25-.17a13.59,13.59,0,0,1,1.24-1,23.2,23.2,0,0,0,2.35-1.92.63.63,0,0,0,.12-.39.22.22,0,0,0-.3-.2c-.21.13-.42.28-.69.46a1.58,1.58,0,0,1-.16-.39,7,7,0,0,1,0-.72c-.17,0-.3,0-.37.08-.47.41-1,.64-1.5,1.08a3.54,3.54,0,0,1-.94.69,3,3,0,0,1-.88.14v0h0c0,.19,0,.39-.17.51-.35.22-.58.61-1,.7-.14,0-.26.2-.39.3a1.28,1.28,0,0,1-.41.27,1.4,1.4,0,0,0-.8.43.61.61,0,0,1-.38.15c-.3,0-.6,0-.9,0a0,0,0,0,0,0,0h0a.45.45,0,0,1-.29.53c-.71.39-1.47.68-2.15,1.13a1,1,0,0,1-.4.14,2,2,0,0,0-1.32.5c-.12.13-.43.11-.65.12a1,1,0,0,0-.91.36.78.78,0,0,1-.68.28A2.23,2.23,0,0,1,48,75.55a.81.81,0,0,1,.76-.38,3.23,3.23,0,0,0,1.3-.36,2,2,0,0,1,.65-.17,1.57,1.57,0,0,0,1-.42.71.71,0,0,1,.45-.2c.76,0,1.25-.63,1.93-.81.06,0,.09-.13.16-.23-.31-.33-.79,0-1.1-.33-.09-.22.05-.3.22-.37a13,13,0,0,0,2.36-1.1,3.06,3.06,0,0,1,.48-.17c.15-.07.37-.11.43-.23.24-.45.63-.39,1-.37v0h0a1.64,1.64,0,0,1,.33-.45c.61-.42,1.22-.81,1.85-1.2a.83.83,0,0,1,.41-.08s.09.11.17.22c-.64.45-1.24.91-1.88,1.3a2.73,2.73,0,0,1-.87.21v0h0c0,.27-.18.38-.43.53a7,7,0,0,0-1.75,1,1.57,1.57,0,0,1-.61.25c-.18.07-.39.08-.42.4a2.58,2.58,0,0,0,1.33.16v0h0a.49.49,0,0,1,.44-.51,1.67,1.67,0,0,0,.87-.47A7.83,7.83,0,0,1,58.32,71a2.31,2.31,0,0,0,.5-.3,1.18,1.18,0,0,1,1.07-.33v0h0c.08-.2.1-.42.33-.54a12.92,12.92,0,0,0,2.09-1.58,1.35,1.35,0,0,1,.42-.26,1.08,1.08,0,0,0,.51-.42c.39-.49.49-.53,1.29-.55,0,.12,0,.25.06.39a.36.36,0,0,0,.55-.19c.12-.34-.29-.36-.44-.61a2.76,2.76,0,0,1,.26-.36,3.56,3.56,0,0,1,.34-.29c.08-.46-.39-.51-.48-.83a.63.63,0,0,1,.69-.58H66c.51,0,.68-.28.54-.79s0-.76.52-.71c.22,0,.46.13.64-.07a3.48,3.48,0,0,0,.56-.73c.06-.11,0-.32-.07-.48s-.14-.44.1-.67h.45c.77,0,.87-.09,1-1l-.52-.21a2.37,2.37,0,0,1-.59-.32.54.54,0,0,1-.15-.44.5.5,0,0,1,.35-.29,1.86,1.86,0,0,1,1.6.29,3.35,3.35,0,0,0,1.19-1.67l-.32-.61c0-.08.08-.17.14-.21.22-.13.44-.24.67-.36,0-.33-.27-.32-.43-.45a.35.35,0,0,1,0-.62,2.32,2.32,0,0,1,.36-.22,1.1,1.1,0,0,0,.55-.73,4.59,4.59,0,0,1,.34-.86A1.19,1.19,0,0,0,73,52.08c.16-.34.46-.24.69-.31a.72.72,0,0,0,.55-.58.6.6,0,0,0-.33-.77c-.51-.32-.52-.33-.31-.84.13-.31.28-.62.44-.95l1-.16c-.11-.15-.16-.29-.26-.35a.75.75,0,0,1-.33-1c0-.08,0-.18.08-.24a.94.94,0,0,0,0-1.38c.06-.36.32-.38.5-.5.4-.26.44-.61,0-.88a1.16,1.16,0,0,1-.55-.81c0-.27.06-.41.35-.47.11,0,.23,0,.34,0s.39-.38.25-.55a2,2,0,0,1-.29-2,3.71,3.71,0,0,0,0-1.59,1.44,1.44,0,0,1,.17-1.08l-.23-.44a.48.48,0,0,1,0-.56.83.83,0,0,0,.08-.89,1,1,0,0,1,.14-1.17,2.39,2.39,0,0,1-.4-1.75c0-.16-.08-.38-.15-.57a.79.79,0,0,1,.27-1,2.33,2.33,0,0,0,.33-.42c-.13-.12-.22-.22-.32-.31s-.25-.13-.36-.23a.57.57,0,0,1,.23-1,4.84,4.84,0,0,1,.75,0A.42.42,0,0,0,76,29c-.17,0-.35-.08-.52-.14a4.21,4.21,0,0,1-.93-.38.79.79,0,0,1-.31-1.11c.1-.23.25-.44.36-.67s.15-.34.25-.55c-.12,0-.18,0-.22,0s-.2.37-.45.33a.77.77,0,0,1-.61-.42,5,5,0,0,1-.38-1,.8.8,0,0,1,.16-.53,9.32,9.32,0,0,1,.64-.79c-.26-.1-.43-.19-.6-.23a2.49,2.49,0,0,1-.49-.07.45.45,0,0,1-.2-.33.31.31,0,0,1,.16-.26,5.48,5.48,0,0,1,1.16-.2c.4,0,.55.33.37.73,0,.1-.11.19-.22.38l.41.3a1.32,1.32,0,0,1,.67,1.28c0,.17.18.39.3.56s.2.11.28.18c.47.35.5.5.18,1.06l-.09.2a4.35,4.35,0,0,0,.46.32.78.78,0,0,1,.43.92.76.76,0,0,0,.22.91.73.73,0,0,1,.21.71,6.65,6.65,0,0,1-.14.7,2.12,2.12,0,0,0,.37.32.74.74,0,0,1,.38,1,.91.91,0,0,0,.16.87c.39.59.24.93-.45,1.11-.24.07-.59,0-.54.38s.36.17.58.19a4,4,0,0,1,.5,0c.31.07.48.25.41.54A1.51,1.51,0,0,0,79,36.69a42.79,42.79,0,0,0-4.06-14.4,41.62,41.62,0,0,0-3.34-5.56,3.92,3.92,0,0,1-.94-1.34c-.29-.38-.58-.75-.88-1.12a3.4,3.4,0,0,1-.82-.69l-.8-.84.06-.08a3.07,3.07,0,0,1-.33-.27c-.15-.18-.32-.32-.47-.48s-.3-.22-.44-.34a9.85,9.85,0,0,1-2.5-2l0,0A16.2,16.2,0,0,1,62,7.76c-.35-.33-.68-.67-1-1l-.08,0h0a4.43,4.43,0,0,0-.78-.53L58.68,5.3c-.58-.33-1.16-.67-1.75-1l0,0-1.51-.77,0-.11c-.28-.12-.56-.22-.84-.33v0l-2.13-.86v0l-.88-.35,0,0-2-.6a1.34,1.34,0,0,1-.92-.38l0,.15C48.18,1,48.65,1,47.8.89,44.48-.71,34.33.29,33.91.53l-.73.22V.68a1.45,1.45,0,0,1-.32.13l-.14.06h0a1.13,1.13,0,0,1-.3.09c-.24,0-.47.07-.7.12l-.37.08-1.09.28s0,0,0,0l-1,.24v.05l-2.12.75a.25.25,0,0,1-.06-.09l-.79.32,0,0a15.3,15.3,0,0,1-1.53.72,13.85,13.85,0,0,1-2.17,1.12l-1.18.67s0,0,0-.05l-.74.45,0,0-2,1.43h0l-.41.12h0c0,.28-.29.37-.49.5l-1.69,1v0h0l0,0h0l-.59.44,0,0a5.13,5.13,0,0,1-.4.45l-2,1.71-.06,0c-.71.82-1.54,1.47-2.28,2.26S9.39,15.6,8.62,16.47a1,1,0,0,1-.21.16L8.09,17a15.61,15.61,0,0,0-1.19,1.75,7.74,7.74,0,0,1-1.14,1.58l-.09-.06c-.09.15-.16.31-.25.46a1.06,1.06,0,0,0,.23-.19c-.39,1-1,1.67-1.39,2.5l0,0c-.12.25-.27.49-.38.74a5.49,5.49,0,0,1-.64,1.61c-.2.48-.4,1-.59,1.46S2.09,28,2,28.57H2c-.18.58-.33,1.17-.49,1.75,0,.22-.06.46-.1.67-.16.84-.36,1.66-.53,2.5a2.2,2.2,0,0,1-.2.57A41.1,41.1,0,0,0,0,41.12c0,.1,0,.19,0,.29s.05,0,.08,0c.16,22.33,17,39.15,39.1,39.92h.24A12.63,12.63,0,0,0,41.84,81ZM73.36,37.48a1.72,1.72,0,0,1,.09-.62,3.8,3.8,0,0,0,.25-2,1.16,1.16,0,0,1,.13-.55.41.41,0,0,1,.35-.14c.07,0,.19.15.19.23a7.85,7.85,0,0,1-.06,1.17,4,4,0,0,0,0,1.17,4.37,4.37,0,0,1,0,1.08.45.45,0,0,1-.52.42c-.22,0-.35-.19-.36-.49A2.93,2.93,0,0,1,73.36,37.48Zm-1.47-17a2,2,0,0,1,.39,0l.17.37.12.28h.56l.5,0a.67.67,0,0,1-.26.76.82.82,0,0,1-.44.19c-.37,0-.5-.16-.6-.89l-.37,0a.36.36,0,0,1-.34-.32A.33.33,0,0,1,71.9,20.45Zm-.17,22.78a.44.44,0,0,1,.16.59.94.94,0,0,1-.78.57c-.22-.52.07-.85.32-1.18C71.46,43.16,71.65,43.18,71.73,43.23ZM60.22,74.12h0v0l.56,0c-.34.31-.34.31-.56,0h0v0l-1-.22c0-.16,0-.28.11-.34.25-.23.51-.43.77-.63s.37-.15.72.12C60.67,73.42,59.9,73.48,60.22,74.12Zm-9.07,1.77a1.26,1.26,0,0,0,.94-.49c.09-.13.35-.18.53-.19.42,0,.87,0,1.13-.44a.34.34,0,0,1,.22-.11,8.73,8.73,0,0,0,2.34-1.1c.57-.24,1-.75,1.65-.83.43-.4,1-.54,1.45-1a2.29,2.29,0,0,1,.41-.29L62,70c.28-.19.31-.2,1-.08-.23.49-.69.6-1,.92s-.5.37-.71.6a9.56,9.56,0,0,1-1.9,1.27c-.72.48-1.49.89-2.23,1.35a4.76,4.76,0,0,0-.6.52,3.22,3.22,0,0,1-.37,0,1.92,1.92,0,0,0-1.27.36c-.43.31-1,.37-1.4.76-.13.13-.44.05-.66.09s-.56,0-.7.2c-.44.48-.91.31-1.42.21C50.75,75.95,51,75.92,51.15,75.89Zm-2.77.7a10.92,10.92,0,0,1,1.23-.16c.13,0,.26.14.52.27a2.46,2.46,0,0,1-1.68.3c-.07,0-.16-.13-.19-.23S48.33,76.6,48.38,76.59ZM49.21,74c-.3.65-.72.74-1.41.28.32-.38.62-.78,1-1.14s.49-.29.83,0Zm.26-3.37a.49.49,0,0,1,.29-.66c.35-.17.66-.18,1.45,0A4.13,4.13,0,0,1,49.48,70.66Zm3.47.25a6.09,6.09,0,0,1-.72,0v0h0c.1.32.2.63.3,1-.11.26-.35.26-.57.22a.59.59,0,0,1-.35-.21.6.6,0,0,1,.3-.9,1.07,1.07,0,0,1,.32-.06v0h0a2.52,2.52,0,0,1,.85-.88.73.73,0,0,1,.38-.14.29.29,0,0,1,.31.43A.94.94,0,0,1,52.94,70.91Zm2.2-1.27c-.11.07-.31,0-.55,0,.08-.18.11-.33.19-.41a6.28,6.28,0,0,0,.7-.62.74.74,0,0,1,.89.16C56.12,69.3,55.54,69.35,55.14,69.63Zm8.25-2.92a2.8,2.8,0,0,1-.65.52,1.33,1.33,0,0,0-.58.45.6.6,0,0,1-.34.22,1,1,0,0,1-.37-.08c0-.12,0-.3.1-.36a3.34,3.34,0,0,1,.64-.39,2.22,2.22,0,0,0,1-.81C63.54,66.42,63.53,66.58,63.39,66.71Zm3-5.93c-.23,0-.31-.17-.21-.34.22-.35.49-.66.81-1.08C67.14,59.91,67.13,59.93,66.35,60.78Zm1.21-10a1.59,1.59,0,0,0-.43.82.66.66,0,0,1-.1.23c-.61.85-1.23,1.7-1.85,2.54-.07.09-.15.17-.21.26a.5.5,0,0,0,0,.62c.31.46.28.57-.06.95l-.13.11a.73.73,0,0,0-.23.92c0,.08.05.16.08.25a.63.63,0,0,1-.24.76,3.16,3.16,0,0,0-.8,1,12.46,12.46,0,0,1-1.15,1.37,1.4,1.4,0,0,1-.59.3,2.16,2.16,0,0,1-.52.06,3.19,3.19,0,0,1-1.05,1.31.89.89,0,0,0-.38,1,.65.65,0,0,1-.35.72A26.52,26.52,0,0,1,57,65.41,35.37,35.37,0,0,0,53.76,67a5.67,5.67,0,0,1-2.75.8,1.56,1.56,0,0,0-.49.13c-.68.27-1.36.56-2,.82a5.16,5.16,0,0,1-1,.23c-.67.09-1.36.13-2,.24s-1,.27-1.56.4a7.22,7.22,0,0,1-2.11.19c-.85,0-1.7,0-2.56,0a14.19,14.19,0,0,1-4-.54c-.4-.11-.84-.14-1.25-.21s-1-.2-1.5-.3-.72-.16-1.07-.26c-.57-.16-1.15-.3-1.72-.5-1.36-.49-2.73-1-4.06-1.52a19.9,19.9,0,0,1-2.4-1.26c-1.15-.67-2.26-1.39-3.39-2.1a3,3,0,0,1-.46-.37,17.79,17.79,0,0,0-1.82-1.52,13.19,13.19,0,0,1-1.56-1.57A5.68,5.68,0,0,1,15.5,59a1.49,1.49,0,0,1-.15-.44.44.44,0,0,1,.65,0c.27.29.49.62.78.89.89.79,1.77,1.59,2.72,2.3.52.39,1.09.7,1.58,1.14a.48.48,0,0,0,.72-.07,5.17,5.17,0,0,0-.54-.54c-.5-.37-1-.7-1.51-1.06s-1-.81-1.51-1.23c-.24-.2-.45-.42-.67-.64a1.18,1.18,0,0,1-.43-.86,1.19,1.19,0,0,1,.35.08c.25.18.49.38.74.55.84.58,1.56,1.29,2.36,1.91a1.17,1.17,0,0,0,.34.25.93.93,0,0,1,.67.47c0,.06.13.1.2.14.23.14.42.12.52,0s0-.37-.24-.44a3.87,3.87,0,0,1-1.3-.9c-.71-.54-1.33-1.21-2-1.8a5,5,0,0,0-1.4-1.06.8.8,0,0,1-.27-.2A15.62,15.62,0,0,0,15,55.66a1.6,1.6,0,0,1-.46-.5,15.57,15.57,0,0,0-1.58-2,2.55,2.55,0,0,1-.65-1.08c0-.12-.16-.22-.24-.34a1.26,1.26,0,0,1-.22-.35c0-.16-.07-.36.13-.45s.29.06.39.21c.35.5.71,1,1.1,1.49a18.36,18.36,0,0,1,1.75,2.07,8.26,8.26,0,0,0,2.28,2.21c.82.63,1.65,1.26,2.5,1.85.32.22.45.66.87.75.52.8,1.44,1.06,2.13,1.62a.55.55,0,0,0,.72.05c0-.08,0-.2-.09-.22a5.28,5.28,0,0,1-1.16-.83,4.41,4.41,0,0,0-1.12-.76,2.16,2.16,0,0,1-.81-.61,1.61,1.61,0,0,1-.31-.67c0-.09.13-.21.24-.37a14,14,0,0,1,1.47,1,10.38,10.38,0,0,0,1.48,1.13.44.44,0,0,0,.65-.09,1.89,1.89,0,0,0-.24-.3,8.54,8.54,0,0,0-1.76-1.31,5.35,5.35,0,0,1-1.21-.91,10.26,10.26,0,0,0-1.73-1.49c-.38-.23-.69-.59-1.06-.84a5.19,5.19,0,0,1-1.58-1.71,3.3,3.3,0,0,0-1-.75s-.14.07-.25.13a2.12,2.12,0,0,0,.34.59,14.81,14.81,0,0,1,1.68,2,1.79,1.79,0,0,0,.59.49,5.74,5.74,0,0,1,1.51,1.22,3.87,3.87,0,0,0,.54.41c-.39.29-.53.32-.82.09A9.7,9.7,0,0,1,17.41,56a5.5,5.5,0,0,0-.79-.64,15.38,15.38,0,0,1-1.89-2.07l-2.18-2.69c-.05-.07-.15-.13-.15-.21,0-.58-.57-.9-.7-1.43,0-.2-.29-.33-.43-.51s-.17-.39.12-.69c0,0,.14,0,.15.06a4.74,4.74,0,0,0,.78,1.46c.14.23.42.38.55.61.22.39.63.64.78,1.09.07.22.34.37.54.53a.23.23,0,0,0,.37,0,.26.26,0,0,0,0-.37c-.18-.21-.35-.44-.54-.65a6.68,6.68,0,0,1-1.11-1.77,9,9,0,0,0-.82-1.18,5.23,5.23,0,0,1-.8-2,1.35,1.35,0,0,1,0-.41c.09,0,.17,0,.19,0,.36,1,1,1.76,1.37,2.71a.94.94,0,0,0,.22.36,14.77,14.77,0,0,1,1.73,2.3A9,9,0,0,0,16.1,52c.4.36.66.82,1.1,1.15a7.35,7.35,0,0,1,1.06,1.19,10.66,10.66,0,0,0,1.64,1.42c.15.12.41.1.74.16-.07-.22-.06-.39-.15-.44-.38-.29-.8-.53-1.16-.83a5.87,5.87,0,0,1-.85-.93,6.82,6.82,0,0,1-.49-.88,3.28,3.28,0,0,1,.9.56,11.79,11.79,0,0,0,1,.66c.07,0,.17.07.21.13.41.63,1.16.89,1.59,1.49a.57.57,0,0,0,.27.19,8.32,8.32,0,0,1,1.46,1,5.85,5.85,0,0,0,1.89.91l.2-.18c.33-.34.38-.38.7-.21.65.35,1.35.59,2,.91a9.26,9.26,0,0,0,2.22,1c.78.16,1.53.43,2.29.64a2.83,2.83,0,0,1,.57.17,5.69,5.69,0,0,0,2,.57,2.22,2.22,0,0,1,.67.15,4,4,0,0,0,2.09.33c1.11,0,2,.48,3.06.13a4.73,4.73,0,0,1,2.23,0,1.31,1.31,0,0,0,1.45-.64,2.37,2.37,0,0,0,.35-.48.9.9,0,0,1,1-.55,2,2,0,0,1,1.31.24c-.66.4-1.36.21-2.06.39.11.16.15.29.23.32a1.8,1.8,0,0,0,2.06-.21,1.26,1.26,0,0,1,.78-.3c.88-.07,1.67-.5,2.54-.65.1,0,.18-.12.33-.22l-.42-.5c.27-.27.33-.28.5-.07a4.11,4.11,0,0,1,.22.39,2.69,2.69,0,0,0,.68-.1c.67-.3,1.31-.64,2-1S55.4,57.28,56,57c1.27-.64,2.34-1.59,3.56-2.31.61-.79,1.59-1.19,2.2-2a1.19,1.19,0,0,1,.32-.28,5.55,5.55,0,0,0,1.7-1.62c0-.07.18-.09.3-.15,0,.12.1.23.07.27a10.17,10.17,0,0,1-.93,1.49,15.27,15.27,0,0,1-1.94,1.76,2.14,2.14,0,0,0-.61.83,1.45,1.45,0,0,0,.43-.07,13.19,13.19,0,0,0,3-2.58c.32-.38.7-.71,1.16-1.18,0,.31.08.5,0,.59A7.27,7.27,0,0,1,64,53.49a4.81,4.81,0,0,0-.89.89,3.15,3.15,0,0,1-1,.91,1.12,1.12,0,0,0-.36.45.32.32,0,0,0,.07.3.34.34,0,0,0,.3.05,2.06,2.06,0,0,0,.55-.39c1-1.09,2.07-2.17,3.08-3.28a4.65,4.65,0,0,0,1.1-1.6,2.56,2.56,0,0,1,.36-.57c.1-.16.26-.29.42-.16s.12.3.12.45A.42.42,0,0,1,67.56,50.83Zm-28.87,23c.58,0,1.17.09,1.75.1s1.13,0,1.69-.07a1.62,1.62,0,0,1,1.2.33,2.08,2.08,0,0,0,1.74.46c.53-.05,1.08,0,1.61,0a2.59,2.59,0,0,1,.48.14c-.22.19-.31.31-.42.34a2,2,0,0,1-.5.06l-3.31.24s-.1,0-.11-.08c-.2-.67-.76-.69-1.3-.71-.93,0-1.87,0-2.8,0a1.24,1.24,0,0,1-.89-.2C38,73.93,38.24,73.8,38.69,73.83ZM44,72.31c-.25,0-.51-.1-.52-.48A3.7,3.7,0,0,1,45,71.69C44.65,72.18,44.37,72.35,44,72.31Zm-10.33.42c-.13,0-.22-.18-.47-.4a5.23,5.23,0,0,1,1.79,0A1.47,1.47,0,0,1,33.62,72.72Zm0-1.3c.09-.14.15-.32.25-.36a1.14,1.14,0,0,1,.57,0c.4.05.81.15,1.27.24A2.47,2.47,0,0,1,33.62,71.43ZM22.36,54.78a8.49,8.49,0,0,1,.86.67.31.31,0,0,1,.08.28.35.35,0,0,1-.28.12.39.39,0,0,1-.28-.14,3.38,3.38,0,0,0-1.31-1.09.43.43,0,0,1-.22-.47h0v0a1.06,1.06,0,0,1-1.09-.56,2.35,2.35,0,0,0-.39-.41s0-.05,0-.08c.43-.06,1,.37,1.48,1h0v0A2.87,2.87,0,0,1,22.36,54.78ZM65,49.55c.12-.44.22-.84.34-1.25a.73.73,0,0,1,.73-.59.25.25,0,0,1,.29.24A2.16,2.16,0,0,1,65.9,49c-.17.29-.35.59-.75.61C65.13,49.63,65.11,49.6,65,49.55Zm2.57-.85c-.16.21-.38.43-.74.19.19-.43.25-.9.76-1.23a1.63,1.63,0,0,1,.16.49A1.06,1.06,0,0,1,67.6,48.7ZM70.16,52a4.38,4.38,0,0,1-1.07,1.7.94.94,0,0,1-.46.19.44.44,0,0,1-.48-.26c-.09-.19-.12-.44.06-.54.56-.32.64-.89.88-1.4a4,4,0,0,1,.7-.93c.17-.18.27-.15.65,0A10.17,10.17,0,0,1,70.16,52Zm-29.6,7.68a1.88,1.88,0,0,1,0,.75c-.05.24-.25.27-.52.15M47.81,2.37a.78.78,0,0,1,.36.09,1.11,1.11,0,0,0,.8.2,2.59,2.59,0,0,1,1.4.27,10.3,10.3,0,0,0,2.46.93.85.85,0,0,1,.24.08c.59.28,1.19.54,1.77.84,1.36.71,2.73,1.41,4,2.19.38.22.75.49,1.16.68a1.26,1.26,0,0,1,.64.64,1.12,1.12,0,0,0,1,.72,1.19,1.19,0,0,1,1,.68l-.3.23a.75.75,0,0,0,.9.55.72.72,0,0,1,.79.36c.28.42.57.84.85,1.27a4,4,0,0,0,.34.58,14.12,14.12,0,0,1,2.18,3.64,15.45,15.45,0,0,1,1.79,5.29,15.08,15.08,0,0,0,.49,2.07,1.21,1.21,0,0,1,.09.33c-.06,1.08.41,2.11.31,3.2a2.77,2.77,0,0,0,.2,1.59.89.89,0,0,1,0,.42c0,.74,0,1.47-.1,2.21,0,.34-.1.66-.16,1a1.8,1.8,0,0,0-.09.5,6.79,6.79,0,0,1-.42,2.67c-.23.76-.4,1.54-.6,2.3-.12.44-.27.87-.41,1.3s-.31.79-.42,1.2a3,3,0,0,1-.64,1.46.94.94,0,0,0-.19.47,7.12,7.12,0,0,1-1.2,2.42c-.6.85-1.1,1.78-1.65,2.68a5.79,5.79,0,0,1-.31.5c-.61.78-1.24,1.55-1.83,2.34a10,10,0,0,1-1.75,1.61c-1,.84-2.15,1.57-3.23,2.35,0,0-.08.08-.13.1A15.64,15.64,0,0,0,55,55.78a7.33,7.33,0,0,1-1.15.55l-1.7.78a3.11,3.11,0,0,1-1.51.51,16.24,16.24,0,0,1-2.63.88,6.35,6.35,0,0,1-2.24.44,1.7,1.7,0,0,0-1.2.31.58.58,0,0,1-.31.14,9.78,9.78,0,0,1-2.3.15H39.39a15,15,0,0,1-3.65-.36c-1.34-.38-2.7-.65-4-1A23.41,23.41,0,0,1,27,56.24c-.7-.36-1.42-.71-2.1-1.11-.51-.3-1-.68-1.46-1-.77-.52-1.59-1-2.31-1.58a17,17,0,0,1-2.62-2.41,13.1,13.1,0,0,1-2.08-2.68,3.14,3.14,0,0,0-.31-.4c-.21-.3-.42-.59-.61-.9-.42-.71-.82-1.43-1.23-2.14a25.19,25.19,0,0,1-2.25-5c0-.06,0-.11,0-.16a15.29,15.29,0,0,1-.84-3.29c-.09-.61-.23-1.23-.32-1.84a10.11,10.11,0,0,1,0-1,3.27,3.27,0,0,0-.06-.76,7.54,7.54,0,0,1,0-2.93,8.06,8.06,0,0,0,0-2.79,1.82,1.82,0,0,1,.11-1c.1-.38.17-.77.24-1.15s.09-.79.19-1.18c.22-.85.48-1.69.73-2.53a2.17,2.17,0,0,1,.29-.61,7.48,7.48,0,0,0,1.05-2.58,3,3,0,0,1,.53-1.15,2.58,2.58,0,0,0,.3-.51,18.32,18.32,0,0,1,2.05-3.52,14.38,14.38,0,0,1,1.78-2.16,1.85,1.85,0,0,0,.38-.46,6.9,6.9,0,0,1,2.56-2.43,33.13,33.13,0,0,1,12.51-5l.34,0a.79.79,0,0,1,.18,0A45.73,45.73,0,0,1,47.81,2.37ZM8.66,21.15a1.21,1.21,0,0,1-.18.34,2.17,2.17,0,0,0-.56,1,1.82,1.82,0,0,1-.38.63c-.09.1-.29.09-.47.14,0-.14-.06-.23,0-.3a11.6,11.6,0,0,1,1.16-2.28ZM9,17.86v0H9a5.46,5.46,0,0,1-.87,1.59C7.84,18.33,8.18,18,9,17.86ZM6.27,21.67c.37-.16.56-.34.47-.76a.6.6,0,0,1,.06-.4c.19-.35.46-.31.87.16-.35.8-.64,1.64-1,2.51a2.89,2.89,0,0,1-.55-.33C5.6,22.39,5.66,21.94,6.27,21.67ZM1,40.1a.75.75,0,0,0,0-1.19.14.14,0,0,1,0-.07c0-.11,0-.26,0-.31a.71.71,0,0,1,.36-.12c.07,0,.16.07.23.1A.38.38,0,0,0,2,38.44a.45.45,0,0,0,.12-.54A1.24,1.24,0,0,0,1.41,37,1.19,1.19,0,0,1,1,36.68a.35.35,0,0,1,0-.47.3.3,0,0,1,.45,0,6.36,6.36,0,0,0,.55.39.36.36,0,0,0,.46-.1.36.36,0,0,0,0-.47c-.14-.18-.31-.33-.45-.5a8,8,0,0,1-.52-.68.35.35,0,0,1,0-.47A.34.34,0,0,1,2,34.3a1.89,1.89,0,0,0,.29.17.52.52,0,0,0,.65-.25c.11-.2.05-.39-.19-.58a1.28,1.28,0,0,0-.22-.13c-.41-.23-.42-.65-.5-1a.62.62,0,0,1,.35-.71.52.52,0,0,0,.21-.52,1.91,1.91,0,0,0-.06-.51A.71.71,0,0,1,2.68,30a2.11,2.11,0,0,0,.3-.42,1.14,1.14,0,0,1,1-.79.39.39,0,0,0,.38-.43,3.15,3.15,0,0,0-.3-.24c-.1-.06-.22-.07-.32-.13a1,1,0,0,1-.43-1c.1-.3.31-.36.87-.22.21.05.42.18.65,0,0-.07,0-.17-.06-.22a3,3,0,0,0-.35-.23.85.85,0,0,1-.37-.9c.08-.35.44-.28.72-.3a1.55,1.55,0,0,0,.25,0c.14,0,.27-.12.49-.21a5.47,5.47,0,0,1-.57-.5.55.55,0,0,1-.09-.64.58.58,0,0,1,.65-.29.7.7,0,0,1,.31.12,1.67,1.67,0,0,0,1.1.37c.31,0,.44.21.42.52a1,1,0,0,1-.84,1,1.94,1.94,0,0,1-.09,1.26l-.52.29c.22.37.56.69.17,1.09-.22.21-.81-.13-.76.53L6,29c.15.54-.37.63-.5.92s.4.47.27.8l-.09.23L5,31c-.17.26-.16.46.07.62a1.55,1.55,0,0,0,.3.15c.33.13.3.36.17.63l-.72.14c-.07.56-.07.56.36.79a.43.43,0,0,1,.2.23c0,.15,0,.26-.19.32s-.31.13-.46.19v.56c.16.28.54.09.63.43l-.65.29c0,.28,0,.52,0,.7.23.32.82,0,.75.63L5,36.86c-.46.66.48.78.4,1.27l-.34.25c-.22.6.45.61.58,1l-.33.31c-.27.59.28.65.45.92a.68.68,0,0,1-.07.19c-.33.45-.3.57.16.82s.56.56.19,1c-.19.21-.21.39-.05.58a1.59,1.59,0,0,0,.21.14c.2.17.27.32.07.57a.52.52,0,0,0,0,.46,2,2,0,0,0,.46.4,5.32,5.32,0,0,0,.47,1.94c.2.61.39,1.23.6,1.84a6.14,6.14,0,0,0,.3.88c.34.68.7,1.35,1,2,.18.35.34.72.53,1.06s.47.78.72,1.15a18.74,18.74,0,0,0,1.47,2.08c.52.58.95,1.21,1.4,1.81l.36.47c.72.84,1.43,1.69,2.16,2.52.22.26.49.48.73.72.58.57,1.36.93,1.81,1.66a.65.65,0,0,0,.26.2A14.68,14.68,0,0,1,21,64.65a7.32,7.32,0,0,1,1.48,1.13,1.4,1.4,0,0,0,1.1.54l.48,0a1.1,1.1,0,0,1,.08.3c0,.26-.06.52-.36.61a.58.58,0,0,1-.6-.21,2.07,2.07,0,0,0-.66-.37.27.27,0,0,0-.37.25.39.39,0,0,0,.19.32,3.94,3.94,0,0,1,.91.43.78.78,0,0,0,.64.07,1.58,1.58,0,0,1,1.59.3,4.36,4.36,0,0,0,.7.45c.56.21,1.13.36,1.7.55.32.11.64.23,1,.36l.94.37a2.74,2.74,0,0,1,.56.2,3.58,3.58,0,0,0,1.21.39l.92.18c.1,0,.23.05.19.27a.9.9,0,0,1-.27.08H31c-.2,0-.39,0-.5-.25s-.36-.26-.59-.26H28.87c0,.34.13.5.48.52a1.4,1.4,0,0,1,1.32.64c.49,0,.91,0,1.34.09.13,0,.24.17.41.3a2.42,2.42,0,0,1-1.72.25.62.62,0,0,1-.35-.22,1.1,1.1,0,0,0-1-.42.61.61,0,0,1-.59-.26c-.35-.52-.85-.44-1.33-.32-.12.33,0,.49.28.54a8.46,8.46,0,0,0,.88.08,1.15,1.15,0,0,0,1.09.64.46.46,0,0,1,.24.06.28.28,0,0,1,.13.19c0,.07-.07.19-.12.19-.31,0-.61,0-.92.07s-.47-.1-.6.3a9.86,9.86,0,0,0,4.21.9c.23.32.38.67.85.63a27.9,27.9,0,0,0,3.32-.06c.24,0,.51,0,.62.15.34.56.86.46,1.37.44S40,75.08,40.57,75a1.49,1.49,0,0,1,1.25.48,1.73,1.73,0,0,1-1.08.35c-.37,0-.74,0-1.11,0-.56,0-1.12-.09-1.68-.17-.87-.12-1.73-.29-2.6-.39-.7-.08-1.4-.09-2.11-.14a1.3,1.3,0,0,1-.49-.12,5.16,5.16,0,0,0-2.67-.34c-.1,0-.21.12-.33.19.24.31.53.26.81.3a9,9,0,0,1,1.66.31,5.15,5.15,0,0,0,1.48.34,7.2,7.2,0,0,1,2,.39,4.51,4.51,0,0,0,1.25.19c1,0,2.1,0,3.15,0a15.34,15.34,0,0,0,3.05-.23,2.33,2.33,0,0,1,.85-.06,3.06,3.06,0,0,0,1.58-.17,2.43,2.43,0,0,1,1.78.06c-.36.38-.9.72-1.21.62a1.18,1.18,0,0,0-1.26.26.56.56,0,0,1-.32.11c-.76.06-1.52.13-2.29.15-.45,0-.9-.07-1.36-.07q-2.22,0-4.43,0a2.47,2.47,0,0,1-1.23-.25,2.14,2.14,0,0,0-1.06-.26c-.25,0-.51-.08-.76-.09-.63,0-1.25,0-1.88,0-.09,0-.26.14-.25.17s.11.3.2.31a7.56,7.56,0,0,0,1.09.12c.42,0,.85,0,1.27,0a.77.77,0,0,1,.52.23c.25.39.58.37,1,.33a2.27,2.27,0,0,1,.6,0,13.41,13.41,0,0,0,3.39,0,10.73,10.73,0,0,1,1.27,0c1,0,2.08,0,3.13.06a1.67,1.67,0,0,0,.34,0,1.68,1.68,0,0,1,1.37.28,1.51,1.51,0,0,0,1.13.28,3.49,3.49,0,0,1,.6,0,1.29,1.29,0,0,0,1.16-.35c.19-.19.57-.2.88-.25a.4.4,0,0,1,.49.31,2.84,2.84,0,0,1-.41.22,3.19,3.19,0,0,0-.65.17,5.26,5.26,0,0,1-1.62.47c-.84.22-1.78,0-2.54.54a.6.6,0,0,1-.34.05c-1.19,0-2.38,0-3.58,0-.79,0-1.58-.11-2.38-.11s-1.53.06-2.29.09a2,2,0,0,1-1.3-.31.65.65,0,0,0-.39-.12c-.77.05-1.5-.23-2.26-.25a.51.51,0,0,1-.54-.4c.13-.07.26-.2.41-.2s.45.07.67.07c.45,0,.9,0,1.35,0a.39.39,0,0,0,.37-.45,3.26,3.26,0,0,0-.63-.1q-1.14.06-2.29.17a.82.82,0,0,0-.46.19,1.27,1.27,0,0,1-1.21.24,13.9,13.9,0,0,1-1.47-.42,1.21,1.21,0,0,0-.65-.1,3.16,3.16,0,0,1-2.09-.09c-.14,0-.29,0-.42-.08a7.37,7.37,0,0,1-.71-.28c-.62-.28-1.22-.6-1.85-.85a4.83,4.83,0,0,1-2.11-1.65,1.22,1.22,0,0,0-1.19-.62,1.47,1.47,0,0,1-1.21-.31c0-.11,0-.22,0-.33a1.19,1.19,0,0,0-1.17-1.26,1.51,1.51,0,0,1-1-.29,1.54,1.54,0,0,1-.05-.2c0-.66-.1-.75-.69-.81l-.74-.07c-.07-.25-.14-.44-.17-.63-.08-.41-.26-.68-.72-.69a.53.53,0,0,1-.52-.47,1.55,1.55,0,0,0-.57-.92,1.7,1.7,0,0,1-.42-.52,1.24,1.24,0,0,0-1-.71,4.47,4.47,0,0,0-.85-.06,38,38,0,0,1-3.62-5.08,1.46,1.46,0,0,1,.77.13l.64.3c.09-.13.21-.24.23-.36.08-.39-.07-.6-.47-.61a.83.83,0,0,1-.68-.27.68.68,0,0,0-.43-.24,1.1,1.1,0,0,1-.93-.44c-.1-.19-.21-.38-.32-.58,0,0,0,0,.07,0a.53.53,0,0,0,.52-.35c.06-.19-.14-.43-.43-.54L5,58.74a.87.87,0,0,0-.28,0c-.35-.72-.7-1.44-1-2.19.26,0,.45-.14.45-.3s-.21-.34-.5-.37H3.5A40.66,40.66,0,0,1,.81,41.65l0,0A.83.83,0,0,0,1,41.19a.86.86,0,0,0-.14-.39A.56.56,0,0,1,1,40.1Z"/><polygon class="cls-2" points="38.87 72.02 40.61 72.02 40.58 114.32 40.9 115.02 40.6 115.84 40.56 134.94 39.19 134.94 38.87 72.02"/><polygon class="cls-2" points="39.38 53.98 40.4 54.23 40.61 49.11 42.56 51.8 43.4 52.07 43.29 50.94 41.58 45.34 39.9 41.11 38.04 47.13 39.38 53.98"/><path class="cls-3" d="M41.3,45.25a27.79,27.79,0,0,1,1.82,6.4.69.69,0,0,1-.64-.46,2.09,2.09,0,0,1-.2-.55q-.52-2.48-1-5A2.38,2.38,0,0,1,41.3,45.25Zm-1.64,4.66a5.51,5.51,0,0,1,.12-1.32,2.89,2.89,0,0,1,.38-.7l-.32-.43c0-.27.3-.62,0-1a20.6,20.6,0,0,0,0-2.19c0-.27,0-.56,0-.84a4.88,4.88,0,0,1,.26-.75h0v-.06L40,42.38l.11,0v.31l0,0v0c.28.39.2.86.33,1.29s.12.61.18.9.12.38.16.57c.23,1.17.46,2.34.69,3.5a3.3,3.3,0,0,1,0,.5,1.61,1.61,0,0,1-.57-1,.31.31,0,0,0-.35-.3.6.6,0,0,0-.36.31.76.76,0,0,0,0,.49,4,4,0,0,1,.1,1.35c0,.91,0,1.82,0,2.72a2.81,2.81,0,0,1,0,.67c0,.09-.2.14-.36.25a3.07,3.07,0,0,1-.18-2c0-.08.08-.19,0-.24C39.39,51.18,39.69,50.54,39.65,49.92Zm-.35-3.28c.12.59.12.59-.74.81C38.62,46.9,39,46.88,39.3,46.64Zm-1.72,73.43a.58.58,0,0,1-.37.6c-.22.1-.21.3-.14.55.6-.21.59-.79.87-1.22l.4,0c0,.42-.28.76-.13,1.16a.18.18,0,0,1-.06.15c-.5.37-.79,1-1.41,1.19-.31.11-.57.25-.57.64s-.35.43-.54.61a2.78,2.78,0,0,1-1.74.58A6,6,0,0,1,36,123a1.54,1.54,0,0,1-.07-.57c.05-.17.24-.3.36-.45s.21-.26.31-.4a2.23,2.23,0,0,0,.13-.3l-1.06.14a2.3,2.3,0,0,1,.86-1.17c.16-.11.24-.25,0-.43-.49.09-.89.63-1.51.41.08-.37.38-.55.62-.78s.68-.6,1-.9c.1-.09.09-.09.06-.51a2.56,2.56,0,0,1-2.35.65c.14-.17.2-.34.33-.41.55-.28,1.12-.55,1.69-.79.38-.16.39-.14.81.22.33-.17.48-.64,1-.61a.63.63,0,0,1-.28,1c0,.15,0,.37.15.44.3.18.29.45.33.77l-.81.37C37.58,119.79,37.58,119.93,37.58,120.07Zm-2.06,6.55h0a4.68,4.68,0,0,1,.62-.14,1.92,1.92,0,0,1,.48.09,1.77,1.77,0,0,1-1.38,1.11,1.83,1.83,0,0,1,0-.47,4.61,4.61,0,0,1,.27-.59h0v0a5.2,5.2,0,0,0-2.22.06c-.16-.24,0-.39.15-.38a3.52,3.52,0,0,0,1.62-.63c.29-.15.6-.27.92-.41-.23-.43-.52-.05-.81-.16.2-.42.44-.86.9-.86s.85-.2.81-.81c.28.16.41.09.49-.11a7.87,7.87,0,0,1,.4-.92c.07-.13.26-.18.43-.3.14.43.17.76-.17,1.05a1.13,1.13,0,0,0-.27.41A2.64,2.64,0,0,1,36.34,125c.11.72-.53,1.09-.82,1.64Zm1.28,4.48c.36-.3.73-.58,1.1-.87,0,0,0,0,0,0l.17-.18h0c0-.07,0-.16.07-.2s.13,0,.2-.05a.62.62,0,0,1-.07.26s-.13,0-.21,0h0l-.17.18h0a.94.94,0,0,1-.3.88,8.34,8.34,0,0,0-1.14,1.23c-.11.18-.42.25-.8.46-.08.06.18.64-.42.54,0-.28.32-.57,0-.9-.36-.11-.63.26-1,.19-.32.93-.33.94-1.1.82a3.77,3.77,0,0,0,0-.37c0-.69,0-.7.62-.88a4.6,4.6,0,0,1,.58-.1l.62-.07c.27-.18.13-.87.81-.66l-.18.34A1.87,1.87,0,0,0,36.8,131.09Zm-1.73,9.13a1.39,1.39,0,0,1-.55.33,5.66,5.66,0,0,1-1,0l.7-.85c.27,0,.52,0,.76.09A.26.26,0,0,1,35.07,140.23Zm-.46-2.39c-.13,0-.31,0-.46-.07l0-.2c.17-.07.34-.16.52-.21a2.83,2.83,0,0,1,.45-.07c.17-.29-.17-.26-.19-.51a3.86,3.86,0,0,1,1.37-1.21.79.79,0,0,0,.48-.53,3.42,3.42,0,0,1,1.13-1.42,1.37,1.37,0,0,1-.93,1.51,3.94,3.94,0,0,1-1.07,2A2.06,2.06,0,0,1,34.6,137.84Zm2.86-4.58a.8.8,0,0,1-.87.38c-.08,0-.18.11-.28.17l.32.38a2.41,2.41,0,0,1-.58.79,3.79,3.79,0,0,1-2.88,1.29,1.11,1.11,0,0,1,.91-.86l1.05-.15-.42-.48c.15-.07.26-.13.38-.17.45-.15.79-.34.83-.91a1.15,1.15,0,0,1,.59-.8,4.35,4.35,0,0,0,1-.86c.08-.1.29-.1.61-.2a3.28,3.28,0,0,0-.13.65,2.09,2.09,0,0,0,.14.5A.69.69,0,0,0,37.47,133.26Zm-.7-7.66a7.61,7.61,0,0,1,1.55-1.77,1.91,1.91,0,0,1-1.67,2.24C36.69,125.9,36.68,125.71,36.77,125.6Zm-2.08-5.85c-.36.12-.71.37-1.17.11,0-.08,0-.24.08-.26a2.62,2.62,0,0,1,1.46-.28C34.89,119.52,34.82,119.7,34.69,119.75ZM38.2,113c0,.05.07.1.08.14s-.06.36,0,.48c.22.36.05.59-.19.81a1,1,0,0,1-1,.36c0,.17,0,.31,0,.45s-.05.28-.08.39a5.08,5.08,0,0,1-2.54.76,2.22,2.22,0,0,1,.37-.25c.27-.11.52-.22.55-.57a.2.2,0,0,1,.08-.14c.83-.25.91-1.32,1.76-1.58.28-.08.34-.41.16-.78-.14.09-.26.16-.36.24-.33.26-.64.55-1,.8a1,1,0,0,1-.47.13.38.38,0,0,1-.26-.16.24.24,0,0,1,0-.23c.26-.26.39-.63.79-.74a.56.56,0,0,0,.45-.46,1.52,1.52,0,0,1,1-1.26,2.1,2.1,0,0,0,.36-.23c-.1-.2-.43-.2-.38-.48h0c-.14.08-.33.14-.4.27a2.34,2.34,0,0,1-.87.75,4.42,4.42,0,0,1-.15.66.29.29,0,0,1-.27.12c-.06,0-.16-.22-.13-.25.25-.27.17-.72.54-.92a.63.63,0,0,0,.22-.34,1.08,1.08,0,0,1,1-.74c0,.16,0,.31.06.46h0c.46-.19.48-.24.44-.64s0-.42.37-.78c0,.32,0,.59,0,.86a4.75,4.75,0,0,0,0,1.42.7.7,0,0,1-.37.8.56.56,0,0,0-.3.61Zm-1.34-5.36c.13-.13.41-.11.72-.2a1.61,1.61,0,0,1-.85.87c-.25.15-.47.44-.85.2C36.09,108.14,36.55,108,36.86,107.69Zm-.48,2.17a.82.82,0,0,0,.2-.36,1.39,1.39,0,0,1,.38-.72,1.14,1.14,0,0,1,.95-.55v0l0,0a3.69,3.69,0,0,1,.09-.62c0-.11.17-.18.29-.32.16.5-.12.71-.38.94v0h0a1.24,1.24,0,0,1-.61,1.11.89.89,0,0,0-.34.35,2.18,2.18,0,0,1-1.62,1.16s0,0-.08-.05c-.07-.29.15-.4.35-.47A1.53,1.53,0,0,0,36.37,109.85Zm-1.19.15a.57.57,0,0,1-.74-.24c.29-.4.62-.64,1.13-.31A.48.48,0,0,1,35.19,110Zm3.08-38.65c0,.52,0,3.5,0,3.5,0,.37,0,.65,0,.94,0,1.28,0,2.55-.06,3.83a20.59,20.59,0,0,1-.09,3.74,1.68,1.68,0,0,0,0,.42,4.47,4.47,0,0,1,0,.76,19.07,19.07,0,0,0,0,2.61c0,1,0,2,.08,3,0,.62,0,1.24,0,1.86,0,1.19,0,2.38,0,3.57,0,.26,0,.51,0,.77a5.39,5.39,0,0,0,0,.68,16.49,16.49,0,0,1,0,2.45c0,.79,0,1.59,0,2.38,0,.59,0,1.19,0,1.79a.87.87,0,0,1-.56.94,1.14,1.14,0,0,0-.47.47,14.14,14.14,0,0,1-2,2.3,20.19,20.19,0,0,1-2,1.6l-1.25,1a3.85,3.85,0,0,0,0,.9,20.85,20.85,0,0,1,.29,3.73c0,1.19,0,2.38,0,3.57,0,.63,0,1.25,0,1.88,0,1.78,0,3.58,0,5.37s.08,3.86.12,5.79c0,.27,0,.54.07.9l0,1.5a12.14,12.14,0,0,1,0,1.52,19.22,19.22,0,0,0-.09,3.29c0,.57,0,1.14,0,1.71.09,1.55-.06,3.11.18,4.66a1.85,1.85,0,0,1,0,.47l.07-.05c.3-.3.59-.61.91-.88l0,0a.84.84,0,0,1,.31-.33.31.31,0,0,0,.12-.12c.71-1.16,1.74-2.08,2.44-3.24a5.63,5.63,0,0,1,.46-.59L37,140v0a8.86,8.86,0,0,1,.61-1.06,1.26,1.26,0,0,1,.25-.25c0-.58.09-1.17.13-1.74l1-.87a1.51,1.51,0,0,0,1.44-.89c.08.18.18.28.17.37a9.71,9.71,0,0,0,0,1.59,1.13,1.13,0,0,1,.16.14,9.48,9.48,0,0,1,.8,1.21v-.12a3.42,3.42,0,0,1,.3.44c.22.46.38,1,.65,1.38a10.88,10.88,0,0,1,.93,1.78c.63,1,1.38,1.85,2.08,2.76l0,0c.27.18.56.21.77.36,0-.16,0-.39,0-.47a32.31,32.31,0,0,0,0-5.36c0-.22,0-.45,0-.67,0-1.48,0-4.71,0-4.71,0-.21,0-1.92,0-2.14,0-1.5,0-3,0-4.5,0-.39,0-.81,0-1.21a17.89,17.89,0,0,0,0-3.64,1.39,1.39,0,0,1,0-.43,19.8,19.8,0,0,0,0-3.47c-.06-1.42,0-2.84,0-4.26,0-1.25,0-2.49,0-3.73a2.12,2.12,0,0,0-1.13-1.61A4.64,4.64,0,0,1,44,107.69a17.53,17.53,0,0,0-1.3-1.78,7.89,7.89,0,0,1-.77-1.21c-.34-.52-.68-1-1-1.53,0-4.71-.08-9.41-.1-14.11s0-9.42,0-14.17c0,0,0-2.94,0-3.55A5.2,5.2,0,0,1,38.27,71.36Zm2.54-11.81V53h0a11.69,11.69,0,0,1,0-1.21,4.5,4.5,0,0,1,.09-1.72l.25.4a6,6,0,0,0,1.7,1.76.55.55,0,0,1,.19.25c.15.39.41.3.72.18,0-.29.09-.57.1-.85,0-.1,0-.21,0-.31a7.72,7.72,0,0,1-.69-2.14s0,.08,0,.12L42.36,47c-.5-1.57-1-3.14-1.5-4.7a3.94,3.94,0,0,1-.11-.62A18.66,18.66,0,0,0,40,39.86l-.16,0a.7.7,0,0,1-.25.37,2.1,2.1,0,0,0-.66,1.26c-.34,1.71-1,3.31-1.5,5a.53.53,0,0,1-.07.09,15.9,15.9,0,0,1-.73,3,5.78,5.78,0,0,0,.09.71,2.12,2.12,0,0,1,0,.59c0,.25-.13.47-.4.47a.55.55,0,0,0-.34.12c-.1.28-.2.56-.29.85a1.25,1.25,0,0,1-.28.49c-.07.19-.14.38-.2.58a2.07,2.07,0,0,0,0,.58,2.27,2.27,0,0,0,.56-.31c.24-.28.43-.59.65-.89a3.56,3.56,0,0,1,.34-.34c.36.52.36.52.9.31,0-.27,0-.55-.07-.83a.81.81,0,0,1,.26-.77c.16-.15.29-.32.52-.57v2.91l0,6.17ZM33,112.89c.23-.17.41,0,.66.2l-.79.58C32.78,113.36,32.69,113.09,33,112.89Zm.38,4.54c.33-.08.66-.13,1-.19s.59-.06.77-.4c.07-.14.37-.14.57-.21l.08.2a2.53,2.53,0,0,1-2.73,1C33,117.56,33.15,117.47,33.35,117.43ZM33.29,125a.87.87,0,0,1,1,.25c-.3.19-.5.34-.71.45a.38.38,0,0,1-.54-.23A.39.39,0,0,1,33.29,125Zm-.09,5.49a1.7,1.7,0,0,1,1.08-.33,1.52,1.52,0,0,1-.78.83.42.42,0,0,1-.37-.07C33,130.77,33.06,130.59,33.2,130.49Zm.57,4.08-.24-.29c.28-.66.87-.61,1.44-.64,0,.65-.48.65-.89.73-.19.25-.07.68-.47.76a4.51,4.51,0,0,1-.55,0Zm2.43,4.25a1.82,1.82,0,0,0-.51,1.1h0l.46-.26c.11.38-.1.57-.42.85,0-.25,0-.43,0-.59h0v0c-.45,0-.49-.46-.78-.77l.88-.42c-.07-.15-.21-.32-.18-.42a1.53,1.53,0,0,1,.37-.65,1.48,1.48,0,0,1,.61-.24c.18,0,.35.24.25.43A5.85,5.85,0,0,1,36.19,138.82ZM38,136.19a.84.84,0,0,1-.73.72,4.12,4.12,0,0,0-.72.32,4.62,4.62,0,0,1,.87-1.59c.29-.48.56-1,.89-1.52.06.15.13.21.11.26C38.25,135,38.11,135.59,38,136.19Zm.37-7.57c-.13.23-.42.36-.63.54a2,2,0,0,0-.6.9,1.61,1.61,0,0,1-1.43.84c-.08,0-.14-.08-.27-.17.13-.16.23-.31.35-.44s1-1,1-1l.28-.59h0c-.2.08-.4.12-.51.37a1.83,1.83,0,0,1-.91.85c-.18.11-.36.2-.52,0s0-.29.28-.4.45-.1.52-.43h-.75c.35-.66,1-.7,1.5-1l-.09-.49.91-1.07a1.15,1.15,0,0,1,.25-.23.34.34,0,0,1,.46,0c.12.1,0,.29-.22.43l-.36.23.62.26-.91.57-.28,1h0c.32,0,.4-.27.57-.44.34-.37.66-.75,1.28-.42,0,0,0,.19,0,.21A1.33,1.33,0,0,0,38.33,128.62Zm2.09-12.89c0,1-.07,2.1-.09,3.14,0,.48.08,1,.08,1.44,0,3,0,6,0,9,0,1.08,0,2.15,0,3.24,0,.62-.07,1.24-.13,1.86,0,.26-.08.28-.62.3v-.4a1.94,1.94,0,0,0-.05-.66,3.34,3.34,0,0,1-.19-1.25c0-.65-.07-1.3-.06-1.95,0-.9.1-1.81.16-2.71a1.57,1.57,0,0,0,0-.42c-.19-.7.09-1.4,0-2.09s.12-1.41-.06-2.1c0-.08,0-.21,0-.25.44-.43.1-.92.05-1.34a14.62,14.62,0,0,0-.15-2.77c.13-1.56,0-3.12.06-4.67a13.32,13.32,0,0,0,.11-1.68c-.08-.68,0-1.34-.06-2s.05-1.57.06-2.35c0-.45-.08-.9-.07-1.35,0-.65.08-1.29.11-1.94a8.14,8.14,0,0,0-.05-.84,1.08,1.08,0,0,1,0-.33,16.38,16.38,0,0,0,.08-2.88,24.72,24.72,0,0,1,.08-3.05,2,2,0,0,0,0-.42,8.61,8.61,0,0,1,.1-2.52.42.42,0,0,0,0-.17A14,14,0,0,1,39.65,92c0-.65,0-1.3.06-1.95,0-.17,0-.33,0-.5s-.07-.3,0-.42a1.73,1.73,0,0,0,0-.91c0-.3.09-.59,0-.91a13.09,13.09,0,0,1,0-1.57c0-.5,0-1,0-1.5,0-.28,0-.56,0-.84,0-.62,0-1.24,0-1.87s0-1.25,0-1.87c0-.31-.08-.62-.11-.93a3.5,3.5,0,0,1,0-1,7.62,7.62,0,0,0,0-3,1.88,1.88,0,0,1,0-.75c.05-.24.25-.27.52-.15,0,.67.05,1.34,0,2a21.13,21.13,0,0,0-.09,2.88c0,.94,0,1.88,0,2.81,0,2.83.12,5.66.14,8.49,0,3.18,0,6.36,0,9.54,0,1.51-.06,3,.07,4.51s0,3.12.11,4.68,0,2.95,0,4.42c0,.45,0,.9.05,1.36,0,.22.16.26.31.29h0c0-.2,0-.41.19-.45.4-.08.47.25.6.51-.31.23-.53-.09-.79-.06a0,0,0,0,0,0,0h0A1.16,1.16,0,0,0,40.42,115.72ZM42,110a.92.92,0,0,1,.4.3c.93,1.18,1.93,2.3,3,3.38.27.28.54.6.31,1.05-.53-.12-.61-.26-2.25-2.08a15.72,15.72,0,0,1-1.78-2.53C41.82,110.12,42,110,42,110Zm.69-1.39,1.39,1.7c.43.52.86,1,1.31,1.55a1.23,1.23,0,0,1,.31,1.29,2,2,0,0,1-1-.75c-.59-.79-1.24-1.54-1.87-2.3-.09-.11-.24-.21-.25-.33a1.14,1.14,0,0,0-.54-.79c-.13-.1-.17-.33-.27-.55A.73.73,0,0,1,42.72,108.66Zm-.42-2c.13,0,.31,0,.38.09a14.4,14.4,0,0,1,1,1.25,6.81,6.81,0,0,0,1.17,1.33,4.57,4.57,0,0,1,.84.94c.22.32.12.69,0,1.15a3.16,3.16,0,0,1-.52-.38c-.32-.36-.62-.73-.91-1.11q-.73-.93-1.43-1.88a8.23,8.23,0,0,1-.61-1C42.21,107,42.29,106.82,42.3,106.69Zm-.86,4.11a.47.47,0,0,1,.36.51,3.75,3.75,0,0,1-.11.44c.53.09.76.47,1.07.8a14.25,14.25,0,0,0,2.47,2.54,1.15,1.15,0,0,1,.5,1.46A1.57,1.57,0,0,1,45,116a1.3,1.3,0,0,0-.75-.49,6.29,6.29,0,0,0-1.36-1.7h0a16.18,16.18,0,0,0-1.16-1.56,10.63,10.63,0,0,1-.81-1.38C41.16,110.84,41.32,110.76,41.45,110.8ZM41,112.54a.26.26,0,0,1,.23,0,1.58,1.58,0,0,1,.86.78.82.82,0,0,0,.78.52,2.28,2.28,0,0,0,1.37,1.71,4,4,0,0,0,.35.53,5.23,5.23,0,0,0,.84.84c.46.33.44.73.35,1.26a2.44,2.44,0,0,1-.48-.18,14.05,14.05,0,0,1-2.52-2.37,13.25,13.25,0,0,1-1.23-1.5,7.83,7.83,0,0,1-.64-1.27A.38.38,0,0,1,41,112.54Zm4.76,14.89c-.65-.19-.92-.74-1.5-1,0,.17,0,.33.06.39.29.28.6.52.9.78a2.7,2.7,0,0,1,.47.48.36.36,0,0,1-.14.55,10.71,10.71,0,0,1-4.53-5l.48-.31c0-.39-.28-.63-.41-.94s-.38-.52-.18-.86c.28-.09.34.16.46.29.73.83,1.45,1.66,2.2,2.47a3.74,3.74,0,0,0,1.57,1.13.86.86,0,0,1,.63,1C45.72,126.74,45.74,127,45.74,127.42Zm-.13,3.08a10,10,0,0,1-2.81-2.59,6.82,6.82,0,0,0-.87-1.2s0-.11,0-.24c.16,0,.34,0,.44.11.34.3.66.62,1,.93a6.84,6.84,0,0,0,1.87,1.43.75.75,0,0,1,.48.65C45.69,129.86,45.83,130.15,45.61,130.5Zm0-5.26a2.81,2.81,0,0,1-1.44-.83c-.71-.6-1.37-1.27-2-1.94a2,2,0,0,1-.39-.65c-.11-.26-.16-.55-.47-.67-.06,0-.15-.15-.14-.2.13-.52-.54-.79-.39-1.3a2.08,2.08,0,0,1,.17-.28,1,1,0,0,1,.47,1c.4.38.74.68,1,1a16.71,16.71,0,0,0,2.31,2.11c.11.08.24.15.36.22C45.86,124.17,45.92,124.35,45.66,125.24Zm.12-3.57a17.72,17.72,0,0,1-2.85-2.17.59.59,0,0,0,.23.64,15,15,0,0,0,2,1.59,1.07,1.07,0,0,1,.62,1.23c0,.14,0,.28,0,.46a1,1,0,0,1-.69-.21,11.79,11.79,0,0,1-2.45-2.34c-.28-.41-.76-.69-.81-1.26,0-.07-.17-.12-.25-.19a2.15,2.15,0,0,1-.66-2.07c.58.12.45.56.5.77l1.31,1.38a1.78,1.78,0,0,0-.08-.48c-.11-.2-.25-.38-.37-.57s-.26-.49-.41-.76a.76.76,0,0,1,1,.17,10.89,10.89,0,0,0,.94,1.08c.61.57,1.27,1.11,2,1.72A1.42,1.42,0,0,1,45.78,121.67Zm-4.65-4.83a11.69,11.69,0,0,1-.31-1.36s.05-.08.09-.12c.47.12.27.63.52.88a1.51,1.51,0,0,1,.54.88C41.35,117.25,41.25,117.24,41.13,116.84Zm.44,10a1.16,1.16,0,0,0,.46.68.54.54,0,0,1,.19.84c.19.37.48.16.71.17a4.9,4.9,0,0,1,.53.57A5.64,5.64,0,0,0,45,130.64a1.4,1.4,0,0,1,.66,1.66,1.52,1.52,0,0,1-.37-.16,9.86,9.86,0,0,1-1.51-1.48,5.39,5.39,0,0,1-1.22-1.41c0-.11-.22-.16-.32-.26s-.22-.19-.25-.31a1.48,1.48,0,0,0-.52-.73,3,3,0,0,1-.7-1.62C41.3,126.34,41.49,126.54,41.57,126.84Zm-.63,1.38c.14.08.35.13.39.24a6.09,6.09,0,0,0,1.4,1.69c.55.64,1.19,1.21,1.8,1.79a8.06,8.06,0,0,0,.84.71,1,1,0,0,1,.34,1.26,1,1,0,0,1-.78-.33c-.31-.24-.61-.52-.92-.75s-.41-.26-.62-.39a1.12,1.12,0,0,0,.55.79l1.37,1c.31.22.47.48.3.85a.66.66,0,0,1-.72-.17c-.51-.4-1-.8-1.54-1.18-.36-.26-.6-.67-1-.86a.43.43,0,0,1-.19-.27,1.45,1.45,0,0,0-.65-.93c-.16-.11-.13-.22,0-.57.59,0,.69.79,1.42.79a7.51,7.51,0,0,0-.51-.68,9.51,9.51,0,0,1-1.56-2.32A.59.59,0,0,1,40.94,128.21Zm-.13,4.4a2.6,2.6,0,0,0,.3.52,3.21,3.21,0,0,0,.52.38c.06-.49-.42-.75-.46-1.22.14,0,.28,0,.33,0a2.72,2.72,0,0,1,.33.48c.08.14.12.33.24.42.49.38,1,.69,1.5,1.1s1.18.76,1.74,1.18.5,1,.25,1.64C44.11,136.35,43.22,135,42,134a1.07,1.07,0,0,0,0,.36,1.91,1.91,0,0,0,.34.48,20.24,20.24,0,0,0,2.55,2.36c.88.57.87.41.73,1.78a1.06,1.06,0,0,1-.37-.13,14.27,14.27,0,0,1-1-1c-.71-.76-1.41-1.54-2.11-2.31a1.59,1.59,0,0,1-.44-1C40.66,134.27,40.8,133.41,40.8,132.61Zm5,11.36a4.44,4.44,0,0,1-1.38-2,4.39,4.39,0,0,0-.88-1.61,7.21,7.21,0,0,1-.76-1.21A5.51,5.51,0,0,0,42,138a5.42,5.42,0,0,1-.85-1.55,3.07,3.07,0,0,1,.72.76l.59.72A16.72,16.72,0,0,0,44.39,140c.35.32.69.66,1,1a1.06,1.06,0,0,1,.3,1.38l-.84-.13C45.28,142.88,46.13,143.09,45.83,144Zm0-3.25a2.6,2.6,0,0,1-.46-.16,1.42,1.42,0,0,1-.24-.24,25.74,25.74,0,0,1-2.67-2.93,10.47,10.47,0,0,1-.79-1.2,1.28,1.28,0,0,1-.09-.46l.19-.07c.3.37.58.75.9,1.1s.51.45.73.7a17.41,17.41,0,0,0,2.09,2A1.12,1.12,0,0,1,45.83,140.73Zm-.12-20.79a11.84,11.84,0,0,1-2.72-2.4,8.28,8.28,0,0,1-1.39-2.1c.22,0,.38,0,.47,0a3.46,3.46,0,0,1,.64.56,15.38,15.38,0,0,0,2.11,2.07c.28.23.6.42,1,.66C45.81,119.1,46.08,119.53,45.71,119.94Z"/></g></g></g></svg>