<svg xmlns="http://www.w3.org/2000/svg" viewBox="0 0 124.18 87.49"><defs><style>.cls-1{fill:#d3d0ce;opacity:0.6;}.cls-2{fill:#4d5858;}</style></defs><title>cloud_extradry</title><g id="Layer_2" data-name="Layer 2"><g id="Layer_1-2" data-name="Layer 1"><g id="_Group_" data-name="&lt;Group&gt;"><path class="cls-1" d="M121.37,74.69s0,.07,0,.11l-.07,0S121.35,74.71,121.37,74.69Z"/><path class="cls-1" d="M121,75.13l.34-.37.07,0c-.14.14-.25.26-.37.37Z"/><path class="cls-1" d="M121,75.13l0,0H121A.07.07,0,0,0,121,75.13Z"/><path class="cls-1" d="M120.38,75.13c.23-.35.48-.69.83-1.2.07.37.11.58.16.76,0,0,0,0-.05.07l-.34.37a.07.07,0,0,1,0,0h0A5.09,5.09,0,0,0,120.38,75.13Z"/><path class="cls-2" d="M120.68,68.43l-.05,0-.25-.19Z"/><path class="cls-2" d="M120.63,68.48l.05,0v.09Z"/><path class="cls-1" d="M120.36,75.13s0,0,0,0l0,0Z"/><path class="cls-1" d="M120.29,75.13l0,0a.21.21,0,0,0-.13,0A.31.31,0,0,1,120.29,75.13Z"/><path class="cls-1" d="M120.2,75.2l-.37.3c0-.07-.07-.16-.12-.23Z"/><path class="cls-2" d="M119.83,75.5l.37-.3a.21.21,0,0,1,.13,0s0,0,0,0h-.07a.31.31,0,0,0-.09.07l-.49.07C119.76,75.34,119.78,75.43,119.83,75.5Zm-4.49-1.06-1.31.27c.46-1.15.85-2.21,1.24-3.27l.78.72c-.14.41-.27.78-.41,1.22.32.37.62.69,1,1.17l3.2-.48c1.13-1.66,1.54-3.22.81-4.95a1.35,1.35,0,0,1,0-.6c.32.3.67.62,1,1,0,1.45,0,3,0,4.44a2.47,2.47,0,0,1-.32.76c-.05-.18-.09-.39-.16-.76-.35.51-.6.85-.83,1.2a5.09,5.09,0,0,1,.55,0c-.67,1.13-1.82.86-2.69,1C117.2,75.59,116.33,75,115.34,74.44Z"/><path class="cls-2" d="M109.72,63.48s0,.07,0,.09-.07,0-.09,0Z"/><path class="cls-2" d="M109.72,63.48l0,.07s0,0,0-.07Z"/><path class="cls-2" d="M109.68,63.48a.87.87,0,0,1-1-.64C109.17,62.81,109.77,62.63,109.68,63.48Z"/><path class="cls-2" d="M108.66,62.77l0,0s0,0,0,0Z"/><path class="cls-2" d="M108.66,62.77s0,0,0,.07h-.07v0Z"/><path class="cls-2" d="M105.23,62.77c1-.69,2.17-.21,3.25-.21,0,0,.07.12.11.21Z"/><path class="cls-2" d="M105.1,62.77h.13l-.06,0Z"/><path class="cls-2" d="M105.1,62.77l.07,0a4.19,4.19,0,0,0-.37.35l-.07,0C104.87,63,105,62.88,105.1,62.77Z"/><path class="cls-2" d="M104.73,63.11l.07,0-.16,0A.22.22,0,0,0,104.73,63.11Z"/><path class="cls-2" d="M104.64,63.18c-.12.09-.23.19-.37.28,0-.07-.07-.14-.12-.21Z"/><path class="cls-2" d="M103.14,73.89c-.85.85-1.7.69-2.19-.47C101.71,73.59,102.43,73.72,103.14,73.89Z"/><path class="cls-2" d="M101.62,49.35a1.3,1.3,0,0,0,.25.18l-.3-.11Z"/><path class="cls-2" d="M101.62,49.35l-.05.07s0-.05-.07-.07Z"/><path class="cls-2" d="M101,73.42l-.09,0,.07,0S101,73.4,101,73.42Z"/><path class="cls-2" d="M100.84,73.31s.07,0,.09,0l-.07,0A.15.15,0,0,0,100.84,73.31Z"/><path class="cls-2" d="M99.23,69.33c.14-.81.14-.81-.44-2.33.16-.25.35-.57.67-1.12V68c.57.46,1.15.89,1.75,1.4l-.92.25c.32.26.62.51,1,.81-.25.41-.51.78-.74,1.15.1.58.21,1.15.28,1.75a1.22,1.22,0,0,1-.67-1.73,4.62,4.62,0,0,0,0-1.12C99.9,70.11,99.55,69.72,99.23,69.33Z"/><path class="cls-1" d="M95.78,55.08c0,.05.11.09.11.14s-.07.07-.11.11Z"/><path class="cls-2" d="M95.89,55.22s-.07-.09-.11-.14v.25S95.89,55.27,95.89,55.22ZM94,57.15c-.23.88-.41,1.59-.71,2.63-.23-1.41-.28-2.42.5-3.46l1.36-.73c-1-1-.5-2.21-.62-3.46a4.13,4.13,0,0,0,.9-1c.74-1.7,2.37-1.93,3.82-2.37a1.88,1.88,0,0,1,2.25.6c-.55,0-1.1,0-1.65,0-3.16,0-4.79,1.87-4.37,5.14,0-.35.06-.67.13-1a5.69,5.69,0,0,1,.23-1,1.65,1.65,0,0,1,.81-.8c-.23.66-.46,1.36-.76,2.23l1,1.84C95.91,56.23,94.92,56.71,94,57.15Z"/><path class="cls-1" d="M90.87,74.25a3.48,3.48,0,0,1-2.62-2.62c.16,0,.34,0,.41.05C89.42,72.53,90.16,73.4,90.87,74.25Z"/><path class="cls-1" d="M88.22,71.58s0,0,0,0h-.07Z"/><path class="cls-1" d="M88.22,71.58l0,0v-.07A.07.07,0,0,0,88.22,71.58Z"/><path class="cls-2" d="M86.8,58.12c.92-.53,1.65-1.54,3.22-1.2-1.17.71-2.21,1.31-3.22,1.93Z"/><path class="cls-2" d="M86.75,58.88s0,0,0,0v.07l0,0Z"/><path class="cls-2" d="M86.8,58.92c-.12.26-.23.49-.35.72l0,0c.11-.23.23-.44.34-.69Z"/><path class="cls-2" d="M86.41,59.71v-.12l0,0S86.43,59.68,86.41,59.71Z"/><path class="cls-1" d="M84.36,63.46c.41-1,1.22-.62,2-.37C85.67,63.2,85,63.34,84.36,63.46Z"/><path class="cls-2" d="M84.36,68.41A2.36,2.36,0,0,1,86,66.27c-.49.8-.88,1.45-1.29,2.14Z"/><path class="cls-2" d="M86.11,43.59a4.94,4.94,0,0,1-1.91,5.14C84.86,46.84,86.41,45.55,86.11,43.59Z"/><path class="cls-1" d="M84.36,63.48s0,0,0,.05l0-.05Z"/><path class="cls-2" d="M84.29,68.54v-.13l0,.07S84.29,68.52,84.29,68.54Z"/><path class="cls-1" d="M84.33,63.53h-.06s0,0,0-.05Z"/><path class="cls-2" d="M84.33,68.41v.07l0-.07Z"/><path class="cls-2" d="M83.67,63.48s0,0,0,.05l0-.05Z"/><path class="cls-2" d="M83.69,64.47s0,.07-.07.12l0-.07Z"/><path class="cls-2" d="M83.64,63.53h-.06s0,0,0-.05Z"/><path class="cls-2" d="M83.76,49.12c-.05.09-.09.21-.14.3l0-.05Z"/><path class="cls-2" d="M83.21,49.72l.37-.35,0,.05a4.15,4.15,0,0,1-.37.34Z"/><path class="cls-2" d="M83.58,64.61v-.09l0,.07S83.58,64.59,83.58,64.61Z"/><path class="cls-2" d="M83.25,49.76h0v0Z"/><path class="cls-2" d="M82.93,65.55a.78.78,0,0,1,.65-.94A.8.8,0,0,1,82.93,65.55Z"/><path class="cls-2" d="M83.58,63.53a5.72,5.72,0,0,0-.51.71C82.84,63.53,83.18,63.51,83.58,63.53Z"/><path class="cls-2" d="M82.75,65.9c0-.12.09-.21.13-.32l.05.07A1.8,1.8,0,0,0,82.75,65.9Z"/><path class="cls-2" d="M82.88,65.58s0,0,.05,0v.1Z"/><path class="cls-2" d="M81,65.94c.26.72-.11.72-.48.72C80.63,66.45,80.77,66.22,81,65.94Z"/><path class="cls-2" d="M80.47,66.66s0,0,0,0l0,0v0Z"/><path class="cls-2" d="M80.35,66.73l.05,0,0,0A.13.13,0,0,1,80.35,66.73Z"/><path class="cls-1" d="M114,74.71l1.31-.27c1,.6,1.86,1.15,2.9,1.77.87-.18,2,.09,2.69-1H121c.12-.11.23-.23.37-.37s0-.06,0-.11a2.47,2.47,0,0,0,.32-.76c0-1.49,0-3,0-4.44-.34-.35-.69-.67-1-1v-.09l-.3-.14.25.19.05,0a1.35,1.35,0,0,0,0,.6c.73,1.73.32,3.29-.81,4.95l-3.2.48c-.41-.48-.71-.8-1-1.17.14-.44.27-.81.41-1.22l-.78-.72C114.88,72.5,114.49,73.56,114,74.71ZM99.46,65.88c-.32.55-.51.87-.67,1.12.58,1.52.58,1.52.44,2.33.32.39.67.78.94,1.13a4.62,4.62,0,0,1,0,1.12,1.22,1.22,0,0,0,.67,1.73.15.15,0,0,1,0,.09l.09,0c.49,1.16,1.34,1.32,2.19.47-.71-.17-1.43-.3-2.19-.47,0,0,0,0,0-.06s-.07,0-.09,0c-.07-.6-.18-1.17-.28-1.75.23-.37.49-.74.74-1.15-.39-.3-.69-.55-1-.81l.92-.25c-.6-.51-1.18-.94-1.75-1.4Zm-6.17-6.1c.3-1,.48-1.75.71-2.63.92-.44,1.91-.92,2.9-1.38l-1-1.84c.3-.87.53-1.57.76-2.23a1.65,1.65,0,0,0-.81.8,5.69,5.69,0,0,0-.23,1c-.07.33-.09.65-.13,1-.42-3.27,1.21-5.12,4.37-5.14.55,0,1.1,0,1.65,0,0,0,0,0,.07.07l.3.11a1.3,1.3,0,0,1-.25-.18h-.12a1.88,1.88,0,0,0-2.25-.6c-1.45.44-3.08.67-3.82,2.37a4.13,4.13,0,0,1-.9,1c.12,1.25-.34,2.49.62,3.46l-1.36.73C93,57.36,93.06,58.37,93.29,59.78Zm-8.56,8.63c.41-.69.8-1.34,1.29-2.14a2.36,2.36,0,0,0-1.66,2.14Zm-4.91-.56c.19-.36.37-.76.53-1.12a.13.13,0,0,0,.1,0s0,0,0,0c.37,0,.74,0,.48-.72-.18.28-.32.51-.48.72H80.4v0l-.05,0-.46.2-.41-.52c2.16-1.55,3.13-4.1,3.08-7.16.6-.72,1.2-1.41,1.87-2.19,1.12,1.31.32,2.65.46,3.89-.42.62-1.57.6-1.57,1.7.72-.46,1.41-.9,2.12-1.38.51.76,0,1.06-.39,1.13a1.7,1.7,0,0,0-1.38,1.08H83.6s0,0,0,.05c-.4,0-.74,0-.51.71a5.72,5.72,0,0,1,.51-.71h.06s0,0,0-.05c.18,0,.39,0,.6.05-.21.32-.4.62-.58.94l-.11,0v.09a.78.78,0,0,0-.65.94s0,0-.05,0-.09.2-.13.32a1.8,1.8,0,0,1,.18-.25v-.1a.8.8,0,0,0,.65-.94s0,0,0,0,0-.07.07-.12l2.58-.83c.32.51.62,1,.94,1.57l.23-.07c0-.32,0-.74-.16-.92-.8-.81-.62-1.5.09-2.26.51-.57.92-1.22,1.5-2-1.31.19-1.63,1.27-2.46,2.17V59.71s0-.05,0-.07c.12-.23.23-.46.35-.72v-.07c1-.62,2-1.22,3.22-1.93-1.57-.34-2.3.67-3.22,1.2v.73s0,0,0,0v0c-.11.25-.23.46-.34.69v.12l-.9,1.38c-.48-1.61.85-2.44,1-3.66,1.34-.58,2.44-1.54,4-1.36V53.58c.76-.59.81-1.77,2-1.86.21,0,.44-.64.53-1a3.87,3.87,0,0,1,3-3.08c.55-.16,1.06-.44,1.7-.69.83,0,1.78.05,2.7,0,2.41-.16,4.14,1.2,5.86,2.58.49,1.31,1.64,2.44,1.2,4a4.64,4.64,0,0,0,.21,2.35l1.66.39,2,2.4c.07.78.16,1.45.23,2.23,1.18-.37,1.91.32,2.9.83.39,1,.83,2.21,1.27,3.41-.35.53-.64,1-1,1.47a4.84,4.84,0,0,0-3.5-1,19,19,0,0,0-.94-1.77c-.09-.16-.39-.21-.62-.28,0,0,0-.06,0-.09h0c.09-.85-.51-.67-1-.64,0,0,0-.05,0-.07h-.07c0-.09-.06-.21-.11-.21-1.08,0-2.23-.48-3.25.21h-.13c-.12.11-.23.23-.37.34a.22.22,0,0,1-.09.07l-.49.07c0,.07.07.14.12.21.14-.09.25-.19.37-.28l.16,0a4.19,4.19,0,0,1,.37-.35l.06,0h3.36s0,0,0,0v0h.07a.87.87,0,0,0,1,.64s0,.05,0,.07,0,0,.09,0c.32.69.64,1.36,1,2.1-.23.34-.48.69-.71,1.06l.13.16L111.7,66a3.74,3.74,0,0,1,3,2.35c.72-.25.72-.67.3-1.36l3-1.33a5.73,5.73,0,0,1,3.84,2c1.47,1.75,2.16,3.78,1.24,6-1,2.45-3.89,3.85-6,2.95a1.61,1.61,0,0,0-1,1.8,5.31,5.31,0,0,1-3.34,1.31c-.48.07-1.08.21-1.45-.44,1.45-.78,2.77-1.68,2.63-3.77-1.34,1-2.79.62-4.24.73-.27.21-.6.44-.87.62a4.73,4.73,0,0,1-4.42-1.56,4.57,4.57,0,0,1-4.9-1.52V71.29c-.49,0-1-.14-1.27,0-1.56.8-3,0-4.33-.49-.87-.34-1.49-1.38-2.16-2.16a11.53,11.53,0,0,1-1-1.59c-.07-1.68-.28-3.38,1.17-4.78a1,1,0,0,0-1.4.64,9.81,9.81,0,0,0-1.15,6.21,8.6,8.6,0,0,0,1,2.19c.11.23.25.48.44.87-1.85-1.15-2.17-1.65-2.21-3.45a7.27,7.27,0,0,1,.64-4.07c.09-.16,0-.44,0-.85-.41.37-.71.62-.82.73-.19,1.25-.37,2.26-.53,3.29a1.15,1.15,0,0,0,0,.69c.53,1,.23,2,.28,3-.53-.09-.69-.48-.69-1v-2.3c-.78,3-.14,4.65,2.53,7-1.11.3-1.38-.67-1.89-1.13a10.49,10.49,0,0,0-1.75-1.61c.37.69.74,1.36,1.11,2-1.08.79-1.59-.34-2.26-.57-.32-.6-.62-1.15-.94-1.78V68.54s0,0,0-.06v-.07h0v.13c-1,1.2-.76,2.63-.55,4a5,5,0,0,0,1.88,3.38,8.51,8.51,0,0,1,.83.88c-1.75,1.93-3.43.92-5.29-.07-.32-.71-.74-1.57-1.22-2.58,1,0,1.7-.09,2.72-.16a17,17,0,0,1-2.21-1.26C79.25,71.79,79,69.28,79.82,67.85Z"/><path class="cls-2" d="M77.41,47.71a2.75,2.75,0,0,0-.14.3l0,0C77.29,47.88,77.34,47.79,77.41,47.71Z"/><path class="cls-2" d="M77.22,48.06V48l0,0A.12.12,0,0,1,77.22,48.06Z"/><path class="cls-1" d="M75.22,74.18h.55v.14h-.55Z"/><path class="cls-1" d="M75.45,66.56c-.81-.41-1.5-.78-2.3-1.21l1.36-.1C75,65.65,75.52,65.9,75.45,66.56Z"/><path class="cls-2" d="M72.3,69.81c-.67-.41-.26-.87-.12-1.43C73,69,72.46,69.37,72.3,69.81Z"/><path class="cls-2" d="M72.34,69.84v.06a.11.11,0,0,1-.07,0Z"/><path class="cls-2" d="M72.27,69.88s0,0,0-.07,0,0,0,0Z"/><path class="cls-2" d="M72.16,67.42l.07.23a5,5,0,0,1-.51,0Z"/><path class="cls-2" d="M71.72,67.69l-.09.07,0,0A.24.24,0,0,0,71.72,67.69Z"/><path class="cls-2" d="M71.63,67.76s0,0,0,.07v-.11Z"/><path class="cls-1" d="M68.94,65l1.75-1c.41.37.8.71,1.33,1.2A7.23,7.23,0,0,1,68.94,65Z"/><path class="cls-2" d="M67.69,47.6h.07l0,0S67.69,47.62,67.69,47.6Z"/><path class="cls-2" d="M66.4,46a1.31,1.31,0,0,1,.28-.12c.35.57.67,1.18,1,1.75h-.87C66.68,47.05,66.54,46.49,66.4,46Z"/><path class="cls-1" d="M65.58,70.09c1.17-.51,1.81,0,2.46.83h2.88a2.39,2.39,0,0,1-2.67.57A17.24,17.24,0,0,1,65.58,70.09Z"/><path class="cls-2" d="M66.06,68.48l.51,0a1.15,1.15,0,0,1-.1.23A4.86,4.86,0,0,0,66.06,68.48Z"/><path class="cls-2" d="M66.06,68.48h-.14l0,0S66,68.45,66.06,68.48Z"/><path class="cls-2" d="M65.92,68.43h0l0,0Z"/><path class="cls-2" d="M65.28,68.43v0h0Z"/><path class="cls-2" d="M65.28,68.43l0,0v0Z"/><path class="cls-2" d="M65.76,55.4c0,.63-.44.78-.83,1A.89.89,0,0,1,65.76,55.4Z"/><path class="cls-2" d="M64.93,56.42v.06l0,0S64.91,56.42,64.93,56.42Z"/><path class="cls-2" d="M64.84,56.53s0-.07,0-.09l0,0S64.86,56.51,64.84,56.53Z"/><path class="cls-1" d="M64.24,67.09c.58.28,1.08.58,1,1.34h-.58C64.52,68,64.4,67.56,64.24,67.09Z"/><path class="cls-2" d="M64.24,47.6s0,0,.07.07a.34.34,0,0,1-.14,0Z"/><path class="cls-2" d="M64.22,67s0,.07,0,.09l-.07,0Z"/><path class="cls-2" d="M64.22,62.42v.09s0,0,0,0Z"/><path class="cls-2" d="M64.22,62.42l0,0s0,0,0-.07Z"/><path class="cls-2" d="M64.22,67l0,0v0S64.19,67,64.22,67Z"/><path class="cls-2" d="M64.17,47.62l.07,0-.07,0Z"/><path class="cls-2" d="M64.15,62.4c-.51-.18-.74-.55-.51-1.52C63.87,61.59,64,62,64.15,62.4Z"/><path class="cls-1" d="M64,68.2c.39.48.78,1,1.26,1.61C64,69.28,64,69.28,64,68.2Z"/><path class="cls-2" d="M64.17,67a2.33,2.33,0,0,1-.55-2c.74.94,1.43,1.82,2.3,3v.46l-.64,0v0h0c.09-.76-.41-1.06-1-1.34,0,0,0-.06,0-.09S64.19,67,64.17,67Z"/><path class="cls-2" d="M63,57.38c.8-.34,1.33-.62,1.86-.85A1.48,1.48,0,0,1,63,57.38Z"/><path class="cls-2" d="M62.86,12c.44-.6,1-.23,1.57,0Z"/><path class="cls-2" d="M62.81,45.9c.67.41,1.32.83,1.36,1.72-.69.17-.71-.71-1.22-.87C62.84,46.7,62.86,46.22,62.81,45.9Z"/><path class="cls-2" d="M63,57.91c0,.05.12.09.12.14s-.07.07-.12.09Z"/><path class="cls-2" d="M62.74,12h.12l0,0Z"/><path class="cls-2" d="M62.77,45.87l0,0v.07S62.79,45.87,62.77,45.87Z"/><path class="cls-2" d="M62.81,12s-.07,0-.09,0,0,0,0,0Z"/><path class="cls-2" d="M62.81,45.83l0,0v0S62.79,45.83,62.81,45.83Z"/><path class="cls-2" d="M62.54,45.69c0-1.24-.07-2.46,0-3.71,0-.2.28-.41.51-.59-.44,1.47-.14,3-.23,4.44C62.68,45.76,62.54,45.73,62.54,45.69Z"/><path class="cls-2" d="M62,58v.5h-.11V58Z"/><path class="cls-2" d="M61.25,58.88H59.68C60.14,58.3,60.72,58.65,61.25,58.88Z"/><path class="cls-2" d="M59.68,58.88s0,0,0,.07l0-.07Z"/><path class="cls-2" d="M59.59,58.88l0,.07h-.07A.08.08,0,0,1,59.59,58.88Z"/><path class="cls-2" d="M58.05,15.7c-.32-2.12,1.22-3.36,3.48-2.74.57-.09.45-1.06,1.19-.94-.13.39-.27.8-.43,1.21.16.26.36.58.57.9C60.51,12.71,59,13.12,58.05,15.7Z"/><path class="cls-2" d="M58.44,27.41a6.91,6.91,0,0,0-1.91,4.19V29.21c.67-1.54,1.54-3.13,3.71-3.5a4,4,0,0,1,2.18-3.5c.44-.27.71-.83,1.08-1.24l1.25-1.22c.71.16,1.59-.37,2.25.64l-1.79-.34c-.44.39-.85.78-1.34,1.22l.51.69c-.94.53-1.91,1.08-2.81,1.56-.21.6-.35,1.09-.53,1.66.62.44,1.36.07,2.05.19l1,.71c.71-.35,1.38-.64,2.27-1.06-.34.92-1.06.92-1.56,1.31-.28.49-.6,1-1.1,1.89-.05-.64-.07-.92-.1-1.4-.11-.12-.37-.4-.6-.63A5.12,5.12,0,0,0,58.44,27.41Z"/><path class="cls-2" d="M59.43,59.15A7.06,7.06,0,0,1,54,57.66a.13.13,0,0,1,0-.09,4.08,4.08,0,0,1,1.56.41,7.59,7.59,0,0,0,4,1C59.5,59,59.48,59.15,59.43,59.15Z"/><path class="cls-2" d="M55.93,52.23c-.16.55-.16,1.1-.87,1C55,52.71,55.24,52.34,55.93,52.23Z"/><path class="cls-2" d="M55,53.24l.05.07-.07,0A.75.75,0,0,0,55,53.24Z"/><path class="cls-2" d="M55,53.24h.05v.07Z"/><path class="cls-1" d="M59.64,57A4.65,4.65,0,0,1,54,54.78l.74-.14C55.7,56.71,57.75,56.48,59.64,57Z"/><path class="cls-2" d="M54,57.5v0h0Z"/><path class="cls-2" d="M53.59,57.18l0,0c.11.11.25.23.37.37l0,0A4.07,4.07,0,0,1,53.59,57.18Z"/><path class="cls-2" d="M53.59,57.18s0,0,0-.07l.07,0Z"/><path class="cls-2" d="M54,54.78A4.65,4.65,0,0,0,59.64,57c-1.89-.51-3.94-.28-4.86-2.35Zm-2.5.92a.36.36,0,0,1,.11-.23c1.1-.71,2.21-1.43,3.34-2.12-.16.83.62,1.25.85,1.92,2.72,1.58,5.32,1.79,7.9-.53,0,.32.06.57.09.78-1.57.87-3,1.72-4.58,2.46a2.09,2.09,0,0,1-1.66.05c-1.31-.67-2.76-1.2-3.66-2.51a4.85,4.85,0,0,0-.76-.6c.16.92.3,1.54.39,2.19-.83-.23-.53-1.08-.69-1.52C52.36,55.63,52,55.68,51.54,55.7Z"/><path class="cls-2" d="M51.4,2.23c.07.1.23.26.39.46l-4.1.46a2,2,0,0,1,1.59-.69C50,2.44,50.62,2.33,51.4,2.23Z"/><path class="cls-2" d="M51.54,55.7s0,0,0,.07l0-.07Z"/><path class="cls-2" d="M51.47,55.7l0,.07-.13,0A.26.26,0,0,1,51.47,55.7Z"/><path class="cls-2" d="M48.77,54.09h.51v.12h-.51Z"/><path class="cls-2" d="M47.69,3.15s0,0-.07.05l0-.05Z"/><path class="cls-2" d="M47.62,3.2h-.09l0-.05Z"/><path class="cls-1" d="M44.86,72.78c0-.37.07-.67.14-1.08,1.33-1.06,2.58.07,4,.34-.11,2.19,1.38,3.32,2.9,4.4a3.26,3.26,0,0,1-5.4-.58c.34-.34.71-.73,1.22-1.26A3,3,0,0,1,44.86,72.78Z"/><path class="cls-1" d="M46.22,61.75s0,0,0,0l-.07,0Z"/><path class="cls-1" d="M46.22,61.75l0,0c-.11-.14-.23-.25-.34-.37l0,0c.12.12.23.23.35.37Z"/><path class="cls-1" d="M45.83,61.41,45.48,61l.05,0,.34.36Z"/><path class="cls-1" d="M45.48,61s0,0,.05,0l-.05,0Z"/><path class="cls-1" d="M45.48,61c-.53-.16-.3-.6-.3-.94C45.71,60.19,45.46,60.63,45.48,61Z"/><path class="cls-1" d="M45.18,60V60s0,0,0,0Z"/><path class="cls-1" d="M44.81,59.59a2.59,2.59,0,0,1,.37.37l0,0c-.12-.14-.26-.26-.37-.37Z"/><path class="cls-1" d="M44.77,59.57c-.58-.49-.35-.9.18-1.31C44.91,58.69,44.84,59.13,44.77,59.57Z"/><path class="cls-1" d="M44.81,59.59l0,0v-.07Z"/><path class="cls-1" d="M44.47,61.06a1.7,1.7,0,0,1,1.08,1.32C44.86,62.05,44.4,61.75,44.47,61.06Z"/><path class="cls-1" d="M44.45,61l0,0v.06A0,0,0,0,1,44.45,61Z"/><path class="cls-1" d="M44.47,61l0,0h0a.11.11,0,0,0,0-.07Z"/><path class="cls-1" d="M44.65,75.1c-.69-1.08-1.26-2.16-.57-3.47.34,1.17.07,2.55,1.22,3.47Z"/><path class="cls-1" d="M44.4,61c-1-.37-.62-1.17-.39-1.91C44.15,59.68,44.29,60.35,44.4,61Z"/><path class="cls-1" d="M44,58.49h-.14v-.56H44Z"/><path class="cls-1" d="M43,55l.09.07-.13,0Z"/><path class="cls-1" d="M42.7,54.67,43,55l0,.05-.35-.35Z"/><path class="cls-1" d="M42.7,54.67l-.05,0s0,0,0-.07A.13.13,0,0,0,42.7,54.67Z"/><path class="cls-1" d="M39.18,75.86c-.58-.27-1-1-1.52-1.63a10.59,10.59,0,0,0,2-1.24A14,14,0,0,0,41,70.8c.73.23,1.56.53,2.39.81-.67,1.91.25,3.13,1.33,4.42-.73.27-1.45.5-2.27.8A22,22,0,0,1,39.18,75.86Z"/><path class="cls-1" d="M42.6,54.64c-1.49-.2-2.25-1.22-2.85-2.8.6.18,1,.32,1.11.34C41.52,53.15,42.08,53.88,42.6,54.64Z"/><path class="cls-1" d="M39.22,56.28c0-.69-.8-1.36-.14-2.4,1.2,1.48,2.37,2.83,4.22,3.41a.84.84,0,0,1-1.25.44C41.13,57.27,40.24,56.78,39.22,56.28Z"/><path class="cls-1" d="M38.14,66.7c.21,0,.46,0,.55.14,1.48,2.14,3.62,2.86,6.08,3a9.08,9.08,0,0,1,1.06.09c-.83.62-.83.62-2.67.6a9.54,9.54,0,0,1-4.7-3A2.71,2.71,0,0,1,38.14,66.7Z"/><path class="cls-1" d="M38.19,51.54h.48a.72.72,0,0,1-.12.25A3.9,3.9,0,0,1,38.19,51.54Z"/><path class="cls-1" d="M37.4,17.26V15.88c.39-.09.81-.2,1.32-.34-.07.57-.12,1.08-.17,1.72Z"/><path class="cls-1" d="M38.12,66.7h0l0,0Z"/><path class="cls-1" d="M38.12,51.49l.07,0h-.1Z"/><path class="cls-1" d="M38.07,66.63s0,0,0,0l0,0Z"/><path class="cls-1" d="M38,51.47a.16.16,0,0,1,.09,0l0,0h0S38.05,51.49,38,51.47Z"/><path class="cls-1" d="M37.56,52.62s.12.09.12.13-.07.07-.12.12Z"/><path class="cls-2" d="M37.36,66.36l0,0s0,0,0,.07Z"/><path class="cls-1" d="M37.4,17.26v0l0,0Z"/><polygon class="cls-1" points="37.4 15.88 37.4 15.9 37.38 15.9 37.4 15.88"/><path class="cls-2" d="M37.4,15.86v0l0,0h0Z"/><path class="cls-2" d="M37.36,66.22a.18.18,0,0,0,0,.09l0,0Z"/><path class="cls-1" d="M37.4,17.31l-.07,0a.08.08,0,0,1,0-.07Z"/><path class="cls-1" d="M37.4,49.74s0,0,.05.07-.05,0-.07-.05Z"/><path class="cls-1" d="M37.4,49.72v0l0,0h0V49.7Z"/><path class="cls-2" d="M37.33,17.35s0,0,0,0v0Z"/><path class="cls-1" d="M36.69,59.59c-.09-.18-.18-.41-.3-.62l.94.32-.06.28Z"/><path class="cls-2" d="M37.06,65.78l.25-.07a2.84,2.84,0,0,0,0,.51A2.63,2.63,0,0,1,37.06,65.78Z"/><path class="cls-2" d="M37.31,17.38s0,0,0,0h0Zm-2.23,1.54c.41-.44.85-.87,1.43-1.5.2-.34.52-.94.87-1.51h0v1.35h0a.08.08,0,0,0,0,.07l.07,0v0h1.15c.05-.64.1-1.15.17-1.72-.51.14-.93.25-1.32.34v0c.16-.23.32-.55.51-.58,1.86-.36,3.2-1.84,5.06-2.3a8.59,8.59,0,0,0-.16-2.58,5.17,5.17,0,0,1,1.43-5.08c.46-.44.9-.9,1.36-1.36a2.44,2.44,0,0,1,1.93-.76c-.87.71-1.84,1.43-2.67,2.23a4.24,4.24,0,0,0-1.52,2.9,4.1,4.1,0,0,1-.32,1l.51,1.49,1.06.18c-.4.44-.79.9-1.23,1.41L44.77,14c-1.06.83-2-.32-3,0-1.17.69-2.65,1.24-2.67,3.09.37.16.71.32,1.17.5-.23.21-.32.37-.46.4-1.15.11-2.32-.14-3.43.39C36,18.55,35.51,18.76,35.08,18.92Z"/><path class="cls-1" d="M36.69,59.59s0,0,0,0l0,0Z"/><path class="cls-1" d="M37.36,49.7c-.23-.24-.51-.47-.9-.81C37.33,48.89,37.43,49.23,37.36,49.7Z"/><path class="cls-1" d="M36,59.68l.67,0,.62.66h-1C36.23,60.12,36.16,59.94,36,59.68Z"/><path class="cls-1" d="M36.69,48.08a.85.85,0,0,1-.23.12,4.64,4.64,0,0,0-.09-.46C36.48,47.85,36.57,48,36.69,48.08Z"/><path class="cls-1" d="M36.32,60.3s0,0,0,.05h0l0-.05Z"/><path class="cls-1" d="M36.3,47.67v-.12s0,.05,0,.07Z"/><path class="cls-1" d="M36.37,47.74l-.07-.07,0-.05C36.34,47.67,36.37,47.69,36.37,47.74Z"/><polygon class="cls-1" points="36.34 50.8 36.34 50.82 36.32 50.8 36.34 50.8"/><path class="cls-1" d="M36.32,50.8l0,0s0,0-.07,0,0,0,0-.05Z"/><path class="cls-1" d="M36.3,59a.22.22,0,0,0,0-.14l.07.09v0Z"/><path class="cls-1" d="M36.34,58.92l0,0-.09,0Z"/><rect class="cls-1" x="36.3" y="50.78" width="0.02" height="0.02"/><path class="cls-1" d="M36.27,58.81,36,58.44l.23-.11Z"/><path class="cls-1" d="M36.3,47.55A5.25,5.25,0,0,0,36,47C36.37,47,36.34,47.28,36.3,47.55Z"/><path class="cls-1" d="M36,46.89s0,0,0,.07,0,0,0,0Z"/><path class="cls-1" d="M36,46.89l0,0h0v0Z"/><path class="cls-1" d="M35.65,46.89c0-.33,0-.62.05-1h.21c0,.33,0,.65,0,1Z"/><path class="cls-1" d="M36.32,50.78c-.2-.65-.41-1.32-.64-2A17.12,17.12,0,0,1,38,51.44l-.8-.27a8.25,8.25,0,0,0-.86-.37h0Z"/><path class="cls-1" d="M35.63,48.68a.78.78,0,0,0,0,.14l-.1-.09Z"/><path class="cls-1" d="M35.65,46.93l0,0v0h0Z"/><path class="cls-1" d="M35.61,46.91l0,0v0h0Z"/><path class="cls-1" d="M35.58,48.68h.05l-.05,0Z"/><path class="cls-2" d="M35.08,18.92s-.09.12-.14.16l0-.07A.55.55,0,0,0,35.08,18.92Z"/><path class="cls-1" d="M35.58,48.66c-.87-.3-.66-1-.64-1.7h.67C35.61,47.53,35.58,48.08,35.58,48.66Z"/><path class="cls-1" d="M34.94,49.81l.76.62c-.05.07-.12.16-.16.23l-.6-.21Z"/><rect class="cls-2" x="34.92" y="50.45" width="0.02" height="0.02"/><path class="cls-1" d="M34.94,46.89V47h0Z"/><path class="cls-2" d="M34.89,19l0,.07h0Z"/><path class="cls-1" d="M34.89,46.82s0,0,0,.07l0,.07Z"/><path class="cls-2" d="M34.89,49.76l0,0v.09Z"/><path class="cls-2" d="M34.94,49.72l0,0a.07.07,0,0,0,0-.06Z"/><path class="cls-2" d="M34.92,50.45a.89.89,0,0,1-.67-1l.62.28a.07.07,0,0,1,0,.06l0,.05v.64Z"/><path class="cls-2" d="M34.25,49.35v0l0,0a.16.16,0,0,0,0-.09S34.23,49.33,34.25,49.35Z"/><path class="cls-2" d="M34.25,49.37v.05s0,0,0,0Z"/><path class="cls-2" d="M34.11,70.11a3.83,3.83,0,0,1-.51,0l.44-.28Z"/><path class="cls-2" d="M33.6,70.16l-.09.07,0,0A.3.3,0,0,0,33.6,70.16Z"/><path class="cls-2" d="M33.51,70.23h0v0Z"/><path class="cls-2" d="M34.18,49.3c-.9-.76-.6-1.91-.92-2.85A5.9,5.9,0,0,1,34.18,49.3Z"/><path class="cls-2" d="M34.89,19.36a6.69,6.69,0,0,0-1.51,4.46,4.94,4.94,0,0,1,.94-4.58c.11-.13.37-.11.57-.16C34.92,19.17,34.94,19.31,34.89,19.36Z"/><path class="cls-2" d="M31.21,70.8c-.67-.46-1.49-1.06-2.3-1.68-.16-.11-.21-.41-.28-.64,1,.29,2,.57,2.93.87l-.83.3c.53.3,1,.55,1.36.74l1.38-.16v.57Z"/><path class="cls-2" d="M30.15,20.85c.19.21.3.33.51.58l-1.29.07Z"/><path class="cls-1" d="M29.65,51.74c1.15-.37,2.21-.73,3.4-1.13.53.51,1.15,1.18,1.84,1.73s1.43.9,2,1.29c.23,2.44.23,2.46,2.42,4.58h3.38c.28,1.15.51,2.14.81,3.34.55.53,1.24,1.17,1.77,1.65v3.62c-.53.25-1.24.62-1.89.94a15.7,15.7,0,0,0-1.93-1,5.56,5.56,0,0,1-3-2.95,3.3,3.3,0,0,1-.37-1.47c0-1.18,0-2.35,0-3.57a3.68,3.68,0,0,1-2.37-3c-.07.88-.11,1.38-.16,1.94H33.63c-.25-.28-.58-.62-.92-1,.39-.46.74-.85,1.26-1.5-1.4.58-2.55.65-3.54-.35S29.6,52.89,29.65,51.74Z"/><path class="cls-2" d="M29.37,21.5a.13.13,0,0,0-.07,0l-.05,0Z"/><path class="cls-2" d="M29.3,21.54h-.05v0Z"/><path class="cls-2" d="M28.61,22.19c-.09-.51.14-.72.64-.65C29.3,22,29.12,22.26,28.61,22.19Z"/><path class="cls-2" d="M28.61,68.41s0,0,0,.07l-.09,0Z"/><path class="cls-2" d="M28.61,22.19v.07l-.07-.07S28.59,22.21,28.61,22.19Z"/><path class="cls-2" d="M28.61,22.26a.2.2,0,0,0-.11,0l0,0Z"/><path class="cls-2" d="M28.61,68.41l-.07,0s0,0,0,0Z"/><path class="cls-2" d="M27.88,22.86c-.05-.44.15-.65.62-.63C28.29,22.47,28.1,22.65,27.88,22.86Z"/><path class="cls-2" d="M27.88,22.86V23l-.05-.05Z"/><path class="cls-2" d="M27.88,23s-.05,0-.08,0,0,0,0-.05Z"/><path class="cls-1" d="M27.74,50.82c0,.09-.07.19-.12.28a4.39,4.39,0,0,0-.39-.28Z"/><path class="cls-2" d="M27.53,38.78a2.07,2.07,0,0,1,.25.19l-.27-.14Z"/><path class="cls-2" d="M27.53,38.78l0,0h0v-.07S27.51,38.78,27.53,38.78Z"/><path class="cls-1" d="M27.16,50.78l.07,0h-.09Z"/><path class="cls-1" d="M27.16,50.78l0,0-.07-.09A.2.2,0,0,0,27.16,50.78Z"/><path class="cls-2" d="M26.86,34.43a3.85,3.85,0,0,1,0-.48c.07,0,.16.07.24.12A2.7,2.7,0,0,0,26.86,34.43Z"/><path class="cls-1" d="M26.42,50.48l.23-.28c.14.19.28.34.42.53C26.86,50.66,26.65,50.57,26.42,50.48Z"/><path class="cls-2" d="M26.84,34.46v.16l-.05-.07A.14.14,0,0,0,26.84,34.46Z"/><path class="cls-2" d="M26.79,34.55l.05.07s0,0-.05,0Z"/><path class="cls-1" d="M26.47,36.67a1,1,0,0,0,.05.11l-.1-.07Z"/><path class="cls-2" d="M27.8,23c-.8,1.15-1.12,2.64-2.39,3.45A4.61,4.61,0,0,1,26.72,24C27,23.59,27.07,22.83,27.8,23Z"/><path class="cls-1" d="M26.08,36.37l0,0c.12.12.24.23.35.35l0,0Z"/><path class="cls-1" d="M26.12,36.32l0,0V36.3Z"/><path class="cls-2" d="M25.43,15.84c.05-.21.05-.46.17-.56a15.19,15.19,0,0,1,1.47-1.1h2.05A5.68,5.68,0,0,0,26,15.72C25.89,15.84,25.64,15.81,25.43,15.84Z"/><path class="cls-1" d="M25.46,62.12c0-.09.14-.3.25-.32s.25.12.74.37a2.25,2.25,0,0,0-.42.18.74.74,0,0,1-.23,0A.45.45,0,0,1,25.46,62.12Z"/><path class="cls-1" d="M25.92,61.32c-.14-.14-.3-.28-.46-.42.07-.06.11-.11.18-.18l.44.41A1.35,1.35,0,0,1,25.92,61.32Z"/><path class="cls-2" d="M25.37,15.84h.06s0,0,0,.07Z"/><path class="cls-2" d="M25.41,26.4v.09l0,0S25.39,26.42,25.41,26.4Z"/><path class="cls-2" d="M25.37,15.84l0,.07h0S25.37,15.86,25.37,15.84Z"/><path class="cls-2" d="M24.7,16.55c-.05-.51.16-.71.67-.64C25.43,16.41,25.2,16.62,24.7,16.55Z"/><path class="cls-1" d="M25.11,34.32c.32.23.62.44,1,.67V36.3C25.11,36,25.39,35,25.11,34.32Z"/><path class="cls-1" d="M25,34.25l0,0s.05.07.05.12Z"/><path class="cls-1" d="M25.06,34.2l0,0v-.07S25,34.2,25.06,34.2Z"/><path class="cls-1" d="M24.74,68.18c.1.11.19.25.3.36a1.29,1.29,0,0,1-.23.12C24.79,68.52,24.77,68.34,24.74,68.18Z"/><path class="cls-1" d="M24.86,47.58a1.74,1.74,0,0,0-.12-.14c.05,0,.1-.09.12-.09s.09.07.11.11Z"/><path class="cls-1" d="M25,34.18c-.53-.18-.28-.62-.3-1C25.23,33.4,25,33.81,25,34.18Z"/><path class="cls-1" d="M24.67,68.11l0,0a.25.25,0,0,0,0,.12A.23.23,0,0,0,24.67,68.11Z"/><path class="cls-1" d="M24.67,33.17l0-.05v.07A.08.08,0,0,0,24.67,33.17Z"/><path class="cls-1" d="M24.72,68.06l0,0s0-.12,0-.16Z"/><path class="cls-1" d="M24.72,33.12l0,.05v-.09S24.7,33.1,24.72,33.12Z"/><path class="cls-2" d="M24.56,59.91a.3.3,0,0,0,.16,0l0,.07Z"/><path class="cls-2" d="M24.67,25.07l0-.05a.76.76,0,0,0,.14.11A.35.35,0,0,1,24.67,25.07Z"/><path class="cls-2" d="M24.7,25l0,.05h0l0,0A.08.08,0,0,1,24.7,25Z"/><path class="cls-2" d="M24.65,16.55h.05v0Z"/><path class="cls-2" d="M24.65,16.62s0-.05,0-.07l.05,0S24.67,16.62,24.65,16.62Z"/><path class="cls-1" d="M24.67,33.08c-.73-.56-.23-1.27,0-1.91Z"/><path class="cls-1" d="M24,61.69a3.06,3.06,0,0,1,.16-.74c.32.58.46.74.44.83s-.23.18-.35.27C24.19,61.92,24.05,61.82,24,61.69Z"/><path class="cls-2" d="M24.17,59.66a2.17,2.17,0,0,0,.39.25,3.85,3.85,0,0,1-.48,0C24.1,59.82,24.15,59.75,24.17,59.66Z"/><path class="cls-2" d="M24.56,59c-.44.3-.92.57-1.24,0Z"/><path class="cls-1" d="M24,66.63c-.16-1.35.11-2.76-.05-4.16.62.85.28,1.84.39,2.74s.19,1.82.3,2.74A3.66,3.66,0,0,1,24,66.63Z"/><path class="cls-2" d="M23.32,59h-.07l0-.05S23.32,58.92,23.32,59Z"/><path class="cls-2" d="M23.29,58.9l0,.05-.07-.05Z"/><path class="cls-2" d="M22.79,34.41l-.51.44c.07-.21.16-.42.23-.62C22.6,34.3,22.7,34.34,22.79,34.41Z"/><path class="cls-1" d="M22.24,63.16l0,0Z"/><path class="cls-2" d="M22.28,34.85s0,.07,0,.11l0,0S22.26,34.87,22.28,34.85Z"/><polygon class="cls-1" points="22.21 63.14 22.23 63.16 22.21 63.16 22.21 63.14"/><path class="cls-2" d="M22.24,35s0,0,0,0v-.07Z"/><path class="cls-2" d="M22.24,42.49a3.59,3.59,0,0,1-1-3.36,8.55,8.55,0,0,0,.27-2.4A1.91,1.91,0,0,1,22.19,35a1.42,1.42,0,0,1,0,.46c-.51,2.3-.32,2.8,1.56,4.46-.64-.25-1.29-.53-1.95-.8a1.2,1.2,0,0,0-.09,1.49c.25.44.5.88.89,1.59.58.3,1.41.72,2.21,1.11A2.31,2.31,0,0,1,22.24,42.49Z"/><path class="cls-2" d="M21.15,63.53l0-.05.25.16A2,2,0,0,1,21.15,63.53Z"/><path class="cls-2" d="M21.18,63.48l0,.05h0l-.05-.05Z"/><path class="cls-1" d="M23.25,59h.07c.32.57.8.3,1.24,0H23.32s0,0,0-.05h-.11Zm-4.93-8.5a7.57,7.57,0,0,1,.83-3.68,3.49,3.49,0,0,1,2-2,1.35,1.35,0,0,1,.34.16c.74.94,2.16,1.17,2.67,2.34s.76,2.17,1.13,3.2c.94.6,1.82,1.13,2.78,1.73,0,2.58,1.36,4,4,4.3.21.49.39,1,.6,1.48.9.2,1.8.41,2.78.66.07.49.17,1,.24,1.57l.57.09h0c.21.3.44.62.69,1A8.8,8.8,0,0,0,38,65.69a2.56,2.56,0,0,1,.11.94l-.64-.25s0,0,0-.07a.18.18,0,0,1,0-.09,2.84,2.84,0,0,1,0-.51l-.25.07a2.63,2.63,0,0,0,.3.44v.14l.07,0A5.38,5.38,0,0,0,40.14,70c.28.78-.37,1.06-.69,1.47a3.15,3.15,0,0,1-3.57-1.26c-2.32,1.4-4.88,1.61-7,.23a7.51,7.51,0,0,1-3.5-7.5c.67.53.67.53.69,2.48.3.55.6,1.08.9,1.61s.58,1.38,1.5,1.34c0,0,0,0,0,0l.09,0c.07.23.12.53.28.64.81.62,1.63,1.22,2.3,1.68h2.26v-.57h0l.09-.07a3.83,3.83,0,0,0,.51,0L34,69.88l-.44.28a.3.3,0,0,1-.13,0v0l-1.38.16c-.35-.19-.83-.44-1.36-.74l.83-.3c-1-.3-1.94-.58-2.93-.87,0,0,0,0,0-.07h-.09a10.07,10.07,0,0,1-1.89-4.9c.19-.14.46-.35.74-.53-.33-.17-.62-.3-1.34-.63,1-.18,1.5-.3,2.24-.43l-1.43-.33c0-1.15,1-.75,1.59-1.05-.51-.21-1-.44-1.39-.6-.36.16-.73.3-1.4.57l1.5-2.81a.65.65,0,0,1-.19-.18,2.64,2.64,0,0,0-.73.48c-.53.63-1,1.29-1.5,1.94a.3.3,0,0,1-.16,0,2.17,2.17,0,0,1-.39-.25c0,.09-.07.16-.09.23a3.85,3.85,0,0,0,.48,0l.11.1,0-.07c0,.34-.07.69-.11,1.08-.17-.05-.3-.05-.42-.09a.48.48,0,0,1-.14,0c-.66-.51-1.15-1.24-2.11-1.45-.42-.09-.72-.76-1.06-1.2.2,0,.46,0,.55.12a1.82,1.82,0,0,0,1.73.55A7.86,7.86,0,0,1,18.69,53C18.55,52.16,18.46,51.28,18.32,50.45Z"/><path class="cls-1" d="M20.88,58.23h-.09l0,0Z"/><path class="cls-1" d="M20.83,58.19l0,0s0,0-.07-.06A.22.22,0,0,1,20.83,58.19Z"/><path class="cls-1" d="M20.72,58.17c-.33-.12-.62-.21-.95-.3v0c0-.18,0-.41.07-.9C20.23,57.47,20.49,57.84,20.72,58.17Z"/><path class="cls-1" d="M19.79,59.06c-.09-.07,0-.27,0-.43a2.77,2.77,0,0,1,.88.36c.94.69,1.88,1.45,2.87,2.24a3.11,3.11,0,0,1-.32.41C21.66,61.25,20.9,59.94,19.79,59.06Z"/><path class="cls-1" d="M19.77,63.48a.08.08,0,0,0,0,.05h-.06Z"/><path class="cls-1" d="M19.77,57.84v0s0,0,0,0v0Z"/><path class="cls-1" d="M19.77,58.56l0,0v-.07S19.75,58.56,19.77,58.56Z"/><path class="cls-1" d="M19.77,58.56v.07s0,0,0,0Z"/><path class="cls-1" d="M19.68,63.48h.09l0,.05Z"/><path class="cls-1" d="M19.06,45.48c0-.57.21-.9.85-1C19.89,45.07,19.5,45.27,19.06,45.48Z"/><path class="cls-1" d="M19.73,58.53a.8.8,0,0,1-.65-1c.21.09.42.23.65.33Z"/><path class="cls-1" d="M19.08,57.47l0,.05v-.07Z"/><path class="cls-1" d="M19.08,57.47v.07l0,0Z"/><path class="cls-1" d="M19,45.51s0,0,0,0v.05Z"/><path class="cls-1" d="M19,45.51l0,0L19,45.6S19,45.53,19,45.51Z"/><path class="cls-1" d="M84.2,48.73a4.94,4.94,0,0,0,1.91-5.14C86.41,45.55,84.86,46.84,84.2,48.73Zm-1,1v0h0a4.15,4.15,0,0,0,.37-.34c0-.09.09-.21.14-.3l-.18.25ZM63.07,58.05S63,58,63,57.91v.23S63.07,58.07,63.07,58.05Zm1.77-1.52c-.53.23-1.06.51-1.86.85a1.48,1.48,0,0,0,1.86-.85s.07,0,.09-.05v-.06c.39-.24.81-.39.83-1a.89.89,0,0,0-.83,1s0,0,0,0S64.86,56.51,64.84,56.53ZM62,58.46V58h-.11v.5ZM58.05,15.7c.9-2.58,2.46-3,4.81-1.57-.21-.32-.41-.64-.57-.9.16-.41.3-.82.43-1.21,0,0,.07,0,.09,0l0,0h1.57c-.54-.23-1.13-.6-1.57,0h-.12s0,0,0,0c-.74-.12-.62.85-1.19.94C59.27,12.34,57.73,13.58,58.05,15.7ZM56.53,31.6a6.91,6.91,0,0,1,1.91-4.19A5.12,5.12,0,0,1,63,26.19c.23.23.49.51.6.63,0,.48,0,.76.1,1.4.5-.88.82-1.4,1.1-1.89.5-.39,1.22-.39,1.56-1.31-.89.42-1.56.71-2.27,1.06l-1-.71c-.69-.12-1.43.25-2.05-.19.18-.57.32-1.06.53-1.66.9-.48,1.87-1,2.81-1.56l-.51-.69c.49-.44.9-.83,1.34-1.22l1.79.34c-.66-1-1.54-.48-2.25-.64L63.5,21c-.37.41-.64,1-1.08,1.24a4,4,0,0,0-2.18,3.5c-2.17.37-3,2-3.71,3.5ZM54,57.66a7.06,7.06,0,0,0,5.41,1.49s.07-.11.14-.2h.07s0-.05,0-.07h1.57c-.53-.23-1.11-.58-1.57,0h-.09a.08.08,0,0,0,0,.07,7.59,7.59,0,0,1-4-1A4.08,4.08,0,0,0,54,57.57.13.13,0,0,0,54,57.66Zm-5.25-3.45h.51v-.12h-.51ZM33.38,23.82a6.69,6.69,0,0,1,1.51-4.46c0-.05,0-.19,0-.28h0c.05,0,.09-.11.14-.16.43-.16.9-.37,1.33-.57,1.11-.53,2.28-.28,3.43-.39.14,0,.23-.19.46-.4-.46-.18-.8-.34-1.17-.5,0-1.85,1.5-2.4,2.67-3.09,1-.32,1.91.83,3,0l-1.41-1.54c.44-.51.83-1,1.23-1.41l-1.06-.18L43,9.35a4.1,4.1,0,0,0,.32-1,4.24,4.24,0,0,1,1.52-2.9c.83-.8,1.8-1.52,2.67-2.23h.09s.05-.05.07-.05l4.1-.46c-.16-.2-.32-.36-.39-.46-.78.1-1.45.21-2.12.23a2,2,0,0,0-1.59.69h-.11l0,.05A2.44,2.44,0,0,0,45.6,4c-.46.46-.9.92-1.36,1.36a5.17,5.17,0,0,0-1.43,5.08A8.59,8.59,0,0,1,43,13c-1.86.46-3.2,1.94-5.06,2.3-.19,0-.35.35-.51.58l0,.05h0c-.35.57-.67,1.17-.87,1.51-.58.63-1,1.06-1.43,1.5a.55.55,0,0,1-.19.09v.07c-.2.05-.46,0-.57.16A4.94,4.94,0,0,0,33.38,23.82ZM26.88,34a3.85,3.85,0,0,0,0,.48,2.7,2.7,0,0,1,.26-.36C27,34,27,34,26.88,34Zm-5.63,5.18a3.59,3.59,0,0,0,1,3.36,2.31,2.31,0,0,0,2.57.81c-.8-.39-1.63-.81-2.21-1.11-.39-.71-.64-1.15-.89-1.59a1.2,1.2,0,0,1,.09-1.49c.66.27,1.31.55,1.95.8-1.88-1.66-2.07-2.16-1.56-4.46a1.42,1.42,0,0,0,0-.46s0,0,0,0,0-.07,0-.11l.51-.44c-.09-.07-.19-.11-.28-.18-.07.2-.16.41-.23.62,0,0-.07,0-.09.07V35a1.91,1.91,0,0,0-.67,1.74A8.55,8.55,0,0,1,21.25,39.13ZM18.32,33.4c-.14-1.66.05-3.32,0-5a12.25,12.25,0,0,1,.94-4A18.58,18.58,0,0,1,21.15,21,12.87,12.87,0,0,0,22,19.11,12.11,12.11,0,0,1,29.65,12a54.37,54.37,0,0,1,5.77-1.66,9.31,9.31,0,0,1,2.79-.07,15.4,15.4,0,0,1,2,.46c.16.32.39.76.65,1.24.14-.11.36-.21.36-.32,0-1.06,0-2.12,0-3,.69-1.25,1.29-2.38,2.05-3.76l5-3.15A12.23,12.23,0,0,0,52,1.22a9.13,9.13,0,0,1,3.45.07,21.28,21.28,0,0,0,2.76.41c.74.56,1.45,1.13,2.19,1.71a5.35,5.35,0,0,1,2.07,3,12.12,12.12,0,0,0,1,2.28c-.05.51-.16,1.29-.26,2.07.12.05.26.14.3.12,2.17-1.41,4-.37,5.76.8a4.3,4.3,0,0,1,2,4.06,9.6,9.6,0,0,0,.35,1.81c.62.05,1.08.07,1.61.12,2,1.84,1.1,4,.53,6.17A4.83,4.83,0,0,1,78.35,23a9.65,9.65,0,0,1,6.7,5,19.23,19.23,0,0,1,1.68,5.57,6.5,6.5,0,0,1-.92,4.3c-.16.3-.33.58-.58,1,1.73.42,1.89,1.59,1.94,3a14.74,14.74,0,0,1-1.22,6c-.53,1.29-1.68,1.85-3,2.67.11-.39.16-.62.2-.82-.73.2-1.45.41-2.21.57a3.52,3.52,0,0,1-3.75-1.22V48.06a.12.12,0,0,0,0-.05,2.75,2.75,0,0,1,.14-.3c-.07.08-.12.17-.19.26v.09c-.43.37-.87.78-1.47,1.29a4.38,4.38,0,0,1-4.23-1.43c.5-.3.94-.55,1.38-.83-.49-.39-.86,0-1.23.19a4.32,4.32,0,0,1-4,.37l0,0h-.07c-.34-.57-.66-1.18-1-1.75a1.31,1.31,0,0,0-.28.12c.14.52.28,1.08.42,1.63h.87s0,0,0,0c-.76.8-.92.82-1.8.5-.51-.18-1.06-.32-1.61-.48,0,0,0-.05-.07-.07l-.07,0c0-.89-.69-1.31-1.36-1.72v-.07s0,0,0,0c.09-1.48-.21-3,.23-4.44-.23.18-.51.39-.51.59,0,1.25,0,2.47,0,3.71,0,0,.14.07.23.14v0s0,0,0,0c0,.32,0,.8.14.85.51.16.53,1,1.22.87v0a.34.34,0,0,0,.14,0c.23.34.48.67.71,1h6.24l2.21,1.52c1-.14,2.23-.28,3.45-.42,2,1.52,2,1.52,5.07,1.13-.58.69-.58.69-4.4.6l-1.38-1.17c.16.73.25,1.19.37,1.68a5.93,5.93,0,0,1-4.1.34c-1.56-.43-1.72-1.93-2.55-2.92-6,1.91-8.15-1.06-8.36-5.87-1,4.83,2.72,8.22,7.69,6.88.71.76.9,1.93,1.93,2.49a5.7,5.7,0,0,0,3.36.69,5.38,5.38,0,0,0,3-1h3.87c1.36.72,1.38,2.17,1.68,3.36.16.67-.32,1.5-.56,2.35a3.66,3.66,0,0,0-2.3-1.43c.39.44.63.69.86.92a6.74,6.74,0,0,0,.69.74v3.18A6.15,6.15,0,0,0,81.16,63a4.51,4.51,0,0,1-1.47,2.12,2.4,2.4,0,0,1-2.72.69c-.9-.35-1.63-.9-1.54-2,0-.07-.14-.14-.3-.27l-.76.94a2.63,2.63,0,0,1-3.32-1.36c-.78.39-1.54.71-2.21,1.13a2.07,2.07,0,0,1-2.44-.14c-.73-.51-1.47-1-2.18-1.57v-.09l-.07,0c-.14-.39-.28-.81-.51-1.52-.23,1,0,1.34.51,1.52,0,0,0,0,0,.07s0,0,0,0c.09,1,1,1.57,1.7,2a16.39,16.39,0,0,0,3.34,1.33,6.88,6.88,0,0,0,2.09.11A4.16,4.16,0,0,1,75,67.46c1.29-.29,2.6-.62,4.42-1h0l.41.52a.22.22,0,0,0-.13.12,14.47,14.47,0,0,0-1,1.54c-.37,1.77.48,3.91-.53,6a9.39,9.39,0,0,1-4.4-2.44c.72.09,1.11.14,1.55.21,0-.18,0-.32-.07-.37a3.86,3.86,0,0,0-.6-.32,2.2,2.2,0,0,1-1.84-1.4c0-.14-.3-.21-.49-.33v-.06s0,0,0,0c.16-.44.69-.85-.12-1.43-.14.56-.55,1,.12,1.43,0,0,0,0,0,.07a.11.11,0,0,0,.07,0c0,.21-.09.49,0,.63.73,1.1,1.54,2.16,2.37,3.31a.58.58,0,0,1-.95.09A13,13,0,0,1,72.34,72a11.13,11.13,0,0,0-.76-1.36V67.83s0,0,0-.07l.09-.07a5,5,0,0,0,.51,0l-.07-.23-.44.27a.24.24,0,0,1-.14,0v.11a1.56,1.56,0,0,0-.3.44,2.26,2.26,0,0,1-2,1.93l-1.42-.46a6,6,0,0,0-.24-.69l-2.34.12v-.72l.64,0v0h.14a4.86,4.86,0,0,1,.41.27,1.15,1.15,0,0,0,.1-.23l-.51,0s-.07,0-.09,0h0V68c-.87-1.17-1.56-2-2.3-3a2.33,2.33,0,0,0,.55,2c-.41.25-1,.43-1.19.78-.95,1.75-2.77,2.25-4.33,3-1,.51-2.65-.64-2.93-1.81,0-.17-.11-.33-.18-.58-1.56.44-3.11.78-4.26-.78.07-.26.12-.53.21-.9H48.41c-.51-.34-.88-.6-1.36-.94-.12-.85-1.22-1.57-.83-2.63l1.7-.83a3,3,0,0,0,3.55-1.19c-.85.32-1.64.59-2.4.89-2.87-1-3.43-1.61-3.52-3.68L47.14,58c-1.59-.53-2.88-.89-4.12-1.4A6.12,6.12,0,0,1,40,54a3.38,3.38,0,0,1,.78.43c1.47,1.66,3.48,2.21,5.5,2.7a2.52,2.52,0,0,0,1.22,0c1.08-.23,2.14-.49,3.18-.81a2.77,2.77,0,0,0,.67-.51l.13,0s0-.05,0-.07c.41,0,.82-.07,1.33-.11.16.44-.14,1.29.69,1.52,0,0,0,0,0,.07a4.07,4.07,0,0,0,.36.36h0v0c-.12-.14-.26-.26-.37-.37l-.07,0c-.09-.65-.23-1.27-.39-2.19a4.85,4.85,0,0,1,.76.6c.9,1.31,2.35,1.84,3.66,2.51A2.09,2.09,0,0,0,59.25,58c1.54-.74,3-1.59,4.58-2.46,0-.21,0-.46-.09-.78-2.58,2.32-5.18,2.11-7.9.53-.23-.67-1-1.09-.85-1.92l.07,0v-.07c.71.09.71-.46.87-1-.69.11-.9.48-.87,1H55a.75.75,0,0,1,0,.11c-1.13.69-2.24,1.41-3.34,2.12a.36.36,0,0,0-.11.23h-.07a.26.26,0,0,0-.09.09,25.31,25.31,0,0,0-2.9.42,6.27,6.27,0,0,1-5.35-1.13,7.19,7.19,0,0,1,1.89.34,2.53,2.53,0,0,0,2.46-.11,8.55,8.55,0,0,1,1.36-.57H44c-.87-1-2.14-1.68-2.53-3.16l-.92-.11c-2.42-1.73-4-3.89-4.07-6.61-.1-2.46.18-5.06,2.18-7.11l-1.12.48c-1,2.21-2.17,4.31-2,6.81a13.4,13.4,0,0,1-.2-3.68c-.21,1.18-1,2.21-.54,3.52a6.47,6.47,0,0,1,.14,1.94c-.18-.28-.36-.58-.8-1.2.18,1,.3,1.59.41,2.17s.25,1.26.37,1.91l-.62-.28v-.07s0-.05-.07-.05a5.9,5.9,0,0,0-.92-2.85c.32.94,0,2.09.92,2.85a.16.16,0,0,1,0,.09s0,0,0,0a.89.89,0,0,0,.67,1v0a6.94,6.94,0,0,0,2,2c-1.29.27-1.87-.86-2.56-1.38s-1.1-1.71-1.72-2.74c-.17.39-.28.66-.37.92a11.88,11.88,0,0,1-4.56.09c-2.16-1.91-2.53-3.5-1.27-6.17-.55.14-1,.09-1.12.76a4.93,4.93,0,0,1-.65,1.13c-1.72-.78-3.52-1.29-3.91-3.41,0-1.29,0-2.58,0-3.87a7.06,7.06,0,0,1,1.29-4c.57-.8.55-.8,1.75-1.24a8.58,8.58,0,0,0,3.63,6.26v.07h0l.27.14a2.07,2.07,0,0,0-.25-.19s0,0-.05,0c.1-.51-.3-.73-.55-1.08a4.54,4.54,0,0,1-.41-.9c.48.32.92.67,1.38,1a6.38,6.38,0,0,1-1.11-3.18s0,0,.05,0v-.16a.14.14,0,0,1-.05.09v0A12,12,0,0,0,25.66,34a9.63,9.63,0,0,1,.28-7c-.16-.14-.34-.33-.53-.49V26.4C26.68,25.59,27,24.1,27.8,23c0,0,.05,0,.08,0v-.09c.22-.21.41-.39.62-.63a.2.2,0,0,1,.11,0v-.07c.51.07.69-.16.64-.65h.05a.13.13,0,0,1,.07,0l1.29-.07c-.21-.25-.32-.37-.51-.58l-.78.65h-.12v0c-.5-.07-.73.14-.64.65,0,0-.05,0-.07,0l0,0c-.47,0-.67.19-.62.63l-.05,0s0,0,0,.05c-.73-.12-.8.64-1.08,1a4.61,4.61,0,0,0-1.31,2.44s0,.05,0,.05l0,0C24,27.92,23.94,29.74,24,31.7c-1.7,0-2.44,1.19-3,2.69-.43-.55-.78-1-1-1.34a11.65,11.65,0,0,0,.18-3.89,5.62,5.62,0,0,1,1.11-3.33l1.52,1.63C22,26,21.45,24.58,22.17,22.7c.55,1,1,1.81,1.42,2.6.44-.12.74-.19,1-.26l0,0h0a.35.35,0,0,0,.17.06A.76.76,0,0,1,24.7,25a.08.08,0,0,0-.07,0,18.71,18.71,0,0,1-1.29-2.85c-.14-.48.3-1.15.57-2.05,0-.09-.16-.51-.27-.9.07-1,1.27-1.54,1-2.62,0,0,0,0,.05,0v0c.5.07.73-.14.67-.64h0s0-.05,0-.07c.21,0,.46,0,.58-.12a5.68,5.68,0,0,1,3.11-1.54H27.07a15.19,15.19,0,0,0-1.47,1.1c-.12.1-.12.35-.17.56h-.06s0,0,0,.07c-.51-.07-.72.13-.67.64h-.05s0,0,0,.07c-1.06.48-1.26,1.61-1.68,2.51a14.11,14.11,0,0,0-.76,2.64.94.94,0,0,1-.14.33,4.28,4.28,0,0,0-1,2.76,8.2,8.2,0,0,0-.5,11c-.3.37-.62.78-1.08,1.33A11.63,11.63,0,0,1,18.32,33.4Z"/><path class="cls-1" d="M18.34,57.13a4.22,4.22,0,0,1,0-.62.79.79,0,0,1,.67.94C18.8,57.36,18.58,57.22,18.34,57.13Z"/><path class="cls-1" d="M18.37,56.44v.07s0,0-.05,0Z"/><path class="cls-1" d="M18.37,56.44l-.05,0s0-.09,0-.13S18.34,56.42,18.37,56.44Z"/><path class="cls-1" d="M18.34,57.13v0l0,0v0S18.32,57.13,18.34,57.13Z"/><path class="cls-1" d="M18.3,56.35A3.87,3.87,0,0,1,18,56a2.42,2.42,0,0,0,.23-.12A4.21,4.21,0,0,1,18.3,56.35Z"/><path class="cls-1" d="M18,53.33c.58.18.39.55.07,1.06Z"/><path class="cls-1" d="M18,53.26v.07a.08.08,0,0,0-.05,0Z"/><path class="cls-1" d="M18,53.24l.05,0-.05.05Z"/><path class="cls-1" d="M17.82,49.37A3.27,3.27,0,0,1,19,45.6c-.09.27-.16.55-.25.85C18.41,47.46,18.09,48.47,17.82,49.37Z"/><path class="cls-1" d="M18,53.24c-.57-.21-.2-.6,0-.92Z"/><path class="cls-1" d="M17.65,57.47c-.09-.16,0-.41,0-.62.24.09.42.21.65.28a2.92,2.92,0,0,0,1,2.26c1.15,1,2.3,2,3.59,3.12.09.37-.07.72-.72.63a8.67,8.67,0,0,0-1.06-1A9.93,9.93,0,0,1,17.65,57.47Z"/><path class="cls-1" d="M17.61,56.83v-.07s0,0,0,0v0Z"/><path class="cls-1" d="M17.61,56.83l0,0v0S17.63,56.83,17.61,56.83Z"/><path class="cls-1" d="M17.61,56.76c-.6-.18-.21-.58,0-.92Z"/><path class="cls-1" d="M17.54,50.2c0,.37.07.76.09,1.13a.82.82,0,0,0-.23,0V50.2Z"/><path class="cls-1" d="M17.65,60c-.39-.6-.71-1.2-1-1.78V56.92a1.49,1.49,0,0,0,.25-.07c.48,1,.9,2,1.43,2.9a6.43,6.43,0,0,0,3.93,3.41h0l0,0c.2.21.44.42.76.72-.53.23-1,.43-1.57.69C21,64,20,64.47,19.79,63.53c.44,0,.86-.05,1.29-.05l.05.05h0a2,2,0,0,0,.28.11l-.25-.16h-.1a5.06,5.06,0,0,0-.57-.44A7.14,7.14,0,0,1,17.65,60Z"/><path class="cls-1" d="M18.51,63.48c-.65-1-1.34-2.09-2.14-3.38,1.24.16,1.24,1.19,1.81,1.68a12.76,12.76,0,0,1,1.5,1.7Z"/><path class="cls-1" d="M16.55,58.19s.05,0,.05,0h0Z"/><path class="cls-1" d="M10.24,60l1.59-1.61c.32-.16.9-.48,1.55-.85-.74-.65-1.37-1.22-2-1.73a11.87,11.87,0,0,1-.26-4.67c.33-1.8,1.68-2.37,2.79-3.43h1.66a13.33,13.33,0,0,1,.07,4.63,8.09,8.09,0,0,0,.87,5.89c0,.11.05.25,0,.34-.32.65-.94,1.25-.64,2a6.12,6.12,0,0,0,1.65,2.9,5.84,5.84,0,0,0,4.12,1.43c.35,0,.69,0,1.15,0v2.81c.74,1.54,1.29,2.74,1.87,3.91-1.45,1.36-3.27,1.38-5.8.05-.42-.83-.86-1.71-1.27-2.56.12-.53.23-1,.37-1.54a1,1,0,0,0-.37,0,3.09,3.09,0,0,1-3.82.19A11.83,11.83,0,0,1,11.28,66a4.31,4.31,0,0,1-1.08-3.39A25.41,25.41,0,0,0,10.24,60Z"/><path class="cls-1" d="M10.24,60l0,0v0Z"/><path class="cls-1" d="M9.53,63.25c-1.11-1-.6-2-.69-3h0c.22-.57.48-1.15.69-1.72,0,0,0,0,0,0,.53-.3,1.06-.62,1.66-1,.13,1.15-1.25,1.45-1,2.46a1.06,1.06,0,0,0-.67,1.2C9.55,61.8,9.53,62.42,9.53,63.25Z"/><path class="cls-2" d="M9.53,58.53s0,0,0,0h0v0S9.51,58.53,9.53,58.53Z"/><path class="cls-1" d="M9.48,57.61v1c-.18.09-.41.18-.62.29.14-.43.26-.85.39-1.28A.93.93,0,0,1,9.48,57.61Z"/><path class="cls-2" d="M8.86,58.85s0,.07,0,.1l-.05-.05S8.84,58.88,8.86,58.85Z"/><path class="cls-2" d="M8.84,59H8.79V58.9Z"/><polygon class="cls-1" points="8.82 60.3 8.84 60.3 8.82 60.33 8.82 60.3"/><path class="cls-2" d="M8.84,59s0-.07,0-.1c.21-.11.44-.2.62-.29v0h0c-.21.57-.47,1.15-.69,1.72v0h0V59Z"/><polygon class="cls-1" points="8.82 60.33 8.79 60.35 8.79 60.33 8.82 60.33"/><path class="cls-1" d="M8.79,59v1.38c-.18.09-.39.16-.64.27V59C8.4,59,8.61,59,8.79,59Z"/><path class="cls-2" d="M86.34,63.09c-.76-.25-1.57-.65-2,.37C85,63.34,85.67,63.2,86.34,63.09ZM75.77,74.18h-.55v.14h.55Zm-1.26-8.93-1.36.1c.8.43,1.49.8,2.3,1.21C75.52,65.9,75,65.65,74.51,65.25ZM70.69,64l-1.75,1a7.23,7.23,0,0,0,3.08.21C71.49,64.72,71.1,64.38,70.69,64ZM68,70.92c-.65-.81-1.29-1.34-2.46-.83a17.24,17.24,0,0,0,2.67,1.4,2.39,2.39,0,0,0,2.67-.57Zm-2.79-1.11c-.48-.62-.87-1.13-1.26-1.61C64,69.28,64,69.28,65.25,69.81ZM45,71.7c-.07.41-.09.71-.14,1.08a3,3,0,0,0,2.86,1.82c-.51.53-.88.92-1.22,1.26a3.26,3.26,0,0,0,5.4.58c-1.52-1.08-3-2.21-2.9-4.4C47.58,71.77,46.33,70.64,45,71.7Zm0-13.44c-.53.41-.76.82-.18,1.31v.07c.11.11.25.23.37.37s0,0,0,0c0,.34-.23.78.3.94V61l.35.37c.11.12.23.23.34.37l.07,0s0,0,0,0v0c-.12-.14-.23-.25-.35-.37L45.53,61s-.05,0-.05,0c0-.34.23-.78-.3-.94V60a2.59,2.59,0,0,0-.37-.37l0,0C44.84,59.13,44.91,58.69,45,58.26Zm-1.1.23H44v-.56h-.14Zm.23,13.14c-.69,1.31-.12,2.39.57,3.47h.65C44.15,74.18,44.42,72.8,44.08,71.63ZM44,59.06c-.23.74-.62,1.54.39,1.91a.11.11,0,0,1,0,.07h0a0,0,0,0,0,0,0c-.07.69.39,1,1.08,1.32a1.7,1.7,0,0,0-1.08-1.32V61l-.07,0C44.29,60.35,44.15,59.68,44,59.06Zm-4.93-5.18c-.66,1,.16,1.71.14,2.4,1,.5,1.91,1,2.83,1.45a.84.84,0,0,0,1.25-.44C41.45,56.71,40.28,55.36,39.08,53.88ZM38.14,66.7a2.71,2.71,0,0,0,.32.88,9.54,9.54,0,0,0,4.7,3c1.84,0,1.84,0,2.67-.6a9.08,9.08,0,0,0-1.06-.09c-2.46-.16-4.6-.88-6.08-3C38.6,66.75,38.35,66.75,38.14,66.7Zm0-15.21a.16.16,0,0,0-.09,0s0,0,0,.07h.12a3.9,3.9,0,0,0,.36.25.72.72,0,0,0,.12-.25h-.48Zm-.56,1.38s.12-.09.12-.12-.07-.09-.12-.13ZM39.66,73a10.59,10.59,0,0,1-2,1.24c.55.62.94,1.36,1.52,1.63a22,22,0,0,0,3.27,1c.82-.3,1.54-.53,2.27-.8-1.08-1.29-2-2.51-1.33-4.42-.83-.28-1.66-.58-2.39-.81A14,14,0,0,1,39.66,73Zm-3.2-24.1c.39.34.67.57.9.81v.06h0s0,0,.07.05,0-.05-.05-.07v0l0,0C37.43,49.23,37.33,48.89,36.46,48.89Zm-.83-.21h-.05v0l.1.09c.23.64.44,1.31.64,2h0v0s0,0,0,.05,0,0,.07,0v0a8.25,8.25,0,0,1,.86.37l.8.27a17.12,17.12,0,0,0-2.32-2.62A.78.78,0,0,1,35.63,48.68Zm-2.58,1.93c-1.19.4-2.25.76-3.4,1.13,0,1.15-.16,2.28.78,3.22s2.14.93,3.54.35c-.52.65-.87,1-1.26,1.5.34.37.67.71.92,1h1.93c0-.56.09-1.06.16-1.94a3.68,3.68,0,0,0,2.37,3c0,1.22,0,2.39,0,3.57a3.3,3.3,0,0,0,.37,1.47,5.56,5.56,0,0,0,3,2.95,15.7,15.7,0,0,1,1.93,1c.65-.32,1.36-.69,1.89-.94V63.2c-.53-.48-1.22-1.12-1.77-1.65-.3-1.2-.53-2.19-.81-3.34H39.36c-2.19-2.12-2.19-2.14-2.42-4.58-.62-.39-1.38-.78-2-1.29S33.58,51.12,33.05,50.61Zm-6.4-.41-.23.28c.23.09.44.18.65.25l.07.09h.09a4.39,4.39,0,0,1,.39.28c.05-.09.07-.19.12-.28h-.51l-.07,0a.2.2,0,0,1-.09-.05C26.93,50.54,26.79,50.39,26.65,50.2ZM25.46,60.9c.16.14.32.28.46.42a1.35,1.35,0,0,0,.16-.19l-.44-.41C25.57,60.79,25.53,60.84,25.46,60.9Zm-.72-13.46a1.74,1.74,0,0,1,.12.14l.11-.12s-.06-.11-.11-.11S24.79,47.42,24.74,47.44ZM24.19,61a3.06,3.06,0,0,0-.16.74c0,.13.16.23.25.36.12-.09.33-.16.35-.27S24.51,61.53,24.19,61ZM24,62.47c.16,1.4-.11,2.81.05,4.16A3.66,3.66,0,0,0,24.65,68s0,.11,0,.16a.23.23,0,0,1,.07.07c0,.16.05.34.07.48a1.29,1.29,0,0,0,.23-.12c-.11-.11-.2-.25-.3-.36a.25.25,0,0,1,0-.12L24.65,68c-.11-.92-.21-1.82-.3-2.74S24.58,63.32,24,62.47ZM18.32,33.4a11.63,11.63,0,0,0,1.18,3.77c.46-.55.78-1,1.08-1.33a8.2,8.2,0,0,1,.5-11,4.28,4.28,0,0,1,1-2.76.94.94,0,0,0,.14-.33A14.11,14.11,0,0,1,23,19.13c.42-.9.62-2,1.68-2.51.26,1.08-.94,1.61-1,2.62.11.39.23.81.27.9-.27.9-.71,1.57-.57,2.05A18.71,18.71,0,0,0,24.63,25c-.3.07-.6.14-1,.26-.41-.79-.87-1.59-1.42-2.6-.72,1.88-.14,3.29.53,4.76l-1.52-1.63a5.62,5.62,0,0,0-1.11,3.33,11.65,11.65,0,0,1-.18,3.89c.25.35.6.79,1,1.34.6-1.5,1.34-2.65,3-2.69,0-2,.07-3.78,1.45-5.21.19.16.37.35.53.49a9.63,9.63,0,0,0-.28,7,12,12,0,0,1,1.13.59,6.38,6.38,0,0,0,1.11,3.18c-.46-.32-.9-.67-1.38-1a1,1,0,0,1-.05-.11c-.11-.12-.23-.23-.35-.35l0,0V35c-.35-.23-.65-.44-1-.67,0,0,0-.07-.05-.12s0,0,0,0c0-.37.21-.78-.3-1v-.07s0,0,0,0V31.17c-.23.64-.73,1.35,0,1.91v.09a.08.08,0,0,1,0,0c0,.37-.23.81.3,1v.07l.09.07c.28.67,0,1.63,1,2v.07l.34.34.1.07a4.54,4.54,0,0,0,.41.9c.25.35.65.57.55,1.08a8.58,8.58,0,0,1-3.63-6.26c-1.2.44-1.18.44-1.75,1.24a7.06,7.06,0,0,0-1.29,4c0,1.29,0,2.58,0,3.87.39,2.12,2.19,2.63,3.91,3.41a4.93,4.93,0,0,0,.65-1.13c.16-.67.57-.62,1.12-.76-1.26,2.67-.89,4.26,1.27,6.17a11.88,11.88,0,0,0,4.56-.09c.09-.26.2-.53.37-.92.62,1,1,2.14,1.72,2.74s1.27,1.65,2.56,1.38a6.94,6.94,0,0,1-2-2h0v0l.6.21c0-.07.11-.16.16-.23l-.76-.62v-.09l-.07,0c-.12-.65-.25-1.27-.37-1.91s-.23-1.18-.41-2.17c.44.62.62.92.8,1.2V47h0c0,.66-.23,1.4.64,1.7,0-.58,0-1.13,0-1.7h0v-.07H36v0h0s0,0,0,0a5.25,5.25,0,0,1,.28.59v.12l.07.07a4.64,4.64,0,0,1,.09.46.85.85,0,0,0,.23-.12c-.12-.11-.21-.23-.32-.34s0-.07,0-.12,0,0,0-.07c0-.27.07-.52-.28-.59,0,0,0-.05,0-.07h0c0-.3,0-.62,0-1H35.7c0,.33-.05.62-.05,1h0V47h-.67v-.07s0,0,0-.07a6.47,6.47,0,0,0-.14-1.94c-.5-1.31.33-2.34.54-3.52a13.4,13.4,0,0,0,.2,3.68c-.16-2.5,1-4.6,2-6.81l1.12-.48c-2,2-2.28,4.65-2.18,7.11.09,2.72,1.65,4.88,4.07,6.61l.92.11c.39,1.48,1.66,2.12,2.53,3.16h4.88a8.55,8.55,0,0,0-1.36.57,2.53,2.53,0,0,1-2.46.11,7.19,7.19,0,0,0-1.89-.34L43,55l-.34-.34a.13.13,0,0,1-.1,0c-.52-.76-1.08-1.49-1.74-2.46-.12,0-.51-.16-1.11-.34.6,1.58,1.36,2.6,2.85,2.8,0,0,0,0,0,.07l.35.35.13,0a6.27,6.27,0,0,0,5.35,1.13,25.31,25.31,0,0,1,2.9-.42,2.77,2.77,0,0,1-.67.51c-1,.32-2.1.58-3.18.81a2.52,2.52,0,0,1-1.22,0c-2-.49-4-1-5.5-2.7A3.38,3.38,0,0,0,40,54a6.12,6.12,0,0,0,3,2.62c1.24.51,2.53.87,4.12,1.4l-1.59.37c.09,2.07.65,2.63,3.52,3.68.76-.3,1.55-.57,2.4-.89a3,3,0,0,1-3.55,1.19l-1.7.83c-.39,1.06.71,1.78.83,2.63.48.34.85.6,1.36.94h3.08c-.09.37-.14.64-.21.9,1.15,1.56,2.7,1.22,4.26.78.07.25.14.41.18.58.28,1.17,1.94,2.32,2.93,1.81,1.56-.76,3.38-1.26,4.33-3,.2-.35.78-.53,1.19-.78v0l.07,0c.16.47.28.9.41,1.34h.58v0h0v.72l2.34-.12a6,6,0,0,1,.24.69l1.42.46a2.26,2.26,0,0,0,2-1.93,1.56,1.56,0,0,1,.3-.44v2.83A11.13,11.13,0,0,1,72.34,72a13,13,0,0,0,1.45,1.91.58.58,0,0,0,.95-.09c-.83-1.15-1.64-2.21-2.37-3.31-.12-.14-.05-.42,0-.63.19.12.44.19.49.33a2.2,2.2,0,0,0,1.84,1.4,3.86,3.86,0,0,1,.6.32s0,.19.07.37c-.44-.07-.83-.12-1.55-.21a9.39,9.39,0,0,0,4.4,2.44c1-2,.16-4.19.53-6a14.47,14.47,0,0,1,1-1.54.22.22,0,0,1,.13-.12l.46-.2c-.16.36-.34.76-.53,1.12-.85,1.43-.57,3.94.63,4.89A17,17,0,0,0,82.66,74c-1,.07-1.75.12-2.72.16.48,1,.9,1.87,1.22,2.58,1.86,1,3.54,2,5.29.07a8.51,8.51,0,0,0-.83-.88,5,5,0,0,1-1.88-3.38c-.21-1.38-.42-2.81.55-4V72.2c.32.63.62,1.18.94,1.78.67.23,1.18,1.36,2.26.57-.37-.64-.74-1.31-1.11-2a10.49,10.49,0,0,1,1.75,1.61c.51.46.78,1.43,1.89,1.13-2.67-2.37-3.31-4.05-2.53-7v2.3c0,.51.16.9.69,1v.07h.07a3.48,3.48,0,0,0,2.62,2.62c-.71-.85-1.45-1.72-2.21-2.57-.07-.1-.25-.05-.41-.05s0,0,0,0a.07.07,0,0,1,0,0c-.05-1,.25-2-.28-3a1.15,1.15,0,0,1,0-.69c.16-1,.34-2,.53-3.29.11-.11.41-.36.82-.73,0,.41.07.69,0,.85a7.27,7.27,0,0,0-.64,4.07c0,1.8.36,2.3,2.21,3.45-.19-.39-.33-.64-.44-.87a8.6,8.6,0,0,1-1-2.19,9.81,9.81,0,0,1,1.15-6.21,1,1,0,0,1,1.4-.64c-1.45,1.4-1.24,3.1-1.17,4.78a11.53,11.53,0,0,0,1,1.59c.67.78,1.29,1.82,2.16,2.16,1.34.53,2.77,1.29,4.33.49.3-.16.78,0,1.27,0v2.48a4.57,4.57,0,0,0,4.9,1.52,4.73,4.73,0,0,0,4.42,1.56c.27-.18.6-.41.87-.62,1.45-.11,2.9.3,4.24-.73.14,2.09-1.18,3-2.63,3.77.37.65,1,.51,1.45.44a5.31,5.31,0,0,0,3.34-1.31,1.61,1.61,0,0,1,1-1.8c2.11.9,5-.5,6-2.95.92-2.18.23-4.21-1.24-6a5.73,5.73,0,0,0-3.84-2L115,67c.42.69.42,1.11-.3,1.36a3.74,3.74,0,0,0-3-2.35l-1.52.88-.13-.16c.23-.37.48-.72.71-1.06-.35-.74-.67-1.41-1-2.1.23.07.53.12.62.28a19,19,0,0,1,.94,1.77,4.84,4.84,0,0,1,3.5,1c.33-.48.62-.94,1-1.47-.44-1.2-.88-2.37-1.27-3.41-1-.51-1.72-1.2-2.9-.83-.07-.78-.16-1.45-.23-2.23l-2-2.4-1.66-.39a4.64,4.64,0,0,1-.21-2.35c.44-1.58-.71-2.71-1.2-4-1.72-1.38-3.45-2.74-5.86-2.58-.92.05-1.87,0-2.7,0-.64.25-1.15.53-1.7.69a3.87,3.87,0,0,0-3,3.08c-.09.4-.32,1-.53,1-1.19.09-1.24,1.27-2,1.86v2.49c-1.59-.18-2.69.78-4,1.36-.18,1.22-1.51,2-1,3.66l.9-1.38v2.44c.83-.9,1.15-2,2.46-2.17-.58.76-1,1.41-1.5,2-.71.76-.89,1.45-.09,2.26.16.18.12.6.16.92l-.23.07c-.32-.53-.62-1.06-.94-1.57l-2.58.83c.18-.32.37-.62.58-.94h.06s0-.05,0-.05h-.07s0,0,0,.05c-.21,0-.42-.05-.6-.05a1.7,1.7,0,0,1,1.38-1.08c.41-.07.9-.37.39-1.13-.71.48-1.4.92-2.12,1.38,0-1.1,1.15-1.08,1.57-1.7-.14-1.24.66-2.58-.46-3.89-.67.78-1.27,1.47-1.87,2.19,0,3.06-.92,5.61-3.08,7.16h0c-1.82.43-3.13.76-4.42,1a4.16,4.16,0,0,0-3.69-1.52,6.88,6.88,0,0,1-2.09-.11,16.39,16.39,0,0,1-3.34-1.33c-.73-.42-1.61-1-1.7-2,.71.53,1.45,1.06,2.18,1.57a2.07,2.07,0,0,0,2.44.14c.67-.42,1.43-.74,2.21-1.13a2.63,2.63,0,0,0,3.32,1.36l.76-.94c.16.13.3.2.3.27-.09,1.15.64,1.7,1.54,2a2.4,2.4,0,0,0,2.72-.69A4.51,4.51,0,0,0,81.16,63a6.15,6.15,0,0,1,.67-1.33V58.51a6.74,6.74,0,0,1-.69-.74c-.23-.23-.47-.48-.86-.92a3.66,3.66,0,0,1,2.3,1.43c.24-.85.72-1.68.56-2.35-.3-1.19-.32-2.64-1.68-3.36H77.59a5.38,5.38,0,0,1-3,1,5.7,5.7,0,0,1-3.36-.69c-1-.56-1.22-1.73-1.93-2.49-5,1.34-8.7-2-7.69-6.88.21,4.81,2.39,7.78,8.36,5.87.83,1,1,2.49,2.55,2.92a5.93,5.93,0,0,0,4.1-.34c-.12-.49-.21-1-.37-1.68l1.38,1.17c3.82.09,3.82.09,4.4-.6-3.11.39-3.11.39-5.07-1.13-1.22.14-2.41.28-3.45.42l-2.21-1.52H65c-.23-.32-.48-.65-.71-1,.55.16,1.1.3,1.61.48.88.32,1,.3,1.8-.5a4.32,4.32,0,0,0,4-.37c.37-.21.74-.58,1.23-.19-.44.28-.88.53-1.38.83a4.38,4.38,0,0,0,4.23,1.43c.6-.51,1-.92,1.47-1.29v1.08A3.52,3.52,0,0,0,81,50.36c.76-.16,1.48-.37,2.21-.57,0,.2-.09.43-.2.82,1.29-.82,2.44-1.38,3-2.67a14.74,14.74,0,0,0,1.22-6c0-1.45-.21-2.62-1.94-3,.25-.43.42-.71.58-1a6.5,6.5,0,0,0,.92-4.3A19.23,19.23,0,0,0,85.05,28a9.65,9.65,0,0,0-6.7-5,4.83,4.83,0,0,0-4.58.86c.57-2.21,1.43-4.33-.53-6.17-.53-.05-1-.07-1.61-.12a9.6,9.6,0,0,1-.35-1.81,4.3,4.3,0,0,0-2-4.06c-1.73-1.17-3.59-2.21-5.76-.8,0,0-.18-.07-.3-.12.1-.78.21-1.56.26-2.07a12.12,12.12,0,0,1-1-2.28,5.35,5.35,0,0,0-2.07-3C59.68,2.83,59,2.26,58.23,1.7a21.28,21.28,0,0,1-2.76-.41A9.13,9.13,0,0,0,52,1.22a12.23,12.23,0,0,1-3.75.53l-5,3.15c-.76,1.38-1.36,2.51-2.05,3.76,0,.89,0,1.95,0,3,0,.11-.22.21-.36.32-.26-.48-.49-.92-.65-1.24a15.4,15.4,0,0,0-2-.46,9.31,9.31,0,0,0-2.79.07A54.37,54.37,0,0,0,29.65,12,12.11,12.11,0,0,0,22,19.11,12.87,12.87,0,0,1,21.15,21a18.58,18.58,0,0,0-1.91,3.45,12.25,12.25,0,0,0-.94,4C18.37,30.08,18.18,31.74,18.32,33.4ZM18,52.32c-.2.32-.57.71,0,.92v.07a.08.08,0,0,1,.05,0l.07,1.06c.32-.51.51-.88-.07-1.06v-.07l-.05,0Zm1-6.72a3.27,3.27,0,0,0-1.17,3.77c.27-.9.59-1.91.92-2.92.09-.3.16-.58.25-.85l.07-.07v-.05c.44-.21.83-.41.85-1-.64.13-.9.46-.85,1,0,0,0,0,0,0S19,45.58,19,45.6Zm-1.36,5.73c0-.37-.07-.76-.09-1.13H17.4v1.15A.82.82,0,0,1,17.63,51.33Zm-8.79,9c.09.93-.42,2,.69,3,0-.83,0-1.45,0-2.07A1.06,1.06,0,0,1,10.2,60v0l0,0a25.41,25.41,0,0,1,0,2.62A4.31,4.31,0,0,0,11.28,66a11.83,11.83,0,0,0,2.53,1.82,3.09,3.09,0,0,0,3.82-.19,1,1,0,0,1,.37,0c-.14.53-.25,1-.37,1.54.41.85.85,1.73,1.27,2.56,2.53,1.33,4.35,1.31,5.8-.05-.58-1.17-1.13-2.37-1.87-3.91V64.91c-.46,0-.8,0-1.15,0a5.84,5.84,0,0,1-4.12-1.43,6.12,6.12,0,0,1-1.65-2.9c-.3-.8.32-1.4.64-2,.05-.09,0-.23,0-.34l0,0h0c.34.58.66,1.18,1,1.78a7.14,7.14,0,0,0,2.86,3,5.06,5.06,0,0,1,.57.44c-.43,0-.85,0-1.29.05a.08.08,0,0,1,0-.05h-.09a12.76,12.76,0,0,0-1.5-1.7c-.57-.49-.57-1.52-1.81-1.68.8,1.29,1.49,2.39,2.14,3.38h1.17l.05.05h.06c.21.94,1.25.48,1.66,1.06.56-.26,1-.46,1.57-.69-.32-.3-.56-.51-.76-.72l0,0,0,0c.65.09.81-.26.72-.63-1.29-1.12-2.44-2.11-3.59-3.12a2.92,2.92,0,0,1-1-2.26l0,0v0c.24.09.46.23.7.32v.07l0,0a.8.8,0,0,0,.65,1v.07s0,0,0,0-.07.36,0,.43c1.11.88,1.87,2.19,3.41,2.58a3.11,3.11,0,0,0,.32-.41c-1-.79-1.93-1.55-2.87-2.24a2.77,2.77,0,0,0-.88-.36v-.07s0,0,0,0v-.66s0,0,0,0v0c.33.09.62.18.95.3,0,0,0,0,.07.06h.09c.34.44.64,1.11,1.06,1.2,1,.21,1.45.94,2.11,1.45a.48.48,0,0,0,.14,0c.12,0,.25,0,.42.09,0-.39.09-.74.11-1.08.48-.65,1-1.31,1.5-1.94a2.64,2.64,0,0,1,.73-.48.65.65,0,0,0,.19.18l-1.5,2.81c.67-.27,1-.41,1.4-.57.37.16.88.39,1.39.6-.55.3-1.55-.1-1.59,1.05l1.43.33c-.74.13-1.27.25-2.24.43a2.25,2.25,0,0,1,.42-.18c-.49-.25-.65-.39-.74-.37s-.28.23-.25.32a.45.45,0,0,0,.34.28.74.74,0,0,0,.23,0c.72.33,1,.46,1.34.63-.28.18-.55.39-.74.53a10.07,10.07,0,0,0,1.89,4.9c-.92,0-1.15-.72-1.5-1.34s-.6-1.06-.9-1.61c0-1.95,0-1.95-.69-2.48a7.51,7.51,0,0,0,3.5,7.5c2.07,1.38,4.63,1.17,7-.23a3.15,3.15,0,0,0,3.57,1.26c.32-.41,1-.69.69-1.47a5.38,5.38,0,0,1-2.71-3.66l.64.25v.07h0v0s0,0,0,0a2.56,2.56,0,0,0-.11-.94A8.8,8.8,0,0,1,37,61.34c-.25-.37-.48-.69-.69-1,0,0,0,0,0-.05h1l-.62-.66s0,0,0,0l.58,0,.06-.28L36.39,59l0,0v0l-.07-.09-.06-.48-.23.11.29.37a.22.22,0,0,1,0,.14l.09,0c.12.21.21.44.3.62h0l0,0-.67,0c.12.26.19.44.28.62h0l0,.05-.57-.09c-.07-.53-.17-1.08-.24-1.57-1-.25-1.88-.46-2.78-.66-.21-.51-.39-1-.6-1.48-2.67-.25-4-1.72-4-4.3-1-.6-1.84-1.13-2.78-1.73-.37-1-.69-2.14-1.13-3.2s-1.93-1.4-2.67-2.34a1.35,1.35,0,0,0-.34-.16,3.49,3.49,0,0,0-2,2,7.57,7.57,0,0,0-.83,3.68c.14.83.23,1.71.37,2.56a7.86,7.86,0,0,0,4.47,5.89,1.82,1.82,0,0,1-1.73-.55c-.09-.12-.35-.09-.55-.12l-.05,0a.22.22,0,0,0-.11,0c-.23-.33-.49-.7-.88-1.23-.05.49-.05.72-.07.9h0v0c-.23-.1-.44-.24-.65-.33v-.07l0,0a.79.79,0,0,0-.67-.94v-.07s-.05-.07-.07-.09a4.21,4.21,0,0,0-.09-.49A2.42,2.42,0,0,1,18,56a3.87,3.87,0,0,0,.32.37s0,.09,0,.13.05,0,.05,0a4.22,4.22,0,0,0,0,.62s0,0,0,0v0c-.23-.07-.41-.19-.65-.28v-.07s0,0,0,0v-.92c-.21.34-.6.74,0,.92v.07s0,0,0,0c0,.21-.09.46,0,.62a9.93,9.93,0,0,0,3.5,4.63,8.67,8.67,0,0,1,1.06,1v0a6.43,6.43,0,0,1-3.93-3.41c-.53-.94-1-1.93-1.43-2.9a1.49,1.49,0,0,1-.25.07v1.31s0,0-.05,0a8.09,8.09,0,0,1-.87-5.89,13.33,13.33,0,0,0-.07-4.63H14c-1.11,1.06-2.46,1.63-2.79,3.43a11.87,11.87,0,0,0,.26,4.67c.59.51,1.22,1.08,2,1.73-.65.37-1.23.69-1.55.85L10.24,60l0,0c-.26-1,1.12-1.31,1-2.46-.6.39-1.13.71-1.66,1,0,0,0,0,0,0v-1a.93.93,0,0,0-.23,0c-.13.43-.25.85-.39,1.28,0,0,0,0-.07,0V59c-.18,0-.39,0-.64,0V60.6c.25-.11.46-.18.64-.27v0l0,0ZM2,61.46a9.21,9.21,0,0,1,.43-1.68c.74-2.08,1.8-3.87,4-4.79a12.74,12.74,0,0,0,1.66-.9c-.3-2.42,0-4.56,1.89-6.15s3.95-1.79,6.3-1.84c.56-1.86,2-2.83,3.59-3.66-.07-.92-.13-1.79-.16-2.35A25.71,25.71,0,0,1,18,36.92c-.87-2.76-1.63-5.57-1.08-8.54A16.72,16.72,0,0,1,19.73,21a6.9,6.9,0,0,0,1.13-2.11,11.12,11.12,0,0,1,4.92-6.15c1.15-.73,2.53-1.15,3.73-1.86a14.23,14.23,0,0,1,4.3-1.29A9,9,0,0,1,39,9.53a2.69,2.69,0,0,0,.85,0c.26-.39.6-.69.67-1.06a9.15,9.15,0,0,1,4-5.66A10.66,10.66,0,0,1,49.19.62,25.73,25.73,0,0,0,51.86,0h3.86c.6.18,1.18.44,1.75.58a8.32,8.32,0,0,1,6.29,5.91c.3,1,.62,1.86,1,3,.37,0,.87.07,1.38.07a6.68,6.68,0,0,1,6,3.75,8.52,8.52,0,0,1,.41,2.79c.51.27,1.18.6,1.91,1,.3.59.65,1.26,1,2.05v2.5c1.36.21,2.69.33,4,.65a9.08,9.08,0,0,1,5.85,3.84,12.25,12.25,0,0,1,2.21,6.12c.07,1.06,0,2.12,0,3.18a4,4,0,0,1-.76,2.74A3.94,3.94,0,0,1,88.29,42c-.09.81.07,1.66,0,2.46a11.41,11.41,0,0,1-.55,2,8.1,8.1,0,0,0-.48,2.49l-4.68,3.47a5.29,5.29,0,0,1,1.57,3.94l1.82.35c1.22-.62,2.46-1.25,3.63-1.82A24.56,24.56,0,0,1,90.5,52a3.09,3.09,0,0,1,1.41-1.22,20,20,0,0,1,.78-1.93,5.5,5.5,0,0,1,3.94-2.65,12.91,12.91,0,0,1,6.56,0,7.79,7.79,0,0,1,5.47,8.59,6.47,6.47,0,0,1,3.92,4.81,10.46,10.46,0,0,1,1.72.78,3.63,3.63,0,0,1,1.87,2.6,16.35,16.35,0,0,0,.6,2.19,6.94,6.94,0,0,0,1.17,0c2.6-.36,4.14,1.11,5.43,3.09.3.46.53,1,.81,1.52v3.86a2.36,2.36,0,0,0-.32.58A4.82,4.82,0,0,1,120,77.66c-1,.16-1.94.3-2.79.46-1.18,1.84-2.3,3.59-4.79,3.62-.25,0-.5.25-.76.36-.41.21-.8.44-1.24.62-1.93.83-4,.6-6.1.3a6,6,0,0,1-4.44,2.28,9.89,9.89,0,0,1-5-.69,5.24,5.24,0,0,1-2.33-2.3,8.82,8.82,0,0,1-6.19-.48c-.21.16-.34.25-.46.36-2.16,2.47-7.23,2.51-9-.3-.17-.25-.65-.32-1.06-.52a6.63,6.63,0,0,1-2.83,3.15c-.63.3-1.29.53-1.94.78a9.55,9.55,0,0,1-6.54.12c-1.4-.46-2.73-1.2-4.3-1.89-2.25,1-4.7,2-7.34,1.13A14,14,0,0,1,47.12,87a23.74,23.74,0,0,0-2.33.53H40.93c-.37-.09-.72-.25-1.09-.32-1.72-.26-3.5-.51-4.83-1.78-1.15-1.1-2.46-2.11-2.79-3.68a16.79,16.79,0,0,1-4-1.43,13.93,13.93,0,0,1-2.72-2.87,23.28,23.28,0,0,1-3.15.76c-1.68.2-3.45.41-5-.4a3.36,3.36,0,0,0-3.15-.16,4.9,4.9,0,0,1-4.51-.53,15.28,15.28,0,0,1-1.34-.8c-.44,0-.85,0-1.24,0-2.81-.28-5.85-1.93-6-5.85A1.61,1.61,0,0,0,0,68.8V65.62c.67-.78,1.36-1.54,1.82-2.05C1.91,62.68,1.91,62.05,2,61.46Z"/></g></g></g></svg>