<svg xmlns="http://www.w3.org/2000/svg" viewBox="0 0 65.51 85.98"><defs><style>.cls-1{fill:#d3d0ce;opacity:0.6;}.cls-1,.cls-2,.cls-3{fill-rule:evenodd;}.cls-2{fill:#f5333f;}.cls-3{fill:#003e52;}</style></defs><title>moon_classic</title><g id="Layer_2" data-name="Layer 2"><g id="Layer_1-2" data-name="Layer 1"><path class="cls-1" d="M63.91,47.71c0,16-12.54,29-28,29H29.53c-15.46,0-28-13-28-29v-6.6c0-16,12.54-29,28-29h6.38c15.46,0,28,13,28,29Z"/><path class="cls-2" d="M32.76,77.72s3.51,6.91,4.91,8l-.32-28.54L33,52.73Z"/><path class="cls-2" d="M26.4,86,26,57.16l5.61-4.43V78.05S27.4,86,26.4,86Z"/><path class="cls-3" d="M32.41,0h.14l0,.06c.25.76.5,1.53.74,2.3.05.14.06.29.11.43.13.35.28.69.4,1,.24.76.46,1.52.69,2.29.06.18.13.36.19.55.17.53.32,1.06.49,1.59a3.82,3.82,0,0,1,.28,1.56c0,.2-.05.4-.08.62a5.89,5.89,0,0,1-2.25-2.18,1.47,1.47,0,0,0-.06.94c0,.3-.05.61-.05.92s.07.59.1.92c.58,0,1.15,0,1.72,0a9.84,9.84,0,0,0,1.8,0,1,1,0,0,1,.24,0h.66a4.1,4.1,0,0,1,.7,0c.39.06.77.16,1.16.24l1.74.32a.41.41,0,0,1,0,.09l-.3.19a1,1,0,0,0,0,.1l.48.15,1,.29.72.24,1.14.42.56.16a2.23,2.23,0,0,1,.44.13,3.69,3.69,0,0,0,.93.34,1.44,1.44,0,0,1,.4.22l.69.4c.11.06.24.08.35.13s.43.24.65.33a11.45,11.45,0,0,1,1.89,1.09c.24.15.46.32.68.48a7.37,7.37,0,0,1,1,.67,5.55,5.55,0,0,1,1.26,1.11s.06,0,.09.06.28.2.41.31.5.48.77.7a3.25,3.25,0,0,1,.79.78,1.45,1.45,0,0,0,.39.39,13.43,13.43,0,0,1,1.92,1.85.38.38,0,0,1,.06.31c0,.06-.17.1-.26.1a3,3,0,0,1-.59-.06c-.37-.07-.75-.11-.92-.56a1.41,1.41,0,0,0-.45-.52.94.94,0,0,1-.38-.6.55.55,0,0,0-.61-.52.41.41,0,0,1-.4-.33,2.45,2.45,0,0,1-.08-.37c-.06-.36-.11-.4-.47-.42-.14,0-.28,0-.42,0a.41.41,0,0,1-.4-.55,2.49,2.49,0,0,0,0-.34,5.1,5.1,0,0,0-.81-.14c-.36,0-.68,0-.82-.43a.18.18,0,0,0-.07-.08.49.49,0,0,1-.16-.55c.08-.3,0-.41-.31-.46a5.27,5.27,0,0,0-1-.06.57.57,0,0,1-.55-.29,2.73,2.73,0,0,0-.7-.81A3.77,3.77,0,0,0,47,14.77a6.5,6.5,0,0,1-1.45-.65A2,2,0,0,0,45,13.9a3.07,3.07,0,0,1-.63-.18,1.28,1.28,0,0,0-1.32-.05.56.56,0,0,1-.56.05,3.69,3.69,0,0,0-1.39-.43,1,1,0,0,0-1,.23c-.08.09-.25.1-.39.12l-.9.07-1.14.06a1.55,1.55,0,0,1-.39-.09.44.44,0,0,1,.36-.36,2.6,2.6,0,0,1,1.24,0,1.7,1.7,0,0,0,.55,0c.09,0,.16-.13.25-.2-.07-.07-.13-.18-.21-.2a6.63,6.63,0,0,0-.89-.16,1.93,1.93,0,0,1-.71-.12.58.58,0,0,0-.39,0,.45.45,0,0,1-.45-.09,1.22,1.22,0,0,0-.79-.24h-1.6c-.25,0-.49.06-.73.05-.87,0-1.74-.1-2.61-.11s-1.44,0-2.16.06a.71.71,0,0,0-.39.1,1.24,1.24,0,0,1-.91.22,4.1,4.1,0,0,0-.92.14,2.92,2.92,0,0,0-1.35.38,1.25,1.25,0,0,1-.45.14c-.19,0-.4,0-.49.26a1,1,0,0,0,1.25-.11.64.64,0,0,1,.59-.21,3.53,3.53,0,0,0,.65,0,1.29,1.29,0,0,1,1,.21,1.29,1.29,0,0,0,1.07.24,2.76,2.76,0,0,1,1.07,0,4.25,4.25,0,0,0,.8.06c.17,0,.34-.05.51-.05.37,0,.73.06,1.08.06l2.13-.06.87,0a7.85,7.85,0,0,0,1,0,.43.43,0,0,1,.48.22c.07.11.18.23.28.24a4.63,4.63,0,0,0,1.17.07,3.22,3.22,0,0,1,.93.05c.22,0,.26.13.2.42H39.5A16.57,16.57,0,0,1,37,14.62a1,1,0,0,1-.22-.09,3.56,3.56,0,0,0-.92-.27c-.86,0-1.73,0-2.59,0-.18,0-.37,0-.55,0-.73,0-1.46-.08-2.19-.1a7.27,7.27,0,0,0-1.14.07c-.29,0-.62,0-.86.25a.61.61,0,0,1-.69.14.51.51,0,0,0-.34,0,8,8,0,0,0-.79.36c-.05,0-.08.11-.14.22.25,0,.44.08.63.09A3,3,0,0,0,28.45,15a1.15,1.15,0,0,1,.61-.07,2.48,2.48,0,0,0,.9,0,12.36,12.36,0,0,1,2.64-.24c.89,0,1.77,0,2.66,0a3,3,0,0,1,1,.18,5.76,5.76,0,0,0,1.83.35,2.17,2.17,0,0,1,.9.22,1.91,1.91,0,0,0,.53.16c.41.06.82.08,1.24.14.15,0,.36,0,.38.27a.28.28,0,0,1-.12.08.21.21,0,0,1-.13.05,4.41,4.41,0,0,1-2.24-.29,1.08,1.08,0,0,0-.51-.1,4.94,4.94,0,0,1-1.38-.13.48.48,0,0,0-.17,0l-.71-.06-.58-.08-.79-.13-.75-.15c-.15,0-.3,0-.45,0a12.18,12.18,0,0,0-1.35,0,1,1,0,0,0-.79.31,1.5,1.5,0,0,0,1.13.32,5.08,5.08,0,0,1,1,0c.29,0,.57,0,.86-.06s.64,0,.71.48a5.56,5.56,0,0,0,.58,0c.25,0,.48-.06.73-.06.55,0,1.11.05,1.67.06s.61,0,.94.49l1.51.08a1.12,1.12,0,0,1,.68.21,2,2,0,0,0,.55.2,5.29,5.29,0,0,1,.57.15c.09,0,.15.14.25.25a1.28,1.28,0,0,1-.82.1,1.73,1.73,0,0,0-.51,0,.25.25,0,0,0-.14.19.26.26,0,0,0,.17.17,2,2,0,0,0,.48.07.41.41,0,0,1,.41.22c.11.29.33.32.59.3h.25c.32,0,.39.14.33.5a1.25,1.25,0,0,1-.81,0,.41.41,0,0,1-.35-.3.41.41,0,0,0-.25-.19,1.28,1.28,0,0,0-.34,0,.76.76,0,0,1-.72-.34.37.37,0,0,0-.21-.16,2.46,2.46,0,0,0-1.37.08s-.1.05-.22.1c.18.12.26.2.35.21a4.39,4.39,0,0,0,.89.06c.29,0,.33,0,.45.25a.45.45,0,0,0,.42.25l.62.08c.24,0,.26.07.21.38-.41,0-.83.13-1.25,0a2.93,2.93,0,0,1-.12-.28l-.08,0c-.48,0-1,0-1.43,0a.71.71,0,0,0-.28.13.28.28,0,0,0,0,.09l.37.11a4.5,4.5,0,0,1,1.79.51c.08.06.2,0,.3.08a1.62,1.62,0,0,1,.55.18,3.83,3.83,0,0,0,1,.4l1,.32a1.34,1.34,0,0,0,.27.07,1.33,1.33,0,0,1,.55.26c.45.32.9.73,1.54.41a.44.44,0,0,1,.55.06,1.33,1.33,0,0,0,.67.33,1.2,1.2,0,0,1,.27.16c-.12.36-.19.4-.48.32a.65.65,0,0,1-.45-.3.36.36,0,0,0-.35-.18c-.28,0-.43.21-.43.54s0,.22.4.24a1.18,1.18,0,0,1,1,.45,3,3,0,0,0,.68.59c.42.32.85.63,1.28.94.08.05.16.11.24.15l1.06.58a.34.34,0,0,1,.12.12c.3.6.95.82,1.38,1.29.21.23.46.42.67.65s.6.71.9,1.06.78.89,1.15,1.35a6.27,6.27,0,0,0,.65.94,10.87,10.87,0,0,1,1.15,1.48c.36.46.65,1,1,1.47a5,5,0,0,1,.66,1.25,4,4,0,0,0,.33.61c.23.44.46.88.68,1.33a.38.38,0,0,1,0,.24,1,1,0,0,0,.17.59,1.77,1.77,0,0,1,.15.31c.18.57.36,1.15.53,1.72a.92.92,0,0,1,0,.37c0,.15,0,.3.16.33s.32.31.37.57l-.23.09c0,.29.19.39.42.45,0,.15.07.29.1.42l-.38.21c0,.22.08.44.11.65l.49.06.12.53-.31.12,0,.27.36.06c0,.2.07.4.1.6L60.8,45c0,.11,0,.21,0,.3l.45.15c0,.2,0,.36.07.54L61,46c0,.13,0,.24,0,.35l.39.18,0,.56-.67.1a3.17,3.17,0,0,1,.14.37l.59,0c0,.25,0,.48,0,.75l-.42.09c-.15,0-.22.09-.15.27l.55.07v.61l-.57.14V50l.59.17c0,.21,0,.38-.06.56l-.75.05c0,.18,0,.34,0,.47.61.17.75.25.57.72L61,52l-.36,0v.48c.37.27.35.37-.19.73,0,.15,0,.3-.05.45l.69.16L61,54.2l-.65,0c-.09.3-.18.53.12.74s.07.3-.14.34l-.28.05c0,.3-.15.58,0,.87s-.05.27-.19.32a2.08,2.08,0,0,1-.3,0,5.46,5.46,0,0,0-.19.66.36.36,0,0,0,.38.46,1.27,1.27,0,0,0,.36-.12,1.15,1.15,0,0,0,.14.19c.11.08.24.13.35.21a.55.55,0,0,0,.78-.09c.17-.26.08-.53-.23-.73A3.23,3.23,0,0,1,60.9,57a.29.29,0,0,1,0-.09,1.71,1.71,0,0,1,.3-.09c.19,0,.38,0,.56,0s.4-.19.35-.35-.1-.59-.46-.69c-.11,0-.2-.14-.28-.21,0-.24.18-.28.35-.22s.32.11.49.15a.38.38,0,0,0,.51-.37.8.8,0,0,0-.54-.77c-.2-.06-.36-.14-.41-.34a.42.42,0,0,1,.43-.26.73.73,0,0,0,.66-.45,1.3,1.3,0,0,1,.22-.38.73.73,0,0,0,.22-.87.54.54,0,0,1,0-.1c-.06-.44,0-.56.3-.69a.27.27,0,0,0,.2-.29c-.08-.44-.06-.92-.61-1.13a.32.32,0,0,1-.19-.5.46.46,0,0,1,.6-.19,1,1,0,0,1,.2.14.23.23,0,0,0,.34,0,.36.36,0,0,0,.07-.31,2.59,2.59,0,0,0-.34-.52c-.15-.19-.34-.35-.5-.54a.29.29,0,0,1,0-.41c.12-.14.26-.2.42-.09a2.83,2.83,0,0,1,.28.2l.32.27a.36.36,0,0,0,.31-.37.47.47,0,0,0-.28-.41l-.13,0c-.46-.09-.58-.47-.66-.85a.42.42,0,0,1,.17-.34c.08-.06.23,0,.35,0s.08,0,.12.07a.27.27,0,0,0,.37-.06c.11-.13,0-.24,0-.35a1.36,1.36,0,0,0-.12-.12.48.48,0,0,1,0-.69,1.45,1.45,0,0,1,.17-.18.39.39,0,0,0,0-.54,1.41,1.41,0,0,1-.13-.24.43.43,0,0,1,.19-.51c.18-.11.3,0,.43.1l.34.38v.84c0,.14-.05.27-.07.4,0,.29,0,.57-.08.86,0,.13,0,.25,0,.38,0,.49,0,1-.07,1.46,0,.32,0,.65-.07,1a3.06,3.06,0,0,1-.17.59,3.51,3.51,0,0,0-.26.56c-.18.73-.33,1.47-.47,2.21A5.5,5.5,0,0,1,64,53.26a4.94,4.94,0,0,0-.19.49c-.21.61-.39,1.23-.63,1.83s-.53,1.28-.81,1.92a7.78,7.78,0,0,1-.68,1.39c-.51.75-.87,1.58-1.41,2.31-.41.54-.73,1.15-1.09,1.72a1.88,1.88,0,0,1-.16.23L58,64.44a15.36,15.36,0,0,1-1.39,1.74,3.17,3.17,0,0,0-.39.34c-.35.39-.58.9-1.12,1.1l0,0c-.35.33-.7.68-1.06,1l-1.51,1.28a5.39,5.39,0,0,1-.6.47c-.71.45-1.43.89-2.12,1.38a28.85,28.85,0,0,1-11.84,5l-.29.08c0,.46,0,.9,0,1.33s.06.7.06,1c0,.87.07,1.74.06,2.61,0,1.29,0,2.56,0,3.84a.29.29,0,0,1-.16.31h-.14c-.15-.2-.26-.47-.46-.59a1.46,1.46,0,0,1-.61-.65c-.59,0-.38-.5-.55-.84l0,.25a2.57,2.57,0,0,1-.46-.7c-.16-.36-.14-.8-.55-1,0,0-.05-.05-.07-.08-.17-.38-.33-.77-.5-1.14s-.34-.66-.51-1a2.17,2.17,0,0,0-.24-.29c-.26-.26-.25-.63-.4-.94a.63.63,0,0,1-.06-.5c0-.19.09-.38-.13-.54-.08.1-.19.18-.22.28a.6.6,0,0,1-.54.39.74.74,0,0,0-.77.45c-.05.11-.27.14-.44.22a1.22,1.22,0,0,0,0,.33.87.87,0,0,1-.12.69c-.16.29-.35.57-.49.87a10,10,0,0,1-1.11,1.75c-.24.31-.46.64-.73.93a3.66,3.66,0,0,0-.58.72,1.82,1.82,0,0,1-.59.67.28.28,0,0,0-.12.16.6.6,0,0,1-.39.41,1.5,1.5,0,0,0-.23.15H26.4c0-.4-.09-.8-.13-1.21s-.05-.62-.06-.93,0-.79,0-1.18c0-1,0-1.91-.05-2.86,0-.32.07-.65,0-1a3.8,3.8,0,0,1,.05-.89,12.87,12.87,0,0,0,0-1.39l-.44-.12A27.39,27.39,0,0,1,22,75.26a28.81,28.81,0,0,1-6.44-3.47c-.1-.07-.23-.18-.33-.16a.5.5,0,0,1-.47-.21c-.25-.25-.47-.52-.72-.75-.44-.39-.9-.77-1.36-1.15l-.32-.26c-.59-.47-1.2-.91-1.76-1.41s-.95-.94-1.43-1.42L7.94,65.18a2.11,2.11,0,0,1-.39-.5,4,4,0,0,0-.65-1,4.93,4.93,0,0,1-.63-.74c-.32-.44-.6-.91-.91-1.35a6.56,6.56,0,0,1-.52-.69c-.28-.53-.51-1.07-.75-1.61-.08-.16-.13-.34-.2-.51a1.33,1.33,0,0,0-.21-.39A4.72,4.72,0,0,1,3,57.18c-.21-.51-.45-1-.68-1.52A7.51,7.51,0,0,1,2,55c-.19-.57-.36-1.15-.54-1.73-.12-.38-.23-.77-.33-1.15a8.47,8.47,0,0,0-.46-1.78.77.77,0,0,1-.07-.63c0-.08,0-.19,0-.28a10.84,10.84,0,0,1-.24-2.06,1.14,1.14,0,0,0-.07-.41,3.33,3.33,0,0,1-.19-1.33,4.36,4.36,0,0,0,.06-.49c0-.35,0-.71-.06-1.07,0-.1-.06-.2-.08-.3V40.58a.83.83,0,0,0,.08-.22,3.45,3.45,0,0,1,.16-.85,3.69,3.69,0,0,0,.23-1.18A4.62,4.62,0,0,1,.73,37,5.44,5.44,0,0,0,1,36.17a8.8,8.8,0,0,1,.27-1.28c.15-.42.28-.83.41-1.25s.29-.76.41-1.15a16.31,16.31,0,0,1,.55-1.67A25.47,25.47,0,0,1,3.8,28.36a1,1,0,0,0,.1-.18c.24-.5.49-1,.75-1.49a6.38,6.38,0,0,1,.43-.63c.18-.24.38-.46.55-.7.29-.41.57-.82.86-1.22.11-.15.3-.26.37-.42a4.48,4.48,0,0,1,.78-1c.47-.57,1-1.1,1.5-1.65l.06-.08c.47-.47.91-1,1.4-1.4s.88-.74,1.33-1.11A18.82,18.82,0,0,1,13.59,17a21.31,21.31,0,0,1,2.27-1.4.38.38,0,0,0,.15-.09c.61-.63,1.49-.77,2.19-1.24l.07,0a8.93,8.93,0,0,0,1.85-.87,1.28,1.28,0,0,1,.62-.19,2,2,0,0,0,.8-.19c.5-.21,1-.41,1.52-.6a.88.88,0,0,1,.23-.07,7.75,7.75,0,0,0,1-.22c.31-.11.64-.22.77-.54h1.83l.39,0a3,3,0,0,1,.52,0A2.89,2.89,0,0,0,29,11.44c.21-.06.43-.09.65-.13L31.19,11V9.75a.34.34,0,0,0,0-.14.81.81,0,0,1,0-.61.37.37,0,0,0-.08-.41c-.27.3-.45.72-1,.77,0,.1-.07.23-.11.36s-.29.37-.45.55a8.27,8.27,0,0,0-.46.69,5.49,5.49,0,0,1-.4.43c-.3-.14-.33-.24-.23-.5A8.32,8.32,0,0,0,29,9.63a2.12,2.12,0,0,1,.22-.42l.39.1a3.6,3.6,0,0,0,.23-.49c.18-.61.34-1.21.52-1.82a3.13,3.13,0,0,1,.19-.7A7.65,7.65,0,0,0,31,4.9a2.13,2.13,0,0,0,.31-.57,1.14,1.14,0,0,1,.42-.76.37.37,0,0,0,.1-.49A3.41,3.41,0,0,0,31,4.9c-.11.22-.23.42-.33.64a3.72,3.72,0,0,0-.2.59c-.11.29-.2.58-.32.87s-.14.69-.53.88a.68.68,0,0,1,0-.28c.14-.44.3-.87.45-1.31,0-.06.05-.12.07-.19.16-.55.31-1.11.49-1.66s.42-1.19.62-1.8c.12-.4.21-.81.31-1.21A1.9,1.9,0,0,1,32.41,0ZM48.13,32.89a1.33,1.33,0,0,0,.18.42,5.25,5.25,0,0,0,.69.53c.1.08.21.17.37,0,0-.08-.08-.2-.15-.23a.74.74,0,0,1-.43-.51l-.67-.23c0-.21-.18-.27-.34-.35a.52.52,0,0,1-.29-.2.43.43,0,0,0-.34-.26.33.33,0,0,1-.28-.27c-.1-.31-.34-.34-.62-.06.06.06.11.13.18.19.35.26.71.5,1,.77A.75.75,0,0,0,48.13,32.89Zm-25.5-13.6-.27,0a.89.89,0,0,0-1,.5.32.32,0,0,0,0,.27.35.35,0,0,0,.3.09,1.53,1.53,0,0,0,.94-.84,1.2,1.2,0,0,0,.28,0,.5.5,0,0,0,.38-.41c0-.24-.05-.42-.23-.49a.53.53,0,0,0-.62.07C22.5,18.74,22.57,19,22.63,19.29Zm7.89,38.76c0-.17,0-.33-.05-.53l-.38.15a.69.69,0,0,0-.45.49.56.56,0,0,1-.34.43c-.14.29-.25.51-.37.74l.19.17c.36-.13.28-.4.23-.65a1.43,1.43,0,0,1,.26-.19.73.73,0,0,0,.49-.43.3.3,0,0,1,.42-.19c-.05.14.05.15.15.17l.27.11c-.29.16-.5.3-.73.4a.87.87,0,0,0-.49.73c0,.26-.13.43-.33.47-.35.08-.46.4-.72.57-.05,0-.07.17-.05.24a.19.19,0,0,0,.17.13,1,1,0,0,0,.46-.1,2.74,2.74,0,0,0,.86-.73c0-.05.08-.08.12-.12l.23.08a.61.61,0,0,1-.43.69.46.46,0,0,0-.15.09c-.16.16-.43.3-.46.48a.54.54,0,0,1-.48.5.34.34,0,0,0-.27.28,1,1,0,0,0,0,.25c-.29.14-.65.15-.82.49.28,0,.46-.25.73-.14a.56.56,0,0,1,.62-.13l.92-.52c0-.12,0-.31,0-.49s.05-.18.1-.19a.49.49,0,0,1,.25.05s.06,0,.05,0a3.54,3.54,0,0,1,.33-.28.5.5,0,0,0,.15-.85.32.32,0,0,0,.08-.47l-.39.12a.42.42,0,0,1,.18-.56.7.7,0,0,0,.31-1c0-.08-.08-.19-.05-.26A3.92,3.92,0,0,0,31.17,57a1.86,1.86,0,0,0-.06-.29l-.36.46C31,57.68,30.9,57.87,30.52,58.05ZM18.15,19.69l.76-.06a.47.47,0,0,1,.49-.45.78.78,0,0,0,.44-.18,1.8,1.8,0,0,1,.77-.38c.1,0,.22,0,.29-.11a1.65,1.65,0,0,1,.81-.36A3.15,3.15,0,0,0,22,18c-.32-.36-.74-.18-1.07-.31,0-.23.18-.3.35-.36a1.42,1.42,0,0,0,.53-.23.9.9,0,0,1,.6-.29,1.15,1.15,0,0,0,.81-.35,1,1,0,0,1,.41-.15,3.49,3.49,0,0,0,.8-.21,2.33,2.33,0,0,1,.92-.27,1.12,1.12,0,0,0,.78-.3.66.66,0,0,0-.21-.12,7.37,7.37,0,0,0-.82-.13.79.79,0,0,0-.79.32c-.06.11-.25.15-.39.18s-.26,0-.39,0-.38,0-.47.16a.94.94,0,0,1-.63.32c-.37.06-.77.05-1,.41,0,0-.06,0-.09,0a1.55,1.55,0,0,0-.92.47.49.49,0,0,1-.18.08.76.76,0,0,0-.59.46c-.43.07-.91,0-1.19.44,0,.05-.14.05-.22.07-.25.05-.51.09-.62.38a.17.17,0,0,1-.13.1c-.5.06-.72.51-1.1.7,0,.13,0,.23,0,.34l-.42,0c-.2,0-.41,0-.5.29,0,.07-.13.13-.21.15a.72.72,0,0,0-.46.36.19.19,0,0,1-.12.11,1.69,1.69,0,0,0-.77.51c-.14.13-.32.29-.55.17,0-.2,0-.39,0-.57s-.06-.23-.12-.25-.19,0-.28.08-.1.1-.15.14a.3.3,0,0,1-.39.08c-.05-.17-.08-.37.06-.48a5.89,5.89,0,0,1,.55-.49c.37-.22.56-.62,1-.77a2.65,2.65,0,0,0,.57-.37c.09-.06.19-.12.22-.21a.68.68,0,0,1,.38-.33,1.83,1.83,0,0,0,.3-.18c-.11-.18-.21-.22-.35-.15a2.7,2.7,0,0,0-.34.17l-1,.68a9.06,9.06,0,0,0-1.34,1c-.27.29-.37.28-.67,0l-.15-.13-.32.11c-.35.12-.41.31-.26.65a2,2,0,0,1,.16.49.31.31,0,0,1-.28.37.61.61,0,0,0-.52.44c-.11.25-.28.29-.5.12A.56.56,0,0,0,9,22a1.13,1.13,0,0,1-.29.33,2.62,2.62,0,0,0-.6.69.86.86,0,0,1-.36.39.89.89,0,0,0-.3.31.7.7,0,0,0,0,.53.79.79,0,0,1-.24.91.91.91,0,0,0-.28.39.84.84,0,0,1-1,.63c-.22,0-.33.07-.29.3a2.08,2.08,0,0,0,.12.32c.19.47,0,.77-.44.87a2,2,0,0,1-.35,0l-.29.09.28.53a.64.64,0,0,1-.55.5A.4.4,0,0,0,4.1,29c-.19.39-.46.77-.24,1.24,0,0,0,0,0,.08s-.07.08-.12.12-.14.11-.21.17a.29.29,0,0,0-.13.36c.15.42.15.43-.22.66-.16.1-.25.22-.18.4a1.27,1.27,0,0,0,.5.69,1.21,1.21,0,0,1,.39.42.47.47,0,0,1-.08.55c-.13.14-.27.07-.42,0l-.26-.09c-.38-.15-.58,0-.6.38,0,.19,0,.4,0,.59a.58.58,0,0,1-.29.52c-.38.23-.44.44-.25.87s.28.58.41.86c-.12.2-.25.17-.39.07s-.31-.13-.4,0a.81.81,0,0,0-.14.51.55.55,0,0,1-.16.54.49.49,0,0,0-.13.54.54.54,0,0,1,0,.43c-.15.31-.12.39.19.58.48-.18.51-.18.73.15a.53.53,0,0,1-.34.37q-.37.19-.75.42a2.62,2.62,0,0,0-.25.22.56.56,0,0,0,.45.29c.23,0,.48.09.6.35s0,.41-.24.44l-.37,0c-.08.4-.17.75-.22,1.1a.92.92,0,0,0,.06.43A.75.75,0,0,1,1,44a.7.7,0,0,0,0,.76.56.56,0,0,1,0,.76,1.78,1.78,0,0,0-.08.18,2.69,2.69,0,0,0,.2.27.41.41,0,0,1,.07.52,2.6,2.6,0,0,1-.33.43,2.58,2.58,0,0,1-.24.25,1.33,1.33,0,0,1,.24.19,1,1,0,0,1,.29.9c-.07.45,0,.6.48.62a2.22,2.22,0,0,0,.45,0c.16,0,.29,0,.33.19s-.11.24-.24.29a2.11,2.11,0,0,1-.25,0,.58.58,0,0,0-.5.32.5.5,0,0,0,.14.6.56.56,0,0,1,.14.66c-.15.45-.08.61.32.86s.33.23.19.58a.7.7,0,0,0,.14.84.47.47,0,0,1,.2.65.65.65,0,0,0,.36.86c.14.07.27.16.42.25a2.77,2.77,0,0,0-.21.25c-.21.24-.21.38,0,.6a2.14,2.14,0,0,0,.39.28.53.53,0,0,1,.3.6.71.71,0,0,0,.32.75c.2.15.37.34.56.51-.11.16-.22.3-.31.44a.49.49,0,0,0,.58.41l.63-.07a.47.47,0,0,0,.15-.06c.12-.07.22-.16.19-.31a.32.32,0,0,0-.31-.28,1.93,1.93,0,0,0-.24,0,.69.69,0,0,1-.56-.19l.51-.61c.1-.13.24-.24.18-.43s-.17-.53-.28-.78a.65.65,0,0,0-.41-.4c-.24-.1-.32-.08-.45.15a2.92,2.92,0,0,1-.23.28.71.71,0,0,1,.13-.57c.14-.28.29-.55.42-.83a.38.38,0,0,0-.08-.45A1.08,1.08,0,0,0,4,53.82l-.61-.11c-.24,0-.25,0-.2-.34h.3a3.25,3.25,0,0,0,.54,0,.42.42,0,0,0,.39-.29.55.55,0,0,0-.23-.58,1.55,1.55,0,0,0-.22-.12c-.32-.18-.34-.33-.07-.58A.87.87,0,0,1,4,51.69a.39.39,0,0,0,.21-.44A8.43,8.43,0,0,1,4,49.75a3.51,3.51,0,0,0-.3-.7.41.41,0,0,1,.07-.11.6.6,0,0,0,.08-.74.65.65,0,0,1-.09-.3c0-.14,0-.33.06-.42a.48.48,0,0,0,0-.71,1.45,1.45,0,0,1-.12-.19.51.51,0,0,1,.08-.18.62.62,0,0,0,.08-.68,1,1,0,0,1,0-.38v-.4a2.44,2.44,0,0,1,0-.86A1,1,0,0,0,3.7,43a.45.45,0,0,1-.09-.54c.1-.21.27-.17.44-.17s.36-.11.32-.27-.07-.57-.38-.7a.43.43,0,0,1-.3-.46c0-.22.17-.33.38-.4a1.63,1.63,0,0,0,.34-.22c-.09-.16-.17-.28-.23-.4a.56.56,0,0,1,.05-.7,1.49,1.49,0,0,0,.23-.64A.44.44,0,0,0,4.19,38l-.33-.2c.18-.24.39-.19.57-.18a.39.39,0,0,0,.43-.27c.09-.23.19-.45.29-.67s.13-.45-.26-.57a.49.49,0,0,1-.33-.57c.09-.44.21-.55.67-.61a2.67,2.67,0,0,0,.38-.09,2.66,2.66,0,0,1-.15-.71,2,2,0,0,1,.22-.51A3.09,3.09,0,0,0,5.91,33a1,1,0,0,1,.6-.79A.88.88,0,0,0,6.8,32a.23.23,0,0,0,0-.38c-.1-.07-.21-.1-.31-.16a2.18,2.18,0,0,1-.26-.21c.28-.24.67-.2.86-.52,0-.05-.06-.11-.11-.14A.48.48,0,0,1,6.87,30c.17-.29.34-.58.53-.85a1.65,1.65,0,0,1,.32-.26l.32.21a.57.57,0,0,0,.28.11A5.81,5.81,0,0,0,9,29.12.46.46,0,0,0,9.32,29a.66.66,0,0,0-.05-.39.45.45,0,0,0-.21-.17,4.56,4.56,0,0,0-.52-.18c-.25-.06-.3-.15-.24-.39.14-.45.29-.56.76-.54h.28c.31,0,.45-.14.29-.42A.64.64,0,0,1,9.81,26s0-.06.06-.08a.45.45,0,0,1,.6-.19.47.47,0,0,0,.46-.06c.16-.12.21-.26.08-.41a.44.44,0,0,1,0-.58c.12-.21.3-.17.51-.15.52.07.72-.05.87-.55l-.29-.21c-.26-.2-.26-.35,0-.55a1,1,0,0,0,.17-.12l.22-.3c-.19-.18-.54-.17-.44-.48s.32-.23.55-.25v.48c.38,0,.73-.06.94-.36s.36-.51.71-.55c0,0,.08-.08.12-.12l.37-.31.21-.18.34-.28.36-.27c.1-.07.2-.19.31-.22a.52.52,0,0,0,.42-.52,1.08,1.08,0,0,0,.94-.32c.07-.09.22-.12.33-.18l1-.62a.32.32,0,0,0,.1-.1.55.55,0,0,1,.46-.26c.22,0,.45-.07.53-.36,0-.07.19-.15.28-.15a6.92,6.92,0,0,1,.81.09c.11.2,0,.3-.14.36s-.25.05-.37.09-.34.06-.4.24-.19.22-.34.26-.52.1-.65.39a.35.35,0,0,1-.27.13c-.31,0-.42.19-.49.44a1.21,1.21,0,0,0-1,.41c-.05.06-.16.08-.24.12a1,1,0,0,0-.27.15,1.06,1.06,0,0,1-.55.4c-.16.06-.23.18-.12.4a2.64,2.64,0,0,0,.45-.15c.48-.3.95-.61,1.41-.92C18,20,18.2,19.94,18.15,19.69ZM37.66,75.81h.22a26.78,26.78,0,0,0,8.38-2.87,19.59,19.59,0,0,0,3-1.92,5,5,0,0,0,1-1.07,2.48,2.48,0,0,1,.44-.57,11.55,11.55,0,0,0,1.84-2.3,9.58,9.58,0,0,0,1.32-2.41.79.79,0,0,1,.18-.29,2.85,2.85,0,0,0,.6-1.39,4.63,4.63,0,0,1,.66-1.59,2.92,2.92,0,0,0,.45-1c.08-.36.2-.71.31-1.06a5.81,5.81,0,0,0,.35-1.8,2.1,2.1,0,0,1,.14-.64,1.76,1.76,0,0,0,.12-1.09,12.08,12.08,0,0,1,0-2.25s0-.07,0-.1c.06-.47.1-.94.15-1.4a.43.43,0,0,0,0-.11,4.87,4.87,0,0,1-.22-1.78A8.82,8.82,0,0,0,56.49,49c-.05-.31-.14-.6-.21-.91s-.17-.91-.27-1.36c0-.13-.09-.26-.13-.39-.24-.73-.42-1.48-.72-2.18a30,30,0,0,0-1.73-3.45c-.29-.47-.54-1-.81-1.45a1.46,1.46,0,0,0-.32-.41,1,1,0,0,1-.38-.48,2.92,2.92,0,0,0-.65-.9c-.2-.2-.38-.44-.56-.66A3.85,3.85,0,0,0,50,36a4.94,4.94,0,0,1-.94-.82,8.38,8.38,0,0,0-2-1.6l-.59-.4c-.69-.45-1.36-.93-2.07-1.33S43,31.1,42.21,30.73a14.82,14.82,0,0,0-2.43-.92c-.47-.14-1-.19-1.45-.34-.72-.22-1.44-.42-2.18-.6a14.32,14.32,0,0,0-3-.29c0,.14,0,.26,0,.39,0,.69.06,1.39.06,2.08,0,1.7,0,3.4,0,5.1,0,1.42,0,2.83,0,4.26,0,.27-.05.55-.05.82s.05.58.05.87,0,.82,0,1.23a10.63,10.63,0,0,1,0,2.11,5.4,5.4,0,0,0,0,.8c0,.16,0,.32,0,.48,0,.35,0,.7,0,1.05,0,.54,0,1.08.06,1.63,0,.38,0,.76,0,1.15s0,.67-.05,1a.75.75,0,0,0,.09.29c0,.09.13.16.19.25.19.29.38.57.56.87l.54.87a2.37,2.37,0,0,0,.25.29,1.45,1.45,0,0,1,.18.17,6,6,0,0,1,.63,1,7.59,7.59,0,0,0,.73,1s.09.12.16.13c.42.12.58.5.83.8a.73.73,0,0,1,.12.35c.07.84.16,1.68.19,2.52,0,1.13,0,2.28,0,3.42v3.46c0,.29,0,.59,0,.87,0,.74,0,1.48,0,2.21,0,.44-.12.87-.14,1.31,0,.9,0,1.79-.06,2.68a9.75,9.75,0,0,0,0,1.21C37.51,75.38,37.47,75.64,37.66,75.81ZM31,28.53c-.6,0-1.15.07-1.7.14a2.45,2.45,0,0,0-.54.22,2.54,2.54,0,0,1-.51.17c-.21,0-.42,0-.63,0a3.85,3.85,0,0,0-1.41.31,2.75,2.75,0,0,1-1,.26,1.47,1.47,0,0,0-.72.24,1.89,1.89,0,0,1-1,.31.74.74,0,0,0-.29.08l-1.23.65a3.68,3.68,0,0,1-.35.15,6.52,6.52,0,0,0-1.68.81,4.36,4.36,0,0,1-1.38.85l-.06,0c-.48.33-1,.64-1.45,1-.64.49-1.26,1-1.88,1.54a5.61,5.61,0,0,0-.7.57c-.39.47-.75,1-1.12,1.46-.14.17-.27.34-.4.52a7,7,0,0,0-.47.64c-.13.2-.21.42-.34.61a27.09,27.09,0,0,0-1.63,2.61,5.56,5.56,0,0,0-.32.8,2.06,2.06,0,0,1-.38.77.87.87,0,0,0-.27.66.35.35,0,0,1-.05.2c-.14.39-.3.78-.42,1.17s-.25.92-.37,1.37c-.21.75-.43,1.49-.62,2.24a2.86,2.86,0,0,0-.12,1.51.51.51,0,0,1-.09.32,1.43,1.43,0,0,0-.15.7q0,1-.06,1.95a.92.92,0,0,0,0,.38,1.51,1.51,0,0,1,.14.78c0,.39,0,.79,0,1.18a1.92,1.92,0,0,0,.13.64,1.23,1.23,0,0,1,.1.75,1.24,1.24,0,0,0,.08.74l.06.17c.15.69.3,1.37.44,2.06a8.46,8.46,0,0,0,.6,2c.26.56.44,1.16.7,1.73s.5.88.75,1.32a4.09,4.09,0,0,1,.23.47,2.67,2.67,0,0,0,.49.76,3.37,3.37,0,0,1,.55.75A7.58,7.58,0,0,0,13,68.53a.49.49,0,0,0,.62.21.43.43,0,0,1,.53.16c.07.1.16.19.25.3l-.4.17c.31.33.56.67,1.07.55a.21.21,0,0,1,.18.07c.2.22.57.31.56.7,0,0,.06.09.1.13a4.57,4.57,0,0,0,.47.29c.29.12.61.18.78.48,0,0,.12.06.18.09l.35.17c.83.46,1.64,1,2.5,1.37a11.66,11.66,0,0,0,2.66,1.1l.16.06,1.31.64.13,0c.21,0,.41.08.62.1a.42.42,0,0,0,.27,0,.54.54,0,0,1,.58.1,3.07,3.07,0,0,0,.39.18c0-.28-.06-.49-.07-.69,0-.78,0-1.56-.05-2.33s-.05-1.81-.06-2.72c0-.24,0-.48,0-.73,0-1.11,0-2.22,0-3.33,0-.73,0-1.46.05-2.18v-.11c0-.47-.05-.94-.06-1.41a1.48,1.48,0,0,1,0-.21c0-.28.05-.56,0-.84,0-.43,0-.87-.06-1.31,0-.14,0-.28,0-.42-.05-.39-.11-.78-.15-1.16a3,3,0,0,1,0-.6.34.34,0,0,1,.11-.23,8,8,0,0,1,1.15-.89c.5-.27.78-.79,1.29-1,0,0,.07-.06.1-.1s.34-.38.52-.56a7.4,7.4,0,0,0,1.05-1.25c.18-.28.37-.53.73-.54a1.43,1.43,0,0,0,.2-.89c0-.24,0-.48,0-.72s0-.49,0-.73S31,49.73,31,49.36a4.91,4.91,0,0,1,.11-1.62.28.28,0,0,0,0-.18A3.25,3.25,0,0,1,31.05,46a2.61,2.61,0,0,0,0-.48l0-1.08c0-.14,0-.29,0-.44,0-.43,0-.85,0-1.28s.09-.67.08-1c0-.51-.11-1-.11-1.52a2.33,2.33,0,0,0-.06-1c0-.09,0-.21,0-.31s0-.19,0-.27c0-.39,0-.78-.06-1.17a.82.82,0,0,1,0-.27,3.61,3.61,0,0,0,0-1.39,1.42,1.42,0,0,1,0-.41c0-.5.09-1,.1-1.49S31,33.09,31,32.71c0-.64,0-1.28,0-1.91s.05-1.2.07-1.81C31.06,28.87,31.05,28.74,31,28.53Zm-.15-1.24c-.23.5-.18.68.15.75a1,1,0,0,1,0-.17l0-.19.12,0,.13,0c0-.32,0-.33.27-.41a1,1,0,0,1,.34,0c.49,0,1,0,1.46.06h1.22a2.09,2.09,0,0,1,1.15.23,1.07,1.07,0,0,0,.36.1,5.64,5.64,0,0,1,2.16.61l.07,0,1.84.5a3.81,3.81,0,0,1,1,.33,6.41,6.41,0,0,0,1.13.6c.09,0,.18.1.27.14l1.51.69a.25.25,0,0,0,.33-.11c.07-.1.13-.25.22-.28a.55.55,0,0,1,.37.06,5.7,5.7,0,0,0,1.1.56c.15.4.72.33.86.75,0,0,0,0,.09.05a1.06,1.06,0,0,1,.76.49c0,.05.09.06.13.1l.32.32s.09.12.15.13a.53.53,0,0,1,.46.39c.28.18.52.31.73.47l1,.75.08-.07c-.05-.07-.09-.15-.14-.23l-.23-.34c-.1-.13-.21-.26-.31-.4a1.79,1.79,0,0,0-.85-.71s-.06-.06-.1-.1a2.88,2.88,0,0,0-.34-.27c-.23-.12-.24-.15-.16-.43a.82.82,0,0,1,.76.28c.23.19.54.29.67.6h0c.4.12.57.5.79.78a3.69,3.69,0,0,0,.8.78s.11.07.12.11c.12.46.58.61.82,1s.54.63.78,1,.47.72.72,1.06.45.49.67.75a.92.92,0,0,1,.13.24c.19.4.38.81.58,1.21a.72.72,0,0,0,.18.21.63.63,0,0,1,.21.43c0,.19,0,.41.27.51a.79.79,0,0,0,0-.8c-.25-.49-.3-1.07-.75-1.46a.45.45,0,0,1-.06-.12c-.09-.12-.18-.24-.26-.37a1.66,1.66,0,0,1-.23-.41c-.12-.41-.48-.67-.61-1.07,0,0-.11-.08-.16-.13L53.92,36c-.16-.2-.31-.39-.51-.67,0-.1,0-.24.28-.3.2.31.63.43.68.87,0,.06.1.12.15.18l.31.36c.06.07.09.2.15.22.28.08.3.37.45.52a1.62,1.62,0,0,1,.48,1.09c.15-.06.3-.07.33-.14s.07-.31,0-.36a2.42,2.42,0,0,1-.64-1s-.06,0-.08-.07l-.23-.45a2,2,0,0,0-.17-.36c-.24-.28-.5-.54-.74-.82a1.08,1.08,0,0,1-.08-.19c-.22-.28-.43-.57-.65-.84s-.54-.62-.8-.93a3.55,3.55,0,0,0-.23-.31,9.07,9.07,0,0,0-1.4-1.23.42.42,0,0,1-.17-.18.69.69,0,0,0-.39-.36,1.18,1.18,0,0,1-.21-.18,2.28,2.28,0,0,0-.22-.22l-.61-.37a.33.33,0,0,0-.22-.05c-.12,0-.27,0-.28.14s.1.15.18.22.19.09.26.16a3.52,3.52,0,0,0,1.2,1,.18.18,0,0,1,.08.07c.19.23.55.32.61.68,0,0,0,0,0,0l.81.91.24.25a1.52,1.52,0,0,1,.4.69c-.13,0-.25.07-.31,0-.26-.18-.5-.39-.75-.58,0,0,0,0,0,0a2.08,2.08,0,0,0-.35-.54,2.61,2.61,0,0,0-.75-.73,8.77,8.77,0,0,0-1.34-1c-.06,0-.09-.1-.13-.16l-.14-.19a4.47,4.47,0,0,1-1-.93c0-.06-.11-.08-.17-.12l-.45-.32c-.08-.05-.15-.13-.24-.14a1,1,0,0,1-.65-.42,1.39,1.39,0,0,0-.19-.15c-.24-.2-.49-.39-.73-.6,0,0,0-.11-.06-.17.32-.19.5-.16.71.09a1.1,1.1,0,0,0,.25.23,3,3,0,0,1,1.1.87c0,.06.12.08.18.11a1.07,1.07,0,0,1,.53.31.35.35,0,0,0,.29,0,.26.26,0,0,0,.14-.2,1,1,0,0,0-.23-.52,2.59,2.59,0,0,0-1-.67c-.09,0-.17-.11-.25-.17-.27-.25-.54-.5-.82-.74a.41.41,0,0,0-.19-.08c-.38-.07-.52-.44-.79-.65l0-.08c.27-.15.27.16.4.26a1.13,1.13,0,0,1,.91.41c.05.06.17.06.25.11l1,.65a.28.28,0,0,1,.08.15.36.36,0,0,0,.29.27c.17,0,.3.11.32.31s.11.14.18.2.28.15.4.25.46.27.58.53a.15.15,0,0,0,.09.05c.49.14.78.59,1.19.84s.52.43.79.63a2,2,0,0,1,.77.9c0,.06.06.15.12.17.23.09.33.31.47.48a11,11,0,0,0,.89,1c.34.32.46.8.87,1.06.06,0,.07.17.11.25s0,.15.07.19a.36.36,0,0,0,.24.09c.05,0,.11-.11.12-.18a.44.44,0,0,0-.19-.52.48.48,0,0,1-.18-.24,1.78,1.78,0,0,0-.46-.82,6.56,6.56,0,0,0-.91-1,.48.48,0,0,1-.14-.2,2.21,2.21,0,0,0-1-1.12.49.49,0,0,1-.19-.15c-.24-.41-.81-.43-1-.89,0,0-.06,0-.08-.05A1.18,1.18,0,0,0,50.9,30s-.09-.08-.13-.12l-.45-.36-.2-.14c-.27-.27-.52-.56-.81-.8s-.46-.56-.81-.74c-.16-.08-.3-.26-.5-.33a.28.28,0,0,1-.15-.13.63.63,0,0,0-.53-.36c-.11,0-.23,0-.25-.19a.28.28,0,0,1,.2-.32c.23.07.47.11.58.38,0,.08.18.12.28.18a1.76,1.76,0,0,1,.39.19c.3.25.57.53.88.76a1.35,1.35,0,0,1,.48.44c0,.08.17.11.25.17.29.22.65.33.88.64.09.12.21.23.4.08a1.12,1.12,0,0,0-.49-.71.89.89,0,0,1-.31-.27,4.54,4.54,0,0,0-.91-.84,1.42,1.42,0,0,0-.78-.49.14.14,0,0,1-.1-.08c-.12-.28-.4-.34-.61-.49a2.37,2.37,0,0,1-.69-.65c.32-.18.51-.16.72,0a4.07,4.07,0,0,0,1.13.8s.11.05.14.1c.25.35.68.47,1,.82a9.91,9.91,0,0,0,1.08.95c.31.28.59.6.91.95h.37c.1-.25,0-.4-.16-.55a10.12,10.12,0,0,1-.89-1,8.6,8.6,0,0,0-1.59-1.37,2.94,2.94,0,0,1-.37-.32,2.91,2.91,0,0,0-1-.78,7.31,7.31,0,0,1-1.13-.74c-.23-.16-.44-.34-.67-.48-.49-.28-1-.54-1.46-.79A17.34,17.34,0,0,0,44,22.73c-.84-.33-1.69-.62-2.54-.92-.5-.17-1-.34-1.49-.49s-.89-.24-1.34-.34-.79-.15-1.19-.22-.51,0-.76-.09c-.5-.1-1-.24-1.49-.33a8,8,0,0,0-1.63-.16c-.71,0-1.44,0-2.16,0-.21,0-.42-.07-.62-.05-.48.06-1,.13-1.43.23a9.36,9.36,0,0,0-.91.24.64.64,0,0,1-.2,0c-.61.07-1.22.11-1.83.22a9,9,0,0,0-2.18.76,1.71,1.71,0,0,1-.83.21,1.88,1.88,0,0,0-.71.1c-.65.25-1.28.55-1.91.83a.18.18,0,0,0-.11.08,1.76,1.76,0,0,1-.75.43c-.51.21-1,.42-1.52.67s-1.17.65-1.76,1a.57.57,0,0,0-.28.64.53.53,0,0,1-.14.6c-.11.12-.24.22-.36.33a1.41,1.41,0,0,0-.55.7.35.35,0,0,1-.42.27.73.73,0,0,0-.63.23c-.29.31-.56.63-.81.95-.12.15-.19.32-.29.47a1.37,1.37,0,0,1-.25.32c-.54.41-.55.41-.34,1.07a.1.1,0,0,0,0,0,.48.48,0,0,1-.17.62c-.06.06-.13.09-.2.15a.44.44,0,0,0,0,.73,2.67,2.67,0,0,1,.19.28l-.39.5-.61.84q-.37.51-.72,1a1.43,1.43,0,0,0-.25.45,1,1,0,0,1-.31.56.5.5,0,0,0-.14.51.25.25,0,0,0,.13.18.23.23,0,0,0,.21-.07,2.52,2.52,0,0,0,.46-.69,3.91,3.91,0,0,1,.87-1.24c.27-.34.56-.67.85-1,.15-.17.32-.31.48-.47a3.11,3.11,0,0,0,.32-.31c.31-.31.6-.63.9-1,.07-.07.17-.12.25-.19a.4.4,0,0,1,.44-.06c.07.4,0,.52-.35.71a1.65,1.65,0,0,0-.71.65c0,.08-.13.13-.19.19s-.23.22-.33.34-.1.17-.18.21c-.58.32-.76,1-1.15,1.44-.07.07-.07.21-.11.33.17.1.27.08.38-.07a3.41,3.41,0,0,1,.38-.38c0-.05.12-.08.16-.13A6.44,6.44,0,0,1,14,33.45a11.14,11.14,0,0,1,1.51-1.15c.08-.06.2-.16.31,0a1.92,1.92,0,0,1-.48.63l-.89.65-.05.05a4.71,4.71,0,0,1-.9.94s0,.07-.08.12c-.12.22-.24.44-.35.67s-.11.24-.17.36c.25.15.36,0,.45-.13a1.2,1.2,0,0,1,.23-.34,6.91,6.91,0,0,1,1.19-1,.48.48,0,0,0,.2-.2,2.22,2.22,0,0,1,.78-.68,1,1,0,0,0,.16-.12c.42-.34.78-.75,1.23-1.06a8.34,8.34,0,0,0,1.57-1.13c0-.05.13-.05.19-.08L20,30.39l1.43-.77h0a2,2,0,0,0,.93-.43,1,1,0,0,1,.81-.16c.07.2,0,.42.3.5l.32-.22L23.38,29c.05-.28.27-.3.45-.35a4.61,4.61,0,0,0,.87-.2,3,3,0,0,1,1.16-.3.65.65,0,0,0,.57-.28.53.53,0,0,1,.28-.18,2,2,0,0,1,1.27,0,.45.45,0,0,1,.33.31c-.29.17-.6.05-.88.11s-.6,0-.9.22a1.35,1.35,0,0,0,.29.15,6.85,6.85,0,0,0,1,.06.66.66,0,0,0,.53-.29c.17-.26.34-.53.53-.77a.84.84,0,0,1,.72-.36,5.36,5.36,0,0,1,.68.06ZM32,67.86c0,.29.09.56.09.83,0,.48,0,1,0,1.45,0,.22,0,.45,0,.68s0,.41,0,.62,0,.21,0,.31c0,.29-.05.58-.06.87a4.3,4.3,0,0,1,0,.88,3.79,3.79,0,0,0,0,1.06c0,.5,0,1,0,1.5a1.06,1.06,0,0,0,.08.4,1.21,1.21,0,0,1,.13.91,1.34,1.34,0,0,0,0,.34l.53-.19c0-.28,0-.53,0-.79,0-.67.1-1.33.11-2,0-.44,0-.9,0-1.35,0-1.82,0-3.65,0-5.47,0-.45-.06-.9,0-1.34,0-.86-.07-1.71,0-2.57,0-.39,0-.79,0-1.19a3,3,0,0,0,0-.89.4.4,0,0,1,.3-.5l.16-.06.5.11,0-.07a3.3,3.3,0,0,0-.18-.32c-.18-.24-.4-.21-.53.06a1,1,0,0,1-.14.22,4.22,4.22,0,0,1-.11-1.86.88.88,0,0,0,0-.28c0-.2,0-.39,0-.59q0-.82,0-1.65c0-.37,0-.73,0-1.1,0-1.07-.06-2.14-.08-3.21s-.05-2.25-.06-3.37c0-.44.06-.88.06-1.32,0-1.21,0-2.43,0-3.65,0-.82,0-1.64,0-2.46,0-.57,0-1.13,0-1.7V37c0-.12,0-.24,0-.36v-1c0-.11,0-.23,0-.34s0-.42,0-.62c0-.92,0-1.84,0-2.76,0-.12,0-.24,0-.35,0-.35,0-.69,0-1s.06-.92.08-1.38c0-.31,0-.61,0-.93V27.7h-.36a1.34,1.34,0,0,0-.07.88,3.38,3.38,0,0,1,.09.54c0,.33,0,.65,0,1a3.44,3.44,0,0,1-.13.78,1.67,1.67,0,0,0,0,.86,5.29,5.29,0,0,1,.12.89c0,.23,0,.46,0,.69,0,.66,0,1.32,0,2,0,.1,0,.21,0,.31a9,9,0,0,0,0,1.27,1.47,1.47,0,0,1,0,.88.15.15,0,0,0,0,.13c.17.21.05.42,0,.64a1.53,1.53,0,0,0,0,.37.72.72,0,0,1,0,.5.35.35,0,0,0,0,.3c.14.23,0,.43,0,.63a3.82,3.82,0,0,0,.06.68.38.38,0,0,1,0,.1c0,.11,0,.23,0,.34a3.84,3.84,0,0,0,0,1.31s0,0,0,.07q0,.7,0,1.41a2.61,2.61,0,0,0,.06.27,1.51,1.51,0,0,1,0,.37c0,.4-.08.81-.12,1.21,0,0,0,0,0,.07s0,.25,0,.38a2.75,2.75,0,0,1,0,1.14.4.4,0,0,0,0,.11L32.2,49c0,.06,0,.11,0,.17s0,.32,0,.48c0,.55,0,1.1.06,1.66a3.93,3.93,0,0,1-.06.48,2.82,2.82,0,0,0,0,.58,1.08,1.08,0,0,1,0,.64,1,1,0,0,0,0,.24c0,.16,0,.32,0,.47a1.35,1.35,0,0,0,0,.28c.06.52-.15,1,.06,1.57a.21.21,0,0,1,0,.11c-.19.48.13,1-.12,1.5,0,0,0,.09,0,.13a3.8,3.8,0,0,1,0,1.54c0,.05,0,.13,0,.2a2.07,2.07,0,0,1,.05.5,5.92,5.92,0,0,1-.1,1.19s0,.05,0,.07v.65c0,.1,0,.2,0,.31a.77.77,0,0,1,0,.3,6.11,6.11,0,0,0,0,1.48,7.11,7.11,0,0,1-.06.92,1.41,1.41,0,0,0,0,.2,3.46,3.46,0,0,1,.1,1.43,1.93,1.93,0,0,0,0,.48c0,.19,0,.37.06.63S32.31,67.5,32,67.86Zm1.27.6c.14.32.27.64.4,1,0,0,0,0,0,0,.35.43.72.85,1,1.31s.82.8,1.16,1.26a.21.21,0,0,0,.12.07,1.47,1.47,0,0,1,.65.38,3.6,3.6,0,0,0,.37.22c.17-.25.19-.39.05-.57a2.28,2.28,0,0,0-.33-.29c-.25-.21-.51-.41-.75-.62A.25.25,0,0,1,36,70.8c.44.19.71.67,1.23.83v-.77a.74.74,0,0,0-.57-.86,1.64,1.64,0,0,1-.56-.28c-.56-.53-1.1-1.07-1.63-1.63-.35-.38-.66-.81-1-1.21a.69.69,0,0,0-.19-.1.37.37,0,0,0,0,.47c.19.34.37.69.57,1.09Zm.63-3.37a1,1,0,0,0,.51.93c.07,0,.1.13.15.2a1.85,1.85,0,0,0,.24.33q.36.39.75.75a5.24,5.24,0,0,0,1.6,1.14c0-.31,0-.61,0-.91a.41.41,0,0,0-.26-.41,3.25,3.25,0,0,1-1-.67l-.83-.68a.91.91,0,0,1-.35-.63c.47.18.73.63,1.14.88a14.86,14.86,0,0,1,1.19.94,1,1,0,0,0,0-1,3.57,3.57,0,0,1-.52-.31c-.18-.14-.33-.33-.5-.49a3.48,3.48,0,0,1-.84-.87c-.13-.23-.39-.38-.58-.58s-.41-.26-.79-.08l.42.7a1.54,1.54,0,0,1,.38.79.46.46,0,0,1-.37-.25,1.1,1.1,0,0,0-.72-.69s-.06-.05-.08-.06c.08-.49,0-.62-.36-.78a1.32,1.32,0,0,0-.07.32,2.83,2.83,0,0,0,.31,1.1A.49.49,0,0,0,33.93,65.09ZM27.5,69l0,.11a.93.93,0,0,0,.24,0c.13,0,.25-.08.37-.12.31-.1.66-.11.84-.45a.1.1,0,0,1,.08-.06c.22-.06.27-.23.28-.43a.37.37,0,0,1,.29-.38,3.54,3.54,0,0,0,.39-.14.85.85,0,0,0,.19-.14c.16-.17.31-.34.48-.49a1,1,0,0,0,.33-.33c.1-.22-.12-.31-.15-.46.27-.18.29-.24.21-.59l-.37,0a1.39,1.39,0,0,1-.57,1c-.21-.32-.15-.45.33-.66v-.68s0,0,0,0,.29-.08.42-.14.21-.09.24-.17a.46.46,0,0,0-.31-.59c-.09-.17-.16-.32-.25-.47.52,0,.66-.21.47-.76-.41.07-.61.42-.89.71-.06-.16-.11-.27-.17-.42a1.17,1.17,0,0,0-.32,0c-.48.21-1,.43-1.43.66a.64.64,0,0,0-.37.41,4.64,4.64,0,0,0,.64,0,1.42,1.42,0,0,0,1.09-.45c0-.06.16-.08.25-.12a.38.38,0,0,1-.14.49c-.42.36-.82.74-1.23,1.12a1.73,1.73,0,0,0-.16.27c.29,0,.51,0,.71-.14a4.59,4.59,0,0,1,.49-.26c.14-.07.24-.06.31.11l-1,1.08c.16.24.32.08.45,0a3.83,3.83,0,0,0,.49-.15c0,.1,0,.2,0,.24a4.1,4.1,0,0,1-.49.53c-.18.18-.21.25-.09.51a1.16,1.16,0,0,0,.06.16c-.09.06-.16.17-.25.17-.4,0-.63.36-1,.49A2.34,2.34,0,0,0,27.5,69Zm6.62,7.85a3.78,3.78,0,0,0,.41.54c.44.43.9.85,1.36,1.27.27.25.55.5.83.73.1.09.22.19.38.09s0-.21,0-.31c0-.56,0-.78-.41-1a3.2,3.2,0,0,1-1.14-.82s-.09,0-.13,0a1.13,1.13,0,0,1-.39-.22,4.05,4.05,0,0,0-.88-.66.44.44,0,0,1-.21-.38c0-.23-.15-.35-.32-.46a.26.26,0,0,0-.21,0s0,.14,0,.18.24.35.34.53a1.06,1.06,0,0,1,.1.33h-.06l-.55-.42c-.08-.44-.08-.44-.29-.33.14.43.06.92.4,1.32l.48.16a1.17,1.17,0,0,0,.3.86,3.58,3.58,0,0,0,.29.39c.34.37.67.74,1,1.1l.78.77a3,3,0,0,0,.84.65c0-.16,0-.27.06-.38a1.1,1.1,0,0,1,0-.31.48.48,0,0,0-.28-.61,6,6,0,0,1-1.53-1.23,11.9,11.9,0,0,1-1.14-1.21A.49.49,0,0,1,34.12,76.87Zm3,.14A.77.77,0,0,0,37,76a8.86,8.86,0,0,1-1.4-1.26c-.23-.24-.44-.48-.67-.71s-.28-.21-.39-.34-.45-.5-.69-.73a.65.65,0,0,1-.23-.37c0-.27-.17-.33-.52-.24a1.23,1.23,0,0,0,.08.44c.29.52.61,1,.93,1.54a3.2,3.2,0,0,0,.25.27,2,2,0,0,1,.54.78.88.88,0,0,1-.59-.33,3.65,3.65,0,0,0-.52-.52c-.39.32-.29.55.29.83a.86.86,0,0,0,.58.88.35.35,0,0,1,.18.16c.19.38.6.5.88.78s.54.34.77.58a.57.57,0,0,0,.59.14c.06-.47,0-.52-.36-.74l-.13-.1c-.33-.25-.64-.5-1-.74a1.87,1.87,0,0,1-.55-.83A20.55,20.55,0,0,0,37.08,77ZM24,15.06a.53.53,0,0,1,0-.13,2.77,2.77,0,0,0-.26-.1l-.35-.06a.48.48,0,0,0-.54.21.53.53,0,0,1-.51.24,3.38,3.38,0,0,0-.45,0c-.15,0-.34,0-.42.13a1.22,1.22,0,0,1-.74.41.7.7,0,0,0-.35.21.75.75,0,0,1-.6.23c-.16,0-.32,0-.48,0a.35.35,0,0,0-.4.2.53.53,0,0,1-.2.22c-.27.18-.56.33-.83.5l-1.15.67-.74.44a1.43,1.43,0,0,0-.21.12A13.74,13.74,0,0,1,14,19.78a.29.29,0,0,0-.09.24.24.24,0,0,0,.21.14c.16,0,.39,0,.48-.15.26-.34.67-.43,1-.69s1-.47,1.32-.94l0,0a3.74,3.74,0,0,0,.91-.53c.3-.19.65-.32,1-.48s.84-.63,1.38-.7a.16.16,0,0,0,.11-.07.81.81,0,0,1,.72-.33.5.5,0,0,0,.5-.31.29.29,0,0,1,.22-.14c.21,0,.43,0,.65-.08s.36-.08.42-.18a.66.66,0,0,1,.53-.33ZM32.48,1.77l-.09,0a1.15,1.15,0,0,0,.09.33.37.37,0,0,1,0,.45,1,1,0,0,0-.1.42,2.41,2.41,0,0,0,0,.38V4.66c0,.15,0,.29,0,.44a.7.7,0,0,0,0,.33.41.41,0,0,1,0,.54.6.6,0,0,0-.06.22l.34.23a1.83,1.83,0,0,1-.23.34.56.56,0,0,0-.18.5.78.78,0,0,1-.11.7c0,.18.1.33.05.41a.56.56,0,0,0,0,.51c-.06.17-.11.32-.16.48l.25.32c-.45.57,0,1.15,0,1.77l.37,0c0-.14,0-.27,0-.39V8.58c0-.28.11-.56,0-.85s-.07-.29-.11-.44a.48.48,0,0,1,.19-.52.31.31,0,0,1,.48.28c0,.34.26.55.45.79A17.06,17.06,0,0,0,33.4,6.1c0-.11,0-.22-.07-.34-.09-.48-.15-1-.26-1.43s-.35-.72-.23-1.14v0c0-.25-.1-.49-.16-.74S32.54,2,32.48,1.77Zm2,14.59c-.23,0-.42-.08-.61-.09-.5,0-1,0-1.5,0a3.22,3.22,0,0,0-.69,0,2.41,2.41,0,0,1-.85,0,.44.44,0,0,1-.43-.38c0-.18-.15-.25-.36-.23-.75.08-1.5.12-2.24.18-.23,0-.47,0-.69.08s-.25.08-.25.24.14.2.27.2c.53,0,1.07,0,1.6-.09a1.25,1.25,0,0,1,1.05.31,1.52,1.52,0,0,0,1.1.35c.47,0,.94,0,1.42,0a4,4,0,0,0,.58,0,2.11,2.11,0,0,1,.83,0A.67.67,0,0,0,34.52,16.36ZM28.41,73.58c.23.19.25.2.44.09.4-.24.81-.47.9-1l.28,0a.5.5,0,0,1-.19.45.5.5,0,0,0-.13.22.61.61,0,0,1-.44.49,1.79,1.79,0,0,0-.48.31.15.15,0,0,0,.05.28.4.4,0,0,0,.4,0,3,3,0,0,1,.31-.15c.26-.17.53-.29.61-.68s.5-.65.78-.95c0,0,.13,0,.19,0l.17-.59.23.25c0-.21.08-.34.1-.47H31l-.83.9c0-.36.06-.64.09-.93.26-.17.6-.24.82-.53l-.53,0a.3.3,0,0,0,0-.1l.54-.32s0-.16.07-.27a.48.48,0,0,0-.64.19l-.83,1,.08.18s.07.11.12.17c-.44.3-1,.3-1.34.89l.7,0c-.13.35-.4.37-.66.39Zm4.88-14.21c-.17.16-.1.31,0,.46.21.4.29.88.73,1.14L34,61a9.68,9.68,0,0,0,.74.95c.46.5.94,1,1.44,1.45a11.07,11.07,0,0,0,1,.71,1.24,1.24,0,0,0,0-.81c0-.11-.18-.19-.28-.27a.6.6,0,0,0-.08-.08c-.46-.48-.9-1-1.39-1.43a2.53,2.53,0,0,1-.73-1.07.73.73,0,0,1-.56-.46A1.15,1.15,0,0,0,33.29,59.37Zm.55,7.22a3.6,3.6,0,0,0,.16.55c.23.5.73.76,1,1.19,0,0,0,0,.06,0a2.52,2.52,0,0,1,.25.21,6.1,6.1,0,0,0,1.73,1.33.91.91,0,0,0,.12-.81.45.45,0,0,0-.3-.38,5.75,5.75,0,0,1-1-.61c-.43-.34-.83-.73-1.24-1.1a1,1,0,0,1-.08-.11,1.86,1.86,0,0,0-.92-.85s-.06,0-.11-.09a.81.81,0,0,0-.26-.93c-.27.22-.27.24-.12.71.19,0,.3.11.25.35S33.47,66.5,33.84,66.59ZM37.2,84a1.2,1.2,0,0,0-.5-1.48,8,8,0,0,1-1-.92s0-.08-.08-.12L35.14,81c-.19-.22-.39-.43-.57-.65-.33-.41-.64-.83-1-1.24,0,0-.08,0-.13-.08a4.7,4.7,0,0,0,1,1.79l0,0a2.11,2.11,0,0,1,.21.31c.14.25.26.52.42.76s.55.74.83,1.11a.17.17,0,0,1,0,.13,1.31,1.31,0,0,0,.29.81c.27.43.59.84.91,1.29a.81.81,0,0,0-.38-1.06c-.16-.1-.37-.16-.36-.42C36.79,83.67,37,83.85,37.2,84ZM28.77,71c.06.3-.46.56-.13.92.13-.08.24-.21.36-.23.43,0,.5-.45.76-.67-.3-.26-.52-.13-.76.08l-.16-.18a6.48,6.48,0,0,1,.49-.67.37.37,0,0,0,0-.58,1.91,1.91,0,0,0,1.37-1.45c.43-.23.51-.44.34-1a1.1,1.1,0,0,0-.68.91c0,.2-.1.33-.33.31,0-.13-.05-.23-.07-.33a.36.36,0,0,0-.06.24c0,.09,0,.19,0,.28,0,.26-.21.43-.45.35s-.43,0-.58.23a1.52,1.52,0,0,1-.22.22.38.38,0,0,0-.11.49c.19-.31.4-.39.7-.26,0,.32-.3.29-.49.38s-.24,0-.3.12c-.23.23-.6.18-.8.46,0,0-.1,0-.16,0h-.28c-.25,0-.3.1-.25.41l.35-.13c.1,0,.22-.1.29-.06C28,71,28.36,70.79,28.77,71Zm0,4.46c0-.29.43-.33.32-.68l-.42.12c-.06.21-.11.37-.13.47-.52.1-.94.18-1.37.28a.31.31,0,0,0-.24.37v.54c.47.23.81,0,.77-.58l.91-.32a.47.47,0,0,1,0,.66c-.14.15-.27.31-.42.48-.18,0-.42-.06-.57,0a.77.77,0,0,0-.44.46l.29.19c-.15.22-.54.17-.53.54a.62.62,0,0,0,.56-.23c0-.44,0-.44.44-.49a.46.46,0,0,0,.42-.38c0-.11,0-.21,0-.31.34,0,.61-.15.58-.56,0-.05.14-.16.22-.16a.49.49,0,0,0,.46-.35c.05-.12.19-.21.3-.32l.2-.18c.15-.16.3-.31.44-.48a.7.7,0,0,0,.18-.31c0-.21,0-.37.3-.43s.17-.14,0-.33c-.25.25-.49.5-.75.75s-.53.48-.82.73l-.11,0c-.12.1-.21.2-.32.28A3.07,3.07,0,0,1,28.75,75.43Zm8.38.18a1,1,0,0,0-.39-1.24A5.06,5.06,0,0,1,35.28,73a3.94,3.94,0,0,0-.43-.5c-.25.19-.43.17-.58,0,.21-.38.2-.42-.12-.73,0,0-.1-.06-.14-.1s-.18-.18-.2-.28a.78.78,0,0,0-.66-.68,5.4,5.4,0,0,0,.09.6c0,.17.15.33.21.5s.12.31.3.37a.47.47,0,0,1,.34.47.42.42,0,0,0,.28.36c.11,0,.2.17.29.28s.29.41.46.59c.33.37.67.73,1,1.07s.59.5.89.75C37.05,75.63,37.09,75.62,37.13,75.61Zm.08-12.78c0-.25,0-.42,0-.6a.6.6,0,0,0-.3-.58,9.13,9.13,0,0,1-1-.8c-.16-.15-.27-.35-.42-.51a8,8,0,0,1-1-1.15.54.54,0,0,0-.47-.31c-.23,0-.26-.1-.17-.32s.09-.33-.12-.48a2.36,2.36,0,0,0-.3-.18c-.07.09-.19.2-.17.26a6.24,6.24,0,0,0,.42.91c.07.14.25.23.35.36.48.61.94,1.23,1.42,1.84a3,3,0,0,0,.5.56,5.5,5.5,0,0,1,.73.63C36.87,62.58,37,62.67,37.21,62.83Zm0,1.6a2.61,2.61,0,0,1-.6-.27c-.47-.4-.93-.82-1.38-1.25-.22-.23-.39-.51-.63-.73s-.4-.49-.82-.41a1.24,1.24,0,0,0,.18.45c.32.33.48.77.79,1.12.58.65,1.23,1.22,1.84,1.83a5.65,5.65,0,0,0,.57.44,1.7,1.7,0,0,0,.11-.39C37.29,64.94,37.26,64.67,37.24,64.43Zm-6.4,10.84c-.12,0-.32.07-.39.18a2.93,2.93,0,0,1-.8.65.86.86,0,0,0-.46,1c-.29.14-.43.49-.83.44-.06,0-.14.14-.21.21l.43.31a2.45,2.45,0,0,1-.8.15c-.44-.06-.62.24-.84.49,0,0,0,.16,0,.21a2.76,2.76,0,0,0,1.63-.53,2.89,2.89,0,0,0,1.16-1.26l-.36-.16c.13-.19.22-.31.44-.23s.35,0,.47-.19l.43-.48.17.31.12-.26-.2-.13C30.75,75.71,31.13,75.55,30.84,75.27ZM37.21,60a1.06,1.06,0,0,0-.12-.9c-.27-.35-.54-.68-.82-1l-.63-.78c-.07-.09-.13-.19-.21-.28-.28-.32-.56-.63-.85-.94-.1,0-.19-.07-.29-.08a.27.27,0,0,0-.22.05.28.28,0,0,0,0,.22.7.7,0,0,0,.47.45,1.88,1.88,0,0,0,.17.55c.44.55.91,1.07,1.36,1.61A3.14,3.14,0,0,0,37.21,60Zm0,22.54a.91.91,0,0,0-.32-1.22,2.6,2.6,0,0,1-.33-.25l-.35-.33a1.68,1.68,0,0,1-.29-.24,5.58,5.58,0,0,0-1-1,1.6,1.6,0,0,1-.28-.35l-.69-.8a.33.33,0,0,0-.1,0,.52.52,0,0,0,.1.56c.16.25.33.5.51.74s.5.63.75,1,.3.49.51.6c.47.24.67.72,1.06,1Zm0-21.24a.76.76,0,0,0-.16-.74c-.6-.65-1.19-1.32-1.79-2-.13-.15-.24-.31-.37-.46s-.42-.5-.64-.73a.21.21,0,0,0-.31,0c-.11.11-.07.23,0,.34a1.78,1.78,0,0,1,.22.26,3.19,3.19,0,0,0,.92,1.28.47.47,0,0,1,.1.1,8.26,8.26,0,0,0,1.28,1.49C36.72,61,36.86,61.32,37.22,61.34Zm-.17-2.73.16-.08c0-.22,0-.44,0-.67a.36.36,0,0,0-.08-.25c-.31-.34-.62-.67-.95-1a21,21,0,0,1-1.37-1.74c-.19-.23-.28-.31-.56-.24a2.74,2.74,0,0,0,.09.39,7.16,7.16,0,0,0,.92,1.33c.16.23.38.43.55.66s.5.69.75,1S36.89,58.43,37.05,58.61Zm0,15.53c.17-.07.16-.21.15-.35a2.61,2.61,0,0,1-.06-.27c0-.4-.2-.57-.52-.72a3.63,3.63,0,0,1-.83-.55c-.48-.43-.92-.91-1.39-1.35a1,1,0,0,0-.31-.15c-.14.45.22.5.42.65A6.52,6.52,0,0,0,37,74.14ZM7.63,35.75c.38.19.5.17.74,0A2.14,2.14,0,0,0,9,34.6.87.87,0,0,1,9.5,34c.23-.12.26-.33.11-.56a.47.47,0,0,0-.77,0A3.81,3.81,0,0,0,8,34.69C7.86,35,8,35.44,7.63,35.75ZM35.14,9.62a39.54,39.54,0,0,0-1.6-5.29.73.73,0,0,0,0,.35c.07.41.16.82.24,1.23.14.67.28,1.35.43,2,.07.35.15.7.24,1A.8.8,0,0,0,35.14,9.62ZM27.61,80.07c.26.07.47.18.67,0,0,0,.09,0,.14,0a1.6,1.6,0,0,0,.47-.24c.32-.38.61-.78.91-1.18a3.47,3.47,0,0,0,.18-.33L29.89,78c.24-.18.6-.21.69-.52s.31-.49.13-.83c-.26.32-.51.61-.74.91a.6.6,0,0,0-.18.33c0,.24-.1.33-.29.39-.53.16-.81.63-1.19,1,0,0,0,.09,0,.15l.27.09c0,.18,0,.24-.18.25a2.62,2.62,0,0,0-.28,0C27.9,79.77,27.69,79.79,27.61,80.07ZM4.47,48.81a1,1,0,0,0,0,.32c0,.09.11.21.18.22A.36.36,0,0,0,5,49.22a.88.88,0,0,0,.11-.42,3,3,0,0,1,.17-1.63,2,2,0,0,0,.11-.86A.31.31,0,0,0,5.08,46c-.2,0-.44.1-.45.24a6.72,6.72,0,0,0,0,1,2.47,2.47,0,0,1,0,.72A7.72,7.72,0,0,0,4.47,48.81ZM60,58.26c-.31.78-.59,1.47-.87,2.15.29.41.5.45.72.12a.46.46,0,0,0,0-.29c-.06-.48,0-.53.41-.67l.07,0a.49.49,0,0,0,.2-.79C60.42,58.61,60.24,58.47,60,58.26ZM28.35,81.31c.15.19.23.42.39.48s.12.37.23.52c.33-.19.43-.38.37-.69l-.36.22a1,1,0,0,1,.25-.75,10.65,10.65,0,0,0,.64-.86.72.72,0,0,0,.06-.35c-.31-.25-.53,0-.7.09s-.28.39-.41.6l.31.24C28.92,81.1,28.43,80.89,28.35,81.31Zm1.26-1.85a.32.32,0,0,0,0,.09c.11,0,.23,0,.34-.06s.16-.12.25-.12c.34,0,.48-.24.56-.52.13-.47.26-.93.37-1.4,0-.13.07-.3-.06-.38ZM37.46,17a.66.66,0,0,0,.55.28c.12,0,.29.06.32.14.12.28.34.29.57.31l1,.06h.42c.16,0,.26-.08.24-.3a1.73,1.73,0,0,0-1-.21,1.48,1.48,0,0,1-1.1-.2,2.7,2.7,0,0,0-.34-.17A.56.56,0,0,0,37.46,17ZM30.81,56h-.6a.25.25,0,0,1,0,.07c-.13.15-.27.29-.4.45s-.14.15-.13.22a.62.62,0,0,1-.31.62c-.14.08-.26.16-.4.23s-.22.09-.31.15-.23.21-.07.39c.19-.09.39-.16.57-.25a4.52,4.52,0,0,0,.52-.32.56.56,0,0,0,.21-.28.56.56,0,0,1,.33-.46C30.6,56.64,30.67,56.33,30.81,56Zm.32,12.68a.38.38,0,0,0-.11,0,9.84,9.84,0,0,0-1.17,1.41.37.37,0,0,0-.09.49,1.7,1.7,0,0,0,1.21-1A1.4,1.4,0,0,0,31.13,68.66ZM59.72,58.2c-.41.07-.67.2-.77.59a1.53,1.53,0,0,1-.5,1c-.06,0-.08.14-.11.2.11.24.2.31.33.32s.23-.18.3-.3.16-.28.23-.42c.16-.35.32-.69.47-1A1.19,1.19,0,0,0,59.72,58.2ZM6.1,60c0-.11,0-.18.05-.24,0-.36-.12-.53-.48-.52a.73.73,0,0,0-.58.53c-.07.21,0,.31.22.32l.27,0H6c.06.21.1.37.15.52.35,0,.44,0,.62-.24C6.76,59.91,6.4,60.05,6.1,60ZM26.37,16.45a.89.89,0,0,0-.66-.18c-.36,0-.47.09-.59.42a1.56,1.56,0,0,1-.22.47c-.08.13-.15.24,0,.37a.28.28,0,0,0,.39,0,1.24,1.24,0,0,0,.37-.35,1.83,1.83,0,0,1,.54-.57Zm1.92,46.8a.84.84,0,0,0-.27,0c-.31,0-.61.09-.91.15a.72.72,0,0,0-.28.13,1,1,0,0,0-.13.25.94.94,0,0,0,.28.1c.24,0,.48,0,.72,0s.34,0,.45-.19.12-.09.19-.14a2.63,2.63,0,0,0,.73-.65c-.25-.18-.42.07-.6,0Zm2.78-.75a.65.65,0,0,0,.1-.73c0-.08-.12-.19-.19-.19a.27.27,0,0,0-.23.14,2.24,2.24,0,0,1-.9.88c-.19.12-.35.25-.3.53.63,0,.87-.55,1.33-.8ZM12.17,36.71a.3.3,0,0,0-.43.11,10.41,10.41,0,0,0-.7,1.11c-.11.21.07.37.32.32a.65.65,0,0,0,.55-.5C12,37.42,12.07,37.09,12.17,36.71Zm23.41-18a.49.49,0,0,0-.46-.35c-.68,0-1.36-.05-2-.05a1.1,1.1,0,0,0-.36.15c.12.09.18.18.25.18.33,0,.66.06,1,.07h1.61Zm-14.83,1.7a.39.39,0,0,0-.55-.08l-.64.34c-.15.09-.31.17-.31.39a1,1,0,0,0,.7.15.2.2,0,0,0,.15-.06ZM13.67,23.1l.19-.28c.05-.07.08-.15.14-.18.28-.16.57-.3.86-.44s.31-.13.3-.33a.29.29,0,0,0-.1-.16l-.49.11s0,0,0,0c-.07.28-.31.36-.55.45a.45.45,0,0,0-.13.11,2.65,2.65,0,0,0-.26.21c-.07.06-.17.13-.19.21S13.47,23.07,13.67,23.1Zm1.87-5.57c.28.18.54.22.66.07a2,2,0,0,1,.59-.45c.07,0,.12-.13.17-.2-.17-.36-.5-.18-.76-.31a.6.6,0,0,1-.41.68A1.06,1.06,0,0,0,15.54,17.53Zm18,44.79a.75.75,0,0,0-.32-.66c0,.12-.12.26-.08.31.21.28.15.61.24.91a.34.34,0,0,0,.09.19,1.18,1.18,0,0,0,.32.21c.15.06.27,0,.36-.21Zm2.63-43.48s0,.07,0,.1a4.45,4.45,0,0,0,1.41.25h.07c.14,0,.26-.13.24-.29s-.16-.15-.27-.15c-.38,0-.75,0-1.12,0A1.5,1.5,0,0,0,36.16,18.84Zm-7.68,63-.74-.13-.56.66a2,2,0,0,0,1,0A.4.4,0,0,0,28.48,81.79ZM24.15,14.3c.06-.37,0-.5-.32-.52h-.48a.4.4,0,0,0-.43.25.34.34,0,0,0,.35.27Zm2.68,54.61c.33.08.41,0,.36-.27s0-.26.21-.26.13,0,.18,0l.54-.35c-.07-.12-.12-.19-.16-.25-.26.06-.5.14-.73.17a.31.31,0,0,0-.32.29C27.12,68.5,27.12,68.5,26.83,68.91ZM23.5,20c.6.33,1.42.06,1.45-.45A2.18,2.18,0,0,0,23.5,20ZM6.77,34c-.25.14-.24.41-.33.63a.83.83,0,0,1-.18.32c-.12.11-.22.2-.1.34s.25,0,.36-.06a.24.24,0,0,0,.1-.1c.13-.24.27-.48.38-.74S7,34,6.77,34ZM29.08,56.25l.11,0a3,3,0,0,0,1.28-.76s0-.13,0-.23c-.3.12-.62,0-.81.37S29.14,55.88,29.08,56.25Zm-4.7-41.76a1.35,1.35,0,0,0,1.58,0,.27.27,0,0,0-.33-.23l-1,.09A1.34,1.34,0,0,0,24.38,14.49Zm2.38,58.38c.12.22.25.28.45.19s.29,0,.4-.11a.79.79,0,0,0,.28-.32c0-.06-.06-.17-.09-.25a2.29,2.29,0,0,1-.44.09A.66.66,0,0,0,26.76,72.87ZM57.94,62.75c.29-.17.71-.13.83-.48a1.37,1.37,0,0,0-.05-1C58.43,61.82,58.19,62.29,57.94,62.75ZM10.68,37.2A.68.68,0,0,0,9.9,38c0,.14,0,.29.17.29a.43.43,0,0,0,.28-.2,4.25,4.25,0,0,0,.31-.6A.6.6,0,0,0,10.68,37.2Zm26-19.13c.17,0,.26.09.34.07a2,2,0,0,1,.78.06.5.5,0,0,0,.21,0,.18.18,0,0,0,.12-.31.38.38,0,0,0-.26-.13c-.3,0-.6,0-.9.07C36.89,17.85,36.82,18,36.68,18.07ZM7.18,40.94a.89.89,0,0,0-.65.56c0,.16,0,.4.17.44S7,42,7,41.88a3,3,0,0,0,.28-.66C7.3,41.15,7.22,41.05,7.18,40.94ZM27.79,69.77a.64.64,0,0,0-.59-.18c-.39,0-.47.12-.39.52A.74.74,0,0,0,27.79,69.77Zm.72-51.17a1.63,1.63,0,0,0,.34.06,6.82,6.82,0,0,0,.79-.07c.08,0,.15-.1.23-.15a.66.66,0,0,0-.17-.23A.92.92,0,0,0,28.51,18.6ZM27.2,65.45c.38.22.66-.06,1-.12.1,0,.17-.18.26-.28l0-.08a1,1,0,0,0-.3,0c-.23,0-.46.1-.69.15S27.15,65.26,27.2,65.45Zm.54,8.35a5.09,5.09,0,0,0-.55.18,1.18,1.18,0,0,0-.29.16c-.11.08-.19.19-.09.33a.24.24,0,0,0,.37.06,5.37,5.37,0,0,0,.57-.5S27.75,73.89,27.74,73.8Zm5.87-17.09c.08-.53,0-.75-.31-.79-.07.19-.11.36.1.51a.3.3,0,0,1,.1.28c-.06.38-.07.37.23.6L34.1,57Zm-23-28,.65-.87c.07-.11.06-.25-.08-.28a.31.31,0,0,0-.25.12c-.14.16-.26.35-.39.53S10.35,28.5,10.61,28.7ZM28.17,80.41,27,80.62a2.26,2.26,0,0,0,0,.29c0,.08,0,.17.06.29.08-.29.1-.32.31-.33s.28,0,.42,0S28.21,80.71,28.17,80.41Zm.72-23.52c-.44-.25-.73,0-1,.28.15.28.42.14.61.22C28.84,57.14,28.84,57.14,28.89,56.89ZM9.55,39.24c-.31,0-.44,0-.53.28a.49.49,0,0,0,.18.63A1.27,1.27,0,0,0,9.55,39.24ZM27.33,66.8l.7-.12c.16,0,.23-.14.16-.27s-.3-.16-.64,0-.3.19-.26.4Zm.58-52.73a.53.53,0,0,0-.85-.06C27.34,14.46,27.66,14.48,27.91,14.07Zm-4.79,3.37a.83.83,0,0,0-.86-.11.19.19,0,0,0-.11.16.21.21,0,0,0,.08.16A.91.91,0,0,0,23.12,17.44Zm4.14,42.43c-.22-.12-.39-.33-.59-.12s-.12.42-.06.65ZM57.49,41.44a.61.61,0,0,0,.21-.67c0-.17-.18-.2-.33-.18s-.19.17-.15.29S57.39,41.22,57.49,41.44ZM31.13,6.62c-.06.22-.1.41-.16.59a.93.93,0,0,0-.06.59c.28,0,.31,0,.32-.16A2.27,2.27,0,0,0,31.13,6.62Zm.19-.46c.69-.22.81-.35.61-.67C31.33,5.78,31.29,5.82,31.32,6.16ZM57.61,37c.11-.31,0-.56-.15-.65s-.3,0-.31.14A.48.48,0,0,0,57.61,37Zm-42-14.77c-.11.06-.25.09-.29.18s0,.29.28.3.4-.09.4-.23S15.9,22.28,15.63,22.24Zm7.57-2a.76.76,0,0,0-.81.15c0,.23.19.22.36.22A.42.42,0,0,0,23.2,20.26ZM45.37,31.11a.39.39,0,0,0,.37.42c.13,0,.26,0,.31-.12s-.07-.26-.21-.29A2.38,2.38,0,0,0,45.37,31.11ZM58.44,61c-.21-.21-.35-.15-.46,0s-.07.38.14.61ZM34.22,55.64c-.13-.37-.19-.41-.56-.31a.24.24,0,0,0,.12.35C33.91,55.74,34.07,55.85,34.22,55.64ZM27,79.6c.28-.16.62-.07.79-.42L27.51,79C27.46,79.32,26.93,79.1,27,79.6ZM52.11,30.07c.09-.38,0-.48-.52-.46C51.54,29.93,51.64,30,52.11,30.07Zm-25.36,31a.37.37,0,0,0,.22.53c.11-.13.31-.19.23-.43ZM20.29,15c.28.21.37.22.5.09a.2.2,0,0,0-.05-.35C20.57,14.8,20.39,14.81,20.29,15ZM55.15,33s.12-.11.14-.2a.25.25,0,0,0-.28-.27c-.12,0-.22.06-.23.21S54.91,33,55.15,33ZM33.34,73.79,33.1,74c.24.4.27.42.58.21ZM27.92,62.08l-.44-.22c-.11.42-.11.55,0,.69Zm-1.16-4c.61-.1.61-.1.63-.33a.62.62,0,0,0-.55,0A.85.85,0,0,0,26.76,58ZM57.81,38.25c.33.26.37.26.56,0-.06-.15-.16-.25-.31-.21S57.91,38.16,57.81,38.25Zm-35.5-8.49a.51.51,0,0,0,.75.09A.52.52,0,0,0,22.31,29.76ZM32,6.29c-.37.3-.39.36-.2.59C32.1,6.66,32.13,6.58,32,6.29Zm-.34,56.48a.59.59,0,0,0,0,.63c.1-.12.21-.19.22-.27S31.89,62.81,31.64,62.77ZM32,3.8c-.2.1-.34.2-.29.43a.2.2,0,0,0,.11.11s.14,0,.15,0S32.1,4,32,3.8ZM27.73,56.38l.27.21.27-.36C28,56,28,56,27.73,56.38Zm-.41,26.86c.1-.23.39-.22.28-.5a1.37,1.37,0,0,0-.25.05,1.25,1.25,0,0,0-.24.16C27.17,83,27.22,83.1,27.32,83.24Zm3.55-27.45c.26-.23.31-.36.24-.65C30.81,55.27,30.77,55.39,30.87,55.79Zm-2.12,4.09c-.23-.22-.48,0-.71-.05,0,0-.06.11-.11.21a1.54,1.54,0,0,1,.45,0C28.52,60,28.64,60.11,28.75,59.88ZM27.2,62.54c-.17-.13-.29,0-.4.07a.23.23,0,0,0,0,.34C27,62.86,27.16,62.8,27.2,62.54Zm-7.51-47c-.25-.22-.41-.19-.59.1C19.36,15.77,19.44,15.77,19.69,15.51Zm8,68-.17.3.22.15C28.05,83.69,28,83.65,27.72,83.49Zm2.93-29.15-.09,0c-.17.19-.18.42,0,.77C30.6,54.81,30.63,54.57,30.65,54.34ZM24.81,28.68c.18.31.34.32.59.08A.49.49,0,0,0,24.81,28.68Zm4.64,26.71c.13-.18.06-.29-.06-.32s-.25.08-.33.28ZM55.64,33.47l-.12,0c0,.12,0,.23-.07.42l.46-.13Zm-27.17,25c-.13.1-.28.17-.23.4.15,0,.26,0,.33-.12S28.62,58.54,28.47,58.48Zm-.23,8.94.33.2c.07-.15.26-.23.13-.46ZM26.93,84.51l.29.16a3,3,0,0,0,.12-.41s-.08-.05-.14-.1C27.12,84.28,27,84.37,26.93,84.51Zm7-14.06c0-.33-.06-.41-.37-.38C33.61,70.23,33.63,70.44,33.88,70.45Zm-2.37-2.16c-.05.41-.05.41.1.61C31.74,68.61,31.73,68.52,31.51,68.29Zm-4.16-2.38s0,0,0-.08a1.29,1.29,0,0,0-.34,0c-.06,0-.09.13-.13.19s.15.08.2.06A1.17,1.17,0,0,0,27.35,65.91Zm4-47.75c-.09.11-.19.18-.19.25s.13.17.17.16a.37.37,0,0,0,.2-.19S31.45,18.26,31.36,18.16ZM9.14,36.55c-.13.09-.22.19-.11.34a.15.15,0,0,0,.26,0C9.4,36.71,9.3,36.63,9.14,36.55Zm40.73-2.26s0-.09,0-.14L49.51,34c-.1.2,0,.32.08.36S49.77,34.32,49.87,34.29ZM29.75,17.51a.26.26,0,0,0-.4,0s0,.17,0,.18S29.68,17.7,29.75,17.51ZM28.34,83.16c.23-.18.23-.18.13-.41C28.2,82.93,28.2,82.93,28.34,83.16ZM9.46,29.76c.32.1.32.09.39-.22C9.58,29.46,9.58,29.46,9.46,29.76ZM33.33,54.7c0,.24.14.32.35.24C33.69,54.65,33.66,54.63,33.33,54.7Z"/><path class="cls-3" d="M28.72,13c.08,0,.16-.11.24-.11a12.46,12.46,0,0,1,1.73,0,14.46,14.46,0,0,0,1.74,0l2.45,0h.87c.22,0,.45,0,.66,0a1.74,1.74,0,0,1,.45.17c0,.29-.16.36-.38.36H34.39c-.93,0-1.86-.05-2.78-.05-.47,0-.93.09-1.39.13a2.9,2.9,0,0,1-.51,0,5.12,5.12,0,0,1-.68-.14,1.54,1.54,0,0,1-.34-.17Z"/><path class="cls-3" d="M64.51,41.51c0-.13,0-.27,0-.35-.19-.28-.35-.6-.72-.72-.19-.06-.33-.16-.24-.43.38-.12,1,.11,1.09-.52.46-.05.62.13.45.52a2.49,2.49,0,0,1-.11.29.44.44,0,0,0,.11.51,3,3,0,0,1,.3.37l-.44.51a2.62,2.62,0,0,1,.28.3.51.51,0,0,1,.1.33c0,.18-.2.14-.34.15h0a.9.9,0,0,0-.92.06.36.36,0,0,1-.2,0c-.21-.08-.29-.24-.29-.54s.07-.36.34-.41A6.15,6.15,0,0,1,64.51,41.51Z"/><path class="cls-3" d="M60.29,25.88a.49.49,0,0,1-.53.32,1.68,1.68,0,0,0-.44.07c-.27.06-.42,0-.48-.28a1.32,1.32,0,0,1,0-.28,1,1,0,0,0-.45-.92c-.41-.37-.39-.59.06-.91l.12-.05a2.17,2.17,0,0,1,.77.61c.2.26.34.55.52.82.07.11.16.2.23.3S60.22,25.79,60.29,25.88Z"/><path class="cls-3" d="M41.5,16.44a.26.26,0,0,1,.32-.24,1.94,1.94,0,0,1,1.33.39,1.13,1.13,0,0,0,.59.17c.26,0,.5.06.63.35,0,.07.17.1.27.12s.36,0,.54.08a.51.51,0,0,1,.28.18.58.58,0,0,0,.43.26l.6.1c0,.18.11.35.17.52a3.82,3.82,0,0,1-1.24-.48,3.36,3.36,0,0,0-.43-.2l-.72-.33a1.91,1.91,0,0,0-.51-.17,2.72,2.72,0,0,1-1.08-.33,2.51,2.51,0,0,0-.77-.21C41.75,16.62,41.59,16.6,41.5,16.44Z"/><path class="cls-3" d="M59.08,26.4a2.52,2.52,0,0,0,.52.26,5.74,5.74,0,0,0,.71.09,3.32,3.32,0,0,1,.55,0,.46.46,0,0,1,.27.24,4.61,4.61,0,0,1,.22.83.33.33,0,0,1-.15.27.29.29,0,0,1-.26-.09.79.79,0,0,0-.82-.41c-.12,0-.26-.13-.35-.23s-.26-.25-.45-.19-.34.08-.44-.13a.52.52,0,0,1,.08-.58Z"/><path class="cls-3" d="M46,15.58c-.09.05-.17.13-.26.14a1,1,0,0,1-.79-.17,1.82,1.82,0,0,0-.84-.4.75.75,0,0,1-.33-.17.87.87,0,0,0-.63-.23h-.6c-.15,0-.32,0-.33-.21s.16-.24.32-.24a2.36,2.36,0,0,1,1.39.34,1.29,1.29,0,0,0,.49.16l.69.19.3.09A.63.63,0,0,1,46,15.58Z"/><path class="cls-3" d="M40.28,14.93a.91.91,0,0,1,.3-.11c.33,0,.66,0,1,.08a.31.31,0,0,1,.24.13.62.62,0,0,0,.57.25,1.47,1.47,0,0,1,.42,0,.79.79,0,0,1,.44.21.62.62,0,0,0,.58.29,2.18,2.18,0,0,1,.51.09c.07,0,.11.15.17.23s-.16.15-.24.15c-.37,0-.8,0-1-.41,0-.07-.2-.1-.31-.11l-.72-.07a1.13,1.13,0,0,1-.48-.23,1.72,1.72,0,0,0-.71-.21,2.53,2.53,0,0,1-.73-.19A.45.45,0,0,0,40.28,14.93Z"/><path class="cls-3" d="M46.05,19.43c-.27.21-.41.22-.55,0a.52.52,0,0,0-.43-.24c-.22,0-.46,0-.54-.33,0-.06-.14-.11-.22-.13a1.9,1.9,0,0,1-.64-.31,2.07,2.07,0,0,0-.72-.2,1.67,1.67,0,0,1-.4-.09,1.47,1.47,0,0,1-.29-.28c.14-.05.21-.11.28-.1.31,0,.62.07.92.12a.22.22,0,0,1,.16.07c.14.25.39.28.63.36,0,0,.1,0,.12.07.17.27.45.29.71.34A1.51,1.51,0,0,1,46.05,19.43Z"/><path class="cls-3" d="M44.32,19.86a1.19,1.19,0,0,0-1,.12,1.64,1.64,0,0,1-1.48.05v-.37a3.45,3.45,0,0,1,.56,0,.72.72,0,0,0,.77-.25c.21-.26.53-.16.81-.12s.32.29.37.52Z"/><path class="cls-3" d="M47.71,17.92a1.11,1.11,0,0,0-1-.17c-.05-.06-.13-.12-.13-.17,0-.29-.24-.35-.45-.39s-.38-.08-.46-.31c0-.08-.18-.13-.28-.16s-.33,0-.48-.09-.15-.12-.24-.21a.81.81,0,0,1,1,.14,1,1,0,0,0,.31.15l.68.31a2.58,2.58,0,0,0,.44.22A.75.75,0,0,1,47.71,17.92Z"/><path class="cls-3" d="M64.26,34.74c-.24.26-.44.28-.61,0a.81.81,0,0,0-.56-.35c-.31-.07-.38-.32-.17-.54a3.07,3.07,0,0,0,.33-.45c.14-.19.2-.21.48-.06v.39a.72.72,0,0,0,.33.71A.9.9,0,0,1,64.26,34.74Z"/><path class="cls-3" d="M49.92,24.37c-.2.22-.33.2-.47.06a4,4,0,0,0-.4-.32h0a1.5,1.5,0,0,0-.84-.61c-.16,0-.15-.23,0-.37.24,0,.5.05.61.35a.31.31,0,0,0,.21.16C49.48,23.69,49.56,24.17,49.92,24.37Z"/><path class="cls-3" d="M61.15,28.41a.81.81,0,0,1,.67.44.34.34,0,0,1-.36.41,1.71,1.71,0,0,1-.53-.13.37.37,0,0,1-.26-.37c0-.2.16-.24.3-.3A1.32,1.32,0,0,1,61.15,28.41Z"/><path class="cls-3" d="M63.86,35.53a1.79,1.79,0,0,1,.24,0c.16,0,.32.1.35.29a.45.45,0,0,1-.16.47.36.36,0,0,1-.45,0,2,2,0,0,1-.41-.36c-.16-.2-.07-.4.19-.44h.24Z"/><path class="cls-3" d="M62,29.72c.28,0,.4.11.4.33a.51.51,0,0,1-.5.52,1.07,1.07,0,0,1-.34-.09c-.21-.1-.24-.24-.11-.44A.61.61,0,0,1,62,29.72Z"/><path class="cls-3" d="M48.46,20.94c-.27.31-.46.33-.64.07a.74.74,0,0,0-.44-.3.51.51,0,0,1-.21-.1.38.38,0,0,1-.08-.28.23.23,0,0,1,.2-.14.89.89,0,0,1,.42.12C48,20.5,48.2,20.72,48.46,20.94Z"/><path class="cls-3" d="M64.51,39.37c-.31-.14-.46-.39-.38-.63a.77.77,0,0,1,.72-.4c.2,0,.27.3.11.51S64.68,39.18,64.51,39.37Z"/><path class="cls-3" d="M63.08,32.09c.07,0,.2.08.23.16a.35.35,0,0,1-.06.27c-.14.22-.29.44-.58.45a.35.35,0,0,1-.27-.08.31.31,0,0,1,0-.28A1.06,1.06,0,0,1,63.08,32.09Z"/><path class="cls-3" d="M48.75,18.55c.22-.33.45-.35.66-.11s.22.21.31.33a.34.34,0,0,1,.07.24s-.12.11-.18.12-.24,0-.3,0A5.73,5.73,0,0,1,48.75,18.55Z"/><path class="cls-3" d="M51.41,20.52A1.1,1.1,0,0,1,50.7,20a.29.29,0,0,1,0-.21.54.54,0,0,1,.56,0c.14.09.31.42.26.54S51.45,20.48,51.41,20.52Z"/><path class="cls-3" d="M40.33,13.93c.32,0,.65-.12,1-.16a.83.83,0,0,1,.36.09.2.2,0,0,1,.09.16.22.22,0,0,1-.13.14.63.63,0,0,1-.3.07c-.31,0-.61-.08-.91-.13a.76.76,0,0,1-.16-.06Z"/><path class="cls-3" d="M62.37,31l.18,0c.18,0,.34.22.32.36s-.2.24-.37.24a.78.78,0,0,1-.3,0c-.14,0-.29-.13-.25-.28s.16-.19.26-.27S62.32,31,62.37,31Z"/><path class="cls-3" d="M49.54,23.18c-.45,0-.62-.46-.93-.67,0,0,0-.13,0-.25a1.25,1.25,0,0,1,.34.1c.21.11.42.24.63.36S49.79,23,49.54,23.18Z"/><path class="cls-3" d="M63.8,37.17c.15-.08.31-.17.47-.24a.31.31,0,0,1,.42.14.23.23,0,0,1,0,.24.39.39,0,0,1-.43.22,2.3,2.3,0,0,1-.48-.22Z"/><path class="cls-3" d="M48.88,19.71c.46,0,.66.13.71.42s0,.27-.22.22a2.35,2.35,0,0,1-.54-.22c-.08-.06-.11-.2-.16-.3Z"/><path class="cls-3" d="M44.37,19.82l.94-.05c.06.32,0,.44-.29.43s-.43-.07-.65-.1c0-.09,0-.16,0-.24Z"/><path class="cls-3" d="M43.54,20.13a2.66,2.66,0,0,1,.49,0,.26.26,0,0,1,.22.3c0,.15-.14.19-.28.2C43.58,20.65,43.45,20.53,43.54,20.13Z"/><path class="cls-3" d="M50.75,18.53c.41,0,.62.13.74.44C51.18,19.36,50.75,19.06,50.75,18.53Z"/><path class="cls-3" d="M63.67,38.3c0,.17-.1.28-.24.27a.36.36,0,0,1-.32-.32c0-.14.16-.3.29-.29A.29.29,0,0,1,63.67,38.3Z"/><path class="cls-3" d="M47.67,21.81a5.1,5.1,0,0,0-.55-.19c-.17-.06-.3-.12-.3-.33C47.31,21.11,47.55,21.26,47.67,21.81Z"/><path class="cls-3" d="M49,17.44c.23-.16.45-.18.58,0a.39.39,0,0,1,0,.56C49.39,17.82,49.14,17.73,49,17.44Z"/><path class="cls-3" d="M61.44,32.46c-.24-.13-.37-.3-.31-.44s.15-.19.21-.19a.38.38,0,0,1,.26.18A.3.3,0,0,1,61.44,32.46Z"/><path class="cls-3" d="M50.93,22.94a.21.21,0,0,1,.37-.05c.13.13.23.3.36.45C51.37,23.49,51.15,23.36,50.93,22.94Z"/><path class="cls-3" d="M51.2,22a4,4,0,0,1-.41-.41.17.17,0,0,1,.17-.28C51.33,21.3,51.43,21.55,51.2,22Z"/><path class="cls-3" d="M52.09,22.39c.29.1.52.16.62.4a.21.21,0,0,1,0,.19c-.05,0-.17.08-.21.05a1.78,1.78,0,0,1-.32-.35C52.12,22.62,52.12,22.53,52.09,22.39Z"/><path class="cls-3" d="M63,50.64c.22.14.19.33.15.53a.38.38,0,0,1-.48-.13A.37.37,0,0,1,63,50.64Z"/><path class="cls-3" d="M52.59,20.25c-.15-.08-.28-.18-.23-.35a.31.31,0,0,1,.23-.16c.06,0,.17.08.2.15S52.77,20.17,52.59,20.25Z"/><path class="cls-3" d="M44.83,20.9c-.16.21-.37.27-.48.14a.19.19,0,0,1,0-.28C44.47,20.63,44.67,20.69,44.83,20.9Z"/><path class="cls-3" d="M53.69,20.62a1.7,1.7,0,0,1,.17.29c0,.16-.08.23-.22.24s-.22-.1-.2-.21S53.57,20.76,53.69,20.62Z"/><path class="cls-3" d="M64.06,43.94c0,.12,0,.22,0,.38a2.45,2.45,0,0,1-.38-.12s0-.13,0-.18S63.88,43.88,64.06,43.94Z"/><path class="cls-3" d="M63.06,36.49c.11.14.22.23.2.28a.36.36,0,0,1-.19.24c-.12.05-.2-.07-.18-.18A1.32,1.32,0,0,1,63.06,36.49Z"/><path class="cls-3" d="M13.49,68.22c-.22.08-.36.08-.47,0s-.07-.26,0-.44Z"/><path class="cls-3" d="M45.87,29.86c.19-.22.32-.26.48-.09a1.3,1.3,0,0,0,.65.35.85.85,0,0,1,.25.13c.32.25.64.52,1,.77.17.13.27.27.19.48-.34.07-.41,0-.58-.21a.7.7,0,0,0-.29-.22c-.17-.07-.35-.11-.45-.3s-.11-.08-.17-.11c-.25-.1-.48-.18-.59-.48C46.28,30.05,46,30,45.87,29.86Z"/><path class="cls-3" d="M32.71,26.38a1.55,1.55,0,0,1-.37.2c-.72,0-1.44,0-2.16,0a2.42,2.42,0,0,1-.38,0l-.41-.12a1.84,1.84,0,0,1,1.32-.26,3.38,3.38,0,0,0,.45,0c.38,0,.76,0,1.15,0C32.41,26.2,32.52,26.29,32.71,26.38Z"/><path class="cls-3" d="M13.09,31.53c-.27-.05-.28-.23-.23-.46a1.22,1.22,0,0,0,.83-1.22l.73.07a.48.48,0,0,1-.13.53C13.91,30.81,13.51,31.16,13.09,31.53Z"/><path class="cls-3" d="M17.63,31s0-.05,0-.06a1.17,1.17,0,0,1,1-.81c.1,0,.25.05.26.11a.35.35,0,0,1-.08.3C18.38,31,18.17,31.1,17.63,31Z"/><path class="cls-3" d="M16.24,31.84c.34-.58.75-.82,1.21-.7a.39.39,0,0,1-.2.44,1.14,1.14,0,0,0-.32.3C16.71,32.19,16.44,32.17,16.24,31.84Z"/><path class="cls-3" d="M35.84,26.65c.47,0,.9,0,1.34,0,.16,0,.29,0,.3.25S37.14,27,37,27s-.6,0-.9,0S35.72,26.93,35.84,26.65Z"/><path class="cls-3" d="M39.23,27.39c-.39.25-.63.23-.89-.08,0-.18.18-.21.34-.21A.51.51,0,0,1,39.23,27.39Z"/><path class="cls-3" d="M45.24,27.84c-.26.16-.48.15-.6,0s-.11-.33.06-.53A1.44,1.44,0,0,1,45.24,27.84Z"/><path class="cls-3" d="M19.88,29.86c-.16.23-.39.21-.62.17a.14.14,0,0,1-.11-.23.5.5,0,0,1,.48-.21A.23.23,0,0,1,19.88,29.86Z"/><path class="cls-3" d="M45.61,29.43c-.18.17-.35.09-.53,0s-.2-.11-.14-.22a.33.33,0,0,1,.26-.16A.43.43,0,0,1,45.61,29.43Z"/><path class="cls-3" d="M46.22,26c-.08,0-.17.11-.25.1a.73.73,0,0,1-.34-.14.25.25,0,0,1,0-.22c0-.06.15-.12.19-.1a3.09,3.09,0,0,1,.44.24A.49.49,0,0,1,46.22,26Z"/><path class="cls-3" d="M43,28.83c-.19.32-.38.33-.62.05C42.55,28.55,42.71,28.54,43,28.83Z"/><path class="cls-3" d="M43.23,27.88c-.14.16-.28.24-.46.14s-.13-.1-.12-.14a.26.26,0,0,1,.12-.18C42.94,27.59,43,27.63,43.23,27.88Z"/><path class="cls-3" d="M26.68,26.92c-.19.19-.37.24-.44.12a.27.27,0,0,1,0-.26C26.36,26.66,26.5,26.71,26.68,26.92Z"/><path class="cls-3" d="M28,26.57c.15.14.28.28.13.42s-.29.06-.4-.15Z"/><path class="cls-3" d="M34.33,26.39c.18-.22.36-.12.55-.1C34.81,26.57,34.63,26.6,34.33,26.39Z"/><path class="cls-3" d="M16.89,29.85c-.21.21-.33.25-.41.12a.2.2,0,0,1,0-.21C16.63,29.61,16.75,29.7,16.89,29.85Z"/><path class="cls-3" d="M3.91,31.68a1.44,1.44,0,0,1,.23-.4.3.3,0,0,1,.28,0,.37.37,0,0,1,.11.26,2.47,2.47,0,0,1-.11.36c0,.13-.09.21-.24.19A.24.24,0,0,1,4,31.81V31.7Z"/><path class="cls-3" d="M4.69,29.79A1.93,1.93,0,0,1,5,29.55a.23.23,0,0,1,.32.12c0,.06,0,.21,0,.24A.5.5,0,0,1,5,30C4.9,30,4.82,29.88,4.69,29.79Z"/><path class="cls-3" d="M11,23.64s-.14-.1-.16-.19.12-.26.29-.26.22.06.21.2S11.21,23.63,11,23.64Z"/><path class="cls-3" d="M4.5,35a.83.83,0,0,1-.32,0,.28.28,0,0,1-.15-.2.2.2,0,0,1,.11-.17.43.43,0,0,1,.28.05,1,1,0,0,1,.14.3A.19.19,0,0,0,4.5,35Z"/><path class="cls-3" d="M30,64.88l.43-.31c.06.29-.23.36-.31.55C30,65,30,65,30,64.88Z"/></g></g></svg>