<svg xmlns="http://www.w3.org/2000/svg" xmlns:xlink="http://www.w3.org/1999/xlink" viewBox="28.93 0 81 81"><defs><style>.cls-1{fill:none;}.cls-2{fill:#d3d0ce;opacity:0.6;}.cls-3{clip-path:url(#clip-path);}.cls-4{fill:#4d5858;}</style><clipPath id="clip-path"><path class="cls-1" d="M109.68,40.33A40.33,40.33,0,1,1,69.35,0,40.33,40.33,0,0,1,109.68,40.33Z"/></clipPath></defs><title>river_extradry</title><g id="Layer_2" data-name="Layer 2"><g id="Layer_1-2" data-name="Layer 1"><path class="cls-2" d="M109.68,40.33A40.33,40.33,0,1,1,69.35,0,40.33,40.33,0,0,1,109.68,40.33Z"/><g class="cls-3"><path class="cls-4" d="M135.92,16.61c0,.6,0,1.19-.06,1.79-.25,0-.5,0-.76,0a1,1,0,0,0-.62.25c-.29.28-.59.55-.9.82a9.52,9.52,0,0,1-.87.7,18.14,18.14,0,0,1-2.94,1.43c-.61.25-1.18.6-1.82.8a8.44,8.44,0,0,1-1.2.4,1.51,1.51,0,0,0-1.11.8,1.76,1.76,0,0,1-.23.37.69.69,0,0,0-.17.49,1.43,1.43,0,0,1-.48,1.08,1.45,1.45,0,0,0-.34.47,5.73,5.73,0,0,1-.45.75c-.19.27-.39.53-.59.78a16.11,16.11,0,0,1-1.09,1.38c-.55.56-1,1.2-1.51,1.79a1,1,0,0,0-.12.28c.3.12.55,0,.8,0a2.17,2.17,0,0,0,1.41-.81c.34-.36.64-.76.95-1.15a0,0,0,0,0,0,0l.14-.1s0,0,0,0l.11-.3c.07.15,0,.23-.11.3l0,0-.13.1s0,0,0,0a.78.78,0,0,1-.16.58c-.34.53-.69,1.07-1,1.59a.75.75,0,0,1-.33.26,4.4,4.4,0,0,1-1.34.24,1.88,1.88,0,0,0-.62.11,7.63,7.63,0,0,1-2.06.37l-1.61.07-.54,0c-.29,0-.58,0-.86.08a2,2,0,0,1-.73,0,3.16,3.16,0,0,0-1.26.07,1.93,1.93,0,0,0-1.1.68,3,3,0,0,1-.28.34c-.31.26-.62.52-.94.77a2.18,2.18,0,0,1-.46.28l-1.72.79-.4.2c-.46.26-1,.51-1.4.79a4.81,4.81,0,0,1-2.57.63,5.76,5.76,0,0,0-1,.1,6.67,6.67,0,0,1-1.26.15,10.69,10.69,0,0,0-1.5.09,2.55,2.55,0,0,1-.73,0c-.16,0-.33,0-.48,0l-1-.07a1.3,1.3,0,0,0-.39,0,1.76,1.76,0,0,1-.91-.08.84.84,0,0,0-.83.14.91.91,0,0,1-.37.21,2.24,2.24,0,0,0-.64.45c-.19.16-.47.23-.65.4a3.46,3.46,0,0,1-1.11.68,4.71,4.71,0,0,0-1.07.49.72.72,0,0,1-.27.1L90,40.07c-.31.07-.63.15-.94.25a4.73,4.73,0,0,1-1.54.25,7.85,7.85,0,0,0-1.6.13,2.21,2.21,0,0,1-.63,0,8.79,8.79,0,0,0-1.7-.06,4.57,4.57,0,0,1-.83,0c-.84-.09-1.68-.18-2.52-.3a11.47,11.47,0,0,1-1.3-.25,5.24,5.24,0,0,0-.89-.21,1,1,0,0,1-.41-.15,3.66,3.66,0,0,0-1-.37,3,3,0,0,1-1-.4,1.12,1.12,0,0,0-.48-.2,2,2,0,0,1-.87-.29,1.18,1.18,0,0,0-1.12-.12c-.64.31-1.28.62-1.92,1a1.79,1.79,0,0,0-.38.3,2.51,2.51,0,0,1-.48.32,5,5,0,0,1-1.43.48c-.49,0-.95.3-1.45.38-.25,0-.5.13-.75.18a1.57,1.57,0,0,0-.77.29,1.26,1.26,0,0,1-1,.28c-.22,0-.43,0-.64,0a3.54,3.54,0,0,0-.92.06c-.61.09-1.23.16-1.85.2s-1.36,0-2,.13a8.63,8.63,0,0,1-1.9.06l-2.3-.11a11.34,11.34,0,0,0-1.75-.06,2.8,2.8,0,0,1-1.24-.21c-1-.38-1.82-1-2.73-1.41-.07,0-.1-.12-.17-.21s.12,0,.15,0c.69.17,1.39.34,2.08.53a1.07,1.07,0,0,1,.37.22,1.46,1.46,0,0,0,.66.29,17.17,17.17,0,0,0,2.77.24,5.05,5.05,0,0,1,.68.06c.23,0,.45.05.68.07.42,0,.84.05,1.27.06l.58,0,.77-.07H60c.14,0,.27,0,.27-.22s-.09-.2-.21-.22l-.67-.12a5,5,0,0,1-1.62-.32,3.9,3.9,0,0,0-.57-.13l-1-.29c-.17-.06-.33-.13-.51-.18-.43-.14-.87-.26-1.3-.41s-.63-.26-.95-.39l-.53-.22c-.45-.19-.91-.37-1.34-.59s-1.06-.57-1.59-.86a10.6,10.6,0,0,1-1.21-.62c-.57-.39-1.1-.86-1.66-1.28a3.18,3.18,0,0,0-.66-.41,1.64,1.64,0,0,0-1.23,0c-.37.13-.72.31-1.08.46a1.07,1.07,0,0,1-.32.1,7.24,7.24,0,0,0-1.54.22c-.28,0-.55,0-.82.09l-1,.11a3.15,3.15,0,0,0-.44,0c-.5.1-1,0-1.49,0h-.05c-.51,0-1,0-1.55-.06a.26.26,0,0,0-.3.27,2.62,2.62,0,0,0,1,.38,4.61,4.61,0,0,1,.62.14,4.64,4.64,0,0,0,1.43.27,2.45,2.45,0,0,1,.39,0,2.13,2.13,0,0,0,.87,0,2.84,2.84,0,0,1,.77,0,6.53,6.53,0,0,0,1.17,0c.38,0,.74-.09,1.12-.13.2,0,.39,0,.5.2a.41.41,0,0,1-.32.29c-.31.06-.63.11-1,.15l-.68.09s-.11.09-.17.14a.8.8,0,0,0,.76.16l1.64-.24a.39.39,0,0,1,.15,0,1.49,1.49,0,0,0,.81,0,.71.71,0,0,1,.2,0s0,.09-.06.09a3.59,3.59,0,0,1-1.2.34.73.73,0,0,0-.24.07c-.38.13-.76.29-1.14.41a3.45,3.45,0,0,1-1.24.22c-.44,0-.88,0-1.32,0a1.27,1.27,0,0,0-.28.06,4.48,4.48,0,0,1-1.16.11c-.69-.1-1.4-.13-2.09-.2a2.53,2.53,0,0,1-.48-.08,2.33,2.33,0,0,1-1.45-1c-.07-.11-.15-.21-.23-.32a2,2,0,0,0-.76-.73,1.46,1.46,0,0,1-.65-.65,1.89,1.89,0,0,0-.8-.83A4.09,4.09,0,0,1,31.29,34a.87.87,0,0,0-.19-.23.78.78,0,0,0-.24-.16l-1.46-.37c-.22,0-.45-.07-.66-.14a9.13,9.13,0,0,1-.89-.27l-1.16-.37c-.62-.2-1.24-.38-1.87-.57l-.1,0a1.8,1.8,0,0,1-.87-.26c-.56-.27-1.13-.52-1.68-.79a15.45,15.45,0,0,1-2.28-1.1c-.18-.14-.38-.26-.57-.38l-2.71-1.55a6,6,0,0,1-.87-.63c-.34-.28-.7-.53-1.05-.79l-1.38-1.08-.1-.11a7.39,7.39,0,0,0-1.37-1.31,7.14,7.14,0,0,1-.56-.54,9.94,9.94,0,0,0-.78-.81,3.75,3.75,0,0,0-1.91-1,1.7,1.7,0,0,1-.32-.1,5.67,5.67,0,0,0-.57-.1,4.11,4.11,0,0,1-1.21-.16A2.29,2.29,0,0,0,5.39,21a2,2,0,0,1-1.22-.25c-.42-.22-.87-.37-1.3-.55l-.09,0c-.3-.09-.59-.19-.89-.26l-.64-.2c-.06-1.14-.09-2.29-.09-3.44l0-14.92A8.14,8.14,0,0,0,0,.19l0,16a68.54,68.54,0,0,0,137.07.61ZM50.39,39.18a10.23,10.23,0,0,1,2,.53,4.64,4.64,0,0,0,1,.25c.42.08.84.12,1.26.2a2.24,2.24,0,0,1,.5.16.25.25,0,0,1,.12.38.85.85,0,0,1-.7,0,9.49,9.49,0,0,0-1.9-.42,9.56,9.56,0,0,1-1.17-.3l-1-.26c-.26-.07-.54-.12-.66-.48A.64.64,0,0,1,50.39,39.18Zm79.44-16a.49.49,0,0,1,.24-.16,4.3,4.3,0,0,0,1.4-.75c.14-.08.29-.13.44-.2a3,3,0,0,0,.48-.23,6.1,6.1,0,0,1,1.16-.61,5.72,5.72,0,0,0,.8-.44c.26-.15.51-.3.76-.43a.21.21,0,0,1,.3.08.24.24,0,0,1-.09.3l-.38.23a7.9,7.9,0,0,0-.85.47,7.21,7.21,0,0,1-1.54.9,5.08,5.08,0,0,0-1.28.79c-.4.34-.9.33-1.34.52,0,0,0,0-.05,0a.17.17,0,0,1-.18-.22A.5.5,0,0,1,129.83,23.18Zm-.31,2.61,0,.07-.25.1a.14.14,0,0,0,0-.06Zm1.29,0a1.1,1.1,0,0,1,.82-.13c-.1.1-.14.17-.19.21s-.31.19-.45.3a2,2,0,0,1-.69.35,1.42,1.42,0,0,0-.47.25c-.17.13-.12.28.13.45a1.53,1.53,0,0,1-.32.22,12.54,12.54,0,0,1-2.38.79c.11-.11.23-.22.33-.34s.16-.29.24-.42a1.61,1.61,0,0,1,.74-.62C129.33,26.51,130.06,26.14,130.81,25.78ZM130.38,27a.59.59,0,0,1,0,.08l-.08,0,.07-.05Zm-3,2.29a1.1,1.1,0,0,1-1.28,1.17c.07-.29.13-.56.21-.85C126.64,29.38,127,29.43,127.4,29.28Zm.58-4.07,0,.07-.22.1s0,0,0-.06Zm-.9,1.54h0a.9.9,0,0,1,.67-.78c.17,0,.32-.2.54-.18a1.14,1.14,0,0,1-1.21,1v0h0Zm-.87-.2a.65.65,0,0,1-.56.64C125.7,26.81,126,26.69,126.21,26.55Zm-1.77,4c.12-.33.26-.66.38-1a1.58,1.58,0,0,1,.14-.36,6.89,6.89,0,0,1,1.39-1.61,3.54,3.54,0,0,1,1-.26c0,.23-.15.31-.26.41a1.06,1.06,0,0,0-.43.69l-.73.24a1.31,1.31,0,0,0-.87.91c-.11.32-.24.64-.37.95a.92.92,0,0,1-.15.25s-.07.05-.15.1A3,3,0,0,1,124.44,30.57Zm-.54,4a.1.1,0,0,1,.06,0l-.07,0a.14.14,0,0,1,0-.07ZM123.45,31v0l.14-.07a.17.17,0,0,0,0-.07v.08l-.14.07h0v.11C123.35,31,123.41,31,123.45,31Zm.6,6.71c0,.23-.07.33-.2.36q-.43.09-.87.15s-.1,0-.16-.09C123.16,37.73,123.64,37.87,124.05,37.68Zm-.31,5h0Zm-.93-9.28c-.06.34-.1.37-.62.36C122.35,33.49,122.49,33.28,122.81,33.41Zm-.24,3.28-.06,0,0,0h0s0,.08-.06.1-.07,0-.11,0,0-.07,0-.07a.42.42,0,0,1,.12,0h.05l0,0Zm-1.44-2.79h0c0-.17,0-.24.25-.22l-.25.22s0,0,0,0l0,0Zm-.45,1.62a.59.59,0,0,1,.76-.33l-.59.6C120.66,35.73,120.61,35.63,120.68,35.52Zm-.11,4c-.29,0-.57-.13-.84,0s-.68.32-1,.52a3.89,3.89,0,0,1-1.28.58.41.41,0,0,1-.19,0,8.27,8.27,0,0,1,1.4-1,9.43,9.43,0,0,0,1-.55,1,1,0,0,1,.64-.17C120.67,39,120.75,39.16,120.57,39.56Zm-1.33-4h0c0,.05,0,.1,0,.12a2.33,2.33,0,0,1-1.69.6s0,0,0-.07a2.75,2.75,0,0,1,1.73-.65h0l0,0Zm.69,1.23,0,0h0a4.31,4.31,0,0,1-1,.63l0,0h0l-.13.13,0-.06.17-.07,0,0h0A1.61,1.61,0,0,1,119.93,36.77Zm-2.4.16a2,2,0,0,1-.87.54c-.19,0-.33,0-.37-.15a.33.33,0,0,1,.25-.4c.31-.06.64-.07.95-.1A.36.36,0,0,1,117.53,36.93Zm.48-2.64a.6.6,0,0,1,.26-.11l1.77-.37s.06,0,.16,0a1.8,1.8,0,0,1-1,.53,1.06,1.06,0,0,0-.85.5.48.48,0,0,1-.23.16,1.26,1.26,0,0,1-.86,0A4.41,4.41,0,0,1,118,34.29Zm-2,1.6a.3.3,0,0,1,.2-.12,2.91,2.91,0,0,1,1.14,0,2.07,2.07,0,0,1-1.17.54.37.37,0,0,1-.25-.09C115.82,36.09,115.89,36,116,35.89Zm-1.37,1.16a.73.73,0,0,1-.16.18c-.25.21-.49.42-.75.62s-.18.14-.51.06c.08-.21.15-.39.23-.57a.64.64,0,0,1,.67-.37Zm-.44-2.3a.17.17,0,0,1,.1.27.56.56,0,0,1-.42.21c-.17,0-.36.09-.52-.06C113.58,34.79,113.86,34.66,114.17,34.75Zm-7.86,3.17a5,5,0,0,1,1.3-.54,2.76,2.76,0,0,0,1.42-.59,2.13,2.13,0,0,1,.25-.16,10.85,10.85,0,0,0,2.76-2,1.81,1.81,0,0,1,.3-.25,1.46,1.46,0,0,0,.51-.51.7.7,0,0,1,.25-.23.21.21,0,0,1,.34.19.58.58,0,0,1-.09.28c-.18.28-.39.55-.6.82a.55.55,0,0,1-.18.16c-.55.29-1,.76-1.5,1.08s-.89.61-1.35.86-.86.38-1.29.57l-.5.2-.7.22-.7.2c-.14,0-.29.09-.4-.11C106.19,38.05,106.23,38,106.31,37.92Zm-2.6,2.6a7.25,7.25,0,0,1,.74-.26l1.12-.32.93-.28a2.29,2.29,0,0,0,.37-.12l.32-.14A25.23,25.23,0,0,0,110.4,38a2.29,2.29,0,0,0,.5-.3c.33-.25.63-.51.94-.77a2.88,2.88,0,0,0,.28-.33A1.61,1.61,0,0,1,113,36a1.11,1.11,0,0,1,.19,0,.28.28,0,0,1-.19.33,1.38,1.38,0,0,0-.3.14,6.83,6.83,0,0,0-1,.89,3.46,3.46,0,0,1-1.28.94,13,13,0,0,0-1.31.74,4.65,4.65,0,0,1-1.08.45c-.24.07-.49.16-.72.25a12.17,12.17,0,0,1-2,.67c-.27.06-.53.16-.79.24a1.65,1.65,0,0,1-1,.11C103.6,40.64,103.64,40.55,103.71,40.52Zm5.88-.48c-.27.15-.53.32-.79.48a2.19,2.19,0,0,1-.29.17,5.51,5.51,0,0,1-1.44.35h0l-.22.06-.09.15h0l0,0,.09-.14.22-.06h0a.43.43,0,0,1,.3-.26,12.29,12.29,0,0,0,1.89-1c.34-.22.73-.35,1.09-.54s.47-.29.7-.44a4.48,4.48,0,0,1,.86-.49.94.94,0,0,1-.14.19A12.76,12.76,0,0,1,109.59,40Zm.66.11,0,0v0ZM107,41.63l0,0h0Zm-2.85.43c.57-.21,1.16-.4,1.75-.59a1.75,1.75,0,0,1,.32,0h0l.21-.1h0l0,0-.21.1h0c0,.07,0,.15,0,.25l.29.09a15.87,15.87,0,0,1-4.84,1s0-.07,0-.08A17.91,17.91,0,0,0,104.17,42.06Zm-2.36-1.21c.18,0,.31,0,.33.14a.24.24,0,0,1-.3.23,1.87,1.87,0,0,0-.67,0c-.12,0-.25.1-.42-.11C101.13,41,101.46,40.93,101.81,40.85Zm-2.78,4a8.25,8.25,0,0,0,2.33-.7,3.92,3.92,0,0,1,1.34-.4,4.88,4.88,0,0,0,.86-.19c.15,0,.28-.08.43-.1a6.45,6.45,0,0,0,1.74-.44,1.46,1.46,0,0,1,.92-.09,1.15,1.15,0,0,1-.61.31l-2.11.73a3.48,3.48,0,0,0-.39.22.89.89,0,0,0,.58,0l2.47-.74c.3-.1.57-.25.86-.36a1.8,1.8,0,0,1,.41-.14,4.41,4.41,0,0,0,1.39-.56c.52-.34,1.08-.6,1.61-.92s.75-.51,1.13-.77a.52.52,0,0,0,.17-.16,1.81,1.81,0,0,1,.77-.73,1.34,1.34,0,0,0,.2-.21l.53-.54v0h0l0,0,0,0h-.1v.47l-.55.41a1.37,1.37,0,0,0-.18.16A17.68,17.68,0,0,1,110.77,42a11.42,11.42,0,0,1-3,1.49,3.11,3.11,0,0,0-.61.29,9,9,0,0,1-2.33,1.08c-.34.11-.67.24-1,.37a1.49,1.49,0,0,0-.24.18,1.35,1.35,0,0,0,.85-.09,12.69,12.69,0,0,1,1.67-.38.91.91,0,0,1-.16.11c-.54.18-1.07.37-1.61.54s-1.06.32-1.59.47c-.36.1-.73.16-1.1.25-.61.15-1.22.33-1.83.5l-.6.19a.47.47,0,0,1-.28,0,1.88,1.88,0,0,0-1,0c-.2,0-.2,0-.4-.17.28-.21.72,0,1-.39-.22-.23-.48,0-.72-.09a1.17,1.17,0,0,1,0-.76c.2-.14.51,0,.7-.33a3,3,0,0,1-.35-.22C98.5,45,98.76,44.9,99,44.86Zm13-2.28a2.73,2.73,0,0,1-1.11.84c0-.13,0-.21.07-.25a.85.85,0,0,1,.19-.14C111.46,42.87,111.75,42.73,112,42.58Zm-7,3.64a.8.8,0,0,1-.74.23c.1-.12.14-.2.21-.24S104.69,46.12,105,46.22Zm-3.16,21.34h0c-.21.07-.41.16-.61.21a1.18,1.18,0,0,1-1.16-.5,1.09,1.09,0,0,1-.17-1,1.24,1.24,0,0,1,1.68-.72,1.1,1.1,0,0,1,.67,1.26,1,1,0,0,1-.31.57l-.1.13Zm-.66-18.66.11-.1a.58.58,0,0,1,.14,0l0,.06-.24.13Zm1,17.09v0l0-.09v0s0,0,0,0A.41.41,0,0,1,102.22,66ZM102,47.18s-.16,0-.23,0a9,9,0,0,0-.89.25c-.08,0-.13.16-.24.31a14.81,14.81,0,0,1-2.27.55,3.24,3.24,0,0,1,.13-.33,1.67,1.67,0,0,0-.29,0,5.84,5.84,0,0,0-.73.05,1.45,1.45,0,0,0-.45.13c-.19.08-.38.18-.57.28s-.35.15-.52.25a1.1,1.1,0,0,1-.68.19c0-.2-.06-.35-.09-.53a2.1,2.1,0,0,1,1-.54l.76-.19c.08,0,.18-.06.23,0,.31.16.57,0,.84-.12a.72.72,0,0,1,.28-.07,4.74,4.74,0,0,0,1.86-.29,2.15,2.15,0,0,1,.56-.12,13.59,13.59,0,0,0,2.12-.35,1.57,1.57,0,0,1,.53,0c.06,0,.17.09.17.14a.35.35,0,0,1-.1.25.72.72,0,0,1-.25.12l-.61.19C102.39,47.3,102.2,47.4,102,47.18ZM70.49,78a2.17,2.17,0,0,1,1-.17c-.18.2-.42.11-.7.22l-.1.14h0c-1.45-.8-2.91-1.6-4.35-2.41A44.69,44.69,0,0,0,62,73.64a21.11,21.11,0,0,0-4.39-1.31,18.76,18.76,0,0,0-3.74-.23,19.15,19.15,0,0,0-4.46.73c-1.34.37-2.67.74-4,1.08a12.91,12.91,0,0,1-3.33.45c-.63,0-1.27,0-1.9,0s-1.18-.18-1.78-.27l-3.18-.54a1.88,1.88,0,0,1,.66,0l2.66.3a19.3,19.3,0,0,0,4.09.17,22.57,22.57,0,0,0,2.7-.41c1.21-.25,2.4-.57,3.6-.87a33,33,0,0,1,3.81-.78c.62-.07,1.23-.11,1.86-.15a17.13,17.13,0,0,1,2.77.12,16.86,16.86,0,0,1,3.56.82,23.78,23.78,0,0,1,4.6,2.22c.8.48,1.58,1,2.37,1.47a4.23,4.23,0,0,0,.47.25v0h0l0-.09a0,0,0,0,1,0,0h0s0,0,0,0h0l.05.09h0v0a.18.18,0,0,1,.18.08h0v0h.08l-.08.06v0a4,4,0,0,0,1.26.78h0a.89.89,0,0,1,.52-.14c.56,0,1.12-.07,1.76-.11a5.65,5.65,0,0,1-2.28.25h0A1.47,1.47,0,0,0,70.49,78Zm.57.4h0s0,0,0,0l0,0Zm-.17-.11h-.06s0,0,0,0l0,0ZM31,69.71a5.59,5.59,0,0,1,2.6,1.07,7.57,7.57,0,0,1,1.95,2,2.39,2.39,0,0,1,.13.21s0,0,0,.1l-.36-.33a10,10,0,0,0-2.49-1.79,4.89,4.89,0,0,0-2.25-.55c-.18,0-.35,0-.58,0a1,1,0,0,1,0-.18l.27-.49A1.27,1.27,0,0,1,31,69.71Zm-.37-.83v-.36a1.63,1.63,0,0,1,1-.08,4,4,0,0,1,2,1,9.5,9.5,0,0,1,1.56,1.73c.41.58.8,1.18,1.21,1.78-.16,0-.23-.07-.3-.14L35,71.53c-.43-.49-.84-1-1.29-1.45a3.82,3.82,0,0,0-2-1.13,2.78,2.78,0,0,0-.57-.07Zm9.68-11.65A1.5,1.5,0,0,1,41,59a1.32,1.32,0,0,1-1,1L40,60h-.29l-.49-.2a1.15,1.15,0,0,1-.58-.68A1.52,1.52,0,0,1,39,57.4,1.22,1.22,0,0,1,40.27,57.23Zm-.5-1.15h0v0Zm8.41-6.87a3.39,3.39,0,0,0,.43.11,9.23,9.23,0,0,1,1.94.77.9.9,0,0,1,.39.32,1.58,1.58,0,0,1-.88-.17,1.81,1.81,0,0,0-1.23-.18.88.88,0,0,1-.28,0l-1-.18a.89.89,0,0,1-.26-.09c-.32-.17-.32-.43,0-.61.13-.07.28-.13.23-.31s-.21-.17-.43-.08c-.38.15-.74.32-1.14.49L45.54,49c.07-.22.26-.24.39-.34A.23.23,0,0,0,46,48.5c0-.12-.14-.13-.24-.09l-.77.37-.46-.22.5-.3c.33-.2.65-.42,1-.62a.63.63,0,0,1,.73,0l.16.11,1.06.9a2.06,2.06,0,0,1,0,.21A.32.32,0,0,0,48.18,49.21Zm9,2c.31,0,.61-.06.92-.07s.68,0,1,0c.11,0,.11,0,.3.21-.13.23-.37.23-.59.25H58a1.37,1.37,0,0,0-.29,0,8,8,0,0,1-3-.14c-.28-.06-.55-.18-.86-.28a1.07,1.07,0,0,1,.84-.18Zm-.73-.42v0h.3v0Zm4.16.07a5.06,5.06,0,0,0,1.1,0,1,1,0,0,1,.52.13c0,.2-.17.21-.3.22-.48.05-1,.11-1.45.15a1.21,1.21,0,0,1-.42,0,.16.16,0,0,1,0-.3C60.2,51,60.42,50.81,60.6,50.85Zm-.37-.59h0a0,0,0,0,1,0,0h0S60.23,50.28,60.23,50.26Zm1.38,4.93c2,0,2.62,1.74,2.62,3.92S63.59,63,61.61,63,59,61.31,59,59.11,59.63,55.19,61.61,55.19ZM71.42,77a1.19,1.19,0,0,0,.26,0h0l1.41-.27a1.8,1.8,0,0,1-1.41.27h0s0,0,0,0-.06.07-.1.07a8.25,8.25,0,0,1-2.38,0s-.08,0-.14-.09.1,0,.13,0a5.7,5.7,0,0,0,1.3.1C70.8,77.05,71.11,77,71.42,77Zm-.33-32.12a.48.48,0,0,1,.41-.17s0,0,0,0l0,0h0C71.42,44.93,71.24,44.87,71.09,44.91Zm2.14,6,2,.32.52.62,0,0c-.66-.09-1.32-.16-2-.27a1.26,1.26,0,0,1-1-.54A.41.41,0,0,1,73.23,50.91Zm-.09-1.83a2.87,2.87,0,0,1,1.28,0C74.09,49.48,73.71,49.48,73.14,49.08Zm4.07,9.63h0a2.21,2.21,0,0,1,2-1.36c1.32,0,1.8.77,1.8,2.11V62a.21.21,0,0,0,.24.23h.45v.64H81c-.46,0-.65-.2-.65-.66V59.64c0-.89-.19-1.62-1.18-1.62a2,2,0,0,0-1.72,1.53,2.81,2.81,0,0,0-.09.79v2.57h-.73V59.64c0-.82-.12-1.62-1.15-1.62a2,2,0,0,0-1.77,1.6,2.78,2.78,0,0,0-.09.72v2.57h-.73V58.35a.22.22,0,0,0-.24-.23h-.45v-.64h.75c.46,0,.66.2.66.61v.25c0,.21,0,.39,0,.39h0a2.23,2.23,0,0,1,2-1.38A1.5,1.5,0,0,1,77.21,58.71Zm-1-8.7,1.18.21,0,.13-1.28,0C76,50.06,76,50,76.19,50Zm7.93,12.26h.45v.64h-.76c-.46,0-.66-.2-.66-.66v-6a.22.22,0,0,0-.24-.24h-.45v-.64h.77c.46,0,.65.2.65.66V62A.21.21,0,0,0,84.12,62.27Zm4.81-18.45c.35-.08.69-.19,1-.27L92.15,43a1.78,1.78,0,0,0,.36-.14c.2-.09.4-.21.61-.29a3.5,3.5,0,0,0,1.6-1c.14.19.16.32,0,.42a6.12,6.12,0,0,1-.56.45c-.17.13-.37.22-.52.36a6.38,6.38,0,0,1-1.27.72.6.6,0,0,1-.19,0c0-.29.36-.22.51-.42-.07,0-.14-.1-.19-.08-.46.13-.93.27-1.39.44A.33.33,0,0,0,91,44l-2.41.65a2.17,2.17,0,0,1-.57.07,11.43,11.43,0,0,0-2.48.19,2.87,2.87,0,0,1-1,0c-.17,0-.36,0-.59-.05a4.29,4.29,0,0,1,1.66-.58h.15a8.41,8.41,0,0,1,1.94-.2A9,9,0,0,0,88.93,43.82Zm-.38-.39,0,0h.11c.19-.28.49-.29.81-.33-.23.21-.23.21-.81.33a0,0,0,0,1,0,0h-.15Zm1.24-.4h0l0,0,0,0Zm.63-.13c.34-.33.75-.27,1.07-.42s.7-.26,1.05-.41a5.77,5.77,0,0,1,1.06-.38.9.9,0,0,1-.15.18,3.93,3.93,0,0,1-1.61.66,2.21,2.21,0,0,0-.64.22A1.53,1.53,0,0,1,90.42,42.9Zm6.65,6.71a2.44,2.44,0,0,1-1.27.47s0-.08,0-.08c.23-.15.46-.32.69-.44A.46.46,0,0,1,97.07,49.61Zm-.18-.86,1.09,0c0,.17-.06.26-.21.25l-.87-.11A.34.34,0,0,0,96.89,48.75Zm-1.48.58h0l0,0a5.37,5.37,0,0,1-.81.69c-.13.12-.3.06-.47-.07.08-.08.14-.18.23-.22l1-.4s0,0,0,0h0c.06-.15.19-.21.42-.25C95.7,49.26,95.59,49.36,95.41,49.33ZM95,67,95,66.84c.12.07.12.07.07.13h0l0,.21-.23-.25h0L95,67Zm-2.91-7a.8.8,0,0,1,.17.87.83.83,0,0,1-.79.59,1.39,1.39,0,0,1-.4-.06A.88.88,0,0,1,90.73,60a.85.85,0,0,1,1-.32,1.05,1.05,0,0,0,.21.06h0ZM91.38,45.4a6,6,0,0,1-.59.22,3.15,3.15,0,0,1-.52.09.19.19,0,0,1,0-.07,1.65,1.65,0,0,1,.36-.22A30.92,30.92,0,0,0,93.72,44H94c0,.09,0,.17-.06.2a2.31,2.31,0,0,1-.36.25ZM84,45.31a2.83,2.83,0,0,1,.47,0,1.67,1.67,0,0,1-.79.3c-.49.1-1,.16-1.49.22a4.42,4.42,0,0,1-.63,0,.93.93,0,0,0-.78.16.69.69,0,0,1-.47.07,6.44,6.44,0,0,1-1.39-.4c.46-.07.81-.12,1.16-.19a2.85,2.85,0,0,0,.7-.22,1.45,1.45,0,0,1,.79-.14c.18,0,.36,0,.54.06A6.64,6.64,0,0,0,84,45.31Zm.16.92h.06l1-.44c.17-.08.37-.1.47-.31a.3.3,0,0,1,.2-.12,7,7,0,0,1,1-.1,6.77,6.77,0,0,0,2.36-.36,9.83,9.83,0,0,1,1-.24.76.76,0,0,1-.49.29,11.83,11.83,0,0,0-2.19.68,1.47,1.47,0,0,1-.28.08l-3.07.52,0,0H84.1Zm6.07,22.32a.33.33,0,0,1-.38,0C90,68.41,90,68.41,90.24,68.55Zm-.69-22.76c-.26.21-.27.22-.51.21h0c-.13.17-.33.09-.49.16.13-.16.32-.14.49-.16h0Zm-2.32,14h0S87.22,59.74,87.23,59.75Zm-.26,0v0h0Zm-1.2.12h0l0,0Zm-.31-11.16a1.56,1.56,0,0,1-.94.19C84.81,48.58,85.09,48.63,85.46,48.68Zm-3.81.89a2.69,2.69,0,0,1-1,.06.73.73,0,0,1,.65-.33c.4,0,.8,0,1.2.05C82.32,49.53,82.32,49.55,81.65,49.57ZM81,48.64l0,0h0a.6.6,0,0,1-.45.29c-.41.09-.83.16-1.25.22a.83.83,0,0,1-.31,0h0v0h0a4.37,4.37,0,0,1,2-.47v0h0l.21-.07a.15.15,0,0,0,0,.07Zm-.62,3,0,0-.06,0h.08Zm-4.76,23.6,0,0-.08.11h0a.5.5,0,0,1-.24.12l0,0-.08.14h-.06l-.23.14s0,0,0,0h0a.68.68,0,0,1-.43.27s0,0,0,0,0,0,0,0a.18.18,0,0,1-.19.07h0l0,0a.33.33,0,0,1-.31.17s0,0,0,0h0a.29.29,0,0,1-.33.09l.33-.09,0,0h0l.31-.17s0,0,0,0h0a.19.19,0,0,1,.19-.07h0a.62.62,0,0,1,.43-.27,0,0,0,0,0,0,0h0a.27.27,0,0,1,.23-.14l0,0s.06-.1.09-.14h0a.31.31,0,0,1,.24-.12l0,0,.09-.11Zm-3-26.41h0v0Zm-.69-3c.25-.38.33-.39.92-.2A.89.89,0,0,1,72,45.79ZM68.38,63c-2,0-2.61-1.73-2.61-3.93s.63-3.92,2.61-3.92S71,56.93,71,59.11,70.36,63,68.38,63Zm-2.13,4.78a1.75,1.75,0,0,1,0,1.13,1.91,1.91,0,0,1-1.2,1.23,1.42,1.42,0,0,1-.67.09,1.74,1.74,0,0,1-1.37-.51,1.78,1.78,0,0,1-.46-2,2,2,0,0,1,1.26-1.1,1.93,1.93,0,0,1,2.39,1.13Zm-3.38,4.91h-.08v0s0,0,0,0h0a0,0,0,0,1,0,0s0,0,0,0S62.87,72.72,62.87,72.73Zm-.11-.34h0a.14.14,0,0,1-.15,0h0l0,0a1.15,1.15,0,0,1-.33-.09,10.5,10.5,0,0,0-2.37-.68c-.18,0-.35-.08-.56-.13.09,0,.12,0,.17,0a7.41,7.41,0,0,1,3,.88l.05,0h0l0,0,.15,0h0ZM58,53.4s0,0,0,.05h-.2v0Zm-3,2.5c-.76,0-1.35.4-1.35.82v.36h-.71v-.56c0-1,1.3-1.33,2.08-1.33a2.12,2.12,0,0,1,2.31,2.13c0,2.67-4,2.6-4,4.7,0,.16.08.22.24.22h3.18A.22.22,0,0,0,57,62v-.51h.69v.76c0,.46-.19.66-.65.66h-3.8c-.52,0-.68-.21-.68-.75,0-2.81,4-2.58,4-4.83A1.42,1.42,0,0,0,55,55.9Zm1.08-5.14c-1.09-.06-2.18-.15-3.27-.18A2.53,2.53,0,0,1,51.45,50h.4a4.09,4.09,0,0,1,.77-.05c.23,0,.44.22.67.28a7.24,7.24,0,0,0,2,.33c.25,0,.5.06.75.08C56.06,50.7,56.05,50.73,56.05,50.76ZM51.66,71.68c.72-.12,1.44-.23,2.16-.3s1.56-.11,2.34-.15c.22,0,.45,0,.68,0a6.74,6.74,0,0,1,1.49.17l1.44.24a13.05,13.05,0,0,1,2.19.64.59.59,0,0,1,.17.12h0s0,0,0,0l-.4-.08a17.73,17.73,0,0,0-4-.73,29.88,29.88,0,0,0-3.41,0c-.67,0-1.33.11-2,.16L51,71.83H51l-.79.16a1.3,1.3,0,0,1,.79-.16H51A1.21,1.21,0,0,1,51.66,71.68ZM48.77,50.46a2,2,0,0,1-1-.08c.23-.11.29-.11.8,0C48.64,50.35,48.68,50.4,48.77,50.46Zm-3.34-4.41a.71.71,0,0,1,.69.2C45.86,46.34,45.68,46.26,45.43,46.05Zm.67-5.36a1,1,0,0,0-.57.1,3,3,0,0,1-.83.23c-.43.1-.84.27-1.25.4-.22.07-.43.15-.65.2a.38.38,0,0,1-.47-.19.78.78,0,0,1,.74-.26,3.14,3.14,0,0,0,1-.11c.16,0,.31-.09.35-.29s-.25-.15-.39-.14a4,4,0,0,0-.78.07,6.89,6.89,0,0,1-1.36.07.47.47,0,0,1-.43-.16c.07,0,.12-.07.17-.06a4.68,4.68,0,0,0,1.29-.19,1.93,1.93,0,0,1,.53-.07,1.62,1.62,0,0,0,.89-.23,3.49,3.49,0,0,1,.44-.2.75.75,0,0,1,.79,0,.83.83,0,0,0,.22.08c.29.08.31.07.5-.22,0,0,0,0,.08-.08A1,1,0,0,1,47,40l1,.83a.25.25,0,0,1-.12,0A7.13,7.13,0,0,0,46.1,40.69Zm1.51,4.85a.79.79,0,0,1-.67-.16A.61.61,0,0,1,47.61,45.54ZM41.86,65.37a.94.94,0,0,1-.48.92c-.16.09-.31.21-.45.19a1.16,1.16,0,0,1-.89-.37.89.89,0,0,1,.18-1.41,1.44,1.44,0,0,1,.53-.21,1.26,1.26,0,0,1,.41.07A.92.92,0,0,1,41.86,65.37ZM41,73.22c.78,0,1.56,0,2.34-.1s1.48-.13,2.23-.2a.64.64,0,0,0,.28-.06c.28-.21.62-.13.93-.19,0,0,.08,0,.15.09a2,2,0,0,1-.28.1,33,33,0,0,1-7.28.61,8.09,8.09,0,0,1-2.07-.25h.48C38.85,73.22,39.92,73.23,41,73.22Zm31,5a13.5,13.5,0,0,0,3.59-2.58c1.05-1,2.05-2.14,3.09-3.19a18,18,0,0,1,3.56-3,11.81,11.81,0,0,1,2.26-1l.35-.17.38-.06A5.87,5.87,0,0,1,87,68a1.17,1.17,0,0,0,.32,0,.26.26,0,0,0-.18-.09,6.6,6.6,0,0,0-2.16.3.51.51,0,0,0-.16.09,3.69,3.69,0,0,0-.46.08l-.47.12a0,0,0,0,1,0,0h0a.51.51,0,0,1-.42.14l0,0h0l.42-.14,0,0h0a.91.91,0,0,1,.24-.16,6.77,6.77,0,0,1,5.28-.07c-.13,0-.19,0-.26,0a8.66,8.66,0,0,0-2.33,0,11.72,11.72,0,0,0-1.67.32,10.74,10.74,0,0,0-3.38,1.61,22.43,22.43,0,0,0-3.45,3c-.87.9-1.74,1.8-2.64,2.68a17.54,17.54,0,0,1-1.86,1.57,7.09,7.09,0,0,1-1.73.89l-.24,0C71.84,78.26,72,78.27,72,78.24Zm.4.47c.26-.13.51-.28.78-.4a6.35,6.35,0,0,0,1.45-.89,24.29,24.29,0,0,0,2-1.8c.64-.63,1.27-1.28,1.91-1.89a29.23,29.23,0,0,1,2.9-2.55,13.09,13.09,0,0,1,3.27-1.82,9.49,9.49,0,0,1,3.84-.56,6.68,6.68,0,0,1,2.23.5,9,9,0,0,1,2.54,1.53l0,0h.21v-.09s0,0,0,0l-.1-.1a.76.76,0,0,1-.09-.09l-.11-.1-.1-.11,0,0a.11.11,0,0,1-.1,0l-.42-.4s0,0-.06,0l0,0-.35-.23h0l-.08-.15-.21,0-.07-.15a0,0,0,0,1,0,0s0,0,0,0h0l.07.12.21,0,.08.15s0,0,0,0a.34.34,0,0,1,.35.23.05.05,0,0,0,0,0l0,0a1.17,1.17,0,0,1,.52.41h0l.11.11.1.1.1.09.1.1a0,0,0,0,0,0,0l.07.08h0l.06.09.13.12h0l-.13-.12-.07-.08s0,0,0,0h-.1c-.06,0-.13.12-.18,0h0l0,0-.4-.19a8,8,0,0,0-4-1.09,10.83,10.83,0,0,0-2.34.15,12.27,12.27,0,0,0-3.73,1.52,26.48,26.48,0,0,0-3.37,2.5c-1.19,1-2.36,2-3.56,3a13.36,13.36,0,0,1-3.15,2,1.14,1.14,0,0,1-.59.12A1.41,1.41,0,0,1,72.41,78.71Zm1,.46a21,21,0,0,0,3.12-2.1c1.43-1.1,2.85-2.21,4.3-3.3a22.45,22.45,0,0,1,3.67-2.23,11.85,11.85,0,0,1,3.67-1.13,8.66,8.66,0,0,1,4.44.6,8.23,8.23,0,0,1,1.88,1h0l0,0,0,0h0a.79.79,0,0,1-.5-.09,10.87,10.87,0,0,0-4.52-.57,13.32,13.32,0,0,0-3.79.88,23.6,23.6,0,0,0-3.79,1.91c-1.51.93-2.93,2-4.38,3a25.71,25.71,0,0,1-2.39,1.62,5.87,5.87,0,0,1-1.41.54,3.08,3.08,0,0,1-.51,0C73.34,79.25,73.38,79.2,73.43,79.17Zm1.5.34A36.11,36.11,0,0,0,79.27,77a49.31,49.31,0,0,1,4.34-2.65A17.91,17.91,0,0,1,88,72.67c.51-.11,1-.18,1.54-.25s1.06-.13,1.59-.16c.31,0,.61,0,.93.06a9.47,9.47,0,0,1,1.5.11l.62.13,1.6.44c.35.09.7.13,1,.23a3.19,3.19,0,0,1,.59.21s0,0,0,.07h.48a.51.51,0,0,1-.42,0h-.06c-.67-.09-1.34-.21-2-.28a17.54,17.54,0,0,0-3.07-.14,24.49,24.49,0,0,0-3,.36,21.41,21.41,0,0,0-2.83.74A25.2,25.2,0,0,0,82.5,76c-1.52.84-3,1.71-4.5,2.57a9.51,9.51,0,0,1-2,.93c-.22.06-.43.12-.66.16a3.68,3.68,0,0,1-.58,0C74.77,79.53,74.87,79.54,74.93,79.51ZM96.54,58.29a.69.69,0,0,1,.19-.87.79.79,0,0,1,.69-.22.85.85,0,0,1,.73.27.67.67,0,0,1,.09.87A1,1,0,0,1,96.54,58.29ZM95.06,46.74c.25-.29.26-.29.7-.14-.11.21-.11.21-.37.36Zm1.67-2.66c.23-.43.34-.45.92-.15Zm1.58-2.24s0,0,0,0,0,.08,0,.08l-.94.15a.23.23,0,0,1-.18,0,.19.19,0,0,1-.08-.16s.08-.11.12-.11Zm-.75-2.5a.29.29,0,0,1,.21.15s0,.14-.07.21a.32.32,0,0,1-.14.12.88.88,0,0,1-.79,0A.81.81,0,0,1,97.56,39.34Zm-16.23,4,.73-.07a1.11,1.11,0,0,0,.74-.32.74.74,0,0,1,.71-.23,2.69,2.69,0,0,0,1-.06c.88-.17,1.76-.3,2.64-.46a1.87,1.87,0,0,0,.42-.13,15.45,15.45,0,0,1,2.1-.65,6.77,6.77,0,0,0,.82-.3l2.32-1,1.85-.86A1.41,1.41,0,0,0,95,39c.47-.36.92-.73,1.37-1.1.19-.15.34-.17.49-.06a.4.4,0,0,1,.13.52,1.34,1.34,0,0,1-.4.42c-.66.42-1.35.82-2,1.23l-.36.25a2.43,2.43,0,0,1-.2.14l-1.39.67-.58.27c-.63.28-1.24.57-1.88.81-.41.15-.85.23-1.27.34a2.9,2.9,0,0,0-.42.12,3.69,3.69,0,0,1-1.08.3,1.31,1.31,0,0,0-.78.36,1.36,1.36,0,0,1-.6.3,3.87,3.87,0,0,1-.77.08,8.61,8.61,0,0,1-.88,0c-.74,0-1.49,0-2.24-.11a4.57,4.57,0,0,1-.8-.17S81.33,43.34,81.33,43.31Zm-3,.12c.4.09.8.2,1.2.27l1.27.17a.62.62,0,0,1-.53.16l-1.8-.38c-.07,0-.13-.08-.19-.12A.31.31,0,0,1,78.37,43.43Zm-4,2.27a1.52,1.52,0,0,1,1.45,0l.92.33h0a9.42,9.42,0,0,0,1.88.62c.08,0,.15.07.26.12-.17.14-.43,0-.54.25.07,0,.13.13.21.15.55.12,1.11.24,1.67.33a2.22,2.22,0,0,0,.63,0l.73-.08,2-.08h.82a.89.89,0,0,1-.81.14.77.77,0,0,0-.85.22,1.07,1.07,0,0,1-.69.31l-1.21.13h-.2c-.61-.11-1.23,0-1.84-.09a.51.51,0,0,0-.49.11c0,.09.07.19.11.28l-.08.05-.1,0c-.64,0-1.3,0-1.94,0a1.65,1.65,0,0,1-.93-.39.23.23,0,0,1,.1-.41,1.14,1.14,0,0,1,.52,0,4,4,0,0,0,1.55,0,1.44,1.44,0,0,0,.24,0c.05,0,.12-.09.12-.13a.42.42,0,0,0-.08-.21s-.11-.06-.17-.09a.37.37,0,0,1-.26-.27.35.35,0,0,0-.35-.29,6.23,6.23,0,0,0-1.49-.15,1,1,0,0,1-.35,0,6.67,6.67,0,0,0-1.54-.17,5.62,5.62,0,0,1-.85-.16c.3-.3.54-.43.86-.36A.81.81,0,0,0,74.35,45.7Zm-1.2-2.21c.23-.07.29,0,.46.26l-.61.14C73,43.57,73,43.54,73.15,43.49Zm-9.79.19c.39-.08.8-.14,1.19-.24A14.93,14.93,0,0,0,66.29,43c.4-.16.8-.32,1.2-.5s1-.42,1.49-.61a4.17,4.17,0,0,0,.46-.26l.9-.48a3.84,3.84,0,0,0,.35-.18,2.69,2.69,0,0,1,1.14-.52,1.2,1.2,0,0,0,.38-.21,4.16,4.16,0,0,1,.42-.23.22.22,0,0,1,.29.1.29.29,0,0,1,0,.26.89.89,0,0,1-.3.31,5.18,5.18,0,0,1-.9.48,7.44,7.44,0,0,0-1.37.72,7.91,7.91,0,0,1-1.16.49l-.9.38a.69.69,0,0,0-.45.42c.13.12.29.08.45,0a5.94,5.94,0,0,0,1.55-.58.59.59,0,0,1,.62-.09,1.43,1.43,0,0,1-.67.41c-.34.12-.66.28-1,.4a8.77,8.77,0,0,0-1.06.35,2.9,2.9,0,0,1-1,.29c-.43.08-.86.18-1.28.3a5.11,5.11,0,0,1-1.24.1c-.12-.53-.56-.44-1-.47C63.28,43.79,63.32,43.7,63.36,43.68Zm-1,1.86.67-.12a6,6,0,0,0,1.56-.36A1,1,0,0,1,65,45a2,2,0,0,0,1.36-.44.7.7,0,0,1,.27-.11,10.56,10.56,0,0,0,1.5-.35,5.51,5.51,0,0,0,1.58-.61,2.09,2.09,0,0,1,.4-.19c.22-.09.45-.17.67-.28a9.28,9.28,0,0,1,1.3-.65c.44-.14.83-.36,1.25-.52a.73.73,0,0,1,.33,0,.23.23,0,0,1,.16.14c0,.06-.06.14-.11.19a.17.17,0,0,1-.14.05,3.25,3.25,0,0,0-1.76.86,2.35,2.35,0,0,1-1,.53,1.73,1.73,0,0,0-.31.14,3.48,3.48,0,0,1-1,.44,1.84,1.84,0,0,0-.36.15,2.72,2.72,0,0,1-1,.38.5.5,0,0,0-.31.12,1.65,1.65,0,0,1-.83.28c-.55.07-1.07.22-1.61.34a15.12,15.12,0,0,1-2.12.24,5.81,5.81,0,0,1-.83-.07ZM60.69,46.7a3,3,0,0,1,.42,0,7.38,7.38,0,0,0,2.39-.06c.63-.1,1.27-.22,1.91-.36a5.93,5.93,0,0,0,1-.32c.11,0,.17-.21.25-.31l.87-.26c.13,0,.26,0,.39-.08a7.64,7.64,0,0,0,1.68-.6,1.51,1.51,0,0,1,.44-.22,3.72,3.72,0,0,0,1-.47,4.23,4.23,0,0,1,.47-.25.26.26,0,0,1,.35.13,2.75,2.75,0,0,0-.66.26c-.6.42-1.33.61-1.91,1.07a2.68,2.68,0,0,1-.71.31,4.46,4.46,0,0,0-.55.2,2.68,2.68,0,0,1-1.09.41.43.43,0,0,0-.21.11,2.33,2.33,0,0,1-.94.38c-.62.16-1.23.33-1.85.48a4,4,0,0,1-1.78,0c-.46-.08-.92-.2-1.38-.3,0,0-.08-.05-.13-.07S60.68,46.72,60.69,46.7Zm3.41,2.06a.93.93,0,0,1-.21.1,12,12,0,0,1-2.32.22c-.3,0-.61.06-.92.08h-1a.44.44,0,0,1-.27-.14.76.76,0,0,1,.2-.06,3.08,3.08,0,0,1,.53,0,2,2,0,0,0,1.11-.08l.14,0c.7,0,1.38-.21,2.07-.3A.67.67,0,0,1,64.1,48.76Zm-8.53-3.41,1,.06a1.19,1.19,0,0,1,.33,0,3.81,3.81,0,0,0,1.5.12c.61,0,1.22,0,1.83,0,.11.24,0,.33-.09.39a.66.66,0,0,1-.24,0l-2.09.06a5.88,5.88,0,0,1-2.23-.45.88.88,0,0,1-.21-.12.58.58,0,0,1-.08-.12A1.47,1.47,0,0,1,55.57,45.35Zm0,1.83h.25a7.14,7.14,0,0,0,1.31,0,4.7,4.7,0,0,1,1.06,0l1.36.13a.48.48,0,0,1,.39.15,1.67,1.67,0,0,1-.29.07,17.16,17.16,0,0,1-1.76,0,9.27,9.27,0,0,1-1.89-.11,4.41,4.41,0,0,0-.82-.05A.34.34,0,0,1,55.62,47.18Zm2.56,1.47c.12.38.46.29.83.32a3.66,3.66,0,0,1-1.77.11,3.46,3.46,0,0,0-1-.12,7,7,0,0,1-1.21-.13,5.93,5.93,0,0,0-1.26-.14.69.69,0,0,1-.65-.26,10.58,10.58,0,0,1,2.18,0c.59.06,1.17.07,1.76.1l.25,0c0,.08,0,.13-.05.24A.74.74,0,0,0,58.18,48.65Zm.59,0,.08,0a0,0,0,0,0,0,0l-.07,0S58.77,48.7,58.77,48.68Zm-4.13-1.26a5.86,5.86,0,0,1-2.36-.34A4.11,4.11,0,0,1,54.64,47.42Zm-2.09.9h0v0Zm-.76.22h.05A3.14,3.14,0,0,1,53,49a2.07,2.07,0,0,0,.83.26c.5.08,1,.13,1.5.18s1.16.13,1.75.18a3.11,3.11,0,0,0,.68,0,10.23,10.23,0,0,1,2.28,0,2.09,2.09,0,0,0,.5,0c.34,0,.68-.06,1-.07.57-.05,1.14-.06,1.7-.12a8,8,0,0,0,.85-.18c.07,0,.14-.06.19,0a4,4,0,0,0,1.5-.07.69.69,0,0,1,.52.07c-.08.15-.21.16-.32.19l-2,.53-.39.06L63.3,50a2.57,2.57,0,0,1-.55.19c-.5,0-1,0-1.51,0,0-.3,0-.33-.25-.38a1.77,1.77,0,0,0-1,0,2.25,2.25,0,0,1-.82.08c-.38,0-.77,0-1.16,0a2.54,2.54,0,0,0-.47.09l.2.32a.67.67,0,0,1-.52,0,3.15,3.15,0,0,0-.87-.11c-.43,0-.87-.08-1.3-.13s-.75-.11-1.11-.13a1.45,1.45,0,0,1-.71-.16,2.25,2.25,0,0,0-.54-.21c-.06-.3-.34-.48-.57-.71a3,3,0,0,1-.26-.24h-.05l-.41,0a1.1,1.1,0,0,0-.74.31l-.19,0a4.07,4.07,0,0,0-1.59-.44,1.25,1.25,0,0,1-.49-.19,3.7,3.7,0,0,1-1-.78,2.14,2.14,0,0,1,.36,0l1.11.33.37.1,2.4.6Zm-1.28-5.78-.39,0c-.17,0-.27.07-.35.25a6.61,6.61,0,0,1-1-.8,8.77,8.77,0,0,1,2.74.78Zm-3.46-4.89.18,0c.37.15.75.29,1.12.45.2.09.26.21.19.33a.31.31,0,0,1-.41.16c-.4-.21-.79-.45-1.17-.67A.19.19,0,0,1,46.9,38C46.94,37.94,47,37.91,47.05,37.87Zm-8.76,1.69a1.39,1.39,0,0,0,.73,0,.31.31,0,0,1,.19,0,5,5,0,0,0,1.69-.07,10.77,10.77,0,0,0,2.17-.34.9.9,0,0,1,.28,0,1.94,1.94,0,0,0,1.2-.32c.12-.07.26-.08.36-.15a1.08,1.08,0,0,1,1.31.14,3.82,3.82,0,0,0,1,.45,3.41,3.41,0,0,1,1.38.79,2.13,2.13,0,0,0,.56.38c.42.22.85.41,1.28.61.11.06.21.13.39.25a1.54,1.54,0,0,1-.62,0,2.19,2.19,0,0,1-1.3-.48c-.53-.4-1.09-.75-1.6-1.18a1.83,1.83,0,0,0-1.84-.33,5.64,5.64,0,0,1-1.1.08c-.18,0-.35,0-.56,0a2.74,2.74,0,0,1,0,.31.16.16,0,0,1-.07.07l-.54.21a4.4,4.4,0,0,1-1.25.19,7,7,0,0,0-1.93.17,1.5,1.5,0,0,1-.73,0,3.22,3.22,0,0,1-1.43-.71A.45.45,0,0,1,38.29,39.56Zm-1,6.31c.13.13.33.18.42.38a1.75,1.75,0,0,1-1-.37C36.88,45.77,37.07,45.69,37.26,45.87ZM35.67,53.1h0ZM35.3,66.9a10.06,10.06,0,0,1,3.25,3.64l.53.93v0h0l0,0,.19.36h.11a1.54,1.54,0,0,0,.08.19h0a0,0,0,0,0,0,0,0,0,0,0,1,0,0h-.1c.08.29.18.58.3.94a1.83,1.83,0,0,1-.63-.6c-.22-.34-.43-.7-.62-1.06a15,15,0,0,0-2.06-3.07,5.65,5.65,0,0,0-1.19-1A2.84,2.84,0,0,0,32.67,67c0,.17.15.16.25.17a4,4,0,0,1,1.32.3,4.67,4.67,0,0,1,1.35.87,8.09,8.09,0,0,1,1.47,1.88c.49.85.95,1.74,1.44,2.65a2.2,2.2,0,0,1-.76-.65,21.27,21.27,0,0,1-1.28-2,8.85,8.85,0,0,0-1.52-2,3.17,3.17,0,0,0-1.46-.84c-.45-.1-.9-.15-1.35-.21a.31.31,0,0,0-.19,0,5.47,5.47,0,0,0-1.28.74h0c.25,0,.5,0,.74-.09a3.22,3.22,0,0,1,2.18.3,4.59,4.59,0,0,1,1.68,1.38,16.06,16.06,0,0,1,1,1.39c.36.58.68,1.19,1,1.78a.49.49,0,0,1,0,.12h0l0,0h0v0a.57.57,0,0,1-.32-.25c-.47-.6-.93-1.21-1.4-1.8s-.79-1-1.22-1.51a4.14,4.14,0,0,0-1.72-1.16A2.58,2.58,0,0,0,31.1,68c-.15,0-.31.09-.43-.07h0v0a.16.16,0,0,1,0-.25A1.15,1.15,0,0,1,31,67.4a1.94,1.94,0,0,0,.81-.53.4.4,0,0,1,.21-.12,4.27,4.27,0,0,1,1.65-.37A3,3,0,0,1,35.3,66.9ZM30.22,38.69a.33.33,0,0,1,.44-.06,1.49,1.49,0,0,1,.41.34,3.22,3.22,0,0,0,1.12.92,11.35,11.35,0,0,1,1.34.87,3,3,0,0,1,.47.53h0l0,0v0h0a1.58,1.58,0,0,1-.92-.36c-.37-.26-.73-.54-1.09-.81,0,0-.12-.07-.15-.12a2.05,2.05,0,0,0-1.31-.79l-.13-.06A.39.39,0,0,1,30.22,38.69ZM12.83,26.86a.84.84,0,0,1,.41.11c.3.19.58.42.88.62s.52.38.8.56c.61.38,1.21.77,1.82,1.13s1.37.75,2.06,1.11,1.17.56,1.76.82a2.92,2.92,0,0,0,.42.13,11,11,0,0,1,2,.72.93.93,0,0,1,.45.36.83.83,0,0,0,.65.37,3.27,3.27,0,0,1,.56.13,3.74,3.74,0,0,0,1.28.3c.5,0,1,.15,1.49.2a13.91,13.91,0,0,0,1.93.22.57.57,0,0,1,.6.48,5.58,5.58,0,0,1-.35.44l.25.15a1.13,1.13,0,0,1,.22.11.22.22,0,0,1,0,.39c-.34.12-.68.21-1,.31l-.8.21a1.08,1.08,0,0,1-.81,0c-.29-.14-.61-.24-.91-.36a3.62,3.62,0,0,0-.56-.17c-.59-.15-1.21-.26-1.79-.45A3.72,3.72,0,0,1,23,34.1a4.61,4.61,0,0,0,.64.16,6,6,0,0,0,.75,0l-.19-.19h0A7.58,7.58,0,0,1,22,33.3c-.52-.19-1-.37-1.57-.52a5.83,5.83,0,0,1-1.36-.5,1,1,0,0,0-.32-.14,3.07,3.07,0,0,1-1.34-.75,5.75,5.75,0,0,0-1-.76.8.8,0,0,1-.23-.18l-.86-.74c.17,0,.27-.08.34-.05a3,3,0,0,1,.49.2,1.12,1.12,0,0,0,.6.17.64.64,0,0,0-.12-.21c-.34-.26-.68-.52-1-.74-.84-.57-1.69-1.1-2.53-1.65a2.3,2.3,0,0,1-.37-.32A.15.15,0,0,1,12.83,26.86Zm9.88,7.92c-.47-.14-.93-.29-1.4-.42a.48.48,0,0,0-.29,0,.79.79,0,0,1-.68-.15l-.79-.49a4.68,4.68,0,0,0-1-.48,2.31,2.31,0,0,1-.65-.32,5,5,0,0,1-.58-.45A13.82,13.82,0,0,1,15.58,31,7.61,7.61,0,0,1,14.15,30a6,6,0,0,1-.71-.71h0c.13,0,.23,0,.34.1.34.2.7.39,1.05.62a7.71,7.71,0,0,1,.93.69,6.32,6.32,0,0,0,.92.64l1.94,1.13a.52.52,0,0,1,.31.35c0,.08.15.16.25.2s.46.16.69.24a1.25,1.25,0,0,1,.27.1l2.51,1.19c.48.24,1,.47,1.45.69a1.36,1.36,0,0,0,.37.13,10,10,0,0,1,1.88.5c.61.16,1.2.38,1.81.58a.89.89,0,0,1,.16.1c-.1.06-.17.13-.25.13-.42,0-.84,0-1.26,0l-.1,0c-.77-.36-1.65-.37-2.43-.67a7.7,7.7,0,0,1-.71-.33.51.51,0,0,1-.28-.31A.85.85,0,0,0,22.71,34.78Zm.21,9.08a.45.45,0,0,1-.39.35.44.44,0,0,1-.43-.35.47.47,0,0,1,.38-.39A.53.53,0,0,1,22.92,43.86Zm-5.17-10.5a1,1,0,0,0-.17-.1,10.05,10.05,0,0,1-1.85-1.08c-.21-.12-.43-.24-.63-.37a11.15,11.15,0,0,1-1.28-.92.65.65,0,0,1,.24,0,8.88,8.88,0,0,1,.9.36,2.79,2.79,0,0,1,.57.37,7.29,7.29,0,0,0,1.61,1.1c.91.51,1.8,1,2.7,1.57.07,0,.12.09.18.13l0,.07a3.63,3.63,0,0,1-.58-.21A11.16,11.16,0,0,1,17.75,33.36ZM19,43.84h0a0,0,0,0,0,0,0Zm-1.61-10-.09,0a.21.21,0,0,1,0-.07l.06,0Zm-.62-.33a.66.66,0,0,1-.21,0,4.55,4.55,0,0,1-1-.91l-.05,0s0,0,0,0h.06s0,0,0,0A3.81,3.81,0,0,1,16.78,33.49Zm-1.48-1h0v0l-.1-.08.07,0,0,.1h0Zm-2.73-.91a.16.16,0,0,1,.08.06c.25.5.78.66,1.18,1s.66.42,1,.63a3.55,3.55,0,0,1,.31.23s0,.08.07.12c-.14.11-.26,0-.36,0a14.2,14.2,0,0,1-2.13-1.35c-.4-.3-.8-.57-1.19-.85a1.22,1.22,0,0,1-.48-.52c.08,0,.17,0,.22,0ZM10,28.77c.38,0,.48.28.63.44s.33.32.48.49.31.38.48.6l-.1,0a.75.75,0,0,1-.13-.06.86.86,0,0,1-.13-.14Zm1.79-.3,0,0,.08.13v0l-.08-.14s0,0,0,0a2.66,2.66,0,0,1-1.32-1.16s0-.09,0-.17a4.64,4.64,0,0,1,.75.71C11.38,28.07,11.58,28.27,11.76,28.47Zm-.73-2a2,2,0,0,1,.12.19.22.22,0,0,1-.36,0,1.21,1.21,0,0,1-.28-.39.9.9,0,0,0-.66-.58c-.26-.06-.34-.28-.4-.5,0,0,0-.05.06-.09a2.13,2.13,0,0,1,.83.57C10.58,26,10.8,26.22,11,26.49ZM9.05,24a.49.49,0,0,1,.46.46c-.14,0-.27,0-.4,0a.3.3,0,0,1-.24-.21A.19.19,0,0,1,9.05,24Zm-.7,4.19h0a1.39,1.39,0,0,1,.78.1c.19.06.24.27.3.54-.17-.08-.3-.12-.41-.18l-.33-.22-.34-.24h0ZM6.13,26a2.85,2.85,0,0,1,.9.76c-.36.11-.57-.11-.78-.28A.36.36,0,0,1,6.13,26ZM7,28.05c.24.2.49.39.71.6a7.52,7.52,0,0,0,1.35,1,1.14,1.14,0,0,1,.47.48,3.54,3.54,0,0,0,1.24,1.28c.57.43,1.16.82,1.76,1.23l.59.39s0,0,0,0v0h0a.75.75,0,0,1-.54-.15,2.23,2.23,0,0,0-.73-.23,1.53,1.53,0,0,1-.52-.24.84.84,0,0,1-.21-.21.6.6,0,0,0-.81-.26,3.14,3.14,0,0,1-.82-1.2.5.5,0,0,0-.59-.42c0,.07,0,.15,0,.22a1.91,1.91,0,0,1-.07.24,1.36,1.36,0,0,1-.53-.47,4.61,4.61,0,0,0-1.14-1.06A.65.65,0,0,1,7,29,7.88,7.88,0,0,0,6.09,28a1.52,1.52,0,0,1-.17-.34A1.85,1.85,0,0,1,7,28.05Zm4.53,5.11c-.15,0-.35,0-.36-.27C11.41,32.88,11.48,33,11.56,33.16ZM9.28,31.69h0v0h0A.24.24,0,0,1,9,31.46s0,0,0,0h0a.24.24,0,0,1-.26-.15s0,0,0,0h0c-.32,0-.49-.24-.71-.4.27.08.57.1.71.4h0s0,0,0,0l.26.15s0,0,0,0,0,0,0,0,.21.06.24.18h0v0Zm-1.59-1h0a1.1,1.1,0,0,1-.09-.14l-.21-.06a1.13,1.13,0,0,0-.1-.13l0,0L7,30.23H7l-.08-.14s0,0,0,0,0,0,0,0l.08.12,0,0a.26.26,0,0,1,.22.1l0,0,.08.14.22.05.08.14ZM5,25.83s.18,0,.25,0a2,2,0,0,1,.46.72l-.42-.06c-.29,0-.36-.17-.4-.46A.27.27,0,0,1,5,25.83ZM3.29,23.9h0a.45.45,0,0,1,.36.14c-.22.11-.23.11-.36-.14h0l-.23-.05,0,0,0,0Zm.15-1L3,22.63C3.27,22.58,3.27,22.58,3.44,22.94Zm-1.19-.46c-.07.07-.12.17-.19.18s-.19,0-.4-.38A1,1,0,0,1,2.25,22.48Zm-.67,1.2-.06-.45.4.14c.14,0,.32.07.31.3A1,1,0,0,1,1.58,23.68Zm.36,2.84a5.41,5.41,0,0,0,.61.2,1.48,1.48,0,0,1,.71.5c-.14,0-.23,0-.29,0a4,4,0,0,0-1-.33C2,26.77,2,26.65,1.94,26.52Zm.18,1a.94.94,0,0,1,.9.39,3.69,3.69,0,0,0,.44.52.87.87,0,0,1-.93-.28l-.38-.42Zm1.64,1.26c.28.28.56.55.82.83.09.11.19.23.08.39s-.24.11-.43,0a2.23,2.23,0,0,1-.86-1Zm-1.28.77s0,0,.07,0a1.8,1.8,0,0,1,1.13.54h0v0c.4.36.8.7,1.19,1.06a5.08,5.08,0,0,1,.38.43c.12.14.25.26.36.41a5.36,5.36,0,0,1,.38.55s0,.11,0,.24c-.46-.32-.86-.61-1.26-.91l-1.2-.92c.22-.27.06-.58.14-.86h0s0,0,0,0A5.14,5.14,0,0,1,3.13,30a1.44,1.44,0,0,1-.62-.28A1.2,1.2,0,0,0,2.48,29.51Zm.45,1.58c.3-.05.48.14.67.31s.49.47.75.69a3.36,3.36,0,0,0,.43.31c.11.09.13.18,0,.29a1.21,1.21,0,0,1-.71-.28c-.35-.26-.68-.55-1-.84A.42.42,0,0,1,2.93,31.09Zm4.07,5a.27.27,0,0,1-.23,0,2.19,2.19,0,0,1-.69-.44A4.37,4.37,0,0,0,5.39,35a4,4,0,0,1-.87-.78c-.32-.39-.67-.75-1-1.13a.93.93,0,0,1-.1-.17,1,1,0,0,1,.65.31,1.16,1.16,0,0,0,.41.24,1.85,1.85,0,0,1,1,.61c.29.26.56.55.86.8a3.24,3.24,0,0,1,.65.9C7.07,35.9,7.1,36,7,36.07Zm-.21-2h0a.83.83,0,0,0,0,.15h0l-.06-.15ZM7,32.66a1.33,1.33,0,0,1,.67.44C7.28,33.13,7.14,32.88,7,32.66Zm1.8-.19a.44.44,0,0,0-.15-.12,3.59,3.59,0,0,1-1.1-.87c-.17-.18-.3-.38-.46-.57a4,4,0,0,0-.4-.42A7.57,7.57,0,0,1,5.4,29.38,1.83,1.83,0,0,0,4.81,29a4.87,4.87,0,0,1-1.16-1s-.09-.12-.16-.2l.27-.26c.25.18.47.37.7.54l1.3.95c.2.16.42.3.37.63,0,.1.1.24.19.32.5.44,1,.88,1.54,1.28s1.18.81,1.76,1.22l1.05.79-.26.34h0c-.07,0-.16,0-.21-.07A6.08,6.08,0,0,1,8.8,32.47Zm4,10.23a1,1,0,0,1-.3.56l-.11.13h0a3.39,3.39,0,0,1-.61.21,1.19,1.19,0,0,1-1.16-.49,1.09,1.09,0,0,1-.17-1,1.23,1.23,0,0,1,1.68-.73A1.12,1.12,0,0,1,12.78,42.7Zm1.67-6.9c-.26-.09-.52-.19-.77-.3a3,3,0,0,1-.56-.29A18.7,18.7,0,0,0,11.43,34c-.06,0-.08-.11-.12-.18h0l-.09-.09h0l.09.1h0a4.43,4.43,0,0,1,1.91,1,3.06,3.06,0,0,0,.49.3c.27.13.54.23.8.35s.31.14.29.35S14.57,35.85,14.45,35.8Zm.18,20.82c.82.18.92.31,1.25,1.11a6.28,6.28,0,0,1,.29.83l0,0C15.66,58,15.14,57.29,14.63,56.62Zm2.91,3.59.12.06,0,0a1.72,1.72,0,0,1,1.13,1.3l.05.14C18.42,61.23,18,60.72,17.54,60.21Zm3.07,3.34.23.09a2.73,2.73,0,0,1,1.4,1.42.61.61,0,0,1,.05.12Zm4.72,4.35.12.06a.93.93,0,0,1,.13.15ZM27,68c-.1.23-.22.44-.37.72a.33.33,0,0,0,.08.24c-.24-.19-.49-.37-.72-.57a3.44,3.44,0,0,0-.47-.68,15.64,15.64,0,0,1-1.27-1.67,21,21,0,0,1-1.9-3.41c-.16-.4-.37-.77-.55-1.15-.66-1.36-1.34-2.71-2-4.09a42.93,42.93,0,0,1-1.95-5.36c-.11-.35-.26-.67-.36-1a7.7,7.7,0,0,1-.22-1c-.11-.67-.21-1.32-.29-2,0-.31,0-.62,0-.93a5.86,5.86,0,0,0,0-.73c0-.08-.08-.15-.11-.22s-.16.11-.15.19l.36,4a5.07,5.07,0,0,0,.34,1.27l1.17,3.11c.2.56.41,1.13.59,1.71A19.82,19.82,0,0,0,20.21,59c.48,1,1,2,1.48,3,.35.75.69,1.5,1,2.26a6.81,6.81,0,0,0,.86,1.48c.35.47.68,1,1,1.49-.65-.56-1.29-1.14-1.91-1.72l0,0a3.84,3.84,0,0,0-1.3-1.79,2.3,2.3,0,0,0-.73-1.2c-.19-.2-.38-.41-.58-.6a1.06,1.06,0,0,1-.29-.71c0-.42,0-.84-.05-1.26a2.25,2.25,0,0,0-1-1.82,2.24,2.24,0,0,1-1-2.4,1.2,1.2,0,0,0-.28-1.08l-.81-.92c-.12-.14-.24-.31-.36-.46a1.6,1.6,0,0,1-.3-1.38c.08-.37.19-.73.28-1.09,0-.09.05-.19.08-.28a1.57,1.57,0,0,0-.21-1.44,5.79,5.79,0,0,1-.36-.64,4.41,4.41,0,0,1-.24-.54,1,1,0,0,1,.13-1A1.44,1.44,0,0,0,16,45.65c0-.16-.07-.32-.11-.48a3,3,0,0,1-.09-.43,1.23,1.23,0,0,1,.86-1.55l.31.07a.64.64,0,0,1,.43.43,1.56,1.56,0,0,1,.08.68,2.93,2.93,0,0,1-.05.29,1,1,0,0,0,.34,1.05,1,1,0,0,1,.31.75,5.12,5.12,0,0,1,0,.68c-.06.5-.15,1-.22,1.5l0,.14a1.66,1.66,0,0,0,.68,1.76c.13.09.22.2.34.29a1.25,1.25,0,0,1,.49,1c0,.47,0,.94,0,1.41s0,.65,0,1a.84.84,0,0,0,.63.73l.19.05a.7.7,0,0,1,.47.46,4.62,4.62,0,0,1,.31,1.32c0,.42.07.85.07,1.27a1,1,0,0,0,.54.86,6.37,6.37,0,0,1,.8.56,1.71,1.71,0,0,1,.63,1.32c0,.37.06.74.1,1.12a1.57,1.57,0,0,0,.76,1.24c.23.13.44.28.66.43a2,2,0,0,1,.83,1.48c0,.23,0,.46,0,.69s0,.26,0,.39a1,1,0,0,0,.57.9c.16.08.34.14.49.22a5.39,5.39,0,0,1,.48.25A.41.41,0,0,1,27,68Zm.15.46s0,0,0,0a.59.59,0,0,1,0,.13l-.06,0a.39.39,0,0,0,.08-.1s0,0,0,0h0a.11.11,0,0,1,0-.08,1.29,1.29,0,0,0,0-1.35,1.57,1.57,0,0,0-.19-.33,1.82,1.82,0,0,1-.24-1.55c.07-.33.18-.65.28-1l.12-.37a1.37,1.37,0,0,0-.39-1.64,3.24,3.24,0,0,1-.68-.88,1.2,1.2,0,0,1-.12-1c0-.14.09-.28.14-.42a2,2,0,0,0-.48-2.21,5.17,5.17,0,0,1-.83-1.08,1.43,1.43,0,0,1-.18-1.12c0-.15.07-.32.11-.48a2.12,2.12,0,0,0-.28-1.59c-.13-.21-.29-.4-.43-.6a3.47,3.47,0,0,1-.67-1.44,1.1,1.1,0,0,1,.59-1.23A1.8,1.8,0,0,1,25,49.94a1.13,1.13,0,0,1,.81.49,2.66,2.66,0,0,1,.52,2.26,5.48,5.48,0,0,0-.17,1.4,1,1,0,0,0,.66,1l.14,0a1,1,0,0,1,.78,1,2.27,2.27,0,0,1-.07,1l-.27,1a3.26,3.26,0,0,0-.05.33.78.78,0,0,0,.43.81,5,5,0,0,0,.52.26.75.75,0,0,1,.51.85,9,9,0,0,1-.41,2.25.9.9,0,0,0,.27,1.06l.4.38-.22.27a1.84,1.84,0,0,1-.23.25A1.47,1.47,0,0,0,28.24,66c.05.22.1.44.14.67a.88.88,0,0,1-.11.68c-.11-.6-.21-1.17-.31-1.74a2.11,2.11,0,0,1,0-.25,18.55,18.55,0,0,0-.17-2.68c-.05-.5-.06-1-.11-1.51a2.89,2.89,0,0,0-.34-1.21,3.37,3.37,0,0,1-.46-1.58.63.63,0,0,0,0-.19A15.49,15.49,0,0,0,26,55.59a6.79,6.79,0,0,1-.5-1.88c-.08-.48-.14-1-.21-1.44a2,2,0,0,0-.44-1,.27.27,0,0,0-.1-.08s0,0-.09,0a.71.71,0,0,0,0,.21,8.65,8.65,0,0,1,.66,2.49A14.13,14.13,0,0,0,26,56.48c.4,1.2.82,2.4,1.12,3.63.15.58.2,1.19.3,1.78.17,1,.24,2.1.32,3.16A10.14,10.14,0,0,0,28,66.78c.07.33.08.65.13,1a4.2,4.2,0,0,1-1,.73A0,0,0,0,1,27.14,68.5Zm2,2.33-.68-.48a5.08,5.08,0,0,0,1.12-1.78,19.64,19.64,0,0,0,1-4.06c.05-.29.1-.58.17-.86A15.4,15.4,0,0,0,31.08,61a8.5,8.5,0,0,1,.24-1.58c.35-1.39.72-2.77,1-4.19a15.58,15.58,0,0,0,.19-4.57c-.06-.49-.07-1-.12-1.46A6.36,6.36,0,0,0,31.79,47c-.24-.51-.42-1-.62-1.58-.06-.15-.08-.31-.25-.39-.14.15-.06.29,0,.42.19.55.41,1.09.59,1.64a11.37,11.37,0,0,1,.64,2.26,17.15,17.15,0,0,1,.12,1.9c0,.91,0,1.82-.06,2.73A5.74,5.74,0,0,1,32,55c-.28,1.15-.56,2.31-.87,3.45a9.58,9.58,0,0,0-.3,2c0,.44-.06.88-.08,1.31a7,7,0,0,1-.28,1.38,8.67,8.67,0,0,0-.24,1.35,9.82,9.82,0,0,1-.77,3c-.16.36-.27.73-.44,1.09s-.41.81-.63,1.21a2,2,0,0,1-.29.35l-.92-.71a1,1,0,0,0,.08-.24,1,1,0,0,1,.42-.64l.34-.27a1.68,1.68,0,0,0,.78-1.68,6.19,6.19,0,0,0-.15-.86,1,1,0,0,1,.2-.91c.11-.14.23-.28.35-.41s.23-.27.33-.42a.83.83,0,0,0,.12-.83c-.1-.26-.18-.52-.27-.78s-.08-.35-.13-.53a.91.91,0,0,1,.38-1.07,2.37,2.37,0,0,0,.29-.25.94.94,0,0,0,.28-1c-.08-.26-.19-.52-.29-.78s-.19-.49-.28-.73a.78.78,0,0,1,.11-.79,6.83,6.83,0,0,1,.51-.58c.14-.15.32-.29.46-.43a1.1,1.1,0,0,0,.32-1.07c0-.21-.11-.41-.14-.63s-.06-.45-.08-.67a1.07,1.07,0,0,1,.27-.86,2.33,2.33,0,0,0,.55-1.62,1.39,1.39,0,0,0-.43-1,5.4,5.4,0,0,1-.71-.87,2.3,2.3,0,0,1-.31-2.05c.08-.24.17-.46.24-.69a.78.78,0,0,0-.4-1.08,7,7,0,0,1-1.27-1,4.1,4.1,0,0,1-.89-1.1,2.12,2.12,0,0,1-.14-.31.56.56,0,0,1,.2-.66,2.5,2.5,0,0,1,2.3-.42,1.23,1.23,0,0,1,.69.6,5.34,5.34,0,0,1,.48,1.22c.1.33.19.66.3,1a1.28,1.28,0,0,0,.66.81,1.28,1.28,0,0,1,.52.51,4.69,4.69,0,0,1,.74,1.94,1.5,1.5,0,0,1-.19,1.13c-.11.18-.21.37-.31.55a1.13,1.13,0,0,0-.09,1c.06.18.12.37.19.55.18.46.35.91.53,1.36a2.45,2.45,0,0,1-.24,2.29l-.27.41a1.29,1.29,0,0,0-.21,1.2c.08.25.12.51.18.76a1.24,1.24,0,0,1-.36,1.17l-.32.29a1.06,1.06,0,0,0-.38,1.26c.07.19.13.37.19.56s.09.25.14.36a1.12,1.12,0,0,1-.17,1.15,12.2,12.2,0,0,0-.72,1.05,1.52,1.52,0,0,0-.28,1.06,2.38,2.38,0,0,0,.11.53c.07.28.17.55.23.84a1.26,1.26,0,0,1,0,.43.75.75,0,0,1-.48.68l-.32.12a.89.89,0,0,0-.58.88,3.2,3.2,0,0,1-.07,1A3.74,3.74,0,0,1,29.11,70.83Zm1.5,1.07-.7-.49a3.23,3.23,0,0,1,1,.43A.77.77,0,0,1,30.61,71.9Zm-.19-.64.37,0c.23,0,.46,0,.68,0a5.55,5.55,0,0,1,1.93.67A11,11,0,0,1,35,73c-.13.08-.21,0-.28,0l-1.19-.56A5.31,5.31,0,0,0,32,71.93a2.8,2.8,0,0,1-.87-.3C30.94,71.53,30.73,71.42,30.42,71.26Zm3,1.86a1.21,1.21,0,0,0-.83.1l-.72-.47a3.83,3.83,0,0,1,2.3.41A2.08,2.08,0,0,1,33.46,73.12Zm.47.91a1.25,1.25,0,0,1,1-.11c1.09.18,2.17.41,3.27.61.71.14,1.43.26,2.16.34a12.75,12.75,0,0,0,4.4-.34c1.14-.26,2.27-.6,3.39-.93a26.2,26.2,0,0,1,4.08-.94,14.58,14.58,0,0,1,2.88-.09,18.87,18.87,0,0,1,3.27.51,25.27,25.27,0,0,1,4,1.45c1.5.68,2.94,1.48,4.37,2.29A43.94,43.94,0,0,0,71,79a14.52,14.52,0,0,0,3.64,1.08,11.08,11.08,0,0,0,2.82.11,13.66,13.66,0,0,0,2.91-.59s.06,0,.14,0c-.12.07-.21.14-.3.18a6.75,6.75,0,0,1-2,.6,18.44,18.44,0,0,1-2.58.2A14.23,14.23,0,0,1,71.76,80a24.18,24.18,0,0,1-4.1-1.72l-4.08-2.2A32.73,32.73,0,0,0,58.86,74a19.66,19.66,0,0,0-3.22-.79A16.51,16.51,0,0,0,53,73a15.31,15.31,0,0,0-4.75.74l-2.93.94a14.12,14.12,0,0,1-5.59.65,24.18,24.18,0,0,1-2.93-.48c-.78-.17-1.57-.32-2.36-.48Zm45.29,6.82a.82.82,0,0,1-.41.43,2.67,2.67,0,0,1-1.19.4c-.39,0-.78.08-1.17.09-.75,0-1.5,0-2.25,0A14.7,14.7,0,0,1,71,81.27a23.14,23.14,0,0,1-4-1.47c-1.61-.77-3.21-1.59-4.81-2.38S59.2,76,57.66,75.36a17.84,17.84,0,0,0-4.22-1.15A13.85,13.85,0,0,0,51,74.09a22.14,22.14,0,0,0-4.84.86l-.82.21s0,0,0,0h0l-.3,0s0,0-.06,0h0l-.11.06s0,0,0,0h.13l0,0h.07a.52.52,0,0,1,.3,0h.06A.92.92,0,0,1,45.5,75c1.09-.34,2.17-.68,3.27-1a15,15,0,0,1,2.68-.46,12.06,12.06,0,0,1,2.48.08A19.63,19.63,0,0,1,60,75.43c1.39.64,2.76,1.33,4.12,2,1.63.82,3.24,1.66,5,2.33a18.7,18.7,0,0,0,5.43,1.33c.5,0,1,0,1.51,0a13.07,13.07,0,0,0,2.86-.26A2.51,2.51,0,0,1,79.22,80.85ZM37.91,76.23c-.48-.25-1-.48-1.46-.75l1.31.09c.42,0,.84.11,1.26.14a15.71,15.71,0,0,0,2.91.07c.8-.1,1.57-.24,2.35-.4,0,0,0,0,0,0A16.2,16.2,0,0,1,37.91,76.23Zm18.5,4.34c-2-.65-4-1.24-6.09-1.74-1.55-.37-3.11-.69-4.69-.92-1.14-.17-2.29-.3-3.44-.42-.51-.06-1-.08-1.64-.13a5.52,5.52,0,0,1,1-.14,37.16,37.16,0,0,1,3.95,0c.89.06,1.78.18,2.66.32a43.75,43.75,0,0,1,8.61,2.5c.82.32,1.63.66,2.44,1l1.73.66.34.18A4.75,4.75,0,0,1,60,81.73,29.3,29.3,0,0,1,56.41,80.57Zm3,1.47v0l0,0ZM43.67,78.85c-.93-.37-1.85-.77-2.76-1.17l.77.16q8.37,1.91,16.77,3.79a61.64,61.64,0,0,1-9.37-1.33C47.6,80,45.49,79.41,43.67,78.85Zm9,2.87.39,0c.28,0,.55,0,.83.06.85,0,1.69.07,2.54.09.22,0,.44,0,.66,0a14.92,14.92,0,0,1-2.41.25C54,82,53.34,81.89,52.67,81.72Zm3.3.71,2.14-.23a2.64,2.64,0,0,1,.69,0,2,2,0,0,1-.32.1l-1.77.3Zm12.57,1.2h-.39l-.15,0a0,0,0,0,1,0,0h-.66a9.6,9.6,0,0,0-1.16-.34A11.62,11.62,0,0,0,63.75,83c-.49,0-1-.06-1.46,0-.72,0-1.43.08-2.14.13l-.26,0c-.59-.07-1.17-.14-1.75-.23l1.38-.2c.48-.06,1-.08,1.46-.11s.87-.08,1.31-.08a8,8,0,0,1,1,0,3.14,3.14,0,0,0,.86,0c-.48-.2-.92-.36-1.34-.56-.82-.37-1.62-.75-2.43-1.13C58.57,79.93,56.81,79,55,78.31a23.91,23.91,0,0,0-4.68-1.37,16.93,16.93,0,0,0-1.88-.23,15.16,15.16,0,0,0-1.9-.07c-.88,0-1.76.09-2.63.13-.46,0-.92,0-1.37.06a5.9,5.9,0,0,1-1,0c.35-.06.69-.14,1-.18,1.23-.17,2.47-.38,3.72-.49a21.59,21.59,0,0,1,3.22-.07,18.34,18.34,0,0,1,6.42,1.69c1.24.55,2.44,1.17,3.65,1.77s2.65,1.26,4,1.85A32.42,32.42,0,0,0,68.08,83a24.58,24.58,0,0,0,2.55.54C69.93,83.59,69.24,83.63,68.54,83.63Zm8.7-.58c-.51.06-1,.14-1.53.19A22.41,22.41,0,0,1,72,83a26.49,26.49,0,0,1-4.55-1.11,47.49,47.49,0,0,1-5-2l-4.92-2.39a23.59,23.59,0,0,0-4.14-1.59,15,15,0,0,0-3.12-.53,14.53,14.53,0,0,0-3,.13c-1.48.23-2.94.57-4.4.88-.87.18-1.76.3-2.64.42a3,3,0,0,1-.67,0,21,21,0,0,0,2.84-.47c.85-.2,1.7-.44,2.54-.67a25,25,0,0,1,3.39-.74,15.82,15.82,0,0,1,2.58-.13A16.93,16.93,0,0,1,57,76.21c1.41.58,2.78,1.28,4.15,2a56.68,56.68,0,0,0,6.94,3.1,22.57,22.57,0,0,0,4.5,1.1,17.61,17.61,0,0,0,3.7.13L78,82.38A1.16,1.16,0,0,1,77.24,83.05Zm.69-.09c.36-.46.74-.92,1.13-1.35a15.33,15.33,0,0,1,3.85-3.14A4.1,4.1,0,0,1,84.07,78s-.09.11-.15.16-.35.23-.54.33a8.88,8.88,0,0,0-2,1.57,25.53,25.53,0,0,0-2.42,2.77ZM83.54,81c-.37.37-.71.77-1.06,1.16-.66.14-1.33.26-2,.37l.76-.93c.27-.3.58-.57.87-.86A13.41,13.41,0,0,1,84,79.18a8.79,8.79,0,0,1,1.54-.91,11.82,11.82,0,0,1,1.83-.68,5.16,5.16,0,0,1,.7-.08h0l.12-.09s0,0,0,.07l-.16,0,0,0h0a4.49,4.49,0,0,1-.92.59c-.45.31-.9.6-1.33.91s-.72.56-1.06.86S83.94,80.61,83.54,81Zm3.86-.09c-.86.25-1.73.5-2.61.71.33-.35.65-.7,1-1a17.41,17.41,0,0,1,3-2.43,7.49,7.49,0,0,1,2.92-1A5.17,5.17,0,0,1,93.07,77a.72.72,0,0,1-.19.15,19.08,19.08,0,0,0-5.36,3.61Zm3.14-1a16,16,0,0,1,2.08-1.48,9.48,9.48,0,0,1,3.73-1.25,4.75,4.75,0,0,0,1-.24c.54-.19,1.07-.41,1.6-.63A67.23,67.23,0,0,1,90.54,79.92Zm13.76-6.61c-.52.19-1,.39-1.55.6-1.53.63-3.07,1.25-4.65,1.76a22,22,0,0,1-4.47,1c-1.24.13-2.48.27-3.73.34-.91.06-1.81.15-2.72.25a33.11,33.11,0,0,0-5.8,1.24l-.4.14h0c.07-.21.27-.21.43-.27.71-.25,1.44-.5,2.17-.72a21.61,21.61,0,0,1,2.28-.54c.76-.13,1.52-.31,2.28-.45.6-.11,1.19-.18,1.78-.28l4.57-.75c1.12-.2,2.24-.38,3.36-.6a33.1,33.1,0,0,0,4.24-1.12,1.16,1.16,0,0,0,.44-.25.59.59,0,0,0-.19,0l-.91.16a.92.92,0,0,1-.74-.06c-1.48.25-2.9.51-4.33.74s-2.79.46-4.2.63c-.61.07-1.21.22-1.83.27a11.28,11.28,0,0,0-1.24.24c-.59.1-1.18.25-1.76.37a21.21,21.21,0,0,0-2.94.89c-1.51.55-3,1.16-4.51,1.74a29,29,0,0,1-3,1s0,0,0,0h0c0-.15.19-.18.3-.24,1.2-.59,2.4-1.17,3.61-1.74a46,46,0,0,1,4.65-1.87,36.56,36.56,0,0,1,3.84-1.1c.87-.2,1.76-.3,2.63-.47s1.58-.23,2.36-.32c.57-.06,1.14-.09,1.7-.11s1.37,0,2.05,0c.15,0,.32,0,.45-.09h0a8.42,8.42,0,0,0,3-.41c.38-.11.77-.26,1.16-.36,1.18-.31,2.33-.69,3.54-.89l.13,0C105.66,72.46,105,72.88,104.3,73.31ZM106,71.87h0v0Zm1.6-9.41v0h0Zm5.57,4.22c-.09-.21-.16-.42-.26-.62a20.28,20.28,0,0,0-1-1.89,23,23,0,0,1-1.69-3.46c-.23-.61-.4-1.24-.57-1.86a4.94,4.94,0,0,0-.42-1,3.39,3.39,0,0,1-.42-1.15c-.11-.64-.26-1.27-.38-1.91q-.06-.32-.09-.63c0-.48-.06-1-.1-1.46a2.73,2.73,0,0,0-.1-.48S108,52.1,108,52a1.54,1.54,0,0,0-.06.21c0,.25,0,.5,0,.74a28.78,28.78,0,0,0,.34,3.45,7.17,7.17,0,0,0,.7,2.06,14.08,14.08,0,0,1,1.13,2.65,13.26,13.26,0,0,0,1.63,3.47,20,20,0,0,1,1,1.73,4.83,4.83,0,0,1,.23.52l-.56.49a2.52,2.52,0,0,0,0-.82,2.37,2.37,0,0,0-1.23-1.5c-.25-.15-.49-.3-.73-.47a2.12,2.12,0,0,1-.94-1.64c0-.62-.12-1.23-.19-1.85a6,6,0,0,0-.16-.71A1.89,1.89,0,0,0,108,59a2.33,2.33,0,0,1-.75-.43,1.77,1.77,0,0,1-.69-1.45,6.21,6.21,0,0,1,.31-1.53,7.65,7.65,0,0,1,.31-.92,1.41,1.41,0,0,0-.1-1.22,4.22,4.22,0,0,0-.39-.61c-.16-.23-.34-.45-.49-.67a2.31,2.31,0,0,1-.36-1.82,7.08,7.08,0,0,1,1-2.29c.09-.14.19-.27.3-.43a1.14,1.14,0,0,1,1.17.09,3.45,3.45,0,0,1,1.41,1.7,2,2,0,0,1,.06,1.21c-.14.58-.32,1.15-.48,1.73-.06.22-.11.44-.17.66a1.3,1.3,0,0,0,.35,1.35,5.8,5.8,0,0,0,.58.52,3.11,3.11,0,0,1,.8,1,1.86,1.86,0,0,1,.09,1.33,5.05,5.05,0,0,0-.24,1.54,2.28,2.28,0,0,0,.91,1.76,14.21,14.21,0,0,0,1.2.83l.2.14a1.52,1.52,0,0,1,.62,1.32c0,.55,0,1.11,0,1.66,0,.22,0,.45,0,.68a2.81,2.81,0,0,0,.22,1Zm.62-26.54v0h0l.23,0h0c-.06-.14.06-.19.12-.27s.11-.14.06-.43a4.1,4.1,0,0,1,.56-.24.33.33,0,0,1,.26.07.22.22,0,0,1,0,.31,1.52,1.52,0,0,1-.37.3,5.45,5.45,0,0,1-.62.26h0Zm.56,1.06-.19-.21s0-.1.08-.12a3.53,3.53,0,0,1,.32-.21c.12-.09.28-.14.35-.26.21-.37.6-.47.91-.64l.61.12-.49.39a4.74,4.74,0,0,0-.58.5.92.92,0,0,1-.8.39C114.49,41.16,114.43,41.19,114.34,41.2ZM116,56.85A.61.61,0,0,1,116,57v0h0l-.15.09a.49.49,0,0,1-.77-.4,1.3,1.3,0,0,1,0-.34.45.45,0,0,1,.36-.42.52.52,0,0,1,.56.21A.67.67,0,0,1,116,56.85Zm0-8.37s-.12,0-.13-.1a.18.18,0,0,1,.07-.15.49.49,0,0,1,.44,0c.17.1.16.2,0,.36A.23.23,0,0,0,116.08,48.48Zm6.34-1.57c-.06.21-.16.42-.24.63a2.2,2.2,0,0,1-.15.26,1.48,1.48,0,0,0-.11,1.57,1.49,1.49,0,0,1-.1,1.27,16.27,16.27,0,0,1-1,1.79,10.78,10.78,0,0,0-.69,1.3,1.91,1.91,0,0,0-.15.69.32.32,0,0,1,.27-.11.35.35,0,0,1,.32.25.8.8,0,0,1,.07.25.67.67,0,0,1-.17.52.39.39,0,0,1-.22.09c.12.24.25.5.38.73a1.8,1.8,0,0,1,.1,1.6c-.22.58-.45,1.15-.72,1.71a2.13,2.13,0,0,0-.14.35c-.42.48-.83,1-1.25,1.43,0-1.16.07-2.33.21-3.49a12,12,0,0,0,.1-1.9,4.93,4.93,0,0,1,.24-1.48c.18-.73.38-1.45.53-2.19a7.34,7.34,0,0,1,.64-1.77,3.73,3.73,0,0,0,.2-.56.37.37,0,0,0-.08-.38.71.71,0,0,0-.15.08.49.49,0,0,0-.08.18l-1,3.26c-.18.59-.37,1.18-.54,1.78a5.72,5.72,0,0,0-.24,1.48c0,.67-.06,1.34-.09,2s0,1.21,0,1.81,0,1,0,1.53c-.62.68-1.26,1.34-1.91,2a4.61,4.61,0,0,1,0-.64,2.79,2.79,0,0,1,.44-1.07,1,1,0,0,1,.09-.13,1.3,1.3,0,0,0,.18-1.29c-.2-.55-.39-1.1-.57-1.66a11.85,11.85,0,0,1-.31-1.17,1.65,1.65,0,0,1,.19-1,6,6,0,0,1,.68-1.07c.28-.34.54-.7.8-1a1.79,1.79,0,0,0,.37-1.34c0-.45-.11-.9-.16-1.35a3.56,3.56,0,0,1,0-1,1.45,1.45,0,0,1,.64-1,3.17,3.17,0,0,0,.49-.4,1.71,1.71,0,0,0,.39-.88c.07-.34.11-.68.17-1s.09-.45.14-.67a1.48,1.48,0,0,1,1.1-1.14l.63-.13.28.19A1,1,0,0,1,122.42,46.91Zm-1.67,7.86,0,0,0,0,0,0Zm2-15.38a1.23,1.23,0,0,1-.66,0,.79.79,0,0,1,.74-.69l.68-.06C123.41,39.21,123.27,39.36,122.77,39.39Zm2.14,4.31h0s0,0,0,0Zm0-.21a3,3,0,0,1-.16.26l-.3.07a.68.68,0,0,1-.82-.57.67.67,0,0,1,.83-.71A.65.65,0,0,1,124.93,43.49Zm-.85-3.74c.1-.16.23-.07.36,0Zm1-.8a.79.79,0,0,1-.37.2,4,4,0,0,1-.68.06c.11-.21.16-.35.23-.47a.65.65,0,0,1,.36-.31,10.38,10.38,0,0,0,1-.47s0-.05.07-.11-.15-.11-.22-.11a2.44,2.44,0,0,0-.33.1l-.46.14c0-.45,0-.48.35-.55a5.49,5.49,0,0,1,1.32-.3h.23c-.06.24-.25.35-.39.48a2.61,2.61,0,0,0-.52.58A5.49,5.49,0,0,1,125.1,39Zm1,10.13h0v0Zm.21,1.84a1.8,1.8,0,0,1-.19-.2,2.67,2.67,0,0,1-.24-.61.64.64,0,0,1,.05-.33,2.28,2.28,0,0,1,.21-.51,1.48,1.48,0,0,1,1.5-.64C127.19,49.4,126.74,50.16,126.28,50.92Zm5.21-22.52-2,.92a1.43,1.43,0,0,0-.3.16,1.31,1.31,0,0,1-1.08.26c.11-.26.23-.53.37-.87a8.24,8.24,0,0,1,.72-.4,3.76,3.76,0,0,1,.6-.15l.55-.17c.13,0,.27-.08.36,0s.44.15.67.1a1.16,1.16,0,0,1,.42-.07A3.47,3.47,0,0,1,131.49,28.4Zm.14-.74h0a.7.7,0,0,1,.53-.45A1.61,1.61,0,0,1,131.63,27.66Zm3.09-1.89a0,0,0,0,0,0,0h0a1.17,1.17,0,0,1-.71.46l0,0,0,0-.11.12a.33.33,0,0,0,0-.06l.14-.06,0,0h0a1.17,1.17,0,0,1,.71-.46s0,0,0,0h0s0,0,0-.06l0,.05Zm.6-.67a.53.53,0,0,0-.43.09c-.14.08-.27.2-.46.17h0a1.25,1.25,0,0,1-.09.12.83.83,0,0,0-.08.12h0l.08-.12.09-.12h0l1-.81C135.37,24.73,135.34,24.92,135.32,25.1Zm.21-1.61a4.52,4.52,0,0,1-.49.25,3.55,3.55,0,0,0-.71.41A11.55,11.55,0,0,1,133,25c-.23.14-.45.29-.71.43v-.57a3.75,3.75,0,0,1,.36-.27,15.24,15.24,0,0,0,2.51-1.86,5.84,5.84,0,0,1,.48-.39C135.59,22.74,135.57,23.12,135.53,23.49Zm.13-1.57c-.13.08-.24.18-.37.26a3.12,3.12,0,0,0-.73.57,7.08,7.08,0,0,1-1.23.95,13.07,13.07,0,0,1-1.77,1,2.32,2.32,0,0,1-.51.16.25.25,0,0,1-.31-.19c.11-.21.34-.28.52-.4.5-.31,1-.6,1.52-.89s1.09-.58,1.61-.91a3.79,3.79,0,0,0,1.14-.84.22.22,0,0,1,.07-.06.47.47,0,0,1,.09-.06Z"/><path class="cls-4" d="M97.73,58.08c-.08,0-.07-.13,0-.23s-.13-.43-.37-.39a1.09,1.09,0,0,0-.34.13.4.4,0,0,0-.24.41.43.43,0,0,0,.28.39,1,1,0,0,0,.65,0A.45.45,0,0,0,98,58S98,58,98,58.05,97.79,58.11,97.73,58.08Z"/><path class="cls-4" d="M68.38,55.9c-1.44,0-1.84,1.41-1.84,3.21s.4,3.23,1.84,3.23,1.84-1.42,1.84-3.23S69.82,55.9,68.38,55.9Z"/><path class="cls-4" d="M39.23,38.67c0-.15-.14-.17-.25-.19a5.48,5.48,0,0,0-.57,0c-.07,0-.14.07-.24.13a.85.85,0,0,0,.78.31C39.13,38.87,39.24,38.78,39.23,38.67Z"/><path class="cls-4" d="M68.4,76.71h0v-.08h0v0h-.08v0Z"/><path class="cls-4" d="M68.42,76.72l.2.1h0v-.07s0,0,0,0,0,0,0,0h-.18Z"/><path class="cls-4" d="M64.92,67a1.18,1.18,0,0,0-.73-.07c.13.11.24.06.35.08s.49.05.63.3.2.33.29.51a3.09,3.09,0,0,1,.14.46.19.19,0,0,1-.14.22c-.15-.09-.14-.09-.15-.23a.76.76,0,0,0-.27-.53c-.1-.09-.23-.16-.29-.28s-.36-.18-.54-.19a3.8,3.8,0,0,0-.75.06.3.3,0,0,0-.16,0,1.43,1.43,0,0,0-.38,1.74,1.68,1.68,0,0,0,1.89.9,1.66,1.66,0,0,0,1-.66,1.41,1.41,0,0,0,.26-1.13A1.67,1.67,0,0,0,64.92,67Z"/><path class="cls-4" d="M101.08,46a1.55,1.55,0,0,1,.94-.11,2.65,2.65,0,0,0,.12-.3c0-.25,0-.32-.27-.35a1,1,0,0,0-.7.14,2.63,2.63,0,0,1-1.41.49,1.08,1.08,0,0,0-.58.18A8,8,0,0,0,101.08,46Z"/><path class="cls-4" d="M102,44.7s.09-.11.14-.17-.13-.12-.18-.12a4,4,0,0,0-1.24.38c.16.05.21.09.25.08A1.66,1.66,0,0,1,102,44.7Z"/><path class="cls-4" d="M25.46,34.61c.38,0,.73.28,1.14.21a.49.49,0,0,1,.29,0,3.3,3.3,0,0,0,1.53,0,.34.34,0,0,0,.35-.28c0-.14-.1-.25-.34-.29-.78-.13-1.57-.23-2.35-.34-.24.05-.48.09-.71.16a.27.27,0,0,0-.15.22c0,.07.1.15.15.22A.11.11,0,0,0,25.46,34.61Z"/><path class="cls-4" d="M39.27,71.82c0,.09,0,.17.09.2h0v-.19h-.11Z"/><path class="cls-4" d="M90.18,39.43a4,4,0,0,0,1.15-.3c.2-.09.44-.11.65-.18s.46-.14.69-.23a8.59,8.59,0,0,0,1.63-1.09.65.65,0,0,0-.14,0,14.7,14.7,0,0,0-3.81,1.61A.86.86,0,0,0,90.18,39.43Z"/><path class="cls-4" d="M65.56,82.87h0l0,0Z"/><path class="cls-4" d="M66.52,83.15l0,0,0,0v0Z"/><path class="cls-4" d="M65.56,82.87a.86.86,0,0,0-.57-.16A.81.81,0,0,0,65.56,82.87Z"/><path class="cls-4" d="M17.43,27.79h.12l-.11-.05A.11.11,0,0,0,17.43,27.79Z"/><path class="cls-4" d="M17.58,27.81v0h0a0,0,0,0,0,0,0Z"/><path class="cls-4" d="M66.52,83.15a2,2,0,0,0-.91-.26A1.57,1.57,0,0,0,66.52,83.15Z"/><path class="cls-4" d="M39,59.21a1,1,0,0,0,1.07.45,1.14,1.14,0,0,0,.7-1.45l0-.05a.39.39,0,0,0-.17.29.15.15,0,0,1-.17.14c-.1,0-.12-.09-.12-.18a.54.54,0,0,0,0-.22c0-.21-.08-.41-.36-.46s-.2-.14-.06-.34a1.07,1.07,0,0,0-.61.24A1.22,1.22,0,0,0,39,59.21Z"/><path class="cls-4" d="M61.61,62.34c1.43,0,1.85-1.42,1.85-3.23S63,55.9,61.61,55.9s-1.84,1.41-1.84,3.21S60.18,62.34,61.61,62.34Z"/><path class="cls-4" d="M53.73,55.62a6.81,6.81,0,0,0-2.55,3.76A3.29,3.29,0,0,0,52.63,63c4,2.95,9.35-2.35,6.74-6.58-3.26-5.27-9.67-2.13-9.75,3.58-.08,5.94,6,7.08,9.46,2.74s-1.8-9.56-6.24-6.85a3.11,3.11,0,0,0-1.56,2.72c1.12,9.56,14.87,3,20.29,5.18l1.68-6.1c-5.43-2.09-11.07-5.21-17-3.79-2.92.69-2.79,4.27-.75,5.78,4.14,3.08,11.85,1.15,16.19-.32,2.67-.9,3.34-5.58,0-6.1-4.48-.68-12.38,4.38-8.62,9.73,3.15,4.46,13.13,5.13,13.34-1.79a3.14,3.14,0,0,0-1.57-2.73,5.4,5.4,0,0,0-3.68-.89c-2.65.21-4.31,3.33-2.23,5.4,4,4,12.48,2.58,13.69-3.49a3.21,3.21,0,0,0-2.21-3.89l-.5-.12a3.13,3.13,0,0,0-3.08.81c-4.18,5.26,4.31,10.19,8.49,6,5.31-5.34-4.72-13.13-7.65-6.85C75,61.1,82.56,66.5,86,60.56a4.94,4.94,0,0,0-1.9-6.8c-4.55-2.66-8.84.67-13.47.78-4.07.09-4.08,6.41,0,6.32,1.52,0,11.42-1.85,11.07-2.76l-.81,3.08.35-.46-3.07.82.5.12L76.5,57.77c-.28,1.4-2.29,1.53-3.12.69l-2.24,5.4.49,0-1.56-2.73c0,.32,0,.64,0,1L71.6,59.4c-2.53,1.85-2.95-.28-1.62-.08v-6.1c-2.71.92-8.62,3-11.31,1-.25,1.92-.51,3.85-.76,5.78,4.37-1,9.76,2.29,13.66,3.79s5.42-4.62,1.68-6.1a13,13,0,0,0-7.16-.89c-1.91.31-3.81.7-5.74.86s-3-1.11-2.74,1c-.53.92-1,1.82-1.57,2.74C56,60,55.9,58.77,55.82,57.5l1.46,3.57a2.23,2.23,0,0,1,.92-1c3.06-2.71-1.43-7.17-4.47-4.47Z"/><path class="cls-4" d="M18.47,61.39l2.12,1.38a7.59,7.59,0,0,0,7.79,0l1.73-1.12c7-4.53,2.53-17.51-5.94-14.11l-2.58,1Q25.36,55,29.1,61.47C33.34,58,34.39,54.11,35,48.81H19.53C18,68.11,23,77,41.17,82.74c6,1.88,11.8,1.2,17.69,4,3.6,1.73,6.91,2.15,10.83,2.43,5.43.39,15.44-5.67,20.1-8.25l-9.36-1.21c11.33,9.28,18.67,7.2,31.43,2.5a12.49,12.49,0,0,0,7.45-7c.74-2,.11-17.29-1.06-16.33l-9.34,1.21c6,4.08,13.76,2.59,18.45-2.49,6.73-7.3-4.15-18.23-10.92-10.91l.26.08c-3-2.08-6.81-.91-9.36,1.2s-4.41,6.13-4,9.38a82.69,82.69,0,0,0,1.63,9.5c1.65,6.93-18.3-1.87-13.63,2-2.76-2.27-6.07-3-9.34-1.21-3.69,2-8.25,2.28-12.09,4.37s-7.52-.52-11.29-2.06c-5.62-2.3-12.41-1.77-18.26-3.6-7.75-2.43-5.9-11.06-5.4-17.51.78-10-14.39-9.72-15.43,0l-1.34,1.75c-5.81,4.8.4,15.74,7.51,12.9l2.57-1q-3-7.05-5.94-14.1l-1.74,1.12h7.79l-2.13-1.38C17.89,42.61,10.16,56,18.47,61.39Z"/></g></g></g></svg>